<svg width="1200" height="630" viewBox="0 0 1200 630" fill="none" xmlns="http://www.w3.org/2000/svg">
<g clip-path="url(#clip0_313_4871)">
<g clip-path="url(#clip1_313_4871)">
<mask id="mask0_313_4871" style="mask-type:luminance" maskUnits="userSpaceOnUse" x="-238" y="-156" width="1676" height="942">
<path d="M1438 -156H-238V786H1438V-156Z" fill="white"/>
</mask>
<g mask="url(#mask0_313_4871)">
<path d="M1438 -156H-238V786H1438V-156Z" fill="url(#paint0_linear_313_4871)"/>
<mask id="mask1_313_4871" style="mask-type:alpha" maskUnits="userSpaceOnUse" x="-589" y="-745" width="2349" height="2080">
<path d="M1335.4 -744.147L-588.452 -220.801L-164.732 1334.34L1759.12 810.996L1335.4 -744.147Z" fill="url(#paint1_linear_313_4871)"/>
</mask>
<g mask="url(#mask1_313_4871)">
<path fill-rule="evenodd" clip-rule="evenodd" d="M284.263 -160.528L282.336 -164.133L282.756 -160.068L279.148 -158.143L283.217 -158.563L285.143 -154.958L284.723 -159.023L288.331 -160.948L284.263 -160.528ZM700.516 -141.555L696.099 -144.303L691.883 -141.253L694.633 -145.669L691.578 -149.882L696.003 -147.134L700.22 -150.184L697.47 -145.768L700.516 -141.555ZM-226.236 -134.856L-226.233 -133.37L-225.673 -134.747L-224.186 -134.75L-225.564 -135.309L-225.567 -136.795L-226.126 -135.418L-227.614 -135.415L-226.236 -134.856ZM-21.81 179.064L-17.7212 178.986L-16.2486 175.173L-16.1701 179.259L-12.3537 180.73L-16.4433 180.809L-17.9159 184.621L-17.9945 180.536L-21.81 179.064ZM1305.82 511.65L1305.91 513.878L1308.01 514.644L1305.77 514.726L1305 516.819L1304.92 514.592L1302.83 513.826L1305.05 513.744L1305.82 511.65ZM824.671 760.208L822.306 757.845L823.606 760.924L821.241 763.296L824.331 761.997L826.696 764.352L825.396 761.273L827.761 758.9L824.671 760.208ZM1038.13 299.774L1038.27 303.857L1042.11 305.262L1038.03 305.412L1036.62 309.249L1036.48 305.166L1032.63 303.761L1036.72 303.611L1038.13 299.774ZM120.513 613.082L123.554 610.946L122.725 607.324L124.863 610.364L128.487 609.535L125.445 611.671L126.275 615.292L124.137 612.253L120.513 613.082ZM784.613 145.912L780.397 148.261L785.189 147.681L787.546 151.901L786.961 147.106L791.186 144.757L786.385 145.337L784.037 141.117L784.613 145.912ZM-53.7727 689.628L-50.0837 689.169L-49.1148 685.582L-48.6548 689.269L-45.0654 690.237L-48.7552 690.696L-49.7232 694.283L-50.1833 690.596L-53.7727 689.628ZM1377.74 712.425L1372.72 713.78L1377.88 714.423L1379.24 719.441L1379.89 714.283L1384.91 712.928L1379.74 712.285L1378.39 707.264L1377.74 712.425ZM-13.0415 289.065L-17.8749 289.158L-19.6146 293.664L-19.708 288.835L-24.2175 287.097L-19.3841 287.004L-17.6444 282.498L-17.551 287.326L-13.0415 289.065ZM-186.013 340.383L-186.019 337.039L-187.278 340.138L-190.625 340.144L-187.524 341.401L-187.518 344.745L-186.259 341.647L-182.913 341.641L-186.013 340.383ZM1117.63 696.843L1116.71 692.104L1115.77 696.843L1111.03 697.774L1115.77 698.704L1116.71 703.443L1117.63 698.704L1122.38 697.774L1117.63 696.843ZM1333.58 491.527L1334.2 489.002L1332.1 487.47L1334.63 488.094L1336.17 485.993L1335.54 488.518L1337.64 490.051L1335.11 489.425L1333.58 491.527ZM-154.11 581.336L-153.238 580.132L-154.501 580.917L-155.706 580.047L-154.92 581.308L-155.792 582.511L-154.529 581.727L-153.324 582.598L-154.11 581.336ZM926.209 488.749L921.792 490.722L921.949 495.549L919.976 491.14L915.149 491.301L919.557 489.328L919.4 484.501L921.373 488.91L926.209 488.749ZM208.751 509.795L208.565 507.201L207.756 509.673L205.16 509.859L207.634 510.667L207.82 513.261L208.629 510.789L211.225 510.603L208.751 509.795ZM370.309 -137.597L366.915 -139.876L363.52 -137.597L365.801 -140.989L363.52 -144.381L366.915 -142.102L370.309 -144.381L368.029 -140.989L370.309 -137.597ZM1223.27 263.534L1227.32 260.896L1222.57 261.808L1219.94 257.763L1220.85 262.505L1216.8 265.143L1221.55 264.231L1224.19 268.276L1223.27 263.534ZM1142.54 124.941L1142.81 126.781L1144.61 127.233L1142.77 127.495L1142.32 129.296L1142.05 127.457L1140.26 127.005L1142.1 126.743L1142.54 124.941ZM-154.459 -131.13L-153.003 -130.823L-154.235 -131.656L-153.928 -133.111L-154.762 -131.88L-156.217 -132.186L-154.986 -131.353L-155.292 -129.899L-154.459 -131.13ZM-78.9965 181.708L-78.3226 184.603L-75.3852 185.073L-78.2824 185.746L-78.7529 188.681L-79.4268 185.786L-82.3642 185.316L-79.467 184.642L-78.9965 181.708ZM1275.28 167.399L1277.3 164.279L1274.25 166.405L1271.12 164.387L1273.25 167.434L1271.23 170.554L1274.28 168.428L1277.4 170.446L1275.28 167.399ZM494.746 191.042L497.345 189.595L496.988 186.645L498.434 189.242L501.387 188.885L498.789 190.331L499.146 193.281L497.699 190.684L494.746 191.042ZM1352.15 701.444L1352.69 696.27L1350.24 700.859L1345.06 700.324L1349.65 702.774L1349.11 707.948L1351.56 703.36L1356.74 703.894L1352.15 701.444ZM382.654 296.267L385.6 296.676L387.092 294.104L386.684 297.049L389.257 298.539L386.31 298.131L384.818 300.703L385.228 297.758L382.654 296.267ZM1168.22 488.628L1168.09 487.148L1167.65 488.568L1166.16 488.7L1167.59 489.137L1167.72 490.618L1168.16 489.197L1169.64 489.065L1168.22 488.628ZM734.866 449.866L737.816 449.498L738.584 446.628L738.96 449.578L741.831 450.352L738.872 450.72L738.104 453.589L737.738 450.639L734.866 449.866ZM1049.39 51.9378L1052.13 50.0155L1048.86 50.7621L1046.93 48.0259L1047.68 51.2854L1044.94 53.2087L1048.21 52.4621L1050.13 55.1973L1049.39 51.9378ZM-34.6776 32.4829L-31.9541 35.0124L-28.5812 33.4485L-31.1126 36.1698L-29.5466 39.5401L-32.271 37.0106L-35.6431 38.5745L-33.1125 35.8532L-34.6776 32.4829ZM-26.4993 690.204L-26.5936 692.059L-25.8044 690.377L-23.9478 690.471L-25.6316 689.683L-25.5373 687.828L-26.3264 689.51L-28.1831 689.416L-26.4993 690.204ZM1412.04 665.845L1414.25 665.57L1414.83 663.417L1415.1 665.629L1417.26 666.21L1415.05 666.486L1414.47 668.638L1414.19 666.426L1412.04 665.845ZM-210.389 379.729L-205.232 380.444L-209.736 377.835L-209.021 372.683L-211.631 377.182L-216.787 376.468L-212.284 379.077L-212.999 384.229L-210.389 379.729ZM-192.265 499.397L-191.414 501.854L-188.815 501.995L-191.274 502.846L-191.415 505.443L-192.267 502.986L-194.866 502.845L-192.406 501.994L-192.265 499.397ZM1286.34 350.803L1284.15 347.802L1285.04 351.408L1282.04 353.597L1285.64 352.705L1287.83 355.707L1286.94 352.1L1289.94 349.911L1286.34 350.803ZM649.905 122.153L648.377 125.944L651.31 128.788L647.522 127.264L644.676 130.199L646.195 126.407L643.262 123.563L647.059 125.087L649.905 122.153ZM743.883 600.11L742.809 604.438L745.437 600.836L749.766 601.907L746.161 599.28L747.235 594.953L744.607 598.554L740.278 597.484L743.883 600.11ZM39.8991 289.813L39.7464 291.291L41.0583 291.992L39.5788 291.839L38.8778 293.15L39.0314 291.672L37.7194 290.971L39.1982 291.124L39.8991 289.813ZM1110.25 361.275L1109.57 366.059L1112 361.881L1116.79 362.545L1112.61 360.122L1113.27 355.338L1110.85 359.517L1106.06 358.853L1110.25 361.275ZM326.761 397.18L325.827 398.336L326.547 399.638L325.389 398.705L324.087 399.422L325.021 398.266L324.302 396.965L325.46 397.898L326.761 397.18ZM659.114 135.582L663.636 137.305L660.1 134.004L661.829 129.492L658.52 133.019L654.007 131.296L657.534 134.597L655.814 139.109L659.114 135.582ZM942.323 206.933L941.232 205.432L939.425 205.879L940.926 204.784L940.481 202.981L941.572 204.482L943.379 204.035L941.878 205.13L942.323 206.933ZM206.373 597.249L208.314 592.423L204.692 596.158L199.862 594.218L203.6 597.839L201.658 602.665L205.281 598.929L210.111 600.869L206.373 597.249ZM411.593 495.971L416.15 498.485L420.201 495.219L417.686 499.772L420.954 503.82L416.397 501.307L412.346 504.573L414.861 500.019L411.593 495.971ZM133.573 -100.08L132.214 -99.4731L133.701 -99.5223L134.309 -98.1658L134.26 -99.6511L135.617 -100.258L134.13 -100.209L133.523 -101.565L133.573 -100.08ZM988.238 382.545L987.217 386.118L990.141 388.411L986.562 387.393L984.275 390.316L985.288 386.743L982.364 384.451L985.943 385.469L988.238 382.545ZM804.489 703.373L801.251 699.79L802.901 704.33L799.313 707.569L803.852 705.925L807.099 709.509L805.45 704.967L809.037 701.729L804.489 703.373ZM20.7796 -145.626L21.6517 -146.83L20.8661 -148.091L22.0707 -147.22L23.3329 -148.005L22.4609 -146.801L23.2474 -145.54L22.0419 -146.411L20.7796 -145.626ZM-211.966 83.3588L-213.984 87.3352L-210.612 84.4159L-206.632 86.4334L-209.554 83.0631L-207.535 79.0875L-210.908 82.006L-214.887 79.9894L-211.966 83.3588ZM807.527 135.678L812.354 136.006L814.476 131.669L814.153 136.488L818.491 138.613L813.672 138.284L811.543 142.622L811.874 137.803L807.527 135.678ZM1012.71 531.111L1017.54 531.355L1013.17 529.306L1013.41 524.483L1011.36 528.856L1006.53 528.612L1010.91 530.661L1010.66 535.485L1012.71 531.111ZM541.787 7.75891L540.225 6.75063L538.701 7.813L539.71 6.25346L538.647 4.72969L540.208 5.73885L541.733 4.67648L540.723 6.23602L541.787 7.75891ZM473.605 286.041L469.564 285.409L473.067 287.52L472.435 291.557L474.547 288.058L478.588 288.69L475.086 286.579L475.718 282.541L473.605 286.041ZM-107.24 383.763L-106.231 381.776L-107.691 380.091L-105.702 381.099L-104.015 379.64L-105.024 381.627L-103.564 383.312L-105.553 382.304L-107.24 383.763ZM-235.949 339.682L-234.056 343.72L-234.281 339.267L-230.241 337.375L-234.697 337.601L-236.59 333.564L-236.364 338.016L-240.405 339.907L-235.949 339.682ZM806.471 135.061L803.887 135.382L803.215 137.894L802.892 135.313L800.378 134.635L802.962 134.313L803.634 131.803L803.957 134.383L806.471 135.061ZM1034.05 -122.029L1037.95 -119.874L1035.15 -123.344L1037.31 -127.247L1033.84 -124.448L1029.93 -126.602L1032.73 -123.132L1030.57 -119.229L1034.05 -122.029ZM435.259 583.992L440.065 583.479L441.405 578.839L441.919 583.64L446.563 584.98L441.757 585.494L440.416 590.134L439.903 585.331L435.259 583.992ZM336.102 688.354L332.883 687.438L335.517 689.502L334.6 692.718L336.665 690.086L339.884 691.002L337.25 688.939L338.167 685.723L336.102 688.354ZM1288.79 764.343L1290.59 768.015L1294.68 767.736L1291 769.532L1291.28 773.615L1289.48 769.942L1285.4 770.221L1289.07 768.425L1288.79 764.343ZM1421.41 505.076L1423.93 504.398L1421.34 504.076L1420.66 501.565L1420.34 504.146L1417.83 504.824L1420.41 505.145L1421.09 507.656L1421.41 505.076ZM7.38995 595.078L9.12183 593.672L8.47324 591.54L9.88037 593.269L12.0147 592.621L10.2837 594.027L10.9323 596.161L9.52512 594.43L7.38995 595.078ZM746.606 58.2876L746.816 61.2523L747.741 58.4272L750.709 58.2144L747.881 57.2907L747.671 54.3269L746.746 57.152L743.778 57.3639L746.606 58.2876ZM43.2232 271.886L44.6364 269.703L43.1481 267.569L45.333 268.982L47.4682 267.494L46.054 269.678L47.5433 271.811L45.3575 270.398L43.2232 271.886ZM98.3505 260.182L100.187 260.469L101.147 258.878L100.86 260.714L102.451 261.673L100.615 261.385L99.6546 262.976L99.9427 261.141L98.3505 260.182ZM496.774 8.79337L497.734 10.3843L497.447 8.54915L499.038 7.58884L497.202 7.87666L496.242 6.28574L496.529 8.1209L494.938 9.08034L496.774 8.79337ZM328.064 225.067L328.626 222.148L326.134 220.525L329.055 221.087L330.679 218.598L330.117 221.516L332.609 223.139L329.688 222.578L328.064 225.067ZM-107.306 692.516L-104.205 691.258L-107.552 691.252L-108.811 688.154L-108.817 691.498L-111.918 692.756L-108.571 692.762L-107.312 695.86L-107.306 692.516ZM439.06 453.932L438.416 448.77L433.391 447.415L438.556 446.772L439.912 441.75L440.557 446.911L445.582 448.267L440.416 448.91L439.06 453.932ZM637.998 -119.312L640.739 -122.83L636.872 -120.608L633.352 -123.346L635.58 -119.481L632.836 -115.963L636.706 -118.186L640.224 -115.447L637.998 -119.312ZM1325.31 -23.7492L1327.55 -21.8033L1330.2 -23.1483L1328.26 -20.9014L1329.6 -18.2507L1327.36 -20.1967L1324.7 -18.8526L1326.65 -21.0986L1325.31 -23.7492ZM-217.811 740.174L-219.753 744.997L-216.13 741.264L-211.3 743.209L-215.038 739.589L-213.097 734.757L-216.719 738.49L-221.549 736.554L-217.811 740.174ZM1158.73 -83.4799L1158.38 -88.2972L1153.79 -89.798L1158.61 -90.1436L1160.11 -94.7343L1160.46 -89.9169L1165.05 -88.4161L1160.23 -88.0706L1158.73 -83.4799ZM864.965 635.465L860.251 637.672L865.445 637.408L867.654 642.118L867.392 636.924L872.105 634.717L866.912 634.98L864.703 630.27L864.965 635.465ZM1181.76 660.836L1181.43 658.255L1178.92 657.578L1181.5 657.256L1182.18 654.745L1182.5 657.325L1185.01 658.003L1182.43 658.325L1181.76 660.836ZM630.02 469.411L632.771 464.995L628.554 468.045L624.134 465.297L627.187 469.51L624.436 473.926L628.653 470.877L633.072 473.625L630.02 469.411ZM148.675 -139.408L150.862 -143.715L147.697 -147.366L152.008 -145.181L155.661 -148.343L153.474 -144.036L156.639 -140.385L152.328 -142.57L148.675 -139.408ZM32.7124 380.633L34.8257 384.132L34.1929 380.095L37.695 377.984L33.6543 378.616L31.5418 375.116L32.1738 379.154L28.6717 381.265L32.7124 380.633ZM-214.452 228.944L-211.783 226.927L-212.644 223.696L-210.625 226.363L-207.391 225.503L-210.06 227.521L-209.2 230.751L-211.218 228.085L-214.452 228.944ZM563.082 -126.118L563.321 -122.783L564.361 -125.961L567.699 -126.2L564.518 -127.239L564.279 -130.574L563.239 -127.396L559.901 -127.157L563.082 -126.118ZM807.693 676.344L808.217 680.022L811.822 680.928L808.138 681.451L807.239 685.054L806.707 681.376L803.102 680.471L806.785 679.947L807.693 676.344ZM1178.63 775.019L1174.54 774.74L1178.22 776.536L1177.94 780.618L1179.74 776.946L1183.82 777.225L1180.15 775.429L1180.43 771.347L1178.63 775.019ZM1067.64 80.5834L1071.91 82.8433L1075.62 79.7452L1073.36 84.0138L1076.46 87.719L1072.19 85.4591L1068.48 88.5572L1070.74 84.2886L1067.64 80.5834ZM1161.56 477.714L1165.55 481.05L1163.11 476.454L1166.45 472.463L1161.85 474.897L1157.85 471.56L1160.29 476.157L1156.96 480.147L1161.56 477.714ZM371.318 -33.4492L370.173 -35.7842L367.577 -35.608L369.914 -36.7514L369.738 -39.3463L370.882 -37.0114L373.479 -37.1876L371.142 -36.0432L371.318 -33.4492ZM-167.094 630.002L-168.336 631.385L-166.663 630.574L-165.279 631.814L-166.091 630.143L-164.85 628.76L-166.522 629.571L-167.906 628.331L-167.094 630.002ZM403.377 235.494L405.43 234.62L405.395 232.391L406.27 234.442L408.5 234.407L406.448 235.282L406.483 237.51L405.608 235.46L403.377 235.494ZM689.16 44.701L687.204 42.462L688.165 45.2732L685.93 47.2278L688.741 46.2649L690.696 48.5048L689.736 45.6927L691.97 43.739L689.16 44.701ZM70.2618 494.088L69.2527 495.648L70.3159 497.172L68.7551 496.162L67.2301 497.226L68.2401 495.665L67.176 494.142L68.7377 495.151L70.2618 494.088ZM74.8621 101.625L70.4835 102.483L74.8621 103.341L75.721 107.716L76.58 103.341L80.9585 102.483L76.58 101.625L75.721 97.2498L74.8621 101.625ZM-64.1726 -6.6624L-66.0311 -6.69206L-66.7608 -4.98338L-66.732 -6.84033L-68.4421 -7.56952L-66.5827 -7.53986L-65.853 -9.24854L-65.8827 -7.39159L-64.1726 -6.6624ZM709.883 683.967L711.332 679.749L708.399 683.108L704.174 681.665L707.535 684.595L706.094 688.814L709.027 685.454L713.243 686.898L709.883 683.967ZM455.469 262.866L456.928 259.049L453.942 256.256L457.763 257.713L460.558 254.729L459.098 258.548L462.084 261.34L458.264 259.883L455.469 262.866ZM338.724 235.369L337.19 231.182L337.027 235.637L332.837 237.17L337.296 237.333L338.829 241.52L338.993 237.064L343.183 235.532L338.724 235.369ZM74.7442 612.548L71.2735 615.91L73.0761 620.391L69.7119 616.923L65.2268 618.724L68.6984 615.363L66.8958 610.881L70.2592 614.35L74.7442 612.548ZM882.45 -1.70906L880.878 -0.72258L882.711 -1.04181L883.698 0.531677L883.375 -1.29823L884.955 -2.28473L883.122 -1.96548L882.135 -3.53986L882.45 -1.70906ZM273.666 58.1926L273.816 55.2244L271.123 53.964L274.094 54.114L275.355 51.4224L275.205 54.3905L277.899 55.6518L274.928 55.5017L273.666 58.1926ZM1208.68 -70.2259L1205.68 -74.4813L1206.84 -69.4112L1202.58 -66.4201L1207.65 -67.581L1210.65 -63.3254L1209.49 -68.3957L1213.75 -71.387L1208.68 -70.2259ZM503.067 355.482L505.412 358.364L508.97 357.285L506.085 359.628L507.165 363.182L504.82 360.3L501.263 361.38L504.148 359.037L503.067 355.482ZM138.787 229.559L140.429 231.576L139.673 229.089L141.693 227.448L139.202 228.204L137.56 226.186L138.317 228.674L136.297 230.314L138.787 229.559ZM1041.84 495.182L1045.95 498.376L1050.46 495.784L1047.26 499.888L1049.86 504.397L1045.75 501.203L1041.23 503.795L1044.43 499.69L1041.84 495.182ZM730.798 60.9671L730.195 62.7246L731.418 61.3247L733.181 61.9265L731.775 60.7054L732.378 58.9479L731.156 60.3478L729.401 59.746L730.798 60.9671ZM964.87 632.482L966.974 628.975L964.521 625.707L968.03 627.805L971.295 625.352L969.2 628.859L971.653 632.127L968.144 630.028L964.87 632.482ZM1407.74 105.716L1408.02 103.504L1406.92 105.451L1404.72 105.184L1406.66 106.268L1406.39 108.481L1407.48 106.533L1409.69 106.801L1407.74 105.716ZM-171.027 454.796L-166.608 455.409L-164.37 451.552L-164.983 455.968L-161.123 458.203L-165.543 457.591L-167.78 461.448L-167.167 457.032L-171.027 454.796ZM256.592 767.021L257.349 764.535L255.707 766.558L253.216 765.799L255.236 767.439L254.479 769.925L256.121 767.91L258.612 768.669L256.592 767.021Z" fill="#D9D9D9"/>
</g>
</g>
</g>
<mask id="mask2_313_4871" style="mask-type:luminance" maskUnits="userSpaceOnUse" x="23" y="23" width="1154" height="583">
<path d="M1177 23H23V606H1177V23Z" fill="white"/>
</mask>
<g mask="url(#mask2_313_4871)">
<path fill-rule="evenodd" clip-rule="evenodd" d="M565.829 42.5424C556.362 53.7935 535.638 73.3352 519.771 85.9725C503.412 98.9988 485.557 118.371 478.53 130.72C471.711 142.695 461.254 159.807 455.287 168.751C439.089 193.033 384.55 232.057 348.922 244.855C296.534 263.669 272.278 281.239 253.773 313.775C248.437 323.154 253.681 320.423 274.797 302.817C314.224 269.947 331.352 268.789 365.415 296.691C374.582 304.198 383.681 310.343 385.637 310.343C387.594 310.343 389.192 302.108 389.192 292.042C389.192 281.976 391.259 273.74 393.792 273.74C400.564 273.74 453.653 222.138 453.653 215.549C453.653 201.37 505.516 189.616 522.069 200.038C526.562 202.866 520.978 207.322 502.27 215.833C472.457 229.399 449.049 244.942 449.049 251.173C449.049 258.312 458.994 256.152 496.192 240.934C515.788 232.917 532.894 227.422 534.202 228.717C535.504 230.016 534.252 237.694 531.416 245.779C524.463 265.591 529.077 268.405 546.946 255.259C557.905 247.197 567.956 244.251 584.877 244.146C607.867 243.999 607.898 244.022 609.376 260.013C610.191 268.821 612.554 277.757 614.625 279.871C616.703 281.985 630.276 273.021 644.798 259.953C698.913 211.258 735.27 210.937 781.948 258.745C800.021 277.258 802.893 282.342 797.709 286.615C786.364 295.972 756.946 306.294 716.756 315.024L677.36 323.58L628.816 305.064C528.911 266.959 526.323 266.364 498.292 275.144C484.691 279.405 467.084 282.891 459.164 282.891C449.915 282.891 439.356 287.571 429.642 295.98C408.019 314.699 391.688 321.965 351.284 330.851C328.797 335.796 308.919 343.543 297.34 351.88C287.165 359.204 275.897 363.899 272.03 362.421C262.844 358.921 250.052 337.681 235.379 301.559C220.848 265.796 211.266 254.303 199.156 258.124C192.599 260.191 186.623 256.577 176.572 244.462C169.058 235.397 161.216 227.985 159.149 227.985C157.087 227.985 154.102 234.83 152.523 243.19C145.207 281.957 106.595 319.361 57.0106 335.728C38.4781 341.845 34.6565 345.003 34.6565 354.175C34.6565 360.266 37.2488 365.23 40.4119 365.202C56.5134 365.079 98.7952 339.118 127.057 312.008L158.721 281.633L163.753 294.791L168.791 307.951L177.046 297.069L185.306 286.19L197.558 318.053C215.571 364.896 241.457 393.136 278.688 406.556C306.319 416.512 389.192 425.658 389.192 418.75C389.192 417.363 377.276 412.851 362.717 408.729C331.707 399.94 297.105 384.305 297.105 379.075C297.105 377.063 304.366 374.065 313.238 372.409C322.111 370.757 333.414 365.093 338.355 359.822C346.413 351.224 348.793 350.841 361.533 356.084C375.039 361.643 377.28 360.86 407.794 339.955C425.428 327.876 441.014 319.133 442.423 320.533C443.832 321.933 441.755 330.759 437.809 340.147C429.848 359.076 428.334 378.975 434.853 378.975C437.179 378.975 442.695 369.192 447.115 357.242C454.841 336.345 475.929 309.167 490.589 301.215C501.174 295.469 538.866 303.823 582.575 321.599C604.101 330.352 635.406 341.69 652.137 346.791C668.869 351.888 690.391 362.247 699.963 369.806C709.535 377.364 720.19 383.551 723.643 383.551C737.051 383.551 728.874 391.265 707.288 398.979C680.611 408.509 642.431 431.689 642.431 438.355C642.431 447.858 660.485 442.409 710.272 417.866C760.644 393.035 777.288 388.314 782.865 397.277C787.556 404.817 802.635 402.456 809.192 393.154C818.037 380.604 842.974 379.025 851.437 390.478C857.984 399.34 858.265 399.253 862.985 386.982C870.154 368.319 884.948 370.652 943.589 399.693C974.056 414.777 1007.6 427.621 1026.71 431.52C1062.62 438.84 1070.67 437.256 1047.17 427.488C977.947 398.732 874.054 344.856 860.711 330.795L845.434 314.699L815.008 335.398C794.241 349.528 779.821 356.097 769.581 356.097C753.332 356.097 712.957 343.849 709.181 337.773C707.901 335.714 720.641 329.601 737.497 324.188C754.354 318.776 780.208 308.298 794.942 300.909C825.612 285.521 829.926 284.894 840.377 294.292C846.801 300.067 849.273 300.168 856.465 294.947C864.095 289.402 867.575 291.428 890.675 314.84C921.068 345.652 950.628 358.496 1013.08 368.017C1061.76 375.437 1116.68 376.395 1116.68 369.824C1116.68 367.307 1112.34 365.249 1107.04 365.249C1088.14 365.249 1003.51 346.178 983.154 337.329C970.754 331.94 951.273 316.443 934.638 298.745C908.54 270.967 905.588 269.16 886.292 269.063C873.018 268.995 861.668 265.792 854.232 260.013C839.659 248.684 836.404 248.717 823.968 260.324L813.829 269.791L796.926 255.04C761.454 224.092 754.226 188.06 777.984 160.607C794.527 141.496 811.098 149.301 828.908 184.596C841.85 210.242 844.53 212.694 871.42 223.41C891.09 231.248 908.476 242.965 926.672 260.635C941.277 274.82 957.922 288.806 963.659 291.721C973.218 296.572 974.332 295.849 976.896 283.091C978.44 275.432 981.616 269.165 983.96 269.165C991.235 269.165 1016.26 283.325 1052.26 307.813C1095.71 337.375 1125.33 351.705 1149.69 354.953C1177.06 358.6 1170.26 352.085 1115.6 322.29C1061.49 292.796 1018.58 258.431 1000.81 230.351C990.576 214.181 975.078 201.256 971.786 206.142C971.321 206.833 966.266 215.119 960.556 224.554C947.922 245.435 940.987 245.989 924.485 227.445C917.5 219.598 899.355 204.888 884.16 194.749C868.966 184.615 838.669 159.12 816.84 138.096C795.006 117.072 774.411 99.8728 771.073 99.8728C767.734 99.8728 755.427 110.167 743.728 122.75C731.913 135.456 718.482 145.549 713.523 145.453C699.829 145.183 654.38 100.847 636.308 70.1324C604.33 15.7761 592.304 11.068 565.829 42.5424ZM617.305 96.4412C620.022 105.601 626.561 113.594 634.337 117.264C641.281 120.535 649.122 127.229 651.764 132.134C654.697 137.574 661.443 141.08 669.067 141.12C675.942 141.161 684.677 143.142 688.476 145.531C698.95 152.115 687.283 160.905 653.311 172.028C636.261 177.614 614.741 189.63 599.031 202.345C584.721 213.929 571.349 223.41 569.323 223.41C564.024 223.41 554.948 201.965 554.948 189.437C554.948 174.938 565.857 167.041 582.534 169.474C599.32 171.923 599.44 171.14 584.877 153.945C571.226 137.822 570.249 123.445 581.792 108.497C586.425 102.495 591.54 93.9796 593.155 89.578C598.165 75.9477 612.439 80.0017 617.305 96.4412Z" fill="white"/>
<mask id="mask3_313_4871" style="mask-type:luminance" maskUnits="userSpaceOnUse" x="116" y="209" width="968" height="409">
<path d="M1083.75 209.56H116.252V617.66H1083.75V209.56Z" fill="white"/>
</mask>
<g mask="url(#mask3_313_4871)">
<mask id="mask4_313_4871" style="mask-type:luminance" maskUnits="userSpaceOnUse" x="116" y="209" width="968" height="409">
<path d="M1083.75 209.56H116.252V617.66H1083.75V209.56Z" fill="white"/>
</mask>
<g mask="url(#mask4_313_4871)">
<path d="M193.309 446.897C193.61 445.08 193.979 442.081 194.414 437.899C194.798 433.619 195.282 428.457 195.866 422.412C196.451 416.368 197.021 409.821 197.578 402.772C198.233 395.671 198.886 388.444 199.534 381.093C200.229 373.587 200.93 366.335 201.639 359.332C202.294 352.231 202.892 345.734 203.43 339.841C204.015 333.796 204.525 328.683 204.961 324.502C205.443 320.169 205.812 317.169 206.068 315.504L210.314 318.776L162.84 344.146C160.856 345.206 158.686 345.92 156.33 346.288C154.02 346.503 151.848 346.263 149.814 345.567C147.728 344.772 146.178 343.433 145.169 341.552L139.11 330.269L153.844 322.396L154.88 324.326C155.89 326.207 156.794 327.06 157.596 326.886C158.396 326.714 159.639 326.176 161.326 325.275L225.169 291.157L212.177 419.618L210.248 418.166L276.174 382.933L284.384 398.225L193.309 446.897Z" fill="#10AC84"/>
<mask id="mask5_313_4871" style="mask-type:luminance" maskUnits="userSpaceOnUse" x="101" y="260" width="212" height="212">
<path d="M312.349 260.936H101.392V471.391H312.349V260.936Z" fill="white"/>
<path d="M193.309 446.897C193.61 445.08 193.979 442.081 194.414 437.899C194.798 433.619 195.282 428.457 195.866 422.412C196.451 416.368 197.021 409.821 197.578 402.772C198.233 395.671 198.886 388.444 199.534 381.093C200.229 373.587 200.93 366.335 201.639 359.332C202.294 352.231 202.892 345.734 203.43 339.841C204.015 333.796 204.525 328.683 204.961 324.502C205.443 320.169 205.812 317.169 206.068 315.504L210.314 318.776L162.84 344.146C160.856 345.206 158.686 345.92 156.33 346.288C154.02 346.503 151.848 346.263 149.814 345.567C147.728 344.772 146.178 343.433 145.169 341.552L139.11 330.269L153.844 322.396L154.88 324.326C155.89 326.207 156.794 327.06 157.596 326.886C158.396 326.714 159.639 326.176 161.326 325.275L225.169 291.157L212.177 419.618L210.248 418.166L276.174 382.933L284.384 398.225L193.309 446.897Z" fill="black"/>
</mask>
<g mask="url(#mask5_313_4871)">
<path d="M193.311 446.897L180.498 444.783L176.194 470.742L199.442 458.317L193.311 446.897ZM194.416 437.899L207.332 439.239L207.342 439.144L207.351 439.05L194.416 437.899ZM197.579 402.772L184.646 401.584L184.639 401.669L184.632 401.755L197.579 402.772ZM199.534 381.092L186.604 379.901L186.598 379.956L199.534 381.092ZM201.639 359.332L214.561 360.633L214.567 360.577L214.572 360.52L201.639 359.332ZM203.431 339.841L190.505 338.597L190.499 338.664L203.431 339.841ZM204.963 324.502L192.055 323.074L192.045 323.162L204.963 324.502ZM206.068 315.504L214.006 305.25L196.562 291.811L193.232 313.546L206.068 315.504ZM210.315 318.776L216.447 330.196L234.124 320.749L218.252 308.522L210.315 318.776ZM156.331 346.288L157.54 359.187L157.941 359.15L158.338 359.088L156.331 346.288ZM149.815 345.567L145.181 357.669L145.388 357.748L145.599 357.821L149.815 345.567ZM139.111 330.269L132.979 318.849L121.532 324.966L127.664 336.387L139.111 330.269ZM153.844 322.395L165.292 316.278L159.159 304.858L147.713 310.976L153.844 322.395ZM225.171 291.157L238.091 292.457L240.54 268.246L219.038 279.737L225.171 291.157ZM212.178 419.619L204.354 429.957L222.781 443.834L225.099 420.919L212.178 419.619ZM210.249 418.165L204.116 406.745L186.226 416.306L202.425 428.505L210.249 418.165ZM276.175 382.933L287.622 376.816L281.49 365.395L270.042 371.513L276.175 382.933ZM284.386 398.225L290.518 409.645L301.966 403.528L295.834 392.107L284.386 398.225ZM206.123 449.011C206.493 446.776 206.895 443.438 207.332 439.239L181.499 436.559C181.064 440.724 180.73 443.385 180.498 444.783L206.123 449.011ZM207.351 439.05C207.73 434.81 208.21 429.681 208.793 423.656L182.941 421.167C182.354 427.231 181.868 432.427 181.481 436.748L207.351 439.05ZM208.793 423.656C209.386 417.526 209.963 410.902 210.525 403.79L184.632 401.755C184.081 408.74 183.517 415.209 182.941 421.167L208.793 423.656ZM210.51 403.96C211.167 396.842 211.821 389.596 212.471 382.227L186.598 379.956C185.952 387.291 185.3 394.501 184.646 401.584L210.51 403.96ZM212.467 382.283C213.157 374.813 213.857 367.596 214.561 360.633L188.719 358.03C188.007 365.072 187.302 372.362 186.604 379.901L212.467 382.283ZM214.572 360.52C215.227 353.415 215.825 346.915 216.365 341.018L190.499 338.664C189.961 344.553 189.364 351.046 188.709 358.144L214.572 360.52ZM216.358 341.085C216.941 335.06 217.448 329.981 217.879 325.842L192.045 323.162C191.605 327.386 191.091 332.532 190.505 338.597L216.358 341.085ZM217.87 325.93C218.354 321.582 218.695 318.83 218.905 317.462L193.232 313.546C192.93 315.509 192.536 318.754 192.055 323.074L217.87 325.93ZM198.131 325.758L202.377 329.03L218.252 308.522L214.006 305.25L198.131 325.758ZM204.183 307.356L156.709 332.726L168.974 355.566L216.447 330.196L204.183 307.356ZM156.709 332.726C156.088 333.057 155.324 333.331 154.325 333.487L158.338 359.088C162.051 358.508 165.628 357.354 168.974 355.566L156.709 332.726ZM155.122 333.388C154.498 333.446 154.189 333.366 154.032 333.312L145.599 357.821C149.51 359.159 153.543 359.56 157.54 359.187L155.122 333.388ZM154.45 333.464C154.693 333.556 155.122 333.768 155.591 334.174C156.068 334.586 156.407 335.043 156.618 335.435L133.723 347.671C136.278 352.429 140.318 355.815 145.181 357.669L154.45 333.464ZM156.618 335.435L150.559 324.152L127.664 336.387L133.723 347.671L156.618 335.435ZM145.244 341.69L159.976 333.816L147.713 310.976L132.979 318.849L145.244 341.69ZM142.397 328.514L143.433 330.444L166.328 318.208L165.292 316.278L142.397 328.514ZM143.433 330.444C144.196 331.865 145.456 333.962 147.397 335.791C149.265 337.554 153.9 340.943 160.348 339.548L154.845 314.225C160.492 313.004 164.274 316.052 165.238 316.962C166.273 317.938 166.575 318.667 166.328 318.208L143.433 330.444ZM160.348 339.548C163.093 338.955 165.745 337.611 167.46 336.695L155.195 313.854C154.884 314.022 154.624 314.155 154.412 314.259C154.197 314.364 154.053 314.429 153.97 314.465C153.881 314.504 153.9 314.492 154.008 314.455C154.065 314.435 154.162 314.402 154.294 314.364C154.424 314.326 154.611 314.276 154.845 314.225L160.348 339.548ZM167.46 336.695L231.302 302.577L219.038 279.737L155.195 313.854L167.46 336.695ZM212.249 289.857L199.258 418.317L225.099 420.919L238.091 292.457L212.249 289.857ZM220.002 409.277L218.073 407.824L202.425 428.505L204.354 429.957L220.002 409.277ZM216.381 429.584L282.307 394.354L270.042 371.513L204.116 406.745L216.381 429.584ZM264.728 389.051L272.938 404.343L295.834 392.107L287.622 376.816L264.728 389.051ZM278.253 386.805L187.177 435.477L199.442 458.317L290.518 409.645L278.253 386.805Z" fill="black"/>
</g>
<path d="M339.168 388.863C332.905 391.064 326.777 391.79 320.783 391.04C314.754 390.184 309.336 387.683 304.531 383.539C299.726 379.395 295.976 373.51 293.283 365.886C290.627 358.366 289.884 351.365 291.055 344.882C292.332 338.362 295.013 332.777 299.099 328.126C303.253 323.332 308.355 319.872 314.405 317.746C320.774 315.506 326.463 315.055 331.468 316.39C336.543 317.582 340.885 319.567 344.492 322.347L344.275 325.281L341.21 311.537L356.337 306.219L379.847 372.777L363.447 378.543L357.555 361.863L360.708 365.218C360.584 366.214 360.112 367.75 359.292 369.823C358.437 371.791 357.14 374.033 355.403 376.549C353.772 379.026 351.623 381.389 348.956 383.636C346.358 385.739 343.095 387.482 339.168 388.863ZM338.913 373.952C342.416 372.721 345.323 370.985 347.634 368.744C349.945 366.502 351.645 363.881 352.733 360.879C353.821 357.878 354.175 354.658 353.795 351.22L348.914 337.4C347.017 334.734 344.686 332.695 341.921 331.287C339.119 329.772 336.061 328.883 332.745 328.62C329.536 328.319 326.234 328.766 322.837 329.96C319.015 331.303 315.849 333.488 313.338 336.514C310.789 339.434 309.14 342.871 308.388 346.825C307.637 350.78 308.029 354.928 309.562 359.27C311.021 363.4 313.305 366.823 316.412 369.541C319.626 372.221 323.234 373.988 327.234 374.843C331.199 375.593 335.092 375.295 338.913 373.952Z" fill="#FF9F43"/>
<mask id="mask6_313_4871" style="mask-type:luminance" maskUnits="userSpaceOnUse" x="261" y="281" width="142" height="141">
<path d="M402.623 281.512H261.826V421.973H402.623V281.512Z" fill="white"/>
<path d="M339.168 388.863C332.905 391.064 326.777 391.79 320.783 391.04C314.754 390.184 309.336 387.683 304.531 383.539C299.726 379.395 295.976 373.51 293.283 365.886C290.627 358.366 289.884 351.365 291.055 344.882C292.332 338.362 295.013 332.777 299.099 328.126C303.253 323.332 308.355 319.872 314.405 317.746C320.774 315.506 326.463 315.055 331.468 316.39C336.543 317.582 340.885 319.567 344.492 322.347L344.275 325.281L341.21 311.537L356.337 306.219L379.847 372.777L363.447 378.543L357.555 361.863L360.708 365.218C360.584 366.214 360.112 367.75 359.292 369.823C358.437 371.791 357.14 374.033 355.403 376.549C353.772 379.026 351.623 381.389 348.956 383.636C346.358 385.739 343.095 387.482 339.168 388.863ZM338.913 373.952C342.416 372.721 345.323 370.985 347.634 368.744C349.945 366.502 351.645 363.881 352.733 360.879C353.821 357.878 354.175 354.658 353.795 351.22L348.914 337.4C347.017 334.734 344.686 332.695 341.921 331.287C339.119 329.772 336.061 328.883 332.745 328.62C329.536 328.319 326.234 328.766 322.837 329.96C319.015 331.303 315.849 333.488 313.338 336.514C310.789 339.434 309.14 342.871 308.388 346.825C307.637 350.78 308.029 354.928 309.562 359.27C311.021 363.4 313.305 366.823 316.412 369.541C319.626 372.221 323.234 373.988 327.234 374.843C331.199 375.593 335.092 375.295 338.913 373.952Z" fill="black"/>
</mask>
<g mask="url(#mask6_313_4871)">
<path d="M320.782 391.04L318.952 403.866L319.059 403.881L319.165 403.894L320.782 391.04ZM291.053 344.883L278.308 342.399L278.289 342.492L278.273 342.586L291.053 344.883ZM299.096 328.126L308.863 336.666L308.922 336.599L299.096 328.126ZM331.467 316.39L328.113 328.905L328.302 328.956L328.491 329L331.467 316.39ZM344.49 322.347L357.442 323.3L357.955 316.353L352.429 312.095L344.49 322.347ZM344.274 325.281L331.597 328.093L357.225 326.234L344.274 325.281ZM341.209 311.536L336.893 299.318L326.031 303.135L328.531 314.35L341.209 311.536ZM356.336 306.219L368.583 301.913L364.268 289.695L352.019 293.999L356.336 306.219ZM379.846 372.776L384.161 384.995L396.41 380.689L392.093 368.471L379.846 372.776ZM363.445 378.541L351.196 382.847L355.513 395.067L367.76 390.761L363.445 378.541ZM357.554 361.862L367.026 353L345.305 366.169L357.554 361.862ZM360.707 365.218L373.593 366.831L374.352 360.794L370.18 356.356L360.707 365.218ZM359.291 369.823L371.204 374.983L371.292 374.779L371.374 374.572L359.291 369.823ZM355.402 376.548L344.706 369.198L344.624 369.317L344.545 369.438L355.402 376.548ZM348.955 383.636L357.139 393.695L357.237 393.615L357.335 393.534L348.955 383.636ZM353.793 351.22L366.702 349.803L366.539 348.321L366.042 346.914L353.793 351.22ZM348.912 337.4L361.16 333.094L360.555 331.383L359.504 329.903L348.912 337.4ZM341.92 331.287L335.734 342.678L335.872 342.752L336.013 342.825L341.92 331.287ZM332.744 328.619L331.529 341.519L331.622 341.527L331.714 341.535L332.744 328.619ZM313.336 336.513L323.13 345.021L323.236 344.9L323.34 344.776L313.336 336.513ZM316.41 369.54L307.85 379.284L307.966 379.384L308.082 379.481L316.41 369.54ZM327.233 374.843L324.512 387.511L324.664 387.543L324.815 387.572L327.233 374.843ZM334.85 376.643C330.296 378.244 326.2 378.66 322.4 378.185L319.165 403.894C327.352 404.919 335.509 403.884 343.482 401.081L334.85 376.643ZM322.612 378.213C319.156 377.723 316.027 376.331 313.022 373.738L296.035 393.34C302.64 399.036 310.347 402.644 318.952 403.866L322.612 378.213ZM313.022 373.738C310.335 371.422 307.675 367.653 305.529 361.58L281.033 370.192C284.275 379.367 289.111 387.368 296.035 393.34L313.022 373.738ZM305.529 361.58C303.465 355.734 303.139 351.032 303.835 347.18L278.273 342.586C276.627 351.699 277.786 360.998 281.033 370.192L305.529 361.58ZM303.8 347.366C304.67 342.919 306.401 339.468 308.863 336.666L289.33 319.587C283.621 326.087 279.991 333.806 278.308 342.399L303.8 347.366ZM308.922 336.599C311.582 333.529 314.779 331.35 318.72 329.965L310.088 305.527C301.929 308.395 294.92 313.137 289.272 319.653L308.922 336.599ZM318.72 329.965C323.362 328.332 326.3 328.422 328.113 328.905L334.821 303.874C326.622 301.687 318.184 302.68 310.088 305.527L318.72 329.965ZM328.491 329C332.021 329.829 334.608 331.103 336.552 332.6L352.429 312.095C347.159 308.032 341.063 305.334 334.444 303.779L328.491 329ZM331.539 321.395L331.322 324.327L357.225 326.234L357.442 323.3L331.539 321.395ZM356.95 322.467L353.886 308.724L328.531 314.35L331.597 328.093L356.95 322.467ZM345.524 323.756L360.651 318.438L352.019 293.999L336.893 299.318L345.524 323.756ZM344.087 310.525L367.597 377.082L392.093 368.471L368.583 301.913L344.087 310.525ZM375.529 360.557L359.129 366.323L367.76 390.761L384.161 384.995L375.529 360.557ZM375.693 374.237L369.801 357.557L345.305 366.169L351.196 382.847L375.693 374.237ZM348.081 370.726L351.235 374.08L370.18 356.356L367.026 353L348.081 370.726ZM347.822 363.605C347.861 363.288 347.906 363.106 347.908 363.097C347.913 363.078 347.896 363.147 347.844 363.317C347.737 363.668 347.539 364.239 347.209 365.074L371.374 374.572C372.228 372.408 373.248 369.569 373.593 366.831L347.822 363.605ZM347.379 364.664C346.964 365.618 346.15 367.108 344.706 369.198L366.096 383.897C368.126 380.957 369.905 377.964 371.204 374.983L347.379 364.664ZM344.545 369.438C343.708 370.709 342.449 372.16 340.576 373.738L357.335 393.534C360.794 390.618 363.832 387.342 366.258 383.658L344.545 369.438ZM340.771 373.577C339.571 374.547 337.704 375.64 334.85 376.643L343.482 401.081C348.484 399.323 353.142 396.932 357.139 393.695L340.771 373.577ZM343.228 386.171C348.233 384.411 352.835 381.765 356.684 378.033L338.581 359.453C337.808 360.203 336.595 361.03 334.595 361.732L343.228 386.171ZM356.684 378.033C360.396 374.435 363.182 370.146 364.943 365.284L340.519 356.474C340.105 357.615 339.492 358.57 338.581 359.453L356.684 378.033ZM364.943 365.284C366.761 360.268 367.28 355.042 366.702 349.803L340.885 352.636C341.066 354.275 340.876 355.487 340.519 356.474L364.943 365.284ZM366.042 346.914L361.16 333.094L336.664 341.706L341.546 355.526L366.042 346.914ZM359.504 329.903C356.464 325.631 352.561 322.162 347.828 319.749L336.013 342.825C336.809 343.229 337.568 343.837 338.321 344.897L359.504 329.903ZM348.107 319.896C343.642 317.483 338.816 316.106 333.775 315.705L331.714 341.535C333.302 341.66 334.593 342.061 335.734 342.678L348.107 319.896ZM333.958 315.721C328.669 315.225 323.479 315.997 318.52 317.74L327.151 342.179C328.986 341.535 330.401 341.412 331.529 341.519L333.958 315.721ZM318.52 317.74C312.546 319.842 307.391 323.363 303.333 328.251L323.34 344.776C324.305 343.613 325.483 342.766 327.151 342.179L318.52 317.74ZM303.542 328.006C299.419 332.729 296.789 338.293 295.627 344.413L321.146 349.238C321.486 347.448 322.156 346.137 323.13 345.021L303.542 328.006ZM295.627 344.413C294.392 350.919 295.128 357.394 297.313 363.576L321.809 354.964C320.925 352.463 320.88 350.64 321.146 349.238L295.627 344.413ZM297.313 363.576C299.465 369.668 302.962 375.008 307.85 379.284L324.969 359.797C323.644 358.638 322.575 357.13 321.809 354.964L297.313 363.576ZM308.082 379.481C312.875 383.478 318.398 386.204 324.512 387.511L329.953 362.174C328.065 361.771 326.373 360.963 324.738 359.6L308.082 379.481ZM324.815 387.572C331.04 388.749 337.255 388.271 343.228 386.171L334.595 361.732C332.925 362.32 331.355 362.435 329.652 362.114L324.815 387.572Z" fill="black"/>
</g>
<path d="M411.969 297.724L416.93 313.191L415.8 311.197C417.021 305.756 419.724 301.025 423.909 297.004C428.071 292.873 433.449 290.085 440.044 288.639C446.53 287.218 452.284 287.969 457.306 290.892C462.439 293.791 465.736 298.298 467.198 304.415L478.428 355.41L461.444 359.132L451.519 314.059C450.637 310.574 448.964 307.952 446.502 306.192C444.017 304.323 440.672 303.791 436.471 304.597C432.733 305.416 429.579 307.315 427.009 310.292C424.414 313.16 422.66 316.706 421.746 320.929C420.832 325.154 420.931 329.787 422.042 334.833L428.96 366.252L411.976 369.974L396.798 301.049L411.969 297.724Z" fill="#EE5253"/>
<mask id="mask7_313_4871" style="mask-type:luminance" maskUnits="userSpaceOnUse" x="379" y="263" width="118" height="123">
<path d="M496.866 263.404H379.445V385.483H496.866V263.404Z" fill="white"/>
<path d="M411.969 297.724L416.93 313.191L415.799 311.197C417.021 305.756 419.724 301.025 423.909 297.004C428.07 292.873 433.448 290.085 440.044 288.639C446.529 287.218 452.283 287.969 457.306 290.892C462.438 293.791 465.736 298.298 467.198 304.415L478.428 355.41L461.444 359.132L451.518 314.059C450.636 310.574 448.963 307.952 446.501 306.192C444.016 304.323 440.672 303.791 436.471 304.597C432.733 305.416 429.578 307.315 427.008 310.292C424.413 313.16 422.659 316.706 421.745 320.929C420.831 325.154 420.93 329.787 422.041 334.833L428.959 366.252L411.976 369.974L396.798 301.049L411.969 297.724Z" fill="black"/>
</mask>
<g mask="url(#mask7_313_4871)">
<path d="M411.969 297.724L424.338 293.776L420.734 282.539L409.182 285.07L411.969 297.724ZM416.931 313.191L405.627 319.569L429.299 309.243L416.931 313.191ZM415.801 311.197L403.129 308.365L402.034 313.233L404.496 317.575L415.801 311.197ZM423.91 297.004L432.919 306.335L432.996 306.261L433.071 306.188L423.91 297.004ZM457.307 290.892L450.763 302.082L450.836 302.124L450.909 302.166L457.307 290.892ZM467.199 304.415L479.883 301.636L479.858 301.522L479.831 301.41L467.199 304.415ZM478.429 355.41L481.215 368.064L493.9 365.284L491.114 352.631L478.429 355.41ZM461.444 359.132L448.761 361.912L451.547 374.567L464.231 371.787L461.444 359.132ZM451.519 314.059L464.203 311.28L464.159 311.082L464.11 310.887L451.519 314.059ZM446.503 306.192L438.686 316.538L438.811 316.633L438.939 316.724L446.503 306.192ZM436.471 304.597L434.02 291.875L433.852 291.906L433.685 291.943L436.471 304.597ZM427.01 310.292L436.65 318.974L436.75 318.862L436.849 318.748L427.01 310.292ZM428.961 366.252L431.748 378.905L444.431 376.125L441.644 363.472L428.961 366.252ZM411.977 369.974L399.294 372.755L402.08 385.408L414.763 382.628L411.977 369.974ZM396.799 301.049L394.012 288.396L381.329 291.175L384.116 303.829L396.799 301.049ZM399.6 301.673L404.561 317.14L429.299 309.243L424.338 293.776L399.6 301.673ZM428.235 306.813L427.104 304.819L404.496 317.575L405.627 319.569L428.235 306.813ZM428.472 314.029C429.116 311.168 430.49 308.668 432.919 306.335L414.901 287.673C408.959 293.381 404.928 300.345 403.129 308.365L428.472 314.029ZM433.071 306.188C435.23 304.043 438.276 302.291 442.831 301.293L437.258 275.986C428.622 277.878 420.912 281.703 414.75 287.821L433.071 306.188ZM442.831 301.293C446.618 300.464 448.958 301.032 450.763 302.082L463.85 279.701C455.61 274.906 446.442 273.973 437.258 275.986L442.831 301.293ZM450.909 302.166C452.668 303.159 453.877 304.534 454.567 307.421L479.831 301.41C477.597 292.063 472.21 284.421 463.706 279.617L450.909 302.166ZM454.516 307.196L465.744 358.19L491.114 352.631L479.883 301.636L454.516 307.196ZM475.642 342.757L458.658 346.479L464.231 371.787L481.215 368.064L475.642 342.757ZM474.129 356.352L464.203 311.28L438.835 316.84L448.761 361.912L474.129 356.352ZM464.11 310.887C462.625 305.023 459.478 299.529 454.067 295.661L438.939 316.724C438.875 316.677 438.805 316.619 438.744 316.553C438.682 316.488 438.651 316.443 438.645 316.433C438.633 316.413 438.775 316.624 438.928 317.233L464.11 310.887ZM454.32 295.846C447.928 291.04 440.425 290.646 434.02 291.875L438.924 317.319C439.915 317.129 440.241 317.21 440.087 317.185C439.996 317.171 439.794 317.128 439.522 317.016C439.244 316.902 438.956 316.741 438.686 316.538L454.32 295.846ZM433.685 291.943C427.118 293.383 421.517 296.802 417.17 301.837L436.849 318.748C437.644 317.827 438.351 317.45 439.258 317.251L433.685 291.943ZM417.37 301.611C413.078 306.353 410.387 312.026 409.051 318.197L434.441 323.662C434.933 321.386 435.751 319.966 436.65 318.974L417.37 301.611ZM409.051 318.197C407.676 324.558 407.924 331.102 409.358 337.612L434.726 332.053C433.938 328.473 433.99 325.75 434.441 323.662L409.051 318.197ZM409.358 337.612L416.277 369.031L441.644 363.472L434.726 332.053L409.358 337.612ZM426.175 353.598L409.191 357.32L414.763 382.628L431.748 378.905L426.175 353.598ZM424.661 367.194L409.483 298.268L384.116 303.829L399.294 372.755L424.661 367.194ZM399.585 313.702L414.756 310.377L409.182 285.07L394.012 288.396L399.585 313.702Z" fill="black"/>
</g>
<path d="M502.674 285.369L519.965 283.539L527.423 353.715L510.13 355.544L502.674 285.369ZM498.996 260.352C498.712 257.673 499.538 255.327 501.474 253.315C503.41 251.304 505.61 250.168 508.072 249.908C510.647 249.636 513.036 250.286 515.241 251.86C517.445 253.433 518.69 255.56 518.974 258.239C519.259 260.919 518.489 263.259 516.664 265.259C514.828 267.147 512.623 268.226 510.049 268.499C507.586 268.759 505.202 268.164 502.897 266.714C500.581 265.153 499.282 263.032 498.996 260.352Z" fill="#F368E0"/>
<mask id="mask8_313_4871" style="mask-type:luminance" maskUnits="userSpaceOnUse" x="477" y="229" width="67" height="142">
<path d="M543.436 229.774H477.404V370.513H543.436V229.774Z" fill="white"/>
<path d="M502.673 285.369L519.965 283.539L527.422 353.715L510.13 355.544L502.673 285.369ZM498.996 260.352C498.711 257.673 499.538 255.327 501.474 253.315C503.41 251.304 505.61 250.168 508.071 249.908C510.646 249.635 513.036 250.286 515.24 251.86C517.444 253.433 518.689 255.56 518.974 258.239C519.258 260.919 518.489 263.259 516.663 265.259C514.827 267.146 512.622 268.226 510.048 268.499C507.585 268.759 505.202 268.164 502.897 266.714C500.581 265.153 499.281 263.032 498.996 260.352Z" fill="black"/>
</mask>
<g mask="url(#mask8_313_4871)">
<path d="M502.673 285.369L501.305 272.486L488.39 273.851L489.76 286.735L502.673 285.369ZM519.966 283.54L532.88 282.174L531.51 269.291L518.596 270.657L519.966 283.54ZM527.424 353.716L528.793 366.599L541.706 365.234L540.338 352.35L527.424 353.716ZM510.131 355.544L497.218 356.911L498.586 369.794L511.501 368.429L510.131 355.544ZM516.664 265.259L525.984 274.282L526.128 274.133L526.267 273.98L516.664 265.259ZM502.898 266.715L495.627 277.449L495.797 277.563L495.971 277.673L502.898 266.715ZM504.043 298.253L521.334 296.423L518.596 270.657L501.305 272.486L504.043 298.253ZM507.051 284.906L514.509 355.081L540.338 352.35L532.88 282.174L507.051 284.906ZM526.055 340.832L508.763 342.661L511.501 368.429L528.793 366.599L526.055 340.832ZM523.045 354.179L515.589 284.003L489.76 286.735L497.218 356.911L523.045 354.179ZM511.911 258.987C511.954 259.396 511.933 260.087 511.656 260.878C511.381 261.656 511.002 262.123 510.84 262.291L492.109 244.342C487.625 248.998 485.378 255.089 486.082 261.719L511.911 258.987ZM510.84 262.291C510.948 262.178 510.862 262.298 510.547 262.461C510.213 262.634 509.817 262.752 509.442 262.791L506.704 237.025C500.805 237.649 495.875 240.43 492.109 244.342L510.84 262.291ZM509.442 262.791C509.197 262.818 508.81 262.809 508.376 262.691C507.952 262.576 507.716 262.419 507.684 262.397L522.797 241.324C518.139 237.999 512.6 236.401 506.704 237.025L509.442 262.791ZM507.684 262.397C507.445 262.226 507.001 261.831 506.613 261.167C506.224 260.504 506.093 259.915 506.061 259.606L531.889 256.874C531.212 250.499 528.006 245.041 522.797 241.324L507.684 262.397ZM506.061 259.606C506.028 259.297 506.033 258.693 506.273 257.963C506.513 257.234 506.864 256.754 507.062 256.537L526.267 273.98C530.58 269.256 532.566 263.248 531.889 256.874L506.061 259.606ZM507.345 256.236C507.391 256.19 507.578 256.018 507.91 255.855C508.246 255.69 508.535 255.631 508.68 255.616L511.418 281.382C517.075 280.784 522.074 278.3 525.984 274.282L507.345 256.236ZM508.68 255.616C508.95 255.587 509.268 255.607 509.566 255.68C509.848 255.75 509.939 255.828 509.826 255.757L495.971 277.673C500.482 280.512 505.756 281.981 511.418 281.382L508.68 255.616ZM510.169 255.981C510.362 256.11 510.833 256.489 511.264 257.192C511.701 257.906 511.868 258.577 511.911 258.987L486.082 261.719C486.788 268.349 490.265 273.835 495.627 277.449L510.169 255.981Z" fill="black"/>
</g>
<path d="M578.339 280.948L580.536 296.024L579.808 294.876C582.27 289.483 585.796 285.224 590.388 282.097C594.975 278.858 600.36 277.099 606.544 276.823C610.367 276.652 613.825 277.116 616.915 278.214C620.119 279.308 622.783 280.931 624.908 283.084C627.033 285.237 628.451 287.983 629.165 291.323L628.343 291.866C630.933 286.805 634.47 282.77 638.954 279.759C643.545 276.632 648.483 274.949 653.768 274.714C660.627 274.407 666.167 276.127 670.392 279.872C674.728 283.613 677.091 288.565 677.48 294.729L679.829 347.056L662.626 347.824L660.572 302.059C660.303 298.586 659.329 295.708 657.65 293.423C656.082 291.132 653.382 289.96 649.548 289.907C645.501 290.087 641.959 291.482 638.921 294.092C635.995 296.694 633.778 299.996 632.268 303.998C630.757 307.998 630.047 312.246 630.136 316.738L631.593 349.21L614.221 349.986L612.167 304.221C611.899 300.749 610.926 297.871 609.246 295.585C607.565 293.3 604.752 292.133 600.808 292.084C596.759 292.264 593.273 293.657 590.348 296.26C587.422 298.863 585.208 302.222 583.702 306.336C582.305 310.332 581.704 314.516 581.901 318.891L583.358 351.364L565.986 352.141L562.821 281.642L578.339 280.948Z" fill="#48DBFB"/>
<mask id="mask9_313_4871" style="mask-type:luminance" maskUnits="userSpaceOnUse" x="548" y="255" width="148" height="111">
<path d="M695.951 255.764H548.596V365.679H695.951V255.764Z" fill="white"/>
<path d="M578.339 280.951L580.536 296.026L579.808 294.877C582.27 289.486 585.796 285.225 590.388 282.098C594.975 278.859 600.36 277.101 606.544 276.824C610.367 276.654 613.825 277.117 616.915 278.217C620.119 279.309 622.783 280.932 624.908 283.086C627.033 285.238 628.451 287.984 629.165 291.325L628.343 291.867C630.933 286.806 634.47 282.771 638.954 279.76C643.545 276.633 648.483 274.952 653.768 274.715C660.627 274.41 666.167 276.128 670.392 279.873C674.728 283.614 677.091 288.566 677.48 294.731L679.829 347.057L662.626 347.826L660.572 302.061C660.303 298.588 659.329 295.709 657.65 293.425C656.082 291.135 653.382 289.963 649.548 289.908C645.501 290.089 641.959 291.484 638.921 294.093C635.995 296.695 633.778 299.997 632.268 303.999C630.757 308.001 630.047 312.247 630.136 316.739L631.593 349.211L614.221 349.987L612.167 304.223C611.899 300.751 610.926 297.872 609.246 295.586C607.565 293.301 604.752 292.134 600.808 292.086C596.759 292.267 593.273 293.659 590.348 296.262C587.422 298.865 585.208 302.223 583.702 306.337C582.305 310.333 581.704 314.519 581.901 318.892L583.358 351.365L565.986 352.142L562.821 281.643L578.339 280.951Z" fill="black"/>
</mask>
<g mask="url(#mask9_313_4871)">
<path d="M578.339 280.95L591.189 279.086L589.499 267.484L577.757 268.007L578.339 280.95ZM580.536 296.025L569.559 302.95L593.387 294.16L580.536 296.025ZM579.807 294.878L567.989 289.507L565.079 295.883L568.831 301.802L579.807 294.878ZM590.388 282.098L597.711 292.797L597.802 292.736L597.892 292.671L590.388 282.098ZM616.915 278.215L612.558 290.421L612.635 290.448L612.711 290.474L616.915 278.215ZM629.164 291.325L636.337 302.124L643.707 297.253L641.864 288.625L629.164 291.325ZM628.343 291.867L616.776 285.977L594.296 329.912L635.515 302.666L628.343 291.867ZM638.954 279.76L646.203 290.51L646.275 290.461L638.954 279.76ZM670.39 279.873L661.765 289.557L661.83 289.617L661.897 289.674L670.39 279.873ZM677.48 294.731L690.454 294.151L690.448 294.033L690.44 293.916L677.48 294.731ZM679.828 347.057L680.409 360L693.382 359.42L692.801 346.478L679.828 347.057ZM662.625 347.826L649.651 348.405L650.232 361.348L663.205 360.768L662.625 347.826ZM660.571 302.06L673.545 301.481L673.535 301.272L673.519 301.063L660.571 302.06ZM657.649 293.425L646.923 300.73L647.047 300.909L647.176 301.085L657.649 293.425ZM649.549 289.908L649.73 276.954L649.348 276.949L648.967 276.965L649.549 289.908ZM638.92 294.093L630.448 284.273L630.361 284.347L630.276 284.424L638.92 294.093ZM630.135 316.739L617.151 316.994L617.154 317.156L617.161 317.317L630.135 316.739ZM631.592 349.211L632.173 362.153L645.147 361.575L644.565 348.632L631.592 349.211ZM614.221 349.987L601.247 350.567L601.828 363.509L614.801 362.93L614.221 349.987ZM612.167 304.222L625.14 303.642L625.131 303.434L625.115 303.226L612.167 304.222ZM600.807 292.085L600.967 279.131L600.597 279.126L600.226 279.142L600.807 292.085ZM583.702 306.337L571.503 301.893L571.471 301.981L571.44 302.068L583.702 306.337ZM583.357 351.366L583.937 364.308L596.911 363.729L596.33 350.786L583.357 351.366ZM565.985 352.142L553.012 352.72L553.593 365.663L566.565 365.085L565.985 352.142ZM562.821 281.643L562.241 268.701L549.267 269.28L549.848 282.223L562.821 281.643ZM565.487 282.814L567.684 297.889L593.387 294.16L591.189 279.086L565.487 282.814ZM591.51 289.101L590.784 287.954L568.831 301.802L569.559 302.95L591.51 289.101ZM591.626 300.247C593.175 296.855 595.213 294.499 597.711 292.797L583.065 271.398C576.381 275.951 571.364 282.116 567.989 289.507L591.626 300.247ZM597.892 292.671C600.241 291.011 603.166 289.944 607.124 289.767L605.963 263.882C597.553 264.257 589.706 266.705 582.883 271.524L597.892 292.671ZM607.124 289.767C609.544 289.659 611.289 289.97 612.558 290.421L621.272 266.011C616.358 264.265 611.189 263.649 605.963 263.882L607.124 289.767ZM612.711 290.474C614.235 290.994 615.101 291.616 615.652 292.175L634.162 273.997C630.463 270.248 626.001 267.625 621.118 265.957L612.711 290.474ZM615.652 292.175C615.823 292.346 616.196 292.774 616.463 294.024L641.864 288.625C640.705 283.194 638.24 278.13 634.162 273.997L615.652 292.175ZM621.99 280.524L621.171 281.066L635.515 302.666L636.337 302.124L621.99 280.524ZM639.91 297.756C641.552 294.545 643.647 292.225 646.203 290.51L631.703 269.012C625.291 273.316 620.312 279.067 616.776 285.977L639.91 297.756ZM646.275 290.461C648.978 288.618 651.601 287.78 654.349 287.658L653.187 261.772C645.364 262.122 638.11 264.648 631.631 269.061L646.275 290.461ZM654.349 287.658C658.6 287.468 660.59 288.517 661.765 289.557L679.017 270.19C671.744 263.741 662.653 261.35 653.187 261.772L654.349 287.658ZM661.897 289.674C663.371 290.945 664.329 292.544 664.519 295.544L690.44 293.916C689.851 284.586 686.084 276.283 678.885 270.073L661.897 289.674ZM664.506 295.309L666.854 347.637L692.801 346.478L690.454 294.151L664.506 295.309ZM679.247 334.115L662.044 334.883L663.205 360.768L680.409 360L679.247 334.115ZM675.599 347.246L673.545 301.481L647.597 302.64L649.651 348.405L675.599 347.246ZM673.519 301.063C673.108 295.735 671.528 290.399 668.121 285.763L647.176 301.085C647.18 301.09 647.195 301.112 647.22 301.16C647.246 301.21 647.287 301.3 647.335 301.441C647.432 301.727 647.56 302.24 647.623 303.057L673.519 301.063ZM668.374 286.119C663.589 279.127 656.054 277.042 649.73 276.954L649.366 302.862C650.057 302.873 649.894 302.979 649.268 302.707C648.935 302.564 648.512 302.328 648.067 301.967C647.618 301.603 647.23 301.177 646.923 300.73L668.374 286.119ZM648.967 276.965C642.048 277.274 635.717 279.749 630.448 284.273L647.392 303.912C648.199 303.219 648.954 302.903 650.129 302.851L648.967 276.965ZM630.276 284.424C625.642 288.549 622.293 293.66 620.113 299.433L644.421 308.564C645.262 306.336 646.349 304.843 647.566 303.76L630.276 284.424ZM620.113 299.433C617.993 305.051 617.031 310.942 617.151 316.994L643.119 316.482C643.06 313.551 643.521 310.949 644.421 308.564L620.113 299.433ZM617.161 317.317L618.618 349.79L644.565 348.632L643.108 316.159L617.161 317.317ZM631.011 336.268L613.64 337.045L614.801 362.93L632.173 362.153L631.011 336.268ZM627.194 349.408L625.14 303.642L599.193 304.801L601.247 350.567L627.194 349.408ZM625.115 303.226C624.704 297.896 623.124 292.561 619.717 287.925L598.771 303.247C598.775 303.252 598.79 303.273 598.816 303.322C598.841 303.372 598.883 303.462 598.931 303.603C599.027 303.888 599.156 304.401 599.219 305.219L625.115 303.226ZM619.717 287.925C614.772 281.198 607.298 279.209 600.967 279.131L600.647 305.039C601.428 305.05 601.391 305.167 600.888 304.96C600.62 304.847 600.251 304.656 599.847 304.345C599.439 304.032 599.073 303.656 598.771 303.247L619.717 287.925ZM600.226 279.142C593.301 279.451 586.938 281.934 581.703 286.593L598.993 305.929C599.607 305.382 600.217 305.08 601.387 305.028L600.226 279.142ZM581.703 286.593C576.996 290.784 573.654 296.017 571.503 301.893L595.901 310.779C596.761 308.429 597.849 306.946 598.993 305.929L581.703 286.593ZM571.44 302.068C569.48 307.674 568.659 313.509 568.926 319.472L594.873 318.313C594.747 315.527 595.129 312.991 595.963 310.606L571.44 302.068ZM568.926 319.472L570.383 351.945L596.33 350.786L594.873 318.313L568.926 319.472ZM582.775 338.423L565.404 339.2L566.565 365.085L583.937 364.308L582.775 338.423ZM578.959 351.561L575.795 281.064L549.848 282.223L553.012 352.72L578.959 351.561ZM563.402 294.586L578.919 293.892L577.757 268.007L562.241 268.701L563.402 294.586Z" fill="black"/>
</g>
<path d="M722.701 228.657L739.986 230.548L725.689 360.632L708.404 358.742L722.701 228.657Z" fill="#2E86DE"/>
<mask id="mask10_313_4871" style="mask-type:luminance" maskUnits="userSpaceOnUse" x="693" y="209" width="64" height="167">
<path d="M756.605 209.19H693.73V375.112H756.605V209.19Z" fill="white"/>
<path d="M722.701 228.657L739.986 230.548L725.689 360.632L708.404 358.742L722.701 228.657Z" fill="black"/>
</mask>
<g mask="url(#mask10_313_4871)">
<path d="M722.702 228.657L724.117 215.778L711.208 214.366L709.793 227.245L722.702 228.657ZM739.987 230.548L752.897 231.96L754.312 219.082L741.402 217.67L739.987 230.548ZM725.69 360.632L724.275 373.51L737.184 374.922L738.6 362.044L725.69 360.632ZM708.405 358.742L695.495 357.33L694.08 370.208L706.99 371.62L708.405 358.742ZM721.286 241.535L738.572 243.427L741.402 217.67L724.117 215.778L721.286 241.535ZM727.077 229.136L712.781 359.22L738.6 362.044L752.897 231.96L727.077 229.136ZM727.105 347.753L709.82 345.863L706.99 371.62L724.275 373.51L727.105 347.753ZM721.314 360.154L735.611 230.069L709.793 227.245L695.495 357.33L721.314 360.154Z" fill="black"/>
</g>
<path d="M759.088 401.029L750.929 388.698C754.491 386.573 757.493 383.725 759.934 380.156C762.355 376.697 764.013 372.366 764.905 367.165L776.8 297.943L794.105 300.902L782.099 370.789C780.729 378.756 778.19 385.214 774.488 390.163C770.891 395.131 765.762 398.753 759.088 401.029ZM779.911 272.844C780.371 270.187 781.806 268.154 784.216 266.744C786.625 265.333 789.053 264.837 791.494 265.254C794.047 265.691 796.169 266.965 797.857 269.077C799.552 271.189 800.17 273.573 799.715 276.23C799.261 278.885 797.877 280.929 795.578 282.357C793.3 283.676 790.877 284.118 788.326 283.68C785.891 283.263 783.754 282.044 781.937 280.024C780.131 277.892 779.456 275.5 779.911 272.844Z" fill="#341F97"/>
<mask id="mask11_313_4871" style="mask-type:luminance" maskUnits="userSpaceOnUse" x="722" y="240" width="101" height="185">
<path d="M822.082 240.374H722.064V424.798H822.082V240.374Z" fill="white"/>
<path d="M759.088 401.031L750.929 388.7C754.491 386.574 757.493 383.728 759.934 380.157C762.355 376.698 764.013 372.367 764.905 367.166L776.8 297.944L794.105 300.903L782.099 370.79C780.729 378.757 778.19 385.216 774.488 390.164C770.891 395.132 765.762 398.754 759.088 401.031ZM779.911 272.845C780.371 270.188 781.806 268.155 784.216 266.745C786.625 265.334 789.053 264.839 791.494 265.256C794.047 265.692 796.169 266.967 797.857 269.078C799.552 271.19 800.17 273.575 799.715 276.231C799.261 278.887 797.877 280.93 795.578 282.358C793.3 283.678 790.877 284.119 788.326 283.681C785.891 283.265 783.754 282.046 781.937 280.025C780.131 277.895 779.456 275.501 779.911 272.845Z" fill="black"/>
</mask>
<g mask="url(#mask11_313_4871)">
<path d="M759.086 401.031L748.248 408.167L753.783 416.533L763.29 413.289L759.086 401.031ZM750.928 388.7L744.264 377.581L732.611 384.531L740.09 395.837L750.928 388.7ZM759.933 380.158L749.286 372.739L749.245 372.799L749.204 372.858L759.933 380.158ZM776.8 297.944L778.995 285.175L766.196 282.987L764 295.755L776.8 297.944ZM794.104 300.903L806.903 303.092L809.097 290.323L796.299 288.134L794.104 300.903ZM774.488 390.164L764.081 382.411L764.017 382.497L763.955 382.583L774.488 390.164ZM795.578 282.359L802.084 293.57L802.266 293.467L802.442 293.357L795.578 282.359ZM781.936 280.025L772.008 288.383L772.144 288.54L772.28 288.692L781.936 280.025ZM769.924 393.894L761.767 381.564L740.09 395.837L748.248 408.167L769.924 393.894ZM757.592 399.82C762.842 396.688 767.209 392.51 770.664 387.458L749.204 372.858C747.777 374.945 746.139 376.461 744.264 377.581L757.592 399.82ZM770.579 387.576C774.332 382.211 776.565 375.979 777.702 369.356L752.105 364.979C751.456 368.758 750.373 371.186 749.286 372.739L770.579 387.576ZM777.702 369.356L789.597 300.133L764 295.755L752.105 364.979L777.702 369.356ZM774.605 310.713L791.909 313.673L796.299 288.134L778.995 285.175L774.605 310.713ZM781.306 298.715L769.3 368.601L794.897 372.978L806.903 303.092L781.306 298.715ZM769.3 368.601C768.17 375.152 766.241 379.53 764.081 382.411L784.891 397.918C790.143 390.902 793.286 382.364 794.897 372.978L769.3 368.601ZM763.955 382.583C762.16 385.064 759.402 387.23 754.883 388.773L763.29 413.289C772.111 410.278 779.624 405.2 785.014 397.748L763.955 382.583ZM792.714 275.033C792.643 275.439 792.436 276.099 791.949 276.783C791.474 277.457 790.981 277.806 790.779 277.923L777.651 255.568C772.066 258.833 768.241 264.085 767.112 270.656L792.714 275.033ZM790.779 277.923C790.916 277.843 790.799 277.935 790.455 278.007C790.085 278.082 789.67 278.089 789.299 278.025L793.689 252.486C787.839 251.487 782.339 252.826 777.651 255.568L790.779 277.923ZM789.299 278.025C789.059 277.983 788.688 277.87 788.299 277.639C787.922 277.413 787.741 277.199 787.715 277.168L808.007 260.989C804.428 256.527 799.532 253.486 793.689 252.486L789.299 278.025ZM787.715 277.168C787.533 276.94 787.215 276.438 787.02 275.696C786.826 274.951 786.864 274.349 786.916 274.042L812.512 278.419C813.597 272.102 812.006 265.98 808.007 260.989L787.715 277.168ZM786.916 274.042C786.968 273.736 787.137 273.156 787.566 272.519C787.994 271.883 788.462 271.515 788.715 271.36L802.442 293.357C807.876 289.979 811.428 284.738 812.512 278.419L786.916 274.042ZM789.072 271.148C789.124 271.116 789.351 271.001 789.715 270.935C790.085 270.867 790.377 270.888 790.519 270.913L786.137 296.452C791.741 297.41 797.228 296.376 802.084 293.57L789.072 271.148ZM790.519 270.913C790.792 270.959 791.092 271.063 791.358 271.215C791.611 271.359 791.676 271.458 791.585 271.359L772.28 288.692C775.845 292.647 780.52 295.492 786.137 296.452L790.519 270.913ZM791.858 271.668C792.007 271.845 792.358 272.337 792.578 273.13C792.805 273.936 792.78 274.629 792.714 275.033L767.112 270.656C765.982 277.228 767.832 283.449 772.008 288.383L791.858 271.668Z" fill="black"/>
</g>
<path d="M833.172 310.223L850.101 314.195L833.9 382.888L816.979 378.916L833.172 310.223ZM837.984 285.399C838.608 282.775 840.159 280.834 842.653 279.574C845.146 278.313 847.601 277.966 850.01 278.532C852.529 279.124 854.568 280.525 856.133 282.736C857.691 284.948 858.159 287.365 857.541 289.988C856.925 292.612 855.425 294.566 853.035 295.852C850.678 297.029 848.243 297.321 845.717 296.73C843.309 296.165 841.257 294.818 839.562 292.69C837.893 290.452 837.367 288.022 837.984 285.399Z" fill="#10AC84"/>
<mask id="mask12_313_4871" style="mask-type:luminance" maskUnits="userSpaceOnUse" x="794" y="254" width="83" height="145">
<path d="M876.49 254.577H794.701V398.863H876.49V254.577Z" fill="white"/>
<path d="M833.172 310.221L850.101 314.193L833.899 382.887L816.979 378.915L833.172 310.221ZM837.984 285.398C838.607 282.774 840.159 280.833 842.652 279.573C845.145 278.312 847.6 277.965 850.01 278.53C852.529 279.122 854.567 280.523 856.133 282.735C857.69 284.947 858.159 287.364 857.541 289.986C856.924 292.61 855.424 294.565 853.035 295.85C850.678 297.028 848.243 297.32 845.717 296.729C843.308 296.164 841.257 294.817 839.562 292.689C837.893 290.451 837.367 288.02 837.984 285.398Z" fill="black"/>
</mask>
<g mask="url(#mask12_313_4871)">
<path d="M833.173 310.221L836.148 297.609L823.505 294.643L820.531 307.254L833.173 310.221ZM850.102 314.193L862.743 317.161L865.717 304.548L853.075 301.582L850.102 314.193ZM833.9 382.887L830.927 395.499L843.569 398.466L846.543 385.853L833.9 382.887ZM816.98 378.915L804.337 375.948L801.363 388.56L814.005 391.526L816.98 378.915ZM853.036 295.85L858.848 307.438L859.03 307.345L859.217 307.248L853.036 295.85ZM839.563 292.689L829.148 300.424L829.27 300.588L829.394 300.748L839.563 292.689ZM830.199 322.832L847.127 326.805L853.075 301.582L836.148 297.609L830.199 322.832ZM837.459 311.227L821.265 379.921L846.543 385.853L862.743 317.161L837.459 311.227ZM836.874 370.276L819.953 366.304L814.005 391.526L830.927 395.499L836.874 370.276ZM829.615 381.882L845.816 313.187L820.531 307.254L804.337 375.948L829.615 381.882ZM850.627 288.364C850.537 288.765 850.282 289.411 849.764 290.064C849.244 290.708 848.731 291.025 848.523 291.13L836.79 268.015C831.011 270.932 826.875 275.94 825.342 282.432L850.627 288.364ZM848.523 291.13C848.666 291.06 848.543 291.144 848.192 291.194C847.816 291.246 847.407 291.228 847.036 291.142L852.984 265.919C847.212 264.564 841.64 265.564 836.79 268.015L848.523 291.13ZM847.036 291.142C846.796 291.086 846.439 290.949 846.069 290.695C845.705 290.447 845.53 290.222 845.51 290.19L866.75 275.28C863.458 270.607 858.757 267.274 852.984 265.919L847.036 291.142ZM845.51 290.19C845.341 289.95 845.05 289.43 844.906 288.677C844.757 287.922 844.828 287.323 844.901 287.021L870.185 292.954C871.658 286.714 870.438 280.505 866.75 275.28L845.51 290.19ZM844.901 287.021C844.972 286.718 845.179 286.15 845.647 285.54C846.114 284.93 846.601 284.593 846.861 284.455L859.217 307.248C864.847 304.209 868.71 299.194 870.185 292.954L844.901 287.021ZM847.231 284.263C847.289 284.234 847.523 284.134 847.887 284.09C848.264 284.045 848.556 284.084 848.692 284.118L842.744 309.339C848.283 310.639 853.828 309.943 858.848 307.438L847.231 284.263ZM848.692 284.118C848.958 284.179 849.257 284.303 849.511 284.47C849.751 284.629 849.815 284.732 849.731 284.628L829.394 300.748C832.712 304.914 837.206 308.039 842.744 309.339L848.692 284.118ZM849.978 284.952C850.12 285.139 850.439 285.651 850.615 286.457C850.79 287.275 850.724 287.964 850.627 288.364L825.342 282.432C823.816 288.921 825.284 295.244 829.148 300.424L849.978 284.952Z" fill="black"/>
</g>
<path d="M897.25 404.078L879.945 323.208L899.659 329.15L908.73 388.889L898.698 385.337L936.995 340.402L955.579 346.003L897.899 404.274L897.25 404.078Z" fill="#FF9F43"/>
<mask id="mask13_313_4871" style="mask-type:luminance" maskUnits="userSpaceOnUse" x="832" y="303" width="149" height="136">
<path d="M980.606 303.702H832.46V438.51H980.606V303.702Z" fill="white"/>
<path d="M897.25 404.078L879.945 323.208L899.659 329.15L908.73 388.889L898.698 385.337L936.995 340.402L955.579 346.003L897.899 404.274L897.25 404.078Z" fill="black"/>
</mask>
<g mask="url(#mask13_313_4871)">
<path d="M897.251 404.079L884.555 406.784L886.153 414.268L893.497 416.482L897.251 404.079ZM879.945 323.209L883.699 310.807L862.654 304.464L867.244 325.914L879.945 323.209ZM899.659 329.151L912.503 327.211L911.276 319.116L903.419 316.749L899.659 329.151ZM908.73 388.889L904.387 401.099L924.814 408.33L921.574 386.948L908.73 388.889ZM898.698 385.337L888.802 376.944L876.602 391.263L894.354 397.546L898.698 385.337ZM936.995 340.402L940.748 328L932.606 325.547L927.099 332.01L936.995 340.402ZM955.579 346.003L964.819 355.107L979.955 339.816L959.332 333.602L955.579 346.003ZM897.9 404.274L894.146 416.676L901.639 418.935L907.139 413.378L897.9 404.274ZM909.95 401.374L892.646 320.504L867.244 325.914L884.555 406.784L909.95 401.374ZM876.193 335.612L895.906 341.554L903.419 316.749L883.699 310.807L876.193 335.612ZM886.821 331.091L895.893 390.829L921.574 386.948L912.503 327.211L886.821 331.091ZM913.074 376.679L903.036 373.128L894.354 397.546L904.387 401.099L913.074 376.679ZM908.588 393.729L946.884 348.795L927.099 332.01L888.802 376.944L908.588 393.729ZM933.235 352.804L951.825 358.406L959.332 333.602L940.748 328L933.235 352.804ZM946.339 336.9L888.66 395.171L907.139 413.378L964.819 355.107L946.339 336.9ZM901.652 391.872L901.01 391.678L893.497 416.482L894.146 416.676L901.652 391.872Z" fill="black"/>
</g>
<path d="M980.123 438.438C974.007 435.855 968.987 432.271 965.065 427.687C961.189 423.001 958.878 417.511 958.125 411.219C957.37 404.927 958.579 398.059 961.741 390.614C964.857 383.274 969.033 377.602 974.279 373.599C979.63 369.64 985.382 367.315 991.538 366.626C997.85 365.878 1003.95 366.75 1009.86 369.246C1016.08 371.873 1020.59 375.364 1023.39 379.716C1026.33 384.009 1028.2 388.394 1028.98 392.873L1026.84 394.895L1033.86 382.68L1048.63 388.919L1021.04 453.9L1005.03 447.134L1011.95 430.851L1012 435.449C1011.24 436.102 1009.86 436.918 1007.85 437.9C1005.89 438.778 1003.42 439.563 1000.43 440.253C997.558 440.988 994.37 441.29 990.883 441.157C987.545 440.964 983.954 440.058 980.123 438.438ZM990.006 427.25C993.422 428.696 996.746 429.366 999.967 429.265C1003.19 429.162 1006.21 428.368 1009.04 426.881C1011.88 425.396 1014.31 423.254 1016.36 420.459L1022.08 406.967C1022.49 403.721 1022.14 400.649 1021.04 397.75C1020 394.745 1018.34 392.033 1016.07 389.61C1013.9 387.23 1011.16 385.34 1007.84 383.939C1004.11 382.362 1000.3 381.848 996.395 382.395C992.538 382.839 988.999 384.27 985.773 386.687C982.545 389.104 980.032 392.431 978.233 396.67C976.526 400.702 975.896 404.767 976.358 408.864C976.922 413.004 978.397 416.735 980.772 420.058C983.194 423.276 986.273 425.673 990.006 427.25Z" fill="#EE5253"/>
<mask id="mask14_313_4871" style="mask-type:luminance" maskUnits="userSpaceOnUse" x="927" y="334" width="146" height="145">
<path d="M1072.41 334.169H927.716V478.519H1072.41V334.169Z" fill="white"/>
<path d="M980.123 438.438C974.007 435.855 968.987 432.271 965.065 427.687C961.189 423.001 958.878 417.511 958.125 411.219C957.37 404.927 958.579 398.059 961.741 390.614C964.857 383.274 969.033 377.602 974.279 373.599C979.63 369.64 985.382 367.315 991.538 366.626C997.85 365.878 1003.95 366.75 1009.86 369.246C1016.08 371.873 1020.59 375.364 1023.39 379.716C1026.33 384.009 1028.2 388.394 1028.98 392.873L1026.84 394.895L1033.86 382.68L1048.63 388.919L1021.04 453.9L1005.03 447.134L1011.95 430.851L1012 435.449C1011.24 436.102 1009.86 436.918 1007.85 437.9C1005.89 438.778 1003.42 439.563 1000.43 440.253C997.558 440.988 994.37 441.29 990.883 441.157C987.545 440.964 983.954 440.058 980.123 438.438ZM990.006 427.25C993.422 428.696 996.746 429.366 999.967 429.265C1003.19 429.162 1006.21 428.368 1009.04 426.881C1011.88 425.396 1014.31 423.254 1016.36 420.459L1022.08 406.967C1022.49 403.721 1022.14 400.649 1021.04 397.75C1020 394.745 1018.34 392.033 1016.07 389.61C1013.9 387.23 1011.16 385.34 1007.84 383.939C1004.11 382.362 1000.3 381.848 996.395 382.395C992.538 382.839 988.999 384.27 985.773 386.687C982.545 389.104 980.032 392.431 978.233 396.67C976.526 400.702 975.896 404.767 976.358 408.864C976.922 413.004 978.397 416.735 980.772 420.058C983.194 423.276 986.273 425.673 990.006 427.25Z" fill="black"/>
</mask>
<g mask="url(#mask14_313_4871)">
<path d="M965.065 427.688L955.052 435.934L955.117 436.017L955.188 436.099L965.065 427.688ZM974.278 373.6L966.538 363.196L966.46 363.253L966.389 363.31L974.278 373.6ZM991.537 366.626L992.992 379.501L993.077 379.492L991.537 366.626ZM1023.39 379.716L1012.45 386.709L1012.56 386.872L1012.67 387.032L1023.39 379.716ZM1028.98 392.873L1037.91 402.283L1042.98 397.496L1041.78 390.634L1028.98 392.873ZM1026.84 394.895L1015.58 388.451L1035.77 404.305L1026.84 394.895ZM1033.86 382.68L1038.93 370.749L1028.32 366.269L1022.59 376.236L1033.86 382.68ZM1048.63 388.92L1060.59 393.972L1065.65 382.043L1053.7 376.989L1048.63 388.92ZM1021.04 453.9L1015.98 465.829L1027.93 470.883L1033 458.952L1021.04 453.9ZM1005.03 447.135L993.07 442.083L988.005 454.012L999.966 459.064L1005.03 447.135ZM1011.95 430.851L1024.93 430.671L999.986 425.798L1011.95 430.851ZM1012 435.45L1020.44 445.304L1025.08 441.355L1024.99 435.271L1012 435.45ZM1007.85 437.901L1013.17 449.721L1013.37 449.63L1013.57 449.532L1007.85 437.901ZM1000.43 440.254L997.498 427.635L997.356 427.667L997.213 427.702L1000.43 440.254ZM990.882 441.157L990.135 454.091L990.265 454.098L990.388 454.104L990.882 441.157ZM1016.35 420.46L1026.85 428.092L1027.73 426.886L1028.32 425.513L1016.35 420.46ZM1022.08 406.967L1034.04 412.02L1034.75 410.35L1034.97 408.548L1022.08 406.967ZM1021.04 397.75L1008.78 402.007L1008.83 402.155L1008.89 402.303L1021.04 397.75ZM1016.07 389.61L1006.46 398.325L1006.52 398.393L1006.58 398.46L1016.07 389.61ZM996.394 382.396L997.887 395.265L998.044 395.248L998.206 395.225L996.394 382.396ZM976.357 408.864L963.454 410.309L963.467 410.461L963.494 410.61L976.357 408.864ZM980.772 420.058L970.207 427.589L970.298 427.714L970.388 427.838L980.772 420.058ZM985.186 426.508C980.739 424.63 977.428 422.184 974.947 419.278L955.188 436.099C960.546 442.359 967.273 447.079 975.058 450.368L985.186 426.508ZM975.084 419.441C972.863 416.756 971.486 413.624 971.019 409.688L945.228 412.752C946.26 421.4 949.52 429.247 955.052 435.934L975.084 419.441ZM971.019 409.688C970.597 406.171 971.181 401.597 973.694 395.668L949.78 385.562C945.974 394.521 944.144 403.684 945.228 412.752L971.019 409.688ZM973.694 395.668C976.116 389.961 979.057 386.267 982.167 383.889L966.389 363.31C959.013 368.937 953.591 376.587 949.78 385.562L973.694 395.668ZM982.018 384.003C985.668 381.303 989.278 379.917 992.992 379.501L990.089 353.752C981.485 354.715 973.59 357.979 966.538 363.196L982.018 384.003ZM993.077 379.492C997.115 379.011 1000.95 379.55 1004.8 381.177L1014.93 357.317C1006.96 353.95 998.582 352.744 990.005 353.762L993.077 379.492ZM1004.8 381.177C1009.33 383.091 1011.44 385.133 1012.45 386.709L1034.32 372.724C1029.74 365.595 1022.83 360.657 1014.93 357.317L1004.8 381.177ZM1012.67 387.032C1014.72 390.018 1015.77 392.698 1016.19 395.111L1041.78 390.634C1040.63 384.09 1037.95 377.999 1034.1 372.399L1012.67 387.032ZM1020.06 383.462L1017.91 385.484L1035.77 404.305L1037.91 402.283L1020.06 383.462ZM1038.11 401.338L1045.13 389.123L1022.59 376.236L1015.58 388.451L1038.11 401.338ZM1028.8 394.609L1043.56 400.849L1053.7 376.989L1038.93 370.749L1028.8 394.609ZM1036.67 383.867L1009.08 448.848L1033 458.952L1060.59 393.972L1036.67 383.867ZM1026.11 441.971L1010.1 435.204L999.966 459.064L1015.98 465.829L1026.11 441.971ZM1016.98 452.187L1023.9 435.904L999.986 425.798L993.07 442.083L1016.98 452.187ZM998.959 431.03L999.024 435.63L1024.99 435.271L1024.93 430.671L998.959 431.03ZM1003.58 425.597C1003.82 425.389 1003.97 425.283 1003.99 425.278C1004 425.268 1003.94 425.307 1003.79 425.398C1003.47 425.585 1002.94 425.874 1002.13 426.269L1013.57 449.532C1015.66 448.507 1018.34 447.096 1020.44 445.304L1003.58 425.597ZM1002.53 426.08C1001.58 426.506 999.972 427.06 997.498 427.635L1003.37 452.874C1006.85 452.066 1010.19 451.051 1013.17 449.721L1002.53 426.08ZM997.213 427.702C995.739 428.08 993.83 428.305 991.375 428.212L990.388 454.104C994.914 454.275 999.368 453.899 1003.65 452.805L997.213 427.702ZM991.628 428.222C990.089 428.134 987.972 427.686 985.186 426.508L975.058 450.368C979.941 452.432 984.992 453.795 990.135 454.091L991.628 428.222ZM984.94 439.18C989.823 441.245 995.012 442.383 1000.37 442.214L999.55 416.316C998.478 416.35 997.018 416.146 995.07 415.321L984.94 439.18ZM1000.37 442.214C1005.55 442.05 1010.5 440.754 1015.09 438.347L1003 415.417C1001.92 415.983 1000.82 416.276 999.55 416.316L1000.37 442.214ZM1015.09 438.347C1019.82 435.863 1023.74 432.35 1026.85 428.092L1005.86 412.829C1004.89 414.16 1003.93 414.929 1003 415.417L1015.09 438.347ZM1028.32 425.513L1034.04 412.02L1010.13 401.915L1004.39 415.407L1028.32 425.513ZM1034.97 408.548C1035.61 403.348 1035.07 398.162 1033.2 393.197L1008.89 402.303C1009.2 403.138 1009.36 404.097 1009.19 405.386L1034.97 408.548ZM1033.31 393.493C1031.64 388.708 1029.01 384.446 1025.56 380.761L1006.58 398.46C1007.67 399.62 1008.35 400.785 1008.78 402.007L1033.31 393.493ZM1025.68 380.897C1022.1 376.974 1017.75 374.056 1012.91 372.009L1002.78 395.869C1004.57 396.626 1005.69 397.488 1006.46 398.325L1025.68 380.897ZM1012.91 372.009C1007.08 369.546 1000.89 368.683 994.59 369.567L998.206 395.225C999.706 395.015 1001.15 395.181 1002.78 395.869L1012.91 372.009ZM994.907 369.526C988.667 370.244 982.966 372.587 977.973 376.327L993.57 397.047C995.03 395.953 996.414 395.436 997.887 395.265L994.907 369.526ZM977.973 376.327C972.668 380.303 968.837 385.582 966.278 391.618L990.193 401.724C991.233 399.281 992.428 397.904 993.57 397.047L977.973 376.327ZM966.278 391.618C963.752 397.567 962.727 403.863 963.454 410.309L989.265 407.42C989.07 405.672 989.298 403.839 990.193 401.724L966.278 391.618ZM963.494 410.61C964.331 416.786 966.571 422.512 970.207 427.589L991.342 412.527C990.22 410.96 989.511 409.224 989.225 407.119L963.494 410.61ZM970.388 427.838C974.194 432.891 979.11 436.717 984.94 439.18L995.07 415.321C993.44 414.631 992.2 413.661 991.16 412.278L970.388 427.838Z" fill="black"/>
</g>
<path d="M322.191 539.54C320.811 541.293 318.768 543.173 316.061 545.18C313.355 547.188 310.23 549.105 306.686 550.931C303.252 552.736 299.665 554.342 295.926 555.748C292.207 557.265 288.635 558.353 285.209 559.013C275.485 560.885 266.466 561.079 258.155 559.592C249.843 558.104 242.413 555.248 235.863 551.02C229.313 546.793 223.864 541.439 219.515 534.957C215.255 528.345 212.314 520.848 210.693 512.471C208.709 502.217 208.606 492.802 210.386 484.227C212.165 475.651 215.35 468.118 219.941 461.631C224.62 455.011 230.396 449.612 237.266 445.429C244.227 441.116 251.795 438.172 259.973 436.597C267.156 435.213 273.946 434.762 280.344 435.246C286.853 435.708 292.573 436.836 297.506 438.63L294.841 455.955C292.395 455.167 289.409 454.541 285.88 454.077C282.44 453.483 278.943 453.184 275.39 453.182C271.836 453.179 268.623 453.456 265.749 454.008C258.677 455.372 252.525 457.642 247.295 460.823C242.154 463.872 237.967 467.708 234.735 472.332C231.503 476.958 229.315 482.239 228.172 488.177C227.139 494.093 227.295 500.525 228.639 507.47C229.855 513.754 232.08 519.329 235.314 524.195C238.528 528.951 242.497 532.876 247.221 535.968C251.925 538.95 257.242 540.956 263.173 541.987C269.082 542.908 275.408 542.718 282.149 541.42C286.017 540.675 289.755 539.554 293.362 538.06C296.97 536.565 299.961 534.845 302.337 532.9L298.113 511.071L274.905 515.542L271.609 498.508L312.719 490.591L322.191 539.54Z" fill="white"/>
<path d="M376.342 541.539C368.183 542.505 361.012 541.772 354.828 539.339C348.632 536.794 343.637 532.92 339.843 527.716C336.037 522.4 333.702 516.119 332.839 508.871C332.017 501.959 333.005 495.51 335.806 489.524C338.705 483.414 342.918 478.335 348.443 474.289C354.08 470.229 360.531 467.768 367.795 466.907C377.183 465.794 385.277 467.606 392.075 472.34C398.983 477.063 404.083 484.203 407.376 493.763L352.558 520.273L347.34 510.714L391.155 488.901L387.893 491.493C386.141 488.194 383.659 485.437 380.448 483.216C377.223 480.885 373.097 480.017 368.068 480.613C364.044 481.09 360.531 482.524 357.529 484.914C354.626 487.181 352.43 490.156 350.941 493.837C349.55 497.393 349.128 501.458 349.672 506.028C350.23 510.712 351.671 514.724 353.996 518.067C356.42 521.285 359.427 523.699 363.018 525.308C366.722 526.906 370.698 527.451 374.944 526.949C377.962 526.591 380.746 525.695 383.295 524.262C385.956 522.816 388.417 521.112 390.677 519.148L400.07 530.925C396.66 533.703 392.863 536.075 388.677 538.041C384.589 539.883 380.476 541.048 376.342 541.539Z" fill="white"/>
<path d="M419.39 495.575C419.025 488.51 420.382 482.089 423.464 476.308C426.54 470.416 430.973 465.691 436.761 462.132C442.55 458.572 449.266 456.596 456.91 456.203C464.665 455.803 471.549 457.078 477.563 460.028C483.575 462.98 488.303 467.233 491.747 472.79C495.297 478.229 497.254 484.479 497.62 491.544C497.986 498.609 496.688 505.084 493.723 510.971C490.872 516.852 486.612 521.625 480.941 525.289C475.265 528.843 468.493 530.822 460.625 531.227C453.093 531.615 446.271 530.449 440.157 527.729C434.156 525.003 429.268 520.926 425.493 515.499C421.825 509.954 419.791 503.313 419.39 495.575ZM436.934 494.841C437.159 499.213 438.321 503.145 440.418 506.635C442.508 510.013 445.239 512.683 448.609 514.645C451.973 516.496 455.678 517.316 459.725 517.108C463.884 516.893 467.539 515.693 470.695 513.507C473.844 511.208 476.228 508.275 477.846 504.705C479.572 501.019 480.321 496.989 480.095 492.616C479.868 488.243 478.71 484.368 476.619 480.99C474.64 477.606 471.966 474.933 468.597 472.971C465.227 471.008 461.463 470.134 457.304 470.349C453.145 470.563 449.49 471.819 446.342 474.118C443.192 476.417 440.755 479.409 439.03 483.095C437.412 486.665 436.712 490.579 436.934 494.841Z" fill="white"/>
<path d="M544.472 559.45C538.957 559.392 534.18 558.723 530.142 557.445C526.103 556.169 522.464 554.389 519.225 552.109C516.096 549.942 513.082 547.609 510.182 545.108L520.606 533.259C524.061 536.552 527.635 539.173 531.329 541.12C535.021 543.181 539.343 544.237 544.295 544.289C549.246 544.342 553.476 543.544 556.983 541.897C560.601 540.364 563.382 538.147 565.326 535.247C567.271 532.348 568.264 528.878 568.307 524.837L568.671 506.481L569.817 509.862C567.855 514.445 564.268 518.338 559.056 521.539C553.846 524.627 547.47 526.133 539.93 526.052C533.515 525.986 527.567 524.294 522.088 520.98C516.72 517.666 512.434 513.186 509.23 507.537C506.026 501.89 504.461 495.529 504.536 488.456C504.614 481.046 506.372 474.551 509.807 468.973C513.357 463.284 517.962 458.842 523.625 455.644C529.288 452.335 535.326 450.716 541.742 450.782C548.044 450.85 553.658 452.144 558.584 454.666C563.512 457.076 567.194 460.09 569.631 463.71L568.588 466.562L570.577 454.119L586.614 454.288L585.862 525.19C585.793 531.703 583.986 537.522 580.443 542.65C577.011 547.891 572.24 551.996 566.131 554.963C560.019 558.042 552.8 559.538 544.472 559.45ZM522.098 488.135C522.051 492.514 523.022 496.51 525.01 500.125C526.997 503.74 529.725 506.631 533.191 508.801C536.77 510.86 540.756 511.913 545.144 511.96C549.084 512.001 552.636 511.365 555.802 510.051C558.968 508.625 561.634 506.743 563.796 504.409C566.074 501.963 567.736 499.116 568.783 495.871L568.939 481.219C567.961 477.952 566.358 475.184 564.13 472.915C561.904 470.534 559.223 468.653 556.086 467.272C552.95 465.891 549.468 465.181 545.642 465.14C541.252 465.094 537.246 466.063 533.623 468.045C530.114 469.917 527.328 472.583 525.266 476.042C523.203 479.501 522.147 483.533 522.098 488.135Z" fill="white"/>
<path d="M629.818 454.474L630.476 474.743L629.77 472.009C631.898 467.845 634.782 464.337 638.42 461.486C642.058 458.635 645.773 456.519 649.563 455.137C653.469 453.648 656.716 452.97 659.302 453.101L657.585 470.215C652.207 469.605 647.434 470.376 643.268 472.526C639.213 474.68 635.962 477.663 633.514 481.475C631.066 485.285 629.729 489.434 629.5 493.919L627.915 525.038L610.717 524.165L614.306 453.688L629.818 454.474Z" fill="white"/>
<path d="M696.287 529.071C689.693 528.293 683.871 526.25 678.823 522.941C673.787 519.521 670.029 514.895 667.546 509.062C665.063 503.23 664.298 496.299 665.249 488.27C666.187 480.354 668.613 473.743 672.527 468.439C676.554 463.146 681.428 459.311 687.15 456.933C692.997 454.456 699.105 453.593 705.477 454.344C712.183 455.136 717.488 457.23 721.391 460.63C725.421 463.932 728.44 467.623 730.451 471.704L728.96 474.242L732.281 460.557L748.208 462.434L739.909 532.516L722.64 530.479L724.719 512.918L726.069 517.318C725.515 518.156 724.414 519.327 722.763 520.828C721.124 522.217 718.971 523.659 716.3 525.154C713.742 526.661 710.769 527.837 707.383 528.681C704.121 529.428 700.422 529.557 696.287 529.071ZM702.645 515.574C706.333 516.008 709.71 515.728 712.775 514.733C715.839 513.737 718.523 512.131 720.825 509.915C723.127 507.699 724.869 504.965 726.047 501.712L727.77 487.16C727.245 483.933 726.054 481.078 724.194 478.598C722.347 476.006 719.995 473.863 717.136 472.17C714.388 470.489 711.226 469.438 707.648 469.016C703.624 468.541 699.817 469.11 696.227 470.723C692.649 472.224 689.649 474.584 687.228 477.803C684.807 481.022 683.326 484.918 682.785 489.49C682.27 493.838 682.807 497.915 684.396 501.72C686.096 505.539 688.555 508.712 691.769 511.239C694.996 513.654 698.621 515.1 702.645 515.574Z" fill="white"/>
<path d="M769.703 534.833L779.033 480.38L767.216 478.365L769.807 463.258L781.624 465.273L786.455 437.05C788.163 427.09 791.871 419.804 797.566 415.195C803.266 410.586 810.669 409.057 819.766 410.608C822.207 411.024 824.856 411.875 827.72 413.161C830.603 414.335 833.071 415.897 835.135 417.844L825.849 429.074C825.038 427.797 824.005 426.823 822.752 426.154C821.61 425.503 820.37 425.064 819.039 424.836C815.156 424.175 811.877 424.982 809.202 427.26C806.526 429.538 804.643 433.887 803.539 440.306L798.76 468.196L820.726 471.943L818.142 487.049L796.175 483.303L786.845 537.755L769.703 534.833Z" fill="white"/>
<path d="M842.98 475.21L859.999 478.757L845.538 547.835L828.513 544.287L842.98 475.21ZM847.168 450.274C847.72 447.636 849.226 445.655 851.688 444.333C854.148 443.011 856.589 442.603 859.018 443.108C861.55 443.636 863.622 444.986 865.238 447.157C866.855 449.329 867.388 451.734 866.83 454.372C866.277 457.01 864.829 459.001 862.479 460.347C860.148 461.582 857.72 461.936 855.181 461.408C852.759 460.902 850.675 459.608 848.927 457.523C847.2 455.327 846.616 452.911 847.168 450.274Z" fill="white"/>
<path d="M864.549 586.022L857.4 573.079C861.128 571.245 864.342 568.646 867.062 565.282C869.757 562.027 871.751 557.843 873.062 552.729L890.464 484.677L907.477 489.006L889.906 557.712C887.906 565.545 884.861 571.78 880.769 576.417C876.79 581.083 871.381 584.284 864.549 586.022ZM895.575 459.906C896.244 457.295 897.84 455.383 900.354 454.169C902.873 452.956 905.327 452.655 907.73 453.265C910.236 453.904 912.249 455.342 913.769 457.583C915.288 459.823 915.71 462.249 915.041 464.86C914.379 467.471 912.84 469.397 910.431 470.638C908.048 471.771 905.606 472.018 903.1 471.38C900.698 470.77 898.672 469.385 897.016 467.225C895.387 464.957 894.912 462.517 895.575 459.906Z" fill="white"/>
<path d="M927.188 565.61C921.007 563.18 915.904 559.724 911.865 555.239C907.871 550.651 905.423 545.221 904.514 538.949C903.605 532.678 904.638 525.782 907.611 518.261C910.541 510.845 914.578 505.07 919.721 500.938C924.968 496.846 930.656 494.379 936.799 493.536C943.084 492.629 949.213 493.349 955.182 495.696C961.467 498.167 966.057 501.544 968.96 505.825C972.011 510.042 973.992 514.38 974.888 518.838L972.797 520.911L979.511 508.525L994.433 514.393L968.485 580.044L952.305 573.681L958.81 557.23L958.986 561.826C958.239 562.497 956.877 563.348 954.896 564.38C952.954 565.305 950.506 566.152 947.538 566.918C944.681 567.724 941.506 568.104 938.013 568.058C934.668 567.95 931.058 567.134 927.188 565.61ZM936.785 554.178C940.24 555.538 943.578 556.127 946.792 555.944C950.012 555.761 953.019 554.891 955.811 553.334C958.603 551.778 960.987 549.576 962.96 546.731L968.343 533.101C968.661 529.846 968.239 526.783 967.077 523.911C965.953 520.935 964.226 518.264 961.895 515.9C959.668 513.575 956.882 511.753 953.532 510.435C949.759 508.953 945.935 508.534 942.052 509.179C938.207 509.719 934.701 511.237 931.539 513.733C928.377 516.23 925.948 519.62 924.253 523.903C922.644 527.976 922.118 532.056 922.682 536.139C923.351 540.264 924.917 543.957 927.377 547.22C929.876 550.376 933.013 552.695 936.785 554.178Z" fill="white"/>
</g>
</g>
</g>
</g>
<defs>
<linearGradient id="paint0_linear_313_4871" x1="223.773" y1="-196.994" x2="868.466" y2="1122.21" gradientUnits="userSpaceOnUse">
<stop/>
<stop offset="0.567375" stop-color="#341F97"/>
<stop offset="0.645658" stop-color="#48DBFB"/>
<stop offset="0.774459" stop-color="#2E86DE"/>
</linearGradient>
<linearGradient id="paint1_linear_313_4871" x1="373.474" y1="-482.474" x2="1186.41" y2="1023.82" gradientUnits="userSpaceOnUse">
<stop/>
<stop offset="0.637643"/>
<stop offset="0.714338" stop-opacity="0.14"/>
<stop offset="1" stop-opacity="0"/>
</linearGradient>
<clipPath id="clip0_313_4871">
<rect width="1154" height="583" fill="white" transform="translate(23 23)"/>
</clipPath>
<clipPath id="clip1_313_4871">
<rect width="1676" height="942" fill="white" transform="translate(-238 -156)"/>
</clipPath>
</defs>
</svg>
