<svg width="1200" height="630" viewBox="0 0 1200 630" fill="none" xmlns="http://www.w3.org/2000/svg">
<g clip-path="url(#clip0_313_4871)">
<g clip-path="url(#clip1_313_4871)">
<mask id="mask0_313_4871" style="mask-type:luminance" maskUnits="userSpaceOnUse" x="-238" y="-156" width="1676" height="942">
<path d="M1438 -156H-238V786H1438V-156Z" fill="white"/>
</mask>
<g mask="url(#mask0_313_4871)">
<path d="M1438 -156H-238V786H1438V-156Z" fill="url(#paint0_linear_313_4871)"/>
<mask id="mask1_313_4871" style="mask-type:alpha" maskUnits="userSpaceOnUse" x="-589" y="-745" width="2349" height="2080">
<path d="M1335.4 -744.147L-588.452 -220.801L-164.732 1334.34L1759.12 810.996L1335.4 -744.147Z" fill="url(#paint1_linear_313_4871)"/>
</mask>
<g mask="url(#mask1_313_4871)">
<path fill-rule="evenodd" clip-rule="evenodd" d="M284.263 -160.528L282.336 -164.133L282.756 -160.068L279.148 -158.143L283.217 -158.563L285.143 -154.958L284.723 -159.023L288.331 -160.948L284.263 -160.528ZM700.516 -141.555L696.099 -144.303L691.883 -141.253L694.633 -145.669L691.578 -149.882L696.003 -147.134L700.22 -150.184L697.47 -145.768L700.516 -141.555ZM-226.236 -134.856L-226.233 -133.37L-225.673 -134.747L-224.186 -134.75L-225.564 -135.309L-225.567 -136.795L-226.126 -135.418L-227.614 -135.415L-226.236 -134.856ZM-21.81 179.064L-17.7212 178.986L-16.2486 175.173L-16.1701 179.259L-12.3537 180.73L-16.4433 180.809L-17.9159 184.621L-17.9945 180.536L-21.81 179.064ZM1305.82 511.65L1305.91 513.878L1308.01 514.644L1305.77 514.726L1305 516.819L1304.92 514.592L1302.83 513.826L1305.05 513.744L1305.82 511.65ZM824.671 760.208L822.306 757.845L823.606 760.924L821.241 763.296L824.331 761.997L826.696 764.351L825.396 761.273L827.761 758.9L824.671 760.208ZM1038.13 299.774L1038.27 303.857L1042.11 305.262L1038.03 305.412L1036.62 309.249L1036.48 305.166L1032.63 303.761L1036.72 303.611L1038.13 299.774ZM120.513 613.082L123.554 610.946L122.725 607.324L124.863 610.364L128.487 609.535L125.445 611.671L126.275 615.292L124.137 612.253L120.513 613.082ZM784.613 145.912L780.397 148.261L785.189 147.681L787.546 151.901L786.961 147.106L791.186 144.757L786.385 145.337L784.037 141.117L784.613 145.912ZM-53.7727 689.628L-50.0837 689.169L-49.1148 685.582L-48.6548 689.269L-45.0654 690.237L-48.7552 690.696L-49.7232 694.283L-50.1833 690.596L-53.7727 689.628ZM1377.74 712.425L1372.72 713.78L1377.88 714.423L1379.24 719.441L1379.89 714.283L1384.91 712.928L1379.74 712.285L1378.39 707.264L1377.74 712.425ZM-13.0415 289.065L-17.8749 289.158L-19.6146 293.664L-19.708 288.835L-24.2175 287.097L-19.3841 287.004L-17.6444 282.498L-17.551 287.326L-13.0415 289.065ZM-186.013 340.383L-186.019 337.039L-187.278 340.138L-190.625 340.144L-187.524 341.401L-187.518 344.745L-186.259 341.647L-182.913 341.641L-186.013 340.383ZM1117.63 696.843L1116.71 692.104L1115.77 696.843L1111.03 697.774L1115.77 698.704L1116.71 703.443L1117.63 698.704L1122.38 697.774L1117.63 696.843ZM1333.58 491.527L1334.2 489.002L1332.1 487.47L1334.63 488.094L1336.17 485.993L1335.54 488.518L1337.64 490.051L1335.11 489.425L1333.58 491.527ZM-154.11 581.336L-153.238 580.132L-154.501 580.917L-155.706 580.047L-154.92 581.308L-155.792 582.511L-154.529 581.726L-153.324 582.598L-154.11 581.336ZM926.209 488.749L921.792 490.722L921.949 495.549L919.976 491.14L915.149 491.301L919.557 489.328L919.4 484.501L921.373 488.91L926.209 488.749ZM208.751 509.795L208.565 507.201L207.756 509.673L205.16 509.859L207.634 510.667L207.82 513.261L208.629 510.79L211.225 510.603L208.751 509.795ZM370.309 -137.597L366.915 -139.876L363.52 -137.597L365.801 -140.989L363.52 -144.381L366.915 -142.102L370.309 -144.381L368.029 -140.989L370.309 -137.597ZM1223.27 263.534L1227.32 260.896L1222.57 261.808L1219.94 257.763L1220.85 262.505L1216.8 265.143L1221.55 264.231L1224.19 268.276L1223.27 263.534ZM1142.54 124.941L1142.81 126.781L1144.61 127.233L1142.77 127.495L1142.32 129.296L1142.05 127.457L1140.26 127.005L1142.1 126.743L1142.54 124.941ZM-154.459 -131.13L-153.003 -130.823L-154.235 -131.656L-153.928 -133.111L-154.762 -131.88L-156.217 -132.186L-154.986 -131.353L-155.292 -129.899L-154.459 -131.13ZM-78.9965 181.708L-78.3226 184.603L-75.3852 185.073L-78.2824 185.746L-78.7529 188.681L-79.4268 185.786L-82.3642 185.316L-79.467 184.642L-78.9965 181.708ZM1275.28 167.399L1277.3 164.279L1274.25 166.405L1271.12 164.387L1273.25 167.434L1271.23 170.554L1274.28 168.428L1277.4 170.446L1275.28 167.399ZM494.746 191.042L497.345 189.595L496.988 186.645L498.434 189.242L501.387 188.885L498.789 190.331L499.146 193.281L497.699 190.684L494.746 191.042ZM1352.15 701.444L1352.69 696.27L1350.24 700.859L1345.06 700.324L1349.65 702.774L1349.11 707.948L1351.56 703.36L1356.74 703.894L1352.15 701.444ZM382.654 296.267L385.6 296.676L387.092 294.104L386.684 297.049L389.257 298.539L386.31 298.131L384.818 300.703L385.228 297.758L382.654 296.267ZM1168.22 488.628L1168.09 487.148L1167.65 488.568L1166.16 488.7L1167.59 489.137L1167.72 490.618L1168.16 489.197L1169.64 489.065L1168.22 488.628ZM734.866 449.866L737.816 449.498L738.584 446.628L738.96 449.578L741.831 450.352L738.872 450.72L738.104 453.589L737.738 450.639L734.866 449.866ZM1049.39 51.9378L1052.13 50.0155L1048.86 50.7621L1046.93 48.0259L1047.68 51.2854L1044.94 53.2087L1048.21 52.4621L1050.13 55.1973L1049.39 51.9378ZM-34.6776 32.4829L-31.9541 35.0124L-28.5812 33.4485L-31.1126 36.1698L-29.5466 39.5401L-32.271 37.0106L-35.6431 38.5745L-33.1125 35.8532L-34.6776 32.4829ZM-26.4993 690.204L-26.5936 692.059L-25.8044 690.377L-23.9478 690.471L-25.6316 689.683L-25.5373 687.828L-26.3264 689.51L-28.1831 689.416L-26.4993 690.204ZM1412.04 665.845L1414.25 665.57L1414.83 663.417L1415.1 665.629L1417.26 666.21L1415.05 666.486L1414.47 668.638L1414.19 666.426L1412.04 665.845ZM-210.389 379.729L-205.232 380.444L-209.736 377.835L-209.021 372.683L-211.631 377.183L-216.787 376.468L-212.284 379.077L-212.999 384.229L-210.389 379.729ZM-192.265 499.397L-191.414 501.854L-188.815 501.995L-191.274 502.846L-191.415 505.443L-192.267 502.986L-194.866 502.845L-192.406 501.994L-192.265 499.397ZM1286.34 350.803L1284.15 347.802L1285.04 351.408L1282.04 353.597L1285.64 352.704L1287.83 355.707L1286.94 352.1L1289.94 349.911L1286.34 350.803ZM649.905 122.153L648.377 125.944L651.31 128.788L647.522 127.264L644.676 130.199L646.195 126.407L643.262 123.563L647.059 125.087L649.905 122.153ZM743.883 600.11L742.809 604.438L745.437 600.836L749.766 601.907L746.161 599.28L747.235 594.953L744.607 598.554L740.278 597.484L743.883 600.11ZM39.8991 289.813L39.7464 291.291L41.0584 291.992L39.5788 291.839L38.8778 293.15L39.0314 291.672L37.7194 290.971L39.1982 291.124L39.8991 289.813ZM1110.25 361.275L1109.57 366.059L1112 361.881L1116.79 362.545L1112.61 360.122L1113.27 355.338L1110.85 359.517L1106.06 358.853L1110.25 361.275ZM326.761 397.18L325.827 398.337L326.547 399.638L325.389 398.705L324.087 399.422L325.021 398.266L324.302 396.965L325.46 397.898L326.761 397.18ZM659.114 135.582L663.636 137.305L660.1 134.004L661.829 129.492L658.52 133.019L654.007 131.296L657.534 134.597L655.814 139.109L659.114 135.582ZM942.323 206.933L941.232 205.432L939.425 205.879L940.926 204.784L940.481 202.981L941.572 204.482L943.379 204.035L941.878 205.13L942.323 206.933ZM206.373 597.249L208.314 592.423L204.692 596.158L199.862 594.218L203.6 597.839L201.658 602.665L205.281 598.929L210.111 600.869L206.373 597.249ZM411.593 495.971L416.15 498.485L420.201 495.219L417.686 499.772L420.954 503.82L416.397 501.307L412.346 504.573L414.861 500.019L411.593 495.971ZM133.573 -100.08L132.214 -99.4731L133.701 -99.5223L134.309 -98.1658L134.26 -99.6511L135.617 -100.258L134.13 -100.209L133.523 -101.565L133.573 -100.08ZM988.238 382.545L987.217 386.118L990.141 388.411L986.562 387.393L984.275 390.316L985.288 386.743L982.364 384.451L985.943 385.469L988.238 382.545ZM804.489 703.373L801.251 699.79L802.901 704.33L799.313 707.569L803.852 705.925L807.099 709.509L805.45 704.967L809.037 701.729L804.489 703.373ZM20.7796 -145.626L21.6517 -146.83L20.8661 -148.091L22.0707 -147.22L23.3329 -148.005L22.4609 -146.801L23.2474 -145.54L22.0419 -146.411L20.7796 -145.626ZM-211.966 83.3588L-213.984 87.3352L-210.612 84.4159L-206.632 86.4334L-209.554 83.0631L-207.535 79.0875L-210.908 82.0059L-214.887 79.9894L-211.966 83.3588ZM807.527 135.678L812.354 136.006L814.476 131.669L814.153 136.488L818.491 138.613L813.673 138.284L811.543 142.622L811.874 137.803L807.527 135.678ZM1012.72 531.111L1017.54 531.355L1013.17 529.306L1013.41 524.483L1011.36 528.856L1006.53 528.612L1010.91 530.661L1010.66 535.485L1012.72 531.111ZM541.787 7.75891L540.225 6.75063L538.701 7.813L539.71 6.25346L538.647 4.72969L540.208 5.73885L541.733 4.67648L540.723 6.23602L541.787 7.75891ZM473.605 286.041L469.564 285.409L473.067 287.52L472.435 291.557L474.547 288.058L478.588 288.69L475.086 286.579L475.718 282.541L473.605 286.041ZM-107.24 383.763L-106.231 381.776L-107.691 380.09L-105.702 381.099L-104.015 379.64L-105.024 381.627L-103.564 383.313L-105.553 382.304L-107.24 383.763ZM-235.949 339.682L-234.056 343.72L-234.281 339.267L-230.241 337.375L-234.697 337.601L-236.59 333.564L-236.364 338.016L-240.405 339.907L-235.949 339.682ZM806.471 135.061L803.887 135.382L803.215 137.894L802.892 135.313L800.378 134.635L802.962 134.313L803.634 131.803L803.957 134.383L806.471 135.061ZM1034.05 -122.029L1037.95 -119.874L1035.15 -123.344L1037.3 -127.247L1033.84 -124.448L1029.93 -126.602L1032.73 -123.132L1030.57 -119.229L1034.05 -122.029ZM435.259 583.992L440.065 583.479L441.405 578.839L441.919 583.64L446.563 584.98L441.757 585.494L440.416 590.134L439.903 585.331L435.259 583.992ZM336.102 688.354L332.883 687.438L335.517 689.502L334.6 692.718L336.665 690.086L339.884 691.002L337.25 688.939L338.167 685.723L336.102 688.354ZM1288.79 764.343L1290.59 768.015L1294.68 767.736L1291 769.532L1291.28 773.615L1289.48 769.942L1285.4 770.222L1289.07 768.425L1288.79 764.343ZM1421.41 505.076L1423.93 504.398L1421.34 504.076L1420.66 501.565L1420.34 504.146L1417.83 504.824L1420.41 505.145L1421.09 507.656L1421.41 505.076ZM7.38995 595.078L9.12182 593.672L8.47324 591.54L9.88038 593.269L12.0147 592.621L10.2837 594.027L10.9323 596.161L9.52512 594.43L7.38995 595.078ZM746.606 58.2876L746.816 61.2523L747.741 58.4272L750.709 58.2143L747.881 57.2907L747.671 54.3269L746.746 57.152L743.778 57.3639L746.606 58.2876ZM43.2232 271.886L44.6364 269.703L43.1481 267.569L45.333 268.982L47.4682 267.494L46.054 269.678L47.5433 271.811L45.3575 270.398L43.2232 271.886ZM98.3505 260.182L100.187 260.469L101.147 258.878L100.86 260.714L102.451 261.673L100.615 261.385L99.6546 262.976L99.9427 261.141L98.3505 260.182ZM496.774 8.79337L497.734 10.3843L497.447 8.54915L499.038 7.58884L497.202 7.87667L496.242 6.28573L496.529 8.12089L494.937 9.08034L496.774 8.79337ZM328.064 225.067L328.626 222.149L326.134 220.525L329.055 221.087L330.679 218.598L330.117 221.516L332.609 223.139L329.688 222.578L328.064 225.067ZM-107.306 692.516L-104.205 691.258L-107.552 691.252L-108.811 688.154L-108.817 691.498L-111.918 692.756L-108.571 692.762L-107.312 695.86L-107.306 692.516ZM439.06 453.932L438.416 448.77L433.391 447.415L438.556 446.772L439.912 441.75L440.557 446.911L445.582 448.267L440.416 448.91L439.06 453.932ZM637.998 -119.312L640.739 -122.83L636.872 -120.608L633.352 -123.346L635.58 -119.481L632.836 -115.963L636.706 -118.186L640.224 -115.447L637.998 -119.312ZM1325.31 -23.7492L1327.55 -21.8033L1330.2 -23.1483L1328.26 -20.9014L1329.6 -18.2507L1327.36 -20.1967L1324.7 -18.8526L1326.65 -21.0986L1325.31 -23.7492ZM-217.811 740.174L-219.753 744.997L-216.13 741.264L-211.3 743.209L-215.038 739.589L-213.097 734.757L-216.719 738.49L-221.549 736.554L-217.811 740.174ZM1158.73 -83.4799L1158.38 -88.2973L1153.79 -89.798L1158.61 -90.1436L1160.11 -94.7343L1160.46 -89.9169L1165.05 -88.4161L1160.23 -88.0706L1158.73 -83.4799ZM864.965 635.465L860.251 637.672L865.445 637.408L867.654 642.118L867.392 636.924L872.106 634.717L866.912 634.98L864.703 630.27L864.965 635.465ZM1181.76 660.836L1181.43 658.255L1178.92 657.578L1181.5 657.256L1182.18 654.745L1182.5 657.325L1185.01 658.003L1182.43 658.325L1181.76 660.836ZM630.02 469.411L632.771 464.995L628.554 468.045L624.134 465.297L627.187 469.51L624.436 473.926L628.653 470.877L633.072 473.625L630.02 469.411ZM148.675 -139.408L150.862 -143.715L147.697 -147.366L152.008 -145.181L155.661 -148.343L153.474 -144.036L156.639 -140.385L152.328 -142.57L148.675 -139.408ZM32.7124 380.633L34.8257 384.132L34.1929 380.095L37.695 377.984L33.6543 378.616L31.5418 375.116L32.1738 379.154L28.6717 381.265L32.7124 380.633ZM-214.452 228.944L-211.783 226.927L-212.644 223.696L-210.625 226.363L-207.391 225.503L-210.06 227.521L-209.2 230.751L-211.218 228.085L-214.452 228.944ZM563.082 -126.118L563.321 -122.783L564.361 -125.961L567.699 -126.2L564.518 -127.239L564.278 -130.574L563.239 -127.396L559.901 -127.157L563.082 -126.118ZM807.693 676.344L808.217 680.022L811.822 680.928L808.138 681.451L807.239 685.054L806.707 681.376L803.102 680.471L806.785 679.947L807.693 676.344ZM1178.63 775.019L1174.54 774.74L1178.22 776.536L1177.94 780.618L1179.74 776.946L1183.82 777.225L1180.15 775.429L1180.43 771.347L1178.63 775.019ZM1067.64 80.5834L1071.91 82.8433L1075.62 79.7452L1073.36 84.0138L1076.46 87.719L1072.19 85.4591L1068.48 88.5572L1070.74 84.2886L1067.64 80.5834ZM1161.56 477.714L1165.55 481.05L1163.11 476.454L1166.45 472.463L1161.85 474.897L1157.85 471.56L1160.29 476.157L1156.96 480.147L1161.56 477.714ZM371.319 -33.4492L370.173 -35.7842L367.577 -35.608L369.914 -36.7514L369.738 -39.3463L370.882 -37.0114L373.479 -37.1876L371.142 -36.0432L371.319 -33.4492ZM-167.094 630.002L-168.336 631.385L-166.663 630.574L-165.279 631.814L-166.091 630.143L-164.85 628.76L-166.522 629.571L-167.906 628.331L-167.094 630.002ZM403.377 235.494L405.429 234.62L405.395 232.391L406.27 234.442L408.5 234.407L406.448 235.282L406.483 237.51L405.608 235.46L403.377 235.494ZM689.16 44.701L687.204 42.462L688.165 45.2732L685.93 47.2278L688.741 46.2649L690.696 48.5048L689.736 45.6927L691.97 43.739L689.16 44.701ZM70.2618 494.088L69.2527 495.648L70.3159 497.172L68.7551 496.162L67.2301 497.226L68.2401 495.665L67.176 494.142L68.7377 495.151L70.2618 494.088ZM74.8621 101.625L70.4835 102.483L74.8621 103.341L75.721 107.716L76.5799 103.341L80.9585 102.483L76.5799 101.625L75.721 97.2498L74.8621 101.625ZM-64.1726 -6.66241L-66.0311 -6.69206L-66.7608 -4.98338L-66.732 -6.84034L-68.4421 -7.56951L-66.5827 -7.53986L-65.853 -9.24854L-65.8827 -7.39158L-64.1726 -6.66241ZM709.883 683.967L711.332 679.749L708.399 683.108L704.174 681.665L707.535 684.595L706.094 688.814L709.027 685.454L713.243 686.898L709.883 683.967ZM455.469 262.866L456.928 259.049L453.942 256.256L457.763 257.713L460.558 254.729L459.098 258.548L462.084 261.34L458.264 259.883L455.469 262.866ZM338.724 235.369L337.19 231.182L337.027 235.637L332.837 237.17L337.296 237.333L338.829 241.52L338.993 237.064L343.183 235.532L338.724 235.369ZM74.7442 612.548L71.2735 615.91L73.0761 620.391L69.7119 616.923L65.2268 618.724L68.6984 615.363L66.8958 610.881L70.2592 614.35L74.7442 612.548ZM882.45 -1.70906L880.878 -0.722576L882.711 -1.04181L883.698 0.531683L883.375 -1.29823L884.955 -2.28473L883.122 -1.96548L882.135 -3.53985L882.45 -1.70906ZM273.666 58.1925L273.816 55.2244L271.123 53.964L274.094 54.114L275.355 51.4224L275.205 54.3905L277.899 55.6518L274.928 55.5017L273.666 58.1925ZM1208.68 -70.2259L1205.68 -74.4813L1206.84 -69.4112L1202.58 -66.4201L1207.65 -67.581L1210.65 -63.3254L1209.49 -68.3957L1213.75 -71.387L1208.68 -70.2259ZM503.067 355.482L505.412 358.364L508.97 357.285L506.085 359.628L507.165 363.183L504.82 360.3L501.263 361.38L504.148 359.037L503.067 355.482ZM138.787 229.559L140.429 231.576L139.673 229.089L141.693 227.448L139.202 228.204L137.56 226.186L138.317 228.674L136.297 230.314L138.787 229.559ZM1041.84 495.182L1045.95 498.376L1050.46 495.784L1047.26 499.888L1049.86 504.397L1045.75 501.203L1041.23 503.795L1044.43 499.69L1041.84 495.182ZM730.798 60.9671L730.196 62.7246L731.418 61.3247L733.181 61.9265L731.775 60.7054L732.378 58.9479L731.156 60.3478L729.401 59.746L730.798 60.9671ZM964.87 632.482L966.974 628.975L964.521 625.707L968.03 627.805L971.295 625.352L969.2 628.859L971.653 632.127L968.144 630.028L964.87 632.482ZM1407.74 105.716L1408.02 103.504L1406.92 105.451L1404.72 105.184L1406.66 106.268L1406.39 108.481L1407.48 106.533L1409.69 106.801L1407.74 105.716ZM-171.027 454.796L-166.608 455.409L-164.37 451.552L-164.983 455.968L-161.123 458.203L-165.543 457.591L-167.78 461.448L-167.167 457.032L-171.027 454.796ZM256.592 767.021L257.349 764.535L255.707 766.558L253.216 765.799L255.236 767.439L254.479 769.925L256.121 767.91L258.612 768.669L256.592 767.021Z" fill="#D9D9D9"/>
</g>
</g>
</g>
<path fill-rule="evenodd" clip-rule="evenodd" d="M565.829 42.5424C556.362 53.7935 535.638 73.3352 519.771 85.9725C503.412 98.9988 485.557 118.371 478.53 130.72C471.711 142.695 461.254 159.807 455.287 168.751C439.089 193.033 384.55 232.057 348.922 244.855C296.534 263.669 272.278 281.239 253.773 313.775C248.437 323.154 253.681 320.423 274.797 302.817C314.224 269.947 331.352 268.789 365.415 296.691C374.582 304.198 383.681 310.343 385.637 310.343C387.594 310.343 389.192 302.108 389.192 292.042C389.192 281.976 391.259 273.74 393.792 273.74C400.564 273.74 453.653 222.138 453.653 215.549C453.653 201.37 505.516 189.616 522.069 200.038C526.562 202.866 520.978 207.322 502.27 215.833C472.457 229.399 449.049 244.942 449.049 251.173C449.049 258.312 458.994 256.152 496.192 240.934C515.788 232.917 532.894 227.422 534.202 228.717C535.504 230.016 534.252 237.694 531.416 245.779C524.463 265.591 529.077 268.405 546.946 255.259C557.905 247.197 567.956 244.251 584.877 244.146C607.867 243.999 607.898 244.022 609.376 260.013C610.191 268.821 612.554 277.757 614.625 279.871C616.703 281.985 630.276 273.021 644.798 259.953C698.913 211.258 735.27 210.937 781.948 258.745C800.021 277.258 802.893 282.342 797.709 286.615C786.364 295.972 756.946 306.294 716.756 315.024L677.36 323.58L628.816 305.064C528.911 266.959 526.323 266.364 498.292 275.144C484.691 279.405 467.084 282.891 459.164 282.891C449.915 282.891 439.356 287.571 429.642 295.98C408.019 314.699 391.688 321.965 351.284 330.851C328.797 335.796 308.919 343.543 297.34 351.88C287.165 359.204 275.897 363.899 272.03 362.421C262.844 358.921 250.052 337.681 235.379 301.559C220.848 265.796 211.266 254.303 199.156 258.124C192.599 260.191 186.623 256.577 176.572 244.462C169.058 235.397 161.216 227.985 159.149 227.985C157.087 227.985 154.102 234.83 152.523 243.19C145.207 281.957 106.595 319.361 57.0106 335.728C38.4781 341.845 34.6565 345.003 34.6565 354.175C34.6565 360.266 37.2488 365.23 40.4119 365.202C56.5134 365.079 98.7952 339.118 127.057 312.008L158.721 281.633L163.753 294.791L168.791 307.951L177.046 297.069L185.306 286.19L197.558 318.053C215.571 364.896 241.457 393.136 278.688 406.556C306.319 416.512 389.192 425.658 389.192 418.75C389.192 417.363 377.276 412.851 362.717 408.729C331.707 399.94 297.105 384.305 297.105 379.075C297.105 377.063 304.366 374.065 313.238 372.409C322.111 370.757 333.414 365.093 338.355 359.822C346.413 351.224 348.793 350.841 361.533 356.084C375.039 361.643 377.28 360.86 407.794 339.955C425.428 327.876 441.014 319.133 442.423 320.533C443.832 321.933 441.755 330.759 437.809 340.147C429.848 359.076 428.334 378.975 434.853 378.975C437.179 378.975 442.695 369.192 447.115 357.242C454.841 336.345 475.929 309.167 490.589 301.215C501.174 295.469 538.866 303.823 582.575 321.599C604.101 330.352 635.406 341.69 652.137 346.791C668.869 351.888 690.391 362.247 699.963 369.806C709.535 377.364 720.19 383.551 723.643 383.551C737.051 383.551 728.874 391.265 707.288 398.979C680.611 408.51 642.431 431.689 642.431 438.355C642.431 447.858 660.485 442.409 710.272 417.866C760.644 393.035 777.288 388.314 782.865 397.277C787.556 404.817 802.635 402.456 809.192 393.154C818.037 380.604 842.974 379.025 851.437 390.478C857.984 399.34 858.265 399.253 862.985 386.982C870.154 368.319 884.947 370.652 943.589 399.693C974.056 414.777 1007.6 427.621 1026.71 431.52C1062.62 438.84 1070.67 437.256 1047.17 427.488C977.947 398.732 874.054 344.856 860.711 330.795L845.434 314.699L815.008 335.398C794.241 349.528 779.821 356.097 769.581 356.097C753.332 356.097 712.957 343.849 709.181 337.773C707.901 335.714 720.641 329.601 737.497 324.188C754.354 318.776 780.208 308.298 794.942 300.909C825.612 285.521 829.926 284.894 840.377 294.292C846.801 300.067 849.273 300.168 856.465 294.947C864.095 289.402 867.575 291.428 890.675 314.84C921.068 345.652 950.628 358.496 1013.08 368.017C1061.76 375.437 1116.68 376.395 1116.68 369.824C1116.68 367.307 1112.34 365.249 1107.04 365.249C1088.14 365.249 1003.51 346.178 983.154 337.329C970.754 331.94 951.273 316.443 934.638 298.744C908.54 270.967 905.588 269.16 886.292 269.063C873.018 268.995 861.668 265.792 854.232 260.013C839.659 248.684 836.404 248.717 823.968 260.324L813.829 269.791L796.926 255.04C761.454 224.092 754.226 188.06 777.984 160.607C794.527 141.496 811.098 149.301 828.908 184.596C841.85 210.242 844.53 212.694 871.42 223.41C891.09 231.248 908.476 242.965 926.673 260.635C941.277 274.82 957.922 288.806 963.659 291.721C973.218 296.572 974.332 295.849 976.896 283.091C978.44 275.432 981.616 269.165 983.96 269.165C991.235 269.165 1016.26 283.325 1052.26 307.813C1095.71 337.375 1125.33 351.705 1149.69 354.953C1177.06 358.6 1170.26 352.085 1115.6 322.29C1061.49 292.796 1018.58 258.431 1000.81 230.351C990.576 214.181 975.078 201.256 971.786 206.142C971.321 206.833 966.266 215.119 960.556 224.554C947.922 245.435 940.987 245.989 924.485 227.445C917.5 219.598 899.355 204.888 884.16 194.749C868.966 184.615 838.669 159.12 816.84 138.096C795.006 117.072 774.411 99.8728 771.073 99.8728C767.734 99.8728 755.427 110.167 743.728 122.75C731.913 135.456 718.482 145.549 713.523 145.453C699.829 145.183 654.38 100.847 636.308 70.1324C604.33 15.7761 592.304 11.068 565.829 42.5424ZM617.305 96.4412C620.022 105.601 626.561 113.594 634.337 117.264C641.281 120.535 649.122 127.229 651.764 132.134C654.697 137.574 661.443 141.08 669.067 141.12C675.942 141.161 684.677 143.142 688.476 145.531C698.95 152.115 687.283 160.905 653.311 172.028C636.261 177.614 614.741 189.63 599.031 202.345C584.721 213.929 571.349 223.41 569.323 223.41C564.024 223.41 554.948 201.965 554.948 189.437C554.948 174.938 565.857 167.041 582.534 169.474C599.321 171.923 599.44 171.14 584.877 153.945C571.226 137.822 570.249 123.445 581.792 108.497C586.425 102.495 591.54 93.9796 593.155 89.578C598.165 75.9477 612.439 80.0017 617.305 96.4412Z" fill="white"/>
<mask id="mask2_313_4871" style="mask-type:luminance" maskUnits="userSpaceOnUse" x="127" y="244" width="946" height="362">
<path d="M1072.09 244.54H127.909V606H1072.09V244.54Z" fill="white"/>
</mask>
<g mask="url(#mask2_313_4871)">
<mask id="mask3_313_4871" style="mask-type:luminance" maskUnits="userSpaceOnUse" x="127" y="244" width="946" height="362">
<path d="M1072.09 244.54H127.909V606H1072.09V244.54Z" fill="white"/>
</mask>
<g mask="url(#mask3_313_4871)">
<path d="M141.763 344.491L157.302 336.161L213.784 441.674L198.245 450.005L141.763 344.491Z" fill="#10AC84"/>
<mask id="mask4_313_4871" style="mask-type:luminance" maskUnits="userSpaceOnUse" x="120" y="316" width="115" height="154">
<path d="M234.1 316.604H120.592V469.127H234.1V316.604Z" fill="white"/>
<path d="M141.763 344.491L157.302 336.161L213.784 441.674L198.245 450.005L141.763 344.491Z" fill="black"/>
</mask>
<g mask="url(#mask4_313_4871)">
<path d="M141.762 344.49L135.777 333.31L124.605 339.299L130.59 350.479L141.762 344.49ZM157.301 336.16L168.473 330.171L162.488 318.99L151.317 324.98L157.301 336.16ZM213.783 441.675L219.767 452.854L230.939 446.866L224.955 435.685L213.783 441.675ZM198.244 450.004L187.072 455.993L193.056 467.174L204.228 461.185L198.244 450.004ZM147.746 355.67L163.286 347.339L151.317 324.98L135.777 333.31L147.746 355.67ZM146.129 342.148L202.611 447.663L224.955 435.685L168.473 330.171L146.129 342.148ZM207.798 430.494L192.259 438.825L204.228 461.185L219.767 452.854L207.798 430.494ZM209.415 444.016L152.933 338.501L130.59 350.479L187.072 455.993L209.415 444.016Z" fill="black"/>
</g>
<path d="M235.201 357.156L242.921 371.05L241.456 369.353C241.579 363.896 243.257 358.837 246.489 354.174C249.676 349.411 254.286 345.703 260.32 343.049C266.253 340.441 271.904 340.057 277.271 341.9C282.74 343.698 286.761 347.392 289.335 352.983L309.881 399.778L294.345 406.608L276.185 365.249C274.671 362.073 272.566 359.876 269.873 358.659C267.135 357.342 263.834 357.473 259.969 359.053C256.549 360.556 253.896 362.983 252.008 366.334C250.076 369.585 249.078 373.326 249.016 377.555C248.953 381.784 249.938 386.214 251.97 390.843L264.629 419.674L249.093 426.506L221.324 363.257L235.201 357.156Z" fill="#FF9F43"/>
<mask id="mask5_313_4871" style="mask-type:luminance" maskUnits="userSpaceOnUse" x="201" y="312" width="129" height="132">
<path d="M329.298 312.202H201.491V443.356H329.298V312.202Z" fill="white"/>
<path d="M235.201 357.156L242.921 371.05L241.456 369.353C241.579 363.896 243.257 358.837 246.489 354.174C249.676 349.411 254.286 345.703 260.32 343.049C266.253 340.441 271.904 340.057 277.271 341.9C282.74 343.698 286.761 347.392 289.335 352.983L309.881 399.778L294.345 406.608L276.185 365.249C274.671 362.073 272.566 359.876 269.873 358.659C267.135 357.342 263.834 357.473 259.969 359.053C256.549 360.556 253.896 362.983 252.008 366.334C250.076 369.585 249.078 373.326 249.016 377.555C248.953 381.784 249.938 386.214 251.97 390.843L264.629 419.674L249.093 426.506L221.324 363.257L235.201 357.156Z" fill="black"/>
</mask>
<g mask="url(#mask5_313_4871)">
<path d="M235.203 357.157L246.279 350.993L240.671 340.899L230.105 345.546L235.203 357.157ZM242.923 371.051L233.332 379.342L253.999 364.887L242.923 371.051ZM241.458 369.353L228.787 369.066L228.677 373.95L231.867 377.645L241.458 369.353ZM246.49 354.174L256.904 361.402L256.964 361.318L257.021 361.232L246.49 354.174ZM277.273 341.901L273.162 353.897L273.24 353.924L273.317 353.949L277.273 341.901ZM289.337 352.984L300.94 347.881L300.895 347.779L300.847 347.675L289.337 352.984ZM309.882 399.778L314.981 411.389L326.584 406.287L321.486 394.676L309.882 399.778ZM294.346 406.609L282.743 411.711L287.841 423.323L299.445 418.22L294.346 406.609ZM276.188 365.249L287.789 360.148L287.71 359.966L287.625 359.787L276.188 365.249ZM269.876 358.66L264.383 370.09L264.521 370.157L264.66 370.22L269.876 358.66ZM259.97 359.053L255.179 347.311L255.024 347.374L254.871 347.442L259.97 359.053ZM252.01 366.336L262.901 372.817L262.977 372.692L263.05 372.563L252.01 366.336ZM264.63 419.674L269.729 431.286L281.332 426.184L276.234 414.573L264.63 419.674ZM249.094 426.506L237.491 431.608L242.59 443.219L254.193 438.117L249.094 426.506ZM221.326 363.259L216.227 351.648L204.625 356.749L209.722 368.36L221.326 363.259ZM224.126 363.32L231.846 377.213L253.999 364.887L246.279 350.993L224.126 363.32ZM252.513 362.76L251.048 361.063L231.867 377.645L233.332 379.342L252.513 362.76ZM254.128 369.641C254.193 366.771 255.029 364.109 256.904 361.402L236.076 346.946C231.488 353.566 228.969 361.023 228.787 369.066L254.128 369.641ZM257.021 361.232C258.675 358.76 261.253 356.493 265.42 354.662L255.223 331.44C247.323 334.913 240.681 340.062 235.96 347.118L257.021 361.232ZM265.42 354.662C268.885 353.139 271.232 353.236 273.162 353.897L281.384 329.903C272.578 326.882 263.625 327.745 255.223 331.44L265.42 354.662ZM273.317 353.949C275.192 354.566 276.612 355.653 277.827 358.291L300.847 347.675C296.913 339.132 290.291 332.831 281.229 329.852L273.317 353.949ZM277.734 358.085L298.279 404.879L321.486 394.676L300.94 347.881L277.734 358.085ZM304.785 388.166L289.249 394.997L299.445 418.22L314.981 411.389L304.785 388.166ZM305.949 401.507L287.789 360.148L264.584 370.35L282.743 411.711L305.949 401.507ZM287.625 359.787C285.078 354.444 281.01 349.775 275.088 347.1L264.66 370.22C264.589 370.188 264.512 370.144 264.441 370.092C264.37 370.044 264.332 370.004 264.325 369.997C264.308 369.979 264.484 370.155 264.749 370.71L287.625 359.787ZM275.367 347.23C268.326 343.842 261.071 344.903 255.179 347.311L264.761 370.794C265.673 370.422 266 370.436 265.847 370.443C265.759 370.446 265.557 370.445 265.275 370.389C264.988 370.333 264.68 370.234 264.383 370.09L275.367 347.23ZM254.871 347.442C248.865 350.084 244.161 354.44 240.97 360.107L263.05 372.563C263.634 371.527 264.237 371.03 265.068 370.664L254.871 347.442ZM241.117 359.852C237.921 365.227 236.438 371.189 236.346 377.368L261.69 377.744C261.723 375.463 262.232 373.944 262.901 372.817L241.117 359.852ZM236.346 377.368C236.251 383.737 237.747 389.97 240.369 395.945L263.575 385.741C262.135 382.458 261.659 379.833 261.69 377.744L236.346 377.368ZM240.369 395.945L253.028 424.777L276.234 414.573L263.575 385.741L240.369 395.945ZM259.533 408.063L243.996 414.895L254.193 438.117L269.729 431.286L259.533 408.063ZM260.697 421.403L232.929 358.156L209.722 368.36L237.491 431.608L260.697 421.403ZM226.423 374.87L240.301 368.768L230.105 345.546L216.227 351.648L226.423 374.87Z" fill="black"/>
</g>
<path d="M317.003 297.591L333.242 292.656L342.098 321.842L359.755 316.476L363.633 329.255L345.976 334.62L362.11 387.787L345.873 392.721L329.739 339.556L318.073 343.101L314.195 330.321L325.861 326.777L317.003 297.591Z" fill="#EE5253"/>
<mask id="mask6_313_4871" style="mask-type:luminance" maskUnits="userSpaceOnUse" x="287" y="268" width="111" height="145">
<path d="M397.493 268.933H287.905V412.401H397.493V268.933Z" fill="white"/>
<path d="M317.003 297.591L333.242 292.656L342.098 321.842L359.755 316.476L363.633 329.255L345.976 334.621L362.11 387.787L345.873 392.721L329.739 339.556L318.073 343.101L314.195 330.322L325.861 326.777L317.003 297.591Z" fill="black"/>
</mask>
<g mask="url(#mask6_313_4871)">
<path d="M317.004 297.592L313.322 285.456L301.195 289.142L304.878 301.276L317.004 297.592ZM333.243 292.656L345.369 288.972L341.686 276.836L329.559 280.522L333.243 292.656ZM342.1 321.842L329.972 325.528L333.655 337.664L345.782 333.978L342.1 321.842ZM359.756 316.476L371.882 312.791L368.2 300.655L356.073 304.341L359.756 316.476ZM363.634 329.256L367.316 341.39L379.444 337.706L375.76 325.57L363.634 329.256ZM345.978 334.622L342.294 322.486L330.168 326.172L333.85 338.307L345.978 334.622ZM362.112 387.787L365.795 399.922L377.921 396.237L374.238 384.101L362.112 387.787ZM345.874 392.722L333.748 396.408L337.43 408.543L349.557 404.858L345.874 392.722ZM329.739 339.556L341.866 335.871L338.184 323.735L326.057 327.421L329.739 339.556ZM318.074 343.102L305.948 346.787L309.63 358.922L321.756 355.238L318.074 343.102ZM314.196 330.323L310.513 318.187L298.386 321.873L302.07 334.008L314.196 330.323ZM325.862 326.778L329.544 338.913L341.671 335.228L337.988 323.092L325.862 326.778ZM320.688 309.726L336.925 304.792L329.559 280.522L313.322 285.456L320.688 309.726ZM321.115 296.342L329.972 325.528L354.226 318.158L345.369 288.972L321.115 296.342ZM345.782 333.978L363.438 328.612L356.073 304.341L338.416 309.708L345.782 333.978ZM347.628 320.162L351.506 332.942L375.76 325.57L371.882 312.791L347.628 320.162ZM359.95 317.12L342.294 322.486L349.66 346.757L367.316 341.39L359.95 317.12ZM333.85 338.307L349.985 391.472L374.238 384.101L358.104 330.936L333.85 338.307ZM358.428 375.652L342.192 380.587L349.557 404.858L365.795 399.922L358.428 375.652ZM358.001 389.037L341.866 335.871L317.613 343.242L333.748 396.408L358.001 389.037ZM326.057 327.421L314.391 330.966L321.756 355.238L333.422 351.692L326.057 327.421ZM330.2 339.416L326.322 326.638L302.07 334.008L305.948 346.787L330.2 339.416ZM317.878 342.458L329.544 338.913L322.178 314.642L310.513 318.187L317.878 342.458ZM337.988 323.092L329.132 293.906L304.878 301.276L313.736 330.463L337.988 323.092Z" fill="black"/>
</g>
<path d="M435.998 373.47C428.166 375.191 421.131 375.162 414.892 373.383C408.631 371.496 403.408 368.199 399.226 363.492C395.02 358.677 392.152 352.78 390.62 345.802C389.158 339.146 389.501 332.769 391.649 326.67C393.88 320.44 397.485 315.089 402.463 310.618C407.55 306.123 413.579 303.111 420.552 301.577C429.563 299.596 437.597 300.587 444.652 304.551C451.815 308.49 457.452 314.959 461.564 323.959L410.863 355.024L404.879 346.212L445.345 320.772L442.426 323.609C440.407 320.564 437.733 318.113 434.402 316.257C431.047 314.294 426.956 313.844 422.128 314.905C418.267 315.753 414.991 317.486 412.305 320.103C409.702 322.589 407.854 325.695 406.761 329.424C405.751 333.022 405.729 337.022 406.695 341.424C407.685 345.933 409.47 349.705 412.047 352.739C414.709 355.642 417.861 357.706 421.504 358.932C425.254 360.133 429.167 360.285 433.243 359.389C436.14 358.752 438.758 357.614 441.096 355.975C443.543 354.312 445.77 352.416 447.777 350.286L458.026 360.862C454.981 363.894 451.52 366.569 447.642 368.885C443.849 371.07 439.967 372.597 435.998 373.47Z" fill="#F368E0"/>
<mask id="mask7_313_4871" style="mask-type:luminance" maskUnits="userSpaceOnUse" x="366" y="273" width="129" height="129">
<path d="M494.336 273.142H366.006V401.566H494.336V273.142Z" fill="white"/>
<path d="M435.998 373.47C428.166 375.191 421.131 375.162 414.892 373.383C408.631 371.496 403.408 368.199 399.226 363.492C395.02 358.677 392.152 352.78 390.62 345.802C389.158 339.146 389.501 332.769 391.649 326.67C393.88 320.44 397.485 315.089 402.463 310.618C407.55 306.123 413.579 303.111 420.552 301.577C429.563 299.596 437.597 300.587 444.652 304.551C451.815 308.49 457.452 314.959 461.564 323.959L410.863 355.024L404.879 346.212L445.345 320.772L442.426 323.609C440.407 320.564 437.733 318.113 434.402 316.257C431.047 314.294 426.956 313.844 422.128 314.905C418.267 315.753 414.991 317.486 412.305 320.103C409.702 322.589 407.854 325.695 406.761 329.424C405.751 333.022 405.729 337.022 406.695 341.424C407.685 345.933 409.47 349.705 412.047 352.739C414.709 355.642 417.861 357.706 421.504 358.932C425.254 360.133 429.167 360.285 433.243 359.389C436.14 358.752 438.758 357.614 441.096 355.975C443.543 354.312 445.77 352.416 447.777 350.286L458.026 360.862C454.981 363.894 451.52 366.569 447.642 368.885C443.849 371.07 439.967 372.597 435.998 373.47Z" fill="black"/>
</mask>
<g mask="url(#mask7_313_4871)">
<path d="M414.894 373.384L411.239 385.528L411.329 385.555L411.419 385.581L414.894 373.384ZM399.227 363.493L389.685 371.839L389.72 371.88L389.755 371.92L399.227 363.493ZM391.649 326.67L379.719 322.392L379.695 322.456L391.649 326.67ZM402.464 310.618L394.075 301.112L394.038 301.146L394 301.18L402.464 310.618ZM444.653 304.552L438.449 315.611L438.499 315.638L438.548 315.666L444.653 304.552ZM461.565 323.96L468.183 334.777L477.762 328.907L473.09 318.686L461.565 323.96ZM410.864 355.026L400.38 362.153L407.173 372.159L417.481 365.843L410.864 355.026ZM404.881 346.213L398.138 335.473L387.015 342.467L394.398 353.341L404.881 346.213ZM445.346 320.773L454.174 329.874L438.604 310.034L445.346 320.773ZM442.428 323.61L431.864 330.62L440.301 343.35L451.254 332.709L442.428 323.61ZM434.403 316.258L428.005 327.206L428.121 327.274L428.238 327.339L434.403 316.258ZM412.306 320.103L421.054 329.279L421.1 329.236L421.144 329.193L412.306 320.103ZM406.762 329.425L394.6 325.855L394.58 325.926L394.56 325.997L406.762 329.425ZM412.048 352.74L402.392 360.955L402.547 361.137L402.709 361.314L412.048 352.74ZM421.505 358.933L417.467 370.954L417.554 370.983L417.641 371.011L421.505 358.933ZM441.098 355.976L433.975 345.484L433.901 345.535L433.826 345.588L441.098 355.976ZM447.777 350.287L456.875 341.457L447.65 331.938L438.558 341.585L447.777 350.287ZM458.026 360.863L466.967 369.852L475.835 361.021L467.124 352.034L458.026 360.863ZM447.643 368.886L453.964 379.879L454.05 379.829L454.137 379.776L447.643 368.886ZM433.278 361.084C427.019 362.46 422.167 362.271 418.367 361.187L411.419 385.581C420.097 388.057 429.314 387.925 438.717 385.858L433.278 361.084ZM418.548 361.239C414.439 360.002 411.26 357.949 408.699 355.065L389.755 371.92C395.558 378.45 402.823 382.992 411.239 385.528L418.548 361.239ZM408.769 355.146C406.124 352.119 404.128 348.224 402.999 343.082L378.242 348.524C380.177 357.338 383.917 365.236 389.685 371.839L408.769 355.146ZM402.999 343.082C402.015 338.601 402.282 334.635 403.603 330.885L379.695 322.456C376.722 330.905 376.303 339.691 378.242 348.524L402.999 343.082ZM403.58 330.949C405.093 326.724 407.496 323.14 410.928 320.058L394 301.18C387.474 307.039 382.668 314.156 379.719 322.392L403.58 330.949ZM410.852 320.126C414.239 317.133 418.289 315.061 423.272 313.966L417.833 289.191C408.871 291.161 400.861 295.115 394.075 301.112L410.852 320.126ZM423.272 313.966C429.703 312.552 434.486 313.384 438.449 315.611L450.856 293.492C440.709 287.792 429.427 286.642 417.833 289.191L423.272 313.966ZM438.548 315.666C442.857 318.035 446.816 322.181 450.039 329.235L473.09 318.686C468.09 307.741 460.775 298.947 450.759 293.437L438.548 315.666ZM454.947 313.144L404.245 344.21L417.481 365.843L468.183 334.777L454.947 313.144ZM421.347 347.899L415.363 339.085L394.398 353.341L400.38 362.153L421.347 347.899ZM411.622 356.952L452.089 331.513L438.604 310.034L398.138 335.473L411.622 356.952ZM436.519 311.674L433.599 314.509L451.254 332.709L454.174 329.874L436.519 311.674ZM452.99 316.6C449.802 311.79 445.588 307.974 440.568 305.177L428.238 327.339C429.88 328.254 431.016 329.34 431.864 330.62L452.99 316.6ZM440.802 305.31C434.007 301.335 426.472 300.965 419.409 302.517L424.848 327.292C426.177 327.001 427.001 327.007 427.43 327.053C427.815 327.096 427.952 327.176 428.005 327.206L440.802 305.31ZM419.409 302.517C413.372 303.845 407.942 306.656 403.467 311.014L421.144 329.193C422.044 328.317 423.162 327.663 424.848 327.292L419.409 302.517ZM403.558 310.927C399.218 315.07 396.269 320.164 394.6 325.855L418.922 332.995C419.441 331.228 420.187 330.107 421.054 329.279L403.558 310.927ZM394.56 325.997C392.883 331.973 392.997 338.127 394.319 344.146L419.075 338.703C418.464 335.919 418.621 334.074 418.963 332.853L394.56 325.997ZM394.319 344.146C395.681 350.357 398.273 356.104 402.392 360.955L421.703 344.525C420.668 343.306 419.691 341.509 419.075 338.703L394.319 344.146ZM402.709 361.314C406.782 365.756 411.744 369.03 417.467 370.954L425.542 346.91C423.981 346.385 422.638 345.531 421.387 344.167L402.709 361.314ZM417.641 371.011C423.649 372.936 429.84 373.124 435.964 371.777L430.525 347.002C428.496 347.449 426.86 347.331 425.368 346.853L417.641 371.011ZM435.964 371.777C440.431 370.796 444.606 369.001 448.369 366.364L433.826 345.588C432.911 346.229 431.852 346.711 430.525 347.002L435.964 371.777ZM448.22 366.466C451.419 364.291 454.351 361.797 456.997 358.989L438.558 341.585C437.189 343.036 435.668 344.335 433.975 345.484L448.22 366.466ZM438.68 359.117L448.93 369.693L467.124 352.034L456.875 341.457L438.68 359.117ZM449.087 351.874C446.813 354.138 444.182 356.183 441.149 357.994L454.137 379.776C458.859 376.957 463.151 373.652 466.967 369.852L449.087 351.874ZM441.321 357.892C438.565 359.481 435.889 360.509 433.278 361.084L438.717 385.858C444.044 384.687 449.134 382.659 453.964 379.879L441.321 357.892Z" fill="black"/>
</g>
<path d="M507.532 294.404L511.254 313.905L510.157 311.369C511.575 307.018 513.82 303.187 516.892 299.877C519.966 296.567 523.224 293.955 526.666 292.043C530.206 290.009 533.232 288.858 535.744 288.593L536.697 305.403C531.419 305.631 526.936 307.102 523.247 309.815C519.668 312.515 516.988 315.895 515.209 319.952C513.429 324.009 512.772 328.224 513.234 332.596L516.448 362.929L499.736 364.702L492.459 296.004L507.532 294.404Z" fill="#48DBFB"/>
<mask id="mask8_313_4871" style="mask-type:luminance" maskUnits="userSpaceOnUse" x="477" y="269" width="87" height="110">
<path d="M563.746 269.768H477.438V378.687H563.746V269.768Z" fill="white"/>
<path d="M507.528 294.404L511.251 313.905L510.154 311.369C511.571 307.018 513.816 303.187 516.89 299.877C519.962 296.567 523.22 293.955 526.662 292.043C530.203 290.009 533.229 288.858 535.742 288.593L536.694 305.403C531.416 305.631 526.933 307.102 523.244 309.815C519.664 312.515 516.984 315.895 515.205 319.952C513.426 324.009 512.768 328.224 513.232 332.596L516.444 362.929L499.733 364.702L492.455 296.004L507.528 294.404Z" fill="black"/>
</mask>
<g mask="url(#mask8_313_4871)">
<path d="M507.529 294.404L519.976 292.024L517.788 280.561L506.192 281.791L507.529 294.404ZM511.251 313.905L499.62 318.942L523.699 311.524L511.251 313.905ZM510.154 311.368L498.104 307.439L496.618 312.001L498.523 316.406L510.154 311.368ZM526.662 292.042L532.815 303.13L532.894 303.086L532.972 303.042L526.662 292.042ZM535.742 288.591L548.394 287.873L547.641 274.575L534.405 275.98L535.742 288.591ZM536.694 305.403L537.242 318.074L550.073 317.518L549.347 304.685L536.694 305.403ZM523.244 309.814L515.739 299.594L515.676 299.639L515.614 299.687L523.244 309.814ZM516.444 362.929L517.781 375.54L530.383 374.203L529.047 361.591L516.444 362.929ZM499.733 364.701L487.13 366.038L488.466 378.651L501.069 377.314L499.733 364.701ZM492.455 296.003L491.119 283.391L478.516 284.727L479.852 297.34L492.455 296.003ZM495.08 296.784L498.803 316.285L523.699 311.524L519.976 292.024L495.08 296.784ZM522.882 308.867L521.784 306.33L498.523 316.406L499.62 318.942L522.882 308.867ZM522.204 315.298C523.058 312.674 524.368 310.454 526.174 308.509L507.604 291.244C503.263 295.921 500.084 301.361 498.104 307.439L522.204 315.298ZM526.174 308.509C528.47 306.036 530.697 304.307 532.815 303.13L520.511 280.954C515.745 283.602 511.455 287.097 507.604 291.244L526.174 308.509ZM532.972 303.042C534.304 302.276 535.335 301.796 536.087 301.511C536.853 301.22 537.157 301.196 537.078 301.204L534.405 275.98C529.39 276.512 524.592 278.608 520.353 281.043L532.972 303.042ZM523.089 289.31L524.041 306.12L549.347 304.685L548.394 287.873L523.089 289.31ZM536.146 292.731C528.755 293.051 521.752 295.172 515.739 299.594L530.748 320.034C532.114 319.03 534.077 318.21 537.242 318.074L536.146 292.731ZM515.614 299.687C510.323 303.678 506.263 308.782 503.6 314.854L526.81 325.048C527.706 323.006 529.005 321.35 530.874 319.941L515.614 299.687ZM503.6 314.854C500.942 320.918 499.93 327.348 500.629 333.933L525.835 331.259C525.606 329.099 525.911 327.101 526.81 325.048L503.6 314.854ZM500.629 333.933L503.842 364.265L529.047 361.591L525.835 331.259L500.629 333.933ZM515.108 350.316L498.398 352.088L501.069 377.314L517.781 375.54L515.108 350.316ZM512.336 363.364L505.058 294.665L479.852 297.34L487.13 366.038L512.336 363.364ZM493.791 308.615L508.864 307.015L506.192 281.791L491.119 283.391L493.791 308.615Z" fill="black"/>
</g>
<path d="M604.934 361.847C596.918 362.044 590.017 360.675 584.232 357.739C578.443 354.692 573.945 350.459 570.736 345.041C567.523 339.513 565.83 333.177 565.654 326.035C565.487 319.222 567.037 313.027 570.307 307.449C573.683 301.758 578.239 297.193 583.978 293.753C589.827 290.31 596.32 288.502 603.457 288.326C612.681 288.099 620.378 290.604 626.55 295.839C632.832 301.072 637.134 308.497 639.457 318.117L583.77 338.947L579.574 329.155L624.143 311.896L620.736 314.123C619.335 310.75 617.176 307.835 614.258 305.377C611.339 302.811 607.409 301.588 602.467 301.709C598.515 301.807 594.97 302.883 591.834 304.94C588.806 306.884 586.4 309.582 584.617 313.034C582.94 316.374 582.158 320.296 582.269 324.802C582.383 329.417 583.416 333.459 585.37 336.929C587.429 340.287 590.13 342.914 593.473 344.811C596.926 346.706 600.739 347.602 604.911 347.499C607.876 347.425 610.662 346.807 613.271 345.644C615.989 344.478 618.535 343.04 620.91 341.333L628.959 353.669C625.392 356.066 621.485 358.031 617.239 359.565C613.098 360.986 608.996 361.747 604.934 361.847Z" fill="#2E86DE"/>
<mask id="mask9_313_4871" style="mask-type:luminance" maskUnits="userSpaceOnUse" x="550" y="270" width="112" height="111">
<path d="M661.259 270.071H550.917V380.491H661.259V270.071Z" fill="white"/>
<path d="M604.934 361.847C596.918 362.044 590.017 360.675 584.232 357.739C578.443 354.692 573.945 350.459 570.736 345.041C567.523 339.513 565.83 333.177 565.654 326.035C565.487 319.222 567.037 313.027 570.307 307.449C573.683 301.758 578.239 297.193 583.978 293.753C589.827 290.31 596.32 288.502 603.457 288.326C612.681 288.099 620.378 290.604 626.55 295.839C632.832 301.072 637.134 308.497 639.457 318.117L583.77 338.947L579.574 329.155L624.143 311.896L620.736 314.123C619.335 310.75 617.176 307.835 614.258 305.377C611.339 302.811 607.409 301.588 602.467 301.709C598.515 301.807 594.97 302.883 591.834 304.94C588.806 306.884 586.4 309.582 584.617 313.034C582.94 316.374 582.158 320.296 582.269 324.802C582.383 329.417 583.416 333.459 585.37 336.929C587.429 340.287 590.13 342.914 593.473 344.811C596.926 346.706 600.739 347.602 604.911 347.499C607.876 347.425 610.662 346.807 613.271 345.644C615.989 344.478 618.535 343.04 620.91 341.333L628.959 353.669C625.392 356.066 621.485 358.031 617.239 359.565C613.098 360.986 608.996 361.747 604.934 361.847Z" fill="black"/>
</mask>
<g mask="url(#mask9_313_4871)">
<path d="M584.231 357.738L578.331 368.963L578.414 369.006L578.498 369.049L584.231 357.738ZM570.734 345.041L559.778 351.415L559.804 351.461L559.831 351.508L570.734 345.041ZM570.305 307.448L559.407 300.973L559.373 301.031L570.305 307.448ZM583.977 293.752L577.551 282.821L577.508 282.846L577.464 282.872L583.977 293.752ZM626.547 295.838L618.352 305.512L618.396 305.55L618.439 305.586L626.547 295.838ZM639.456 318.116L643.894 329.996L654.414 326.061L651.775 315.135L639.456 318.116ZM583.769 338.947L572.121 343.946L576.885 355.063L588.207 350.828L583.769 338.947ZM579.573 329.155L574.999 317.326L562.748 322.072L567.924 334.153L579.573 329.155ZM624.14 311.895L631.075 322.513L619.568 300.067L624.14 311.895ZM620.734 314.123L609.031 318.991L614.891 333.098L627.668 324.74L620.734 314.123ZM614.257 305.377L605.892 314.905L605.993 314.993L606.096 315.081L614.257 305.377ZM591.833 304.939L598.674 315.616L598.727 315.581L598.778 315.547L591.833 304.939ZM584.615 313.033L573.356 307.21L573.322 307.275L573.29 307.342L584.615 313.033ZM585.367 336.929L574.324 343.153L574.441 343.361L574.567 343.565L585.367 336.929ZM593.472 344.811L587.221 355.843L587.299 355.888L587.379 355.933L593.472 344.811ZM613.268 345.643L608.275 333.987L608.191 334.022L608.108 334.06L613.268 345.643ZM620.908 341.332L631.52 334.398L624.276 323.295L613.514 331.031L620.908 341.332ZM628.957 353.668L636.022 364.198L646.409 357.219L639.569 346.734L628.957 353.668ZM617.236 359.565L621.349 371.562L621.444 371.528L621.539 371.494L617.236 359.565ZM604.62 349.167C598.213 349.325 593.486 348.215 589.962 346.426L578.498 369.049C586.546 373.133 595.619 374.762 605.243 374.526L604.62 349.167ZM590.129 346.512C586.332 344.514 583.602 341.893 581.636 338.574L559.831 351.508C564.285 359.026 570.553 364.869 578.331 368.963L590.129 346.512ZM581.69 338.665C579.671 335.189 578.451 330.986 578.322 325.723L552.983 326.345C553.204 335.367 555.373 343.834 559.778 351.415L581.69 338.665ZM578.322 325.723C578.209 321.138 579.226 317.294 581.237 313.863L559.373 301.031C554.844 308.759 552.76 317.305 552.983 326.345L578.322 325.723ZM581.202 313.923C583.492 310.063 586.533 307.004 590.489 304.633L577.464 282.872C569.943 287.38 563.87 293.451 559.407 300.973L581.202 313.923ZM590.402 304.685C594.296 302.392 598.666 301.129 603.767 301.005L603.143 275.646C593.97 275.873 585.354 278.228 577.551 282.821L590.402 304.685ZM603.767 301.005C610.348 300.843 614.885 302.572 618.352 305.512L634.743 286.164C625.867 278.634 615.009 275.355 603.143 275.646L603.767 301.005ZM618.439 305.586C622.217 308.734 625.315 313.558 627.137 321.096L651.775 315.135C648.948 303.437 643.441 293.409 634.657 286.091L618.439 305.586ZM635.018 306.236L579.331 327.067L588.207 350.828L643.894 329.996L635.018 306.236ZM595.416 333.949L591.221 324.157L567.924 334.153L572.121 343.946L595.416 333.949ZM584.147 340.983L628.714 323.723L619.568 300.067L574.999 317.326L584.147 340.983ZM617.207 301.279L613.801 303.507L627.668 324.74L631.075 322.513L617.207 301.279ZM632.438 309.255C630.224 303.927 626.814 299.377 622.419 295.674L606.096 315.081C607.534 316.291 608.443 317.573 609.031 318.991L632.438 309.255ZM622.622 295.849C616.709 290.651 609.382 288.851 602.154 289.03L602.777 314.388C604.137 314.354 604.944 314.517 605.357 314.646C605.727 314.76 605.847 314.865 605.892 314.905L622.622 295.849ZM602.154 289.03C595.975 289.181 590.108 290.907 584.887 294.33L598.778 315.547C599.828 314.859 601.05 314.43 602.777 314.388L602.154 289.03ZM584.991 294.263C579.942 297.503 576.077 301.942 573.356 307.21L595.873 318.856C596.72 317.22 597.666 316.262 598.674 315.616L584.991 294.263ZM573.29 307.342C570.506 312.887 569.447 318.952 569.598 325.112L594.937 324.489C594.867 321.639 595.372 319.858 595.941 318.724L573.29 307.342ZM569.598 325.112C569.753 331.47 571.202 337.607 574.324 343.153L596.409 330.705C595.625 329.31 595.007 327.362 594.937 324.489L569.598 325.112ZM574.567 343.565C577.719 348.702 581.967 352.862 587.221 355.843L599.722 333.779C598.291 332.966 597.136 331.871 596.167 330.292L574.567 343.565ZM587.379 355.933C592.91 358.966 598.953 360.331 605.221 360.177L604.597 334.819C602.52 334.87 600.938 334.443 599.564 333.69L587.379 355.933ZM605.221 360.177C609.792 360.065 614.234 359.099 618.429 357.227L608.108 334.06C607.087 334.515 605.955 334.786 604.597 334.819L605.221 360.177ZM618.263 357.299C621.818 355.774 625.171 353.884 628.303 351.632L613.514 331.031C611.895 332.195 610.155 333.179 608.275 333.987L618.263 357.299ZM610.297 348.266L618.346 360.602L639.569 346.734L631.52 334.398L610.297 348.266ZM621.893 343.139C619.228 344.929 616.257 346.434 612.934 347.634L621.539 371.494C626.711 369.626 631.553 367.202 636.022 364.198L621.893 343.139ZM613.124 347.568C610.114 348.601 607.293 349.101 604.62 349.167L605.243 374.526C610.697 374.392 616.078 373.37 621.349 371.562L613.124 347.568Z" fill="black"/>
</g>
<path d="M689.144 368.312C684.11 367.895 679.311 366.615 674.749 364.475C670.196 362.222 666.531 359.217 663.755 355.459L671.767 346.525C674.496 349.509 677.279 351.834 680.118 353.503C683.074 355.071 685.92 355.968 688.657 356.194C690.846 356.375 692.835 356.319 694.623 356.026C696.419 355.622 697.915 354.863 699.109 353.75C700.303 352.635 700.982 351.093 701.144 349.12C701.334 346.82 700.717 344.949 699.293 343.508C697.869 342.067 695.989 340.808 693.653 339.732C691.317 338.657 688.812 337.623 686.139 336.629C680.492 334.288 676.33 331.296 673.655 327.656C670.988 323.906 669.851 319.677 670.239 314.966C670.537 311.351 671.693 308.028 673.707 304.996C675.84 301.863 678.853 299.41 682.746 297.636C686.64 295.863 691.323 295.203 696.796 295.655C701.832 296.071 706.216 297.04 709.947 298.562C713.687 299.974 717.088 302.186 720.145 305.195L712.736 314.84C710.928 312.705 708.697 311.032 706.042 309.82C703.505 308.507 701.146 307.706 698.966 307.415C696.996 307.252 695.163 307.432 693.467 307.953C691.78 308.364 690.394 309.133 689.309 310.256C688.233 311.27 687.633 312.543 687.506 314.077C687.215 316.259 687.777 318.125 689.192 319.677C690.726 321.128 692.715 322.394 695.16 323.478C697.615 324.454 700.01 325.479 702.347 326.554C705.658 327.822 708.555 329.439 711.038 331.409C713.529 333.269 715.442 335.468 716.775 338.004C718.109 340.541 718.622 343.672 718.314 347.396C717.979 351.449 716.678 355.202 714.409 358.654C712.149 361.997 708.904 364.596 704.673 366.452C700.451 368.199 695.275 368.818 689.144 368.312Z" fill="#341F97"/>
<mask id="mask10_313_4871" style="mask-type:luminance" maskUnits="userSpaceOnUse" x="642" y="274" width="98" height="116">
<path d="M739.351 274.582H642.067V389.33H739.351V274.582Z" fill="white"/>
<path d="M689.145 368.313C684.111 367.896 679.312 366.617 674.749 364.476C670.196 362.224 666.531 359.218 663.756 355.46L671.767 346.527C674.496 349.51 677.28 351.837 680.118 353.505C683.074 355.072 685.921 355.97 688.658 356.196C690.847 356.377 692.835 356.32 694.624 356.027C696.42 355.624 697.915 354.866 699.109 353.751C700.304 352.636 700.982 351.094 701.144 349.121C701.334 346.822 700.718 344.95 699.293 343.509C697.87 342.068 695.99 340.81 693.654 339.735C691.318 338.658 688.813 337.624 686.14 336.632C680.492 334.289 676.331 331.299 673.656 327.657C670.989 323.908 669.851 319.678 670.239 314.968C670.538 311.353 671.694 308.029 673.707 304.997C675.84 301.865 678.853 299.412 682.747 297.638C686.64 295.864 691.324 295.204 696.796 295.656C701.832 296.073 706.216 297.041 709.947 298.563C713.688 299.975 717.088 302.187 720.146 305.197L712.737 314.842C710.929 312.707 708.698 311.033 706.042 309.821C703.506 308.508 701.147 307.707 698.967 307.417C696.997 307.253 695.163 307.433 693.467 307.954C691.781 308.367 690.395 309.134 689.309 310.257C688.233 311.271 687.633 312.546 687.506 314.079C687.216 316.261 687.778 318.127 689.193 319.678C690.727 321.129 692.715 322.395 695.161 323.479C697.616 324.455 700.01 325.48 702.347 326.556C705.659 327.823 708.556 329.44 711.038 331.411C713.529 333.271 715.442 335.469 716.776 338.007C718.109 340.543 718.622 343.673 718.314 347.398C717.98 351.452 716.679 355.204 714.409 358.655C712.149 361.998 708.904 364.597 704.674 366.453C700.452 368.2 695.275 368.819 689.145 368.313Z" fill="black"/>
</mask>
<g mask="url(#mask10_313_4871)">
<path d="M674.749 364.475L669.134 375.844L669.25 375.902L669.366 375.956L674.749 364.475ZM663.756 355.459L654.323 346.988L647.424 354.682L653.563 362.996L663.756 355.459ZM671.767 346.527L681.114 337.961L671.673 327.643L662.335 338.054L671.767 346.527ZM680.118 353.504L673.699 364.439L673.938 364.58L674.184 364.709L680.118 353.504ZM694.624 356.026L696.674 368.542L697.036 368.482L697.394 368.402L694.624 356.026ZM686.14 336.631L681.288 348.347L681.508 348.438L681.729 348.52L686.14 336.631ZM673.656 327.657L663.329 335.01L663.387 335.09L663.446 335.171L673.656 327.657ZM673.708 304.996L663.234 297.857L663.193 297.916L663.153 297.975L673.708 304.996ZM709.947 298.563L705.166 310.308L705.32 310.371L705.475 310.429L709.947 298.563ZM720.146 305.196L730.194 312.926L737.03 304.026L729.034 296.154L720.146 305.196ZM712.737 314.84L703.068 323.04L713.216 335.025L722.785 322.57L712.737 314.84ZM706.042 309.82L700.221 321.087L700.499 321.23L700.782 321.36L706.042 309.82ZM698.968 307.415L700.641 294.844L700.326 294.802L700.01 294.776L698.968 307.415ZM693.467 307.953L696.471 320.275L696.834 320.187L697.189 320.077L693.467 307.953ZM689.309 310.257L697.999 319.488L698.217 319.283L698.425 319.07L689.309 310.257ZM687.506 314.078L700.068 315.752L700.11 315.437L700.137 315.123L687.506 314.078ZM689.193 319.677L679.834 328.228L680.148 328.574L680.488 328.894L689.193 319.677ZM695.161 323.479L690.026 335.074L690.254 335.175L690.485 335.266L695.161 323.479ZM702.347 326.555L697.049 338.077L697.43 338.253L697.823 338.402L702.347 326.555ZM711.038 331.409L703.163 341.347L703.31 341.463L703.459 341.575L711.038 331.409ZM714.409 358.655L724.906 365.762L724.953 365.693L724.998 365.624L714.409 358.655ZM704.674 366.452L709.515 378.174L709.638 378.122L709.762 378.068L704.674 366.452ZM690.189 355.673C686.653 355.38 683.325 354.491 680.131 352.992L669.366 375.956C675.298 378.742 681.567 380.412 688.102 380.952L690.189 355.673ZM680.363 353.104C677.458 351.667 675.422 349.917 673.948 347.922L653.563 362.996C657.641 368.518 662.934 372.779 669.134 375.844L680.363 353.104ZM673.187 363.93L681.199 354.998L662.335 338.054L654.323 346.988L673.187 363.93ZM662.42 355.092C665.816 358.802 669.557 362.004 673.699 364.439L686.537 342.568C685.003 341.665 683.178 340.216 681.114 337.961L662.42 355.092ZM674.184 364.709C678.334 366.911 682.838 368.439 687.614 368.834L689.702 343.556C689.006 343.497 687.816 343.231 686.053 342.297L674.184 364.709ZM687.614 368.834C690.625 369.083 693.675 369.034 696.674 368.542L692.572 343.51C691.996 343.605 691.068 343.669 689.702 343.556L687.614 368.834ZM697.394 368.402C701.103 367.57 704.71 365.866 707.754 363.025L690.466 344.474C690.763 344.198 691.076 343.988 691.361 343.844C691.639 343.701 691.822 343.657 691.852 343.65L697.394 368.402ZM707.754 363.025C711.718 359.325 713.41 354.584 713.775 350.164L688.514 348.076C688.528 347.898 688.598 347.367 688.913 346.649C689.244 345.897 689.764 345.13 690.466 344.474L707.754 363.025ZM713.775 350.164C714.223 344.746 712.709 339.047 708.306 334.591L690.281 352.425C689.659 351.796 689.112 350.944 688.789 349.967C688.482 349.033 688.492 348.335 688.514 348.076L713.775 350.164ZM708.306 334.591C705.564 331.816 702.315 329.761 698.95 328.211L688.357 351.255C689.665 351.857 690.174 352.317 690.281 352.425L708.306 334.591ZM698.95 328.211C696.295 326.988 693.493 325.832 690.551 324.74L681.729 348.52C684.135 349.414 686.342 350.327 688.357 351.255L698.95 328.211ZM690.991 324.914C686.75 323.154 684.769 321.371 683.866 320.142L663.446 335.171C667.893 341.222 674.235 345.422 681.288 348.347L690.991 324.914ZM683.982 320.304C683.101 319.065 682.721 317.825 682.87 316.011L657.609 313.923C656.981 321.529 658.879 328.75 663.329 335.01L683.982 320.304ZM682.87 316.011C682.991 314.54 683.43 313.271 684.263 312.016L663.153 297.975C659.959 302.785 658.085 308.164 657.609 313.923L682.87 316.011ZM684.183 312.137C684.846 311.162 685.935 310.119 687.997 309.181L677.497 286.094C671.772 288.701 666.834 292.565 663.234 297.857L684.183 312.137ZM687.997 309.181C689.439 308.523 691.84 307.972 695.753 308.295L697.841 283.016C690.808 282.434 683.842 283.203 677.497 286.094L687.997 309.181ZM695.753 308.295C699.815 308.632 702.886 309.378 705.166 310.308L714.73 286.817C709.546 284.704 703.85 283.512 697.841 283.016L695.753 308.295ZM705.475 310.429C707.446 311.172 709.366 312.376 711.259 314.238L729.034 296.154C724.809 291.997 719.931 288.777 714.421 286.696L705.475 310.429ZM710.098 297.466L702.689 307.111L722.785 322.57L730.194 312.926L710.098 297.466ZM722.406 306.641C719.339 303.02 715.58 300.234 711.303 298.281L700.782 321.36C701.817 321.832 702.52 322.391 703.068 323.04L722.406 306.641ZM711.864 298.555C708.397 296.76 704.627 295.375 700.641 294.844L697.294 319.987C697.668 320.037 698.615 320.255 700.221 321.087L711.864 298.555ZM700.01 294.776C696.617 294.495 693.149 294.783 689.745 295.83L697.189 320.077C697.196 320.075 697.243 320.061 697.347 320.051C697.454 320.04 697.641 320.031 697.924 320.055L700.01 294.776ZM690.463 295.632C686.719 296.546 683.128 298.407 680.195 301.444L698.425 319.07C698.08 319.425 697.692 319.718 697.3 319.934C696.918 320.146 696.618 320.239 696.471 320.275L690.463 295.632ZM680.619 301.025C677.166 304.281 675.249 308.517 674.875 313.034L700.137 315.123C700.087 315.731 699.918 316.529 699.512 317.388C699.102 318.256 698.558 318.962 697.999 319.488L680.619 301.025ZM674.944 312.404C674.186 318.096 675.757 323.762 679.834 328.228L698.552 311.126C699.023 311.641 699.537 312.432 699.845 313.453C700.146 314.458 700.131 315.286 700.068 315.752L674.944 312.404ZM680.488 328.894C683.305 331.56 686.6 333.556 690.026 335.074L700.297 311.885C698.832 311.234 698.147 310.695 697.898 310.46L680.488 328.894ZM690.485 335.266C692.736 336.161 694.924 337.098 697.049 338.077L707.644 315.033C705.098 313.861 702.495 312.747 699.836 311.691L690.485 335.266ZM697.823 338.402C700.07 339.261 701.808 340.27 703.163 341.347L718.912 321.472C715.305 318.609 711.248 316.382 706.87 314.708L697.823 338.402ZM703.459 341.575C704.568 342.401 705.18 343.186 705.56 343.91L727.992 332.1C725.706 327.75 722.492 324.138 718.617 321.244L703.459 341.575ZM705.56 343.91C705.477 343.753 705.852 344.313 705.685 346.353L730.945 348.441C731.392 343.031 730.741 337.33 727.992 332.1L705.56 343.91ZM705.685 346.353C705.527 348.256 704.944 349.977 703.822 351.686L724.998 365.624C728.414 360.429 730.434 354.644 730.945 348.441L705.685 346.353ZM703.913 351.548C703.182 352.629 701.951 353.799 699.586 354.837L709.762 378.068C715.858 375.394 721.119 371.365 724.906 365.762L703.913 351.548ZM699.832 354.732C698.002 355.488 694.976 356.068 690.189 355.673L688.102 380.952C695.576 381.569 702.901 380.91 709.515 378.174L699.832 354.732Z" fill="black"/>
</g>
<path d="M769.967 279.248L786.696 282.117L781.544 312.181L799.73 315.301L797.475 328.464L779.288 325.344L769.909 380.108L753.183 377.24L762.566 322.474L750.548 320.414L752.802 307.251L764.821 309.311L769.967 279.248Z" fill="#10AC84"/>
<mask id="mask11_313_4871" style="mask-type:luminance" maskUnits="userSpaceOnUse" x="725" y="260" width="97" height="139">
<path d="M821.833 260.349H725.474V398.211H821.833V260.349Z" fill="white"/>
<path d="M769.967 279.248L786.697 282.117L781.544 312.181L799.731 315.301L797.475 328.464L779.289 325.344L769.91 380.108L753.184 377.24L762.566 322.474L750.548 320.414L752.803 307.251L764.822 309.311L769.967 279.248Z" fill="black"/>
</mask>
<g mask="url(#mask11_313_4871)">
<path d="M769.966 279.248L772.108 266.748L759.617 264.604L757.476 277.105L769.966 279.248ZM786.695 282.117L799.185 284.26L801.327 271.759L788.836 269.617L786.695 282.117ZM781.543 312.181L769.053 310.039L766.912 322.538L779.402 324.681L781.543 312.181ZM799.73 315.3L812.227 317.443L814.362 304.942L801.872 302.8L799.73 315.3ZM797.474 328.464L795.339 340.964L807.829 343.107L809.97 330.606L797.474 328.464ZM779.287 325.344L781.429 312.843L768.94 310.7L766.797 323.201L779.287 325.344ZM769.909 380.108L767.767 392.609L780.257 394.752L782.399 382.252L769.909 380.108ZM753.183 377.239L740.691 375.097L738.551 387.598L751.042 389.74L753.183 377.239ZM762.565 322.474L775.055 324.617L777.196 312.117L764.706 309.975L762.565 322.474ZM750.547 320.414L738.056 318.271L735.915 330.772L748.406 332.913L750.547 320.414ZM752.801 307.251L754.943 294.75L742.452 292.607L740.31 305.108L752.801 307.251ZM764.821 309.311L762.679 321.812L775.168 323.955L777.31 311.454L764.821 309.311ZM767.824 291.749L784.554 294.617L788.836 269.617L772.108 266.748L767.824 291.749ZM774.205 279.975L769.053 310.039L794.033 314.323L799.185 284.26L774.205 279.975ZM779.402 324.681L797.588 327.802L801.872 302.8L783.686 299.68L779.402 324.681ZM787.24 313.158L784.984 326.321L809.97 330.606L812.227 317.443L787.24 313.158ZM799.615 315.963L781.429 312.843L777.146 337.844L795.339 340.964L799.615 315.963ZM766.797 323.201L757.417 377.965L782.399 382.252L791.783 327.487L766.797 323.201ZM772.051 367.608L755.324 364.738L751.042 389.74L767.767 392.609L772.051 367.608ZM765.676 379.382L775.055 324.617L750.073 320.332L740.691 375.097L765.676 379.382ZM764.706 309.975L752.688 307.913L748.406 332.913L760.422 334.975L764.706 309.975ZM763.039 322.556L765.296 309.393L740.31 305.108L738.056 318.271L763.039 322.556ZM750.66 319.75L762.679 321.812L766.963 296.812L754.943 294.75L750.66 319.75ZM777.31 311.454L782.463 281.39L757.476 277.105L752.327 307.169L777.31 311.454Z" fill="black"/>
</g>
<path d="M827.421 323.526L843.884 327.642L827.155 394.666L810.692 390.551L827.421 323.526ZM832.453 299.293C833.093 296.734 834.639 294.854 837.084 293.653C839.537 292.453 841.932 292.147 844.277 292.732C846.729 293.345 848.7 294.744 850.195 296.929C851.685 299.116 852.115 301.489 851.475 304.048C850.835 306.607 849.347 308.5 847.001 309.726C844.682 310.847 842.299 311.1 839.848 310.488C837.503 309.902 835.52 308.556 833.891 306.45C832.294 304.238 831.812 301.852 832.453 299.293Z" fill="#FF9F43"/>
<mask id="mask12_313_4871" style="mask-type:luminance" maskUnits="userSpaceOnUse" x="788" y="268" width="83" height="143">
<path d="M870.277 268.963H788.844V410.457H870.277V268.963Z" fill="white"/>
<path d="M827.424 323.528L843.886 327.643L827.157 394.667L810.694 390.552L827.424 323.528ZM832.455 299.294C833.095 296.735 834.642 294.855 837.087 293.655C839.54 292.454 841.935 292.148 844.279 292.734C846.732 293.346 848.703 294.746 850.197 296.932C851.687 299.117 852.118 301.49 851.478 304.049C850.838 306.608 849.349 308.501 847.005 309.729C844.685 310.848 842.302 311.102 839.85 310.489C837.506 309.904 835.522 308.558 833.893 306.452C832.296 304.239 831.815 301.854 832.455 299.294Z" fill="black"/>
</mask>
<g mask="url(#mask12_313_4871)">
<path d="M827.423 323.527L830.497 311.222L818.203 308.149L815.13 320.454L827.423 323.527ZM843.886 327.643L856.186 330.717L859.252 318.412L846.959 315.338L843.886 327.643ZM827.157 394.667L824.089 406.972L836.383 410.046L839.456 397.741L827.157 394.667ZM810.694 390.551L798.401 387.478L795.327 399.782L807.621 402.856L810.694 390.551ZM847.004 309.728L852.516 321.147L852.694 321.06L852.877 320.967L847.004 309.728ZM833.892 306.451L823.628 313.883L823.741 314.045L823.862 314.204L833.892 306.451ZM824.356 335.832L840.819 339.948L846.959 315.338L830.497 311.222L824.356 335.832ZM831.593 324.57L814.863 391.594L839.456 397.741L856.186 330.717L831.593 324.57ZM830.23 382.362L813.767 378.246L807.621 402.856L824.089 406.972L830.23 382.362ZM822.988 393.625L839.723 326.601L815.13 320.454L798.401 387.478L822.988 393.625ZM844.748 302.367C844.653 302.758 844.4 303.387 843.88 304.02C843.367 304.643 842.866 304.946 842.657 305.046L831.517 282.262C825.845 285.041 821.739 289.887 820.161 296.219L844.748 302.367ZM842.657 305.046C842.796 304.978 842.676 305.06 842.333 305.104C841.973 305.151 841.567 305.128 841.212 305.038L847.352 280.428C841.737 279.024 836.282 279.928 831.517 282.262L842.657 305.046ZM841.212 305.038C840.977 304.98 840.623 304.841 840.267 304.588C839.919 304.339 839.755 304.117 839.729 304.085L860.659 289.776C857.51 285.158 852.966 281.832 847.352 280.428L841.212 305.038ZM839.729 304.085C839.57 303.849 839.298 303.336 839.165 302.596C839.032 301.856 839.108 301.271 839.178 300.974L863.771 307.122C865.292 301.034 864.189 294.942 860.659 289.776L839.729 304.085ZM839.178 300.974C839.253 300.679 839.463 300.127 839.926 299.536C840.387 298.946 840.876 298.621 841.13 298.488L852.877 320.967C858.417 318.067 862.251 313.21 863.771 307.122L839.178 300.974ZM841.49 298.307C841.547 298.28 841.776 298.184 842.137 298.146C842.498 298.107 842.783 298.149 842.923 298.184L836.776 322.794C842.163 324.139 847.581 323.532 852.516 321.147L841.49 298.307ZM842.923 298.184C843.176 298.248 843.461 298.373 843.708 298.54C843.943 298.7 844.007 298.801 843.924 298.698L823.862 314.204C827.049 318.327 831.39 321.446 836.776 322.794L842.923 298.184ZM844.164 299.019C844.298 299.203 844.602 299.708 844.76 300.499C844.918 301.303 844.85 301.976 844.748 302.367L820.161 296.219C818.577 302.552 819.927 308.761 823.628 313.883L844.164 299.019Z" fill="black"/>
</g>
<path d="M896.987 344.529L893.616 360.065L893.634 357.822C897.328 353.806 901.923 351.116 907.43 349.751C912.968 348.281 918.874 348.544 925.154 350.539C931.332 352.501 935.831 355.948 938.645 360.879C941.566 365.843 942.142 371.275 940.388 377.175L924.932 425.89L908.76 420.752L922.416 377.694C923.38 374.308 923.247 371.268 922.03 368.574C920.839 365.775 918.279 363.691 914.331 362.322C910.77 361.191 907.176 361.26 903.545 362.53C899.952 363.694 896.733 365.842 893.894 368.978C891.055 372.112 888.875 376.088 887.348 380.907L877.825 410.922L861.646 405.784L882.539 339.94L896.987 344.529Z" fill="#EE5253"/>
<mask id="mask13_313_4871" style="mask-type:luminance" maskUnits="userSpaceOnUse" x="845" y="317" width="122" height="126">
<path d="M966.682 317.224H845.406V442.713H966.682V317.224Z" fill="white"/>
<path d="M896.987 344.528L893.616 360.063L893.635 357.82C897.329 353.805 901.924 351.113 907.431 349.749C912.969 348.279 918.875 348.541 925.154 350.537C931.332 352.5 935.832 355.947 938.646 360.878C941.567 365.841 942.143 371.274 940.388 377.174L924.933 425.889L908.76 420.75L922.416 377.692C923.38 374.305 923.247 371.267 922.03 368.572C920.839 365.774 918.279 363.69 914.331 362.321C910.77 361.19 907.176 361.259 903.545 362.527C899.953 363.691 896.733 365.841 893.895 368.975C891.055 372.111 888.876 376.087 887.349 380.906L877.825 410.921L861.647 405.781L882.539 339.937L896.987 344.528Z" fill="black"/>
</mask>
<g mask="url(#mask13_313_4871)">
<path d="M896.987 344.528L909.37 347.221L911.823 335.936L900.821 332.44L896.987 344.528ZM893.616 360.064L880.943 359.951L905.999 362.756L893.616 360.064ZM893.636 357.822L884.307 349.232L881.006 352.824L880.962 357.707L893.636 357.822ZM907.431 349.75L910.479 362.06L910.58 362.035L910.682 362.009L907.431 349.75ZM938.646 360.878L927.638 367.169L927.683 367.24L927.721 367.312L938.646 360.878ZM940.388 377.174L952.467 381.012L952.504 380.904L952.536 380.795L940.388 377.174ZM924.933 425.889L921.099 437.978L933.178 441.815L937.011 429.728L924.933 425.889ZM908.762 420.751L896.677 416.912L892.843 429.001L904.922 432.838L908.762 420.751ZM922.417 377.693L934.502 381.531L934.559 381.342L934.616 381.151L922.417 377.693ZM922.03 368.573L910.365 373.526L910.422 373.667L910.486 373.806L922.03 368.573ZM914.331 362.322L918.482 350.338L918.324 350.285L918.165 350.233L914.331 362.322ZM903.547 362.529L907.45 374.596L907.589 374.55L907.729 374.502L903.547 362.529ZM877.825 410.921L873.991 423.01L886.07 426.848L889.904 414.76L877.825 410.921ZM861.647 405.783L849.57 401.945L845.736 414.033L857.813 417.872L861.647 405.783ZM882.54 339.939L886.374 327.851L874.296 324.012L870.462 336.101L882.54 339.939ZM884.599 341.836L881.228 357.371L905.999 362.756L909.37 347.221L884.599 341.836ZM906.284 360.177L906.309 357.935L880.962 357.707L880.943 359.951L906.284 360.177ZM902.957 366.41C904.902 364.299 907.285 362.852 910.479 362.06L904.382 337.44C896.57 339.378 889.758 343.312 884.307 349.232L902.957 366.41ZM910.682 362.009C913.553 361.246 916.987 361.248 921.32 362.627L928.995 338.451C920.77 335.837 912.38 335.314 904.18 337.491L910.682 362.009ZM921.32 362.627C924.927 363.773 926.631 365.397 927.638 367.169L949.646 354.587C945.033 346.497 937.74 341.229 928.995 338.451L921.32 362.627ZM927.721 367.312C928.722 369.013 929.071 370.769 928.241 373.552L952.536 380.795C955.217 371.78 954.405 362.671 949.564 354.445L927.721 367.312ZM928.311 373.336L912.856 422.052L937.011 429.728L952.467 381.012L928.311 373.336ZM928.767 413.801L912.596 408.663L904.922 432.838L921.099 437.978L928.767 413.801ZM920.839 424.589L934.502 381.531L910.339 373.854L896.677 416.912L920.839 424.589ZM934.616 381.151C936.226 375.455 936.257 369.26 933.57 363.339L910.486 373.806C910.453 373.736 910.422 373.652 910.403 373.567C910.384 373.482 910.377 373.427 910.377 373.418C910.377 373.393 910.396 373.643 910.226 374.234L934.616 381.151ZM933.696 363.62C930.649 356.424 924.496 352.425 918.482 350.338L910.182 374.304C911.113 374.628 911.347 374.854 911.227 374.759C911.157 374.703 911.011 374.568 910.834 374.339C910.656 374.107 910.492 373.831 910.365 373.526L933.696 363.62ZM918.165 350.233C911.911 348.246 905.505 348.41 899.37 350.555L907.729 374.502C908.85 374.109 909.63 374.135 910.497 374.41L918.165 350.233ZM899.65 350.461C893.705 352.386 888.655 355.88 884.504 360.46L903.287 377.492C904.821 375.804 906.202 374.999 907.45 374.596L899.65 350.461ZM884.504 360.46C880.234 365.18 877.242 370.849 875.265 377.069L899.427 384.744C900.511 381.327 901.887 379.042 903.287 377.492L884.504 360.46ZM875.265 377.069L865.748 407.084L889.904 414.76L899.427 384.744L875.265 377.069ZM881.659 398.833L865.488 393.695L857.813 417.872L873.991 423.01L881.659 398.833ZM873.731 409.62L894.618 343.776L870.462 336.101L849.57 401.945L873.731 409.62ZM878.706 352.027L893.154 356.617L900.821 332.44L886.374 327.851L878.706 352.027Z" fill="black"/>
</g>
<path d="M965.063 485.392C960.153 483.183 956.142 480.714 953.03 477.99C949.925 475.263 947.365 472.243 945.363 468.931C943.411 465.764 941.63 462.491 940.021 459.114L953.98 452.564C955.78 456.869 957.947 460.617 960.488 463.81C962.985 467.101 966.439 469.74 970.843 471.725C975.254 473.708 979.347 474.647 983.124 474.541C986.964 474.581 990.316 473.68 993.193 471.841C996.07 470.001 998.313 467.276 999.935 463.668L1007.46 447.346L1007.15 450.826C1003.6 454.169 998.871 456.258 992.959 457.091C987.091 457.824 980.798 456.68 974.087 453.659C968.377 451.089 963.721 447.244 960.121 442.129C956.617 437.057 954.539 431.361 953.886 425.041C953.239 418.722 954.329 412.404 957.168 406.088C960.14 399.472 964.259 394.335 969.519 390.676C974.918 386.961 980.779 384.777 987.091 384.125C993.453 383.372 999.491 384.28 1005.2 386.85C1010.81 389.376 1015.32 392.733 1018.74 396.922C1022.2 401.011 1024.31 405.157 1025.07 409.355L1023.02 411.507L1029.67 401.123L1043.95 407.548L1015.5 470.852C1012.88 476.666 1008.98 481.181 1003.81 484.393C998.687 487.752 992.812 489.568 986.184 489.84C979.518 490.212 972.471 488.728 965.063 485.392ZM972.997 412.671C971.243 416.582 970.546 420.545 970.906 424.566C971.267 428.585 972.573 432.246 974.817 435.548C977.212 438.796 980.367 441.298 984.271 443.057C987.775 444.635 991.203 445.455 994.549 445.514C997.939 445.472 1001.06 444.828 1003.91 443.58C1006.91 442.276 1009.5 440.374 1011.72 437.873L1017.59 424.791C1017.99 421.478 1017.65 418.368 1016.54 415.462C1015.49 412.454 1013.83 409.718 1011.56 407.253C1009.3 404.787 1006.47 402.788 1003.06 401.255C999.155 399.497 995.189 398.798 991.178 399.16C987.305 399.466 983.77 400.767 980.57 403.064C977.369 405.358 974.848 408.561 972.997 412.671Z" fill="#F368E0"/>
<mask id="mask14_313_4871" style="mask-type:luminance" maskUnits="userSpaceOnUse" x="909" y="351" width="157" height="172">
<path d="M1065.3 351.34H909.87V522.797H1065.3V351.34Z" fill="white"/>
<path d="M965.064 485.392C960.153 483.183 956.142 480.714 953.031 477.99C949.926 475.263 947.366 472.243 945.363 468.931C943.412 465.764 941.631 462.491 940.021 459.114L953.981 452.564C955.781 456.869 957.948 460.617 960.489 463.81C962.986 467.101 966.439 469.74 970.843 471.725C975.254 473.708 979.348 474.647 983.125 474.541C986.964 474.581 990.317 473.68 993.194 471.841C996.07 470.001 998.313 467.276 999.936 463.668L1007.46 447.346L1007.15 450.826C1003.6 454.169 998.872 456.258 992.959 457.091C987.091 457.824 980.798 456.68 974.087 453.659C968.378 451.089 963.721 447.244 960.122 442.129C956.618 437.057 954.539 431.361 953.886 425.041C953.24 418.722 954.329 412.404 957.169 406.088C960.14 399.472 964.26 394.335 969.519 390.676C974.918 386.961 980.779 384.777 987.091 384.125C993.454 383.372 999.492 384.28 1005.2 386.85C1010.81 389.376 1015.32 392.733 1018.74 396.922C1022.2 401.011 1024.31 405.157 1025.07 409.355L1023.02 411.507L1029.67 401.123L1043.95 407.548L1015.5 470.852C1012.88 476.666 1008.98 481.181 1003.81 484.393C998.687 487.752 992.812 489.568 986.185 489.84C979.518 490.212 972.472 488.728 965.064 485.392ZM972.997 412.671C971.243 416.582 970.546 420.545 970.906 424.566C971.268 428.585 972.573 432.246 974.817 435.548C977.212 438.796 980.368 441.298 984.272 443.057C987.776 444.635 991.204 445.455 994.549 445.514C997.939 445.472 1001.06 444.828 1003.91 443.58C1006.91 442.276 1009.5 440.374 1011.72 437.873L1017.59 424.791C1018 421.478 1017.65 418.368 1016.54 415.462C1015.49 412.454 1013.83 409.718 1011.56 407.253C1009.3 404.787 1006.47 402.788 1003.06 401.255C999.156 399.497 995.189 398.798 991.178 399.16C987.306 399.466 983.77 400.767 980.571 403.064C977.37 405.358 974.849 408.561 972.997 412.671Z" fill="black"/>
</mask>
<g mask="url(#mask14_313_4871)">
<path d="M945.361 468.931L956.203 462.363L956.178 462.322L956.153 462.281L945.361 468.931ZM940.019 459.114L934.639 447.63L923.075 453.053L928.581 464.583L940.019 459.114ZM953.979 452.564L965.676 447.671L960.575 435.464L948.599 441.08L953.979 452.564ZM960.486 463.809L970.588 456.146L970.498 456.027L970.404 455.909L960.486 463.809ZM983.122 474.541L983.255 461.859L983.014 461.857L982.767 461.863L983.122 474.541ZM999.933 463.668L988.426 458.359L988.4 458.412L988.375 458.465L999.933 463.668ZM1007.46 447.346L1020.08 448.435L995.941 442.037L1007.46 447.346ZM1007.15 450.826L1015.84 460.062L1019.36 456.743L1019.78 451.915L1007.15 450.826ZM992.956 457.091L994.521 469.676L994.623 469.663L994.718 469.649L992.956 457.091ZM960.119 442.128L949.689 449.337L949.72 449.385L949.759 449.432L960.119 442.128ZM969.517 390.676L962.337 380.222L962.28 380.262L969.517 390.676ZM987.089 384.125L988.393 396.74L988.489 396.731L988.578 396.719L987.089 384.125ZM1018.73 396.922L1008.92 404.941L1008.99 405.032L1009.06 405.12L1018.73 396.922ZM1025.07 409.355L1034.24 418.112L1038.69 413.441L1037.54 407.09L1025.07 409.355ZM1023.02 411.505L1012.35 404.659L1032.19 420.262L1023.02 411.505ZM1029.67 401.123L1034.87 389.557L1024.91 385.07L1019.01 394.277L1029.67 401.123ZM1043.95 407.548L1055.51 412.751L1060.7 401.184L1049.15 395.982L1043.95 407.548ZM1003.8 484.393L997.127 473.615L996.992 473.697L996.86 473.785L1003.8 484.393ZM986.182 489.84L985.662 477.166L985.574 477.17L985.479 477.176L986.182 489.84ZM974.815 435.548L964.346 442.691L964.479 442.887L964.619 443.078L974.815 435.548ZM994.547 445.513L994.318 458.193L994.508 458.198L994.698 458.195L994.547 445.513ZM1003.91 443.58L998.849 431.949L998.824 431.962L1003.91 443.58ZM1011.71 437.872L1021.21 446.27L1022.48 444.828L1023.27 443.075L1011.71 437.872ZM1017.59 424.791L1029.15 429.993L1029.94 428.24L1030.17 426.331L1017.59 424.791ZM1016.54 415.462L1004.59 419.671L1004.64 419.817L1004.7 419.961L1016.54 415.462ZM991.176 399.16L992.17 411.803L992.24 411.797L992.31 411.791L991.176 399.16ZM970.258 473.826C966.17 471.985 963.313 470.14 961.38 468.447L944.682 487.53C948.973 491.289 954.131 494.38 959.859 496.958L970.258 473.826ZM961.38 468.447C959.181 466.52 957.489 464.488 956.203 462.363L934.518 475.499C937.237 479.999 940.659 484.006 944.682 487.53L961.38 468.447ZM956.153 462.281C954.441 459.499 952.87 456.62 951.45 453.645L928.581 464.583C930.387 468.363 932.382 472.029 934.569 475.581L956.153 462.281ZM945.392 470.597L959.359 464.048L948.599 441.08L934.639 447.63L945.392 470.597ZM942.287 457.456C944.474 462.689 947.211 467.48 950.576 471.709L970.404 455.909C968.687 453.753 967.083 451.048 965.676 447.671L942.287 457.456ZM950.392 471.472C954.366 476.722 959.631 480.585 965.644 483.29L976.037 460.157C973.236 458.894 971.595 457.481 970.588 456.146L950.392 471.472ZM965.644 483.29C971.322 485.848 977.33 487.391 983.477 487.218L982.767 461.863C981.354 461.902 979.174 461.568 976.037 460.157L965.644 483.29ZM982.995 487.223C988.977 487.285 994.82 485.854 1000.02 482.525L986.359 461.156C985.815 461.506 984.941 461.877 983.255 461.859L982.995 487.223ZM1000.02 482.525C1005.28 479.156 1009.03 474.362 1011.49 468.87L988.375 458.465C987.602 460.192 986.848 460.846 986.359 461.156L1000.02 482.525ZM1011.45 468.976L1018.96 452.654L995.941 442.037L988.426 458.359L1011.45 468.976ZM994.825 446.256L994.528 449.737L1019.78 451.915L1020.08 448.435L994.825 446.256ZM998.469 441.591C997.221 442.766 995.104 443.981 991.189 444.532L994.718 469.649C1002.64 468.536 1009.98 465.573 1015.84 460.062L998.469 441.591ZM991.384 444.506C988.325 444.888 984.389 444.39 979.281 442.092L968.883 465.224C977.203 468.968 985.846 470.759 994.521 469.676L991.384 444.506ZM979.281 442.092C975.645 440.452 972.768 438.081 970.48 434.824L949.759 449.432C954.67 456.408 961.108 461.724 968.883 465.224L979.281 442.092ZM970.544 434.919C968.294 431.657 966.931 428.005 966.494 423.739L941.28 426.344C942.141 434.717 944.937 442.457 949.689 449.337L970.544 434.919ZM966.494 423.739C966.089 419.839 966.716 415.758 968.724 411.291L945.608 400.885C941.939 409.05 940.38 417.604 941.28 426.344L966.494 423.739ZM968.724 411.291C970.885 406.489 973.616 403.269 976.753 401.087L962.28 380.262C954.897 385.401 949.398 392.456 945.608 400.885L968.724 411.291ZM976.69 401.129C980.403 398.574 984.257 397.168 988.393 396.74L985.789 371.508C977.299 372.386 969.428 375.347 962.337 380.222L976.69 401.129ZM988.578 396.719C992.716 396.231 996.435 396.813 999.996 398.417L1010.4 375.285C1002.54 371.748 994.193 370.513 985.605 371.529L988.578 396.719ZM999.996 398.417C1004.06 400.248 1006.9 402.476 1008.92 404.941L1028.56 388.904C1023.73 382.99 1017.55 378.504 1010.4 375.285L999.996 398.417ZM1009.06 405.12C1011.45 407.94 1012.32 410.103 1012.6 411.621L1037.54 407.09C1036.29 400.209 1032.94 394.083 1028.4 388.725L1009.06 405.12ZM1015.9 400.6L1013.85 402.75L1032.19 420.262L1034.24 418.112L1015.9 400.6ZM1033.69 418.352L1040.34 407.97L1019.01 394.277L1012.35 404.659L1033.69 418.352ZM1024.48 412.69L1038.75 419.115L1049.15 395.982L1034.87 389.557L1024.48 412.69ZM1032.39 402.345L1003.94 465.65L1027.05 476.055L1055.51 412.751L1032.39 402.345ZM1003.94 465.65C1002.31 469.271 1000.06 471.796 997.127 473.615L1010.48 495.172C1017.91 490.565 1023.46 484.061 1027.05 476.055L1003.94 465.65ZM996.86 473.785C993.811 475.783 990.2 476.981 985.662 477.166L986.702 502.512C995.421 502.154 1003.56 499.721 1010.75 495.001L996.86 473.785ZM985.479 477.176C981.227 477.412 976.215 476.508 970.258 473.826L959.859 496.958C968.731 500.95 977.799 503.01 986.892 502.502L985.479 477.176ZM961.438 407.469C958.845 413.237 957.711 419.377 958.281 425.701L983.527 423.429C983.368 421.714 983.628 419.925 984.554 417.874L961.438 407.469ZM958.281 425.701C958.832 431.852 960.866 437.583 964.346 442.691L985.289 428.405C984.268 426.907 983.692 425.318 983.527 423.429L958.281 425.701ZM964.619 443.078C968.388 448.188 973.306 452.029 979.073 454.623L989.465 431.491C987.418 430.567 986.036 429.402 985.016 428.017L964.619 443.078ZM979.073 454.623C983.908 456.802 989.022 458.099 994.318 458.193L994.768 432.833C993.381 432.808 991.639 432.468 989.465 431.491L979.073 454.623ZM994.698 458.195C999.635 458.136 1004.44 457.187 1008.99 455.198L998.824 431.962C997.665 432.469 996.238 432.809 994.395 432.831L994.698 458.195ZM1008.96 455.211C1013.69 453.15 1017.8 450.13 1021.21 446.27L1002.21 429.476C1001.21 430.617 1000.11 431.401 998.849 431.949L1008.96 455.211ZM1023.27 443.075L1029.15 429.993L1006.03 419.588L1000.15 432.669L1023.27 443.075ZM1030.17 426.331C1030.81 421.13 1030.28 415.933 1028.39 410.962L1004.7 419.961C1005.02 420.803 1005.19 421.826 1005.01 423.251L1030.17 426.331ZM1028.5 411.252C1026.85 406.544 1024.26 402.336 1020.9 398.671L1002.23 415.835C1003.39 417.1 1004.13 418.365 1004.59 419.671L1028.5 411.252ZM1020.9 398.671C1017.34 394.802 1013.04 391.844 1008.26 389.688L997.861 412.822C999.882 413.732 1001.26 414.773 1002.23 415.835L1020.9 398.671ZM1008.26 389.688C1002.49 387.094 996.36 385.958 990.035 386.527L992.31 411.791C994.021 411.637 995.808 411.899 997.861 412.822L1008.26 389.688ZM990.175 386.516C983.971 387.007 978.23 389.133 973.179 392.755L987.95 413.37C989.3 412.401 990.637 411.924 992.17 411.803L990.175 386.516ZM973.179 392.755C967.92 396.533 964.067 401.617 961.438 407.469L984.554 417.874C985.618 415.507 986.816 414.185 987.95 413.37L973.179 392.755Z" fill="black"/>
</g>
<path d="M316.322 544.826C314.975 546.541 312.98 548.382 310.34 550.348C307.699 552.313 304.648 554.19 301.19 555.977C297.838 557.744 294.339 559.316 290.689 560.693C287.059 562.177 283.574 563.243 280.231 563.889C270.74 565.722 261.94 565.911 253.828 564.455C245.717 563 238.466 560.203 232.074 556.065C225.682 551.926 220.364 546.683 216.12 540.339C211.962 533.865 209.092 526.528 207.51 518.325C205.574 508.289 205.474 499.072 207.21 490.677C208.946 482.28 212.055 474.908 216.535 468.557C221.102 462.077 226.738 456.79 233.443 452.697C240.235 448.473 247.622 445.591 255.603 444.05C262.612 442.695 269.24 442.254 275.483 442.727C281.835 443.179 287.419 444.284 292.231 446.04L289.63 462.999C287.244 462.229 284.328 461.617 280.885 461.163C277.529 460.579 274.116 460.287 270.648 460.286C267.18 460.284 264.044 460.554 261.24 461.095C254.338 462.429 248.334 464.653 243.231 467.765C238.213 470.75 234.127 474.505 230.973 479.033C227.82 483.561 225.684 488.731 224.569 494.544C223.56 500.336 223.712 506.632 225.023 513.431C226.21 519.583 228.381 525.04 231.538 529.804C234.674 534.46 238.547 538.301 243.159 541.329C247.749 544.247 252.937 546.212 258.726 547.221C264.492 548.122 270.666 547.937 277.245 546.666C281.019 545.937 284.666 544.84 288.188 543.376C291.708 541.912 294.628 540.229 296.945 538.326L292.824 516.957L270.176 521.332L266.959 504.658L307.078 496.907L316.322 544.826Z" fill="white"/>
<path d="M369.168 546.781C361.207 547.728 354.208 547.011 348.174 544.629C342.125 542.137 337.252 538.344 333.549 533.25C329.834 528.046 327.556 521.898 326.714 514.802C325.911 508.035 326.876 501.721 329.609 495.862C332.44 489.88 336.55 484.909 341.942 480.947C347.443 476.973 353.739 474.564 360.828 473.721C369.99 472.632 377.887 474.405 384.521 479.04C391.265 483.663 396.242 490.653 399.454 500.012L345.958 525.963L340.865 516.606L383.625 495.252L380.443 497.789C378.733 494.561 376.309 491.86 373.176 489.687C370.029 487.404 366.001 486.555 361.094 487.139C357.167 487.606 353.739 489.008 350.809 491.35C347.976 493.568 345.832 496.48 344.38 500.083C343.023 503.566 342.61 507.544 343.142 512.019C343.686 516.603 345.092 520.532 347.36 523.805C349.725 526.955 352.66 529.318 356.167 530.893C359.78 532.456 363.659 532.991 367.805 532.499C370.749 532.149 373.466 531.272 375.955 529.869C378.552 528.454 380.953 526.784 383.159 524.863L392.324 536.391C388.997 539.111 385.291 541.434 381.205 543.358C377.216 545.16 373.204 546.302 369.168 546.781Z" fill="white"/>
<path d="M411.181 501.785C410.824 494.871 412.149 488.583 415.157 482.924C418.158 477.156 422.484 472.53 428.133 469.046C433.783 465.562 440.337 463.628 447.796 463.242C455.365 462.851 462.083 464.099 467.952 466.988C473.82 469.877 478.433 474.04 481.794 479.48C485.258 484.804 487.169 490.924 487.525 497.84C487.883 504.755 486.615 511.095 483.724 516.857C480.941 522.615 476.783 527.287 471.249 530.875C465.709 534.353 459.1 536.291 451.422 536.687C444.072 537.067 437.414 535.926 431.448 533.261C425.591 530.594 420.821 526.602 417.137 521.289C413.558 515.861 411.571 509.36 411.181 501.785ZM428.302 501.066C428.522 505.347 429.655 509.195 431.702 512.612C433.742 515.918 436.407 518.533 439.696 520.454C442.979 522.265 446.595 523.068 450.544 522.864C454.601 522.654 458.171 521.48 461.249 519.339C464.323 517.089 466.65 514.217 468.229 510.724C469.912 507.115 470.644 503.169 470.423 498.889C470.201 494.607 469.071 490.814 467.031 487.508C465.099 484.195 462.491 481.579 459.201 479.658C455.913 477.737 452.24 476.879 448.181 477.089C444.122 477.299 440.556 478.531 437.483 480.78C434.409 483.03 432.031 485.959 430.348 489.568C428.768 493.062 428.086 496.895 428.302 501.066Z" fill="white"/>
<path d="M533.247 564.317C527.865 564.261 523.204 563.605 519.263 562.355C515.322 561.104 511.77 559.362 508.608 557.131C505.555 555.01 502.614 552.725 499.784 550.277L509.956 538.677C513.327 541.901 516.815 544.467 520.42 546.373C524.023 548.39 528.242 549.424 533.075 549.475C537.906 549.527 542.035 548.746 545.456 547.133C548.987 545.631 551.702 543.463 553.598 540.624C555.496 537.785 556.466 534.389 556.508 530.432L556.862 512.463L557.981 515.773C556.066 520.259 552.566 524.07 547.48 527.204C542.395 530.227 536.173 531.701 528.814 531.623C522.554 531.557 516.75 529.901 511.402 526.656C506.164 523.413 501.981 519.027 498.853 513.498C495.727 507.969 494.2 501.741 494.274 494.817C494.35 487.562 496.065 481.205 499.419 475.745C502.882 470.175 507.377 465.826 512.903 462.697C518.428 459.457 524.322 457.871 530.583 457.938C536.734 458.002 542.212 459.271 547.019 461.739C551.827 464.098 555.42 467.05 557.799 470.592L556.782 473.385L558.723 461.204L574.374 461.369L573.64 530.778C573.572 537.153 571.81 542.851 568.351 547.87C565.002 553.002 560.345 557.02 554.383 559.924C548.421 562.938 541.374 564.403 533.247 564.317ZM511.412 494.504C511.367 498.79 512.314 502.703 514.254 506.241C516.194 509.779 518.855 512.61 522.238 514.735C525.731 516.751 529.62 517.78 533.904 517.826C537.748 517.867 541.215 517.244 544.304 515.958C547.394 514.561 549.995 512.72 552.105 510.435C554.328 508.04 555.951 505.253 556.972 502.077L557.125 487.734C556.17 484.535 554.606 481.826 552.432 479.604C550.26 477.272 547.643 475.431 544.581 474.08C541.52 472.728 538.122 472.032 534.388 471.993C530.105 471.947 526.195 472.895 522.66 474.837C519.235 476.668 516.517 479.278 514.503 482.665C512.49 486.051 511.46 489.997 511.412 494.504Z" fill="white"/>
<path d="M616.536 461.548L617.179 481.392L616.49 478.716C618.566 474.638 621.38 471.205 624.931 468.413C628.483 465.623 632.107 463.551 635.805 462.197C639.618 460.741 642.786 460.076 645.309 460.205L643.634 476.959C638.386 476.362 633.728 477.115 629.662 479.22C625.706 481.33 622.533 484.25 620.144 487.981C617.755 491.711 616.448 495.772 616.227 500.163L614.68 530.626L597.897 529.773L601.399 460.779L616.536 461.548Z" fill="white"/>
<path d="M681.406 534.576C674.97 533.814 669.289 531.814 664.361 528.575C659.448 525.228 655.78 520.699 653.358 514.989C650.934 509.278 650.187 502.494 651.115 494.635C652.03 486.885 654.397 480.414 658.218 475.219C662.148 470.04 666.905 466.285 672.488 463.957C678.194 461.533 684.155 460.688 690.373 461.423C696.918 462.197 702.095 464.247 705.905 467.576C709.837 470.808 712.784 474.422 714.746 478.416L713.291 480.901L716.532 467.504L732.076 469.341L723.975 537.948L707.124 535.956L709.153 518.762L710.469 523.069C709.929 523.892 708.855 525.037 707.242 526.506C705.644 527.868 703.543 529.278 700.936 530.742C698.439 532.217 695.539 533.369 692.233 534.195C689.05 534.925 685.441 535.052 681.406 534.576ZM687.61 521.362C691.21 521.788 694.505 521.514 697.495 520.539C700.486 519.564 703.104 517.993 705.352 515.824C707.599 513.654 709.298 510.977 710.448 507.793L712.13 493.548C711.618 490.388 710.454 487.594 708.64 485.166C706.838 482.628 704.542 480.53 701.751 478.872C699.07 477.227 695.983 476.199 692.493 475.786C688.566 475.322 684.851 475.878 681.346 477.457C677.855 478.925 674.928 481.235 672.564 484.387C670.201 487.539 668.756 491.353 668.228 495.828C667.726 500.085 668.249 504.077 669.8 507.802C671.461 511.54 673.859 514.645 676.996 517.119C680.146 519.484 683.683 520.898 687.61 521.362Z" fill="white"/>
<path d="M785.201 546.454C780.246 545.471 775.715 543.452 771.621 540.397C767.54 537.236 764.53 533.502 762.585 529.193L764.55 524.372L755.003 572.568L738.519 569.299L758.6 467.893L772.983 470.746L771.982 487.691L771.134 482.649C775.239 479.43 779.973 477.007 785.334 475.381C790.803 473.777 796.557 473.572 802.589 474.769C808.945 476.029 814.356 478.672 818.824 482.694C823.291 486.718 826.435 491.767 828.253 497.843C830.072 503.919 830.243 510.677 828.773 518.116C827.322 525.448 824.445 531.489 820.142 536.239C815.973 540.902 810.852 544.145 804.781 545.966C798.731 547.68 792.203 547.842 785.201 546.454ZM784.561 532.712C788.655 533.524 792.621 533.302 796.455 532.045C800.39 530.809 803.717 528.723 806.423 525.786C809.262 522.764 811.099 519.149 811.929 514.945C812.81 510.524 812.551 506.44 811.169 502.691C809.915 498.856 807.804 495.637 804.851 493.033C802 490.452 798.585 488.766 794.598 487.975C790.829 487.228 787.349 487.266 784.162 488.091C781 488.808 778.154 490.149 775.639 492.114C773.123 494.08 771.102 496.65 769.574 499.82L767.11 512.275C767.141 515.529 767.877 518.588 769.327 521.453C770.772 524.318 772.812 526.74 775.442 528.719C778.079 530.697 781.114 532.029 784.561 532.712Z" fill="white"/>
<path d="M834.178 550.179L870.824 427.431L886.609 432.149L865.241 503.714L865.887 500.981C869.385 497.324 873.822 494.75 879.201 493.258C884.575 491.768 890.417 491.966 896.729 493.854C902.939 495.71 907.495 499.08 910.391 503.961C913.395 508.874 914.073 514.295 912.419 520.225L897.799 569.199L881.54 564.338L894.46 521.051C895.36 517.65 895.177 514.612 893.908 511.94C892.68 509.161 890.076 507.122 886.108 505.822C882.528 504.752 878.935 504.882 875.329 506.212C871.755 507.438 868.561 509.695 865.741 512.983C862.96 516.165 860.862 520.128 859.443 524.866L850.439 555.04L834.178 550.179Z" fill="white"/>
<path d="M905.839 600.923L989.168 526.215L1003.31 532.537L921.035 607.715L905.839 600.923ZM935.09 578.244L932.91 501.066L950.361 508.866L950.469 575.728L935.09 578.244Z" fill="white"/>
</g>
</g>
</g>
<defs>
<linearGradient id="paint0_linear_313_4871" x1="223.773" y1="-196.994" x2="868.466" y2="1122.21" gradientUnits="userSpaceOnUse">
<stop/>
<stop offset="0.567375" stop-color="#341F97"/>
<stop offset="0.645658" stop-color="#48DBFB"/>
<stop offset="0.774459" stop-color="#2E86DE"/>
</linearGradient>
<linearGradient id="paint1_linear_313_4871" x1="373.474" y1="-482.474" x2="1186.41" y2="1023.82" gradientUnits="userSpaceOnUse">
<stop/>
<stop offset="0.637643"/>
<stop offset="0.714338" stop-opacity="0.14"/>
<stop offset="1" stop-opacity="0"/>
</linearGradient>
<clipPath id="clip0_313_4871">
<rect width="1154" height="583" fill="white" transform="translate(23 23)"/>
</clipPath>
<clipPath id="clip1_313_4871">
<rect width="1676" height="942" fill="white" transform="translate(-238 -156)"/>
</clipPath>
</defs>
</svg>
