<svg width="1920" height="1080" viewBox="0 0 1920 1080" fill="none" xmlns="http://www.w3.org/2000/svg">
<g clip-path="url(#clip0_4_2945)">
<rect width="1920" height="1080" fill="white"/>
<g clip-path="url(#clip1_4_2945)">
<rect width="1920" height="1080" fill="url(#paint0_linear_4_2945)"/>
<mask id="mask0_4_2945" style="mask-type:alpha" maskUnits="userSpaceOnUse" x="-402" y="-675" width="2690" height="2384">
<rect x="-401.472" y="-74.2941" width="2284.15" height="1847.86" transform="rotate(-15.2295 -401.472 -74.2941)" fill="url(#paint1_linear_4_2945)"/>
</mask>
<g mask="url(#mask0_4_2945)">
<path fill-rule="evenodd" clip-rule="evenodd" d="M598.296 -5.19185L596.089 -9.32489L596.57 -4.66426L592.437 -2.45717L597.098 -2.93857L599.305 1.19446L598.824 -3.46617L602.957 -5.67326L598.296 -5.19185ZM1075.15 16.5616L1070.09 13.4106L1065.26 16.9071L1068.41 11.8443L1064.91 7.01361L1069.98 10.1646L1074.81 6.66812L1071.66 11.7309L1075.15 16.5616ZM13.4771 24.241L13.4801 25.9448L14.1212 24.3662L15.825 24.3632L14.2464 23.7221L14.2434 22.0183L13.6023 23.5969L11.8985 23.6L13.4771 24.241ZM247.664 384.15L252.348 384.06L254.035 379.689L254.125 384.373L258.497 386.06L253.812 386.15L252.125 390.521L252.035 385.837L247.664 384.15ZM1768.58 765.459L1768.68 768.013L1771.08 768.891L1768.52 768.985L1767.64 771.385L1767.55 768.831L1765.15 767.953L1767.7 767.859L1768.58 765.459ZM1217.38 1050.43L1214.67 1047.72L1216.16 1051.25L1213.45 1053.97L1216.99 1052.48L1219.7 1055.18L1218.21 1051.65L1220.92 1048.93L1217.38 1050.43ZM1461.91 522.543L1462.08 527.225L1466.48 528.835L1461.8 529.007L1460.19 533.407L1460.02 528.725L1455.62 527.115L1460.3 526.943L1461.91 522.543ZM410.707 881.75L414.191 879.301L413.241 875.149L415.69 878.634L419.842 877.683L416.357 880.132L417.308 884.284L414.859 880.8L410.707 881.75ZM1171.49 346.141L1166.66 348.834L1172.15 348.169L1174.85 353.007L1174.18 347.51L1179.02 344.817L1173.52 345.482L1170.83 340.644L1171.49 346.141ZM211.048 969.51L215.274 968.984L216.384 964.871L216.911 969.098L221.023 970.208L216.796 970.734L215.687 974.847L215.16 970.62L211.048 969.51ZM1850.97 995.646L1845.22 997.2L1851.13 997.937L1852.69 1003.69L1853.43 997.777L1859.18 996.223L1853.26 995.486L1851.71 989.729L1850.97 995.646ZM257.709 510.266L252.172 510.372L250.179 515.538L250.072 510.002L244.906 508.009L250.443 507.902L252.436 502.736L252.543 508.272L257.709 510.266ZM59.5551 569.102L59.5482 565.268L58.1058 568.82L54.2723 568.827L57.8241 570.269L57.831 574.103L59.2734 570.551L63.1069 570.544L59.5551 569.102ZM1552.99 977.782L1551.93 972.349L1550.86 977.782L1545.43 978.849L1550.86 979.915L1551.93 985.349L1552.99 979.915L1558.43 978.849L1552.99 977.782ZM1800.38 742.388L1801.09 739.493L1798.68 737.736L1801.58 738.452L1803.34 736.043L1802.62 738.938L1805.03 740.695L1802.13 739.978L1800.38 742.388ZM96.1029 845.353L97.1018 843.973L95.6553 844.873L94.2751 843.875L95.1754 845.321L94.1764 846.701L95.6229 845.801L97.0031 846.8L96.1029 845.353ZM1333.7 739.203L1328.64 741.465L1328.82 746.999L1326.56 741.944L1321.03 742.128L1326.08 739.866L1325.9 734.332L1328.16 739.387L1333.7 739.203ZM511.791 763.332L511.578 760.358L510.651 763.192L507.677 763.405L510.511 764.332L510.725 767.306L511.651 764.472L514.625 764.258L511.791 763.332ZM696.87 21.0989L692.981 18.4858L689.092 21.0989L691.705 17.2098L689.092 13.3207L692.981 15.9338L696.87 13.3207L694.257 17.2098L696.87 21.0989ZM1674.01 480.994L1678.65 477.97L1673.21 479.016L1670.19 474.378L1671.24 479.815L1666.6 482.839L1672.04 481.793L1675.06 486.431L1674.01 480.994ZM1581.53 322.098L1581.83 324.207L1583.9 324.726L1581.79 325.026L1581.27 327.091L1580.97 324.983L1578.91 324.464L1581.02 324.164L1581.53 322.098ZM95.7037 28.5137L97.3709 28.865L95.9601 27.9097L96.3114 26.2425L95.3561 27.6533L93.6889 27.3021L95.0997 28.2574L94.7485 29.9245L95.7037 28.5137ZM182.152 387.181L182.924 390.5L186.289 391.039L182.97 391.811L182.431 395.176L181.659 391.857L178.294 391.318L181.613 390.545L182.152 387.181ZM1733.59 370.776L1735.9 367.199L1732.41 369.636L1728.83 367.323L1731.27 370.816L1728.95 374.393L1732.45 371.956L1736.02 374.269L1733.59 370.776ZM839.423 397.882L842.4 396.224L841.991 392.841L843.648 395.819L847.031 395.409L844.054 397.067L844.463 400.45L842.806 397.472L839.423 397.882ZM1821.65 983.057L1822.27 977.125L1819.46 982.386L1813.53 981.773L1818.79 984.582L1818.17 990.514L1820.98 985.253L1826.91 985.866L1821.65 983.057ZM711.012 518.523L714.387 518.991L716.096 516.043L715.628 519.419L718.576 521.128L715.2 520.66L713.491 523.608L713.96 520.232L711.012 518.523ZM1610.94 739.064L1610.79 737.367L1610.29 738.995L1608.59 739.147L1610.22 739.648L1610.37 741.345L1610.87 739.716L1612.57 739.565L1610.94 739.064ZM1114.5 694.623L1117.88 694.201L1118.76 690.911L1119.19 694.293L1122.48 695.181L1119.09 695.602L1118.21 698.892L1117.79 695.51L1114.5 694.623ZM1474.81 238.4L1477.95 236.196L1474.21 237.052L1472 233.915L1472.86 237.652L1469.72 239.857L1473.46 239.001L1475.66 242.137L1474.81 238.4ZM232.923 216.095L236.043 218.995L239.907 217.202L237.007 220.322L238.801 224.186L235.68 221.286L231.817 223.079L234.716 219.959L232.923 216.095ZM242.292 970.17L242.184 972.297L243.088 970.369L245.215 970.476L243.286 969.573L243.394 967.446L242.49 969.374L240.363 969.267L242.292 970.17ZM1890.26 942.243L1892.79 941.927L1893.46 939.459L1893.77 941.995L1896.24 942.661L1893.71 942.977L1893.04 945.445L1892.72 942.909L1890.26 942.243ZM31.6313 614.212L37.5381 615.031L32.3791 612.04L33.1984 606.133L30.2075 611.292L24.3008 610.473L29.4598 613.464L28.6404 619.371L31.6313 614.212ZM52.3928 751.411L53.3685 754.228L56.3458 754.389L53.5284 755.365L53.367 758.342L52.3912 755.525L49.4139 755.364L52.2314 754.388L52.3928 751.411ZM1746.26 581.048L1743.75 577.607L1744.77 581.741L1741.33 584.251L1745.46 583.228L1747.97 586.67L1746.95 582.535L1750.39 580.025L1746.26 581.048ZM1017.17 318.901L1015.42 323.248L1018.78 326.509L1014.44 324.761L1011.18 328.126L1012.92 323.779L1009.56 320.518L1013.91 322.265L1017.17 318.901ZM1124.83 866.878L1123.6 871.84L1126.61 867.71L1131.57 868.938L1127.44 865.926L1128.67 860.965L1125.66 865.094L1120.7 863.867L1124.83 866.878ZM318.357 511.123L318.182 512.818L319.685 513.621L317.99 513.446L317.187 514.949L317.363 513.254L315.86 512.451L317.554 512.626L318.357 511.123ZM1544.53 593.054L1543.76 598.539L1546.54 593.749L1552.03 594.51L1547.24 591.732L1548 586.247L1545.22 591.038L1539.73 590.277L1544.53 593.054ZM646.982 634.219L645.912 635.545L646.736 637.037L645.41 635.967L643.918 636.79L644.988 635.464L644.165 633.973L645.491 635.042L646.982 634.219ZM1027.72 334.298L1032.9 336.273L1028.85 332.489L1030.83 327.316L1027.04 331.359L1021.87 329.384L1025.91 333.168L1023.94 338.341L1027.72 334.298ZM1352.16 416.102L1350.91 414.381L1348.84 414.893L1350.56 413.638L1350.05 411.57L1351.3 413.291L1353.37 412.779L1351.65 414.034L1352.16 416.102ZM509.067 863.598L511.291 858.065L507.141 862.347L501.608 860.123L505.89 864.274L503.666 869.807L507.816 865.524L513.349 867.748L509.067 863.598ZM744.164 747.483L749.384 750.365L754.025 746.62L751.144 751.841L754.888 756.482L749.667 753.6L745.026 757.345L747.908 752.124L744.164 747.483ZM425.668 64.112L424.112 64.8078L425.815 64.7514L426.511 66.3066L426.455 64.6038L428.01 63.908L426.307 63.9644L425.611 62.4091L425.668 64.112ZM1404.76 617.44L1403.59 621.536L1406.94 624.165L1402.84 622.998L1400.22 626.35L1401.38 622.253L1398.03 619.625L1402.13 620.792L1404.76 617.44ZM1194.26 985.268L1190.55 981.16L1192.44 986.366L1188.33 990.079L1193.53 988.194L1197.25 992.303L1195.36 987.096L1199.47 983.383L1194.26 985.268ZM296.454 11.8938L297.453 10.5136L296.553 9.06706L297.933 10.0661L299.379 9.16577L298.38 10.546L299.281 11.9925L297.9 10.9935L296.454 11.8938ZM29.8245 274.424L27.5121 278.983L31.3757 275.636L35.9342 277.949L32.5877 274.085L34.9001 269.527L31.0365 272.873L26.478 270.561L29.8245 274.424ZM1197.74 334.408L1203.27 334.784L1205.7 329.812L1205.33 335.336L1210.3 337.773L1204.78 337.396L1202.34 342.369L1202.72 336.844L1197.74 334.408ZM1432.8 787.77L1438.33 788.05L1433.32 785.701L1433.6 780.171L1431.25 785.185L1425.72 784.905L1430.73 787.255L1430.45 792.785L1432.8 787.77ZM893.312 187.749L891.523 186.593L889.777 187.811L890.933 186.023L889.715 184.276L891.503 185.433L893.25 184.215L892.093 186.003L893.312 187.749ZM815.204 506.798L810.575 506.074L814.587 508.494L813.863 513.123L816.283 509.111L820.912 509.836L816.9 507.415L817.625 502.786L815.204 506.798ZM149.797 618.837L150.953 616.558L149.28 614.626L151.559 615.782L153.491 614.109L152.335 616.388L154.008 618.32L151.729 617.164L149.797 618.837ZM2.34996 568.298L4.51842 572.927L4.26007 567.822L8.88867 565.653L3.78382 565.912L1.61536 561.283L1.87371 566.388L-2.75488 568.556L2.34996 568.298ZM1196.53 333.7L1193.57 334.069L1192.8 336.948L1192.43 333.989L1189.55 333.212L1192.51 332.843L1193.28 329.965L1193.65 332.923L1196.53 333.7ZM1457.24 38.9479L1461.71 41.4179L1458.5 37.4399L1460.97 32.965L1457 36.1745L1452.52 33.7045L1455.73 37.6825L1453.26 42.1575L1457.24 38.9479ZM771.275 848.398L776.781 847.81L778.316 842.49L778.905 847.995L784.225 849.531L778.719 850.12L777.183 855.44L776.595 849.934L771.275 848.398ZM657.682 968.049L653.995 966.999L657.012 969.365L655.962 973.052L658.328 970.035L662.015 971.085L658.998 968.72L660.048 965.033L657.682 968.049ZM1749.07 1055.17L1751.13 1059.38L1755.81 1059.06L1751.6 1061.12L1751.92 1065.8L1749.86 1061.59L1745.18 1061.91L1749.39 1059.85L1749.07 1055.17ZM1901 757.921L1903.88 757.144L1900.92 756.775L1900.14 753.896L1899.77 756.855L1896.89 757.632L1899.85 758.001L1900.63 760.879L1901 757.921ZM281.115 861.109L283.099 859.497L282.356 857.052L283.968 859.035L286.413 858.292L284.43 859.904L285.173 862.35L283.561 860.366L281.115 861.109ZM1127.95 245.68L1128.19 249.079L1129.25 245.84L1132.65 245.596L1129.41 244.537L1129.17 241.139L1128.11 244.378L1124.71 244.621L1127.95 245.68ZM322.165 490.57L323.784 488.067L322.079 485.621L324.582 487.24L327.028 485.535L325.408 488.038L327.114 490.484L324.61 488.864L322.165 490.57ZM385.318 477.151L387.422 477.48L388.522 475.656L388.193 477.761L390.016 478.861L387.912 478.531L386.812 480.355L387.142 478.251L385.318 477.151ZM841.746 188.935L842.846 190.759L842.517 188.655L844.34 187.554L842.236 187.884L841.136 186.06L841.465 188.164L839.642 189.264L841.746 188.935ZM648.474 436.892L649.118 433.546L646.263 431.685L649.609 432.329L651.47 429.475L650.826 432.821L653.681 434.682L650.335 434.038L648.474 436.892ZM149.721 972.821L153.273 971.379L149.439 971.372L147.997 967.82L147.99 971.654L144.438 973.096L148.272 973.103L149.714 976.655L149.721 972.821ZM775.63 699.285L774.892 693.367L769.135 691.813L775.052 691.076L776.606 685.319L777.344 691.236L783.101 692.79L777.183 693.527L775.63 699.285ZM1003.53 42.0626L1006.67 38.0291L1002.24 40.5769L998.208 37.4372L1000.76 41.8684L997.616 45.9018L1002.05 43.3541L1006.08 46.4937L1003.53 42.0626ZM1790.9 151.625L1793.47 153.856L1796.51 152.314L1794.28 154.89L1795.82 157.929L1793.25 155.698L1790.21 157.239L1792.44 154.664L1790.9 151.625ZM23.1278 1027.46L20.9039 1032.99L25.054 1028.71L30.587 1030.94L26.3049 1026.79L28.5288 1021.25L24.3787 1025.53L18.8456 1023.31L23.1278 1027.46ZM1600.07 83.144L1599.67 77.6209L1594.41 75.9003L1599.93 75.5041L1601.65 70.2409L1602.05 75.764L1607.31 77.4846L1601.79 77.8808L1600.07 83.144ZM1263.54 907.412L1258.14 909.942L1264.09 909.64L1266.62 915.04L1266.32 909.085L1271.72 906.555L1265.77 906.856L1263.24 901.456L1263.54 907.412ZM1626.45 936.5L1626.08 933.541L1623.2 932.764L1626.16 932.395L1626.94 929.517L1627.3 932.475L1630.18 933.252L1627.22 933.621L1626.45 936.5ZM994.391 717.032L997.542 711.969L992.711 715.466L987.648 712.315L991.145 717.145L987.994 722.208L992.824 718.712L997.887 721.863L994.391 717.032ZM442.969 19.0226L445.474 14.0843L441.849 9.8987L446.787 12.4037L450.972 8.77843L448.467 13.7167L452.093 17.9023L447.154 15.3973L442.969 19.0226ZM310.124 615.248L312.545 619.26L311.82 614.631L315.832 612.211L311.203 612.935L308.783 608.923L309.507 613.552L305.495 615.973L310.124 615.248ZM26.9759 441.337L30.0334 439.025L29.0478 435.32L31.3604 438.378L35.065 437.392L32.0076 439.705L32.9931 443.409L30.6806 440.352L26.9759 441.337ZM917.707 34.2595L917.981 38.0832L919.172 34.4394L922.996 34.1652L919.352 32.974L919.078 29.1503L917.887 32.7941L914.063 33.0683L917.707 34.2595ZM1197.93 954.28L1198.53 958.497L1202.66 959.535L1198.44 960.135L1197.41 964.266L1196.8 960.049L1192.67 959.011L1196.89 958.411L1197.93 954.28ZM1622.87 1067.41L1618.19 1067.09L1622.4 1069.15L1622.08 1073.83L1624.14 1069.62L1628.82 1069.94L1624.61 1067.88L1624.93 1063.2L1622.87 1067.41ZM1495.72 271.242L1500.61 273.833L1504.86 270.281L1502.27 275.175L1505.82 279.423L1500.93 276.832L1496.68 280.384L1499.27 275.49L1495.72 271.242ZM1603.31 726.551L1607.88 730.376L1605.09 725.106L1608.92 720.531L1603.65 723.321L1599.07 719.496L1601.86 724.766L1598.04 729.341L1603.31 726.551ZM698.026 140.504L696.714 137.827L693.74 138.029L696.417 136.718L696.215 133.743L697.526 136.42L700.501 136.218L697.824 137.53L698.026 140.504ZM81.2287 901.149L79.8064 902.734L81.7223 901.804L83.3076 903.226L82.3774 901.31L83.7996 899.725L81.8837 900.655L80.2985 899.233L81.2287 901.149ZM734.752 448.847L737.103 447.845L737.063 445.289L738.066 447.64L740.621 447.6L738.27 448.603L738.31 451.158L737.308 448.807L734.752 448.847ZM1062.14 230.103L1059.9 227.536L1061 230.759L1058.44 233L1061.66 231.896L1063.9 234.464L1062.8 231.24L1065.36 229L1062.14 230.103ZM353.14 745.324L351.984 747.112L353.202 748.859L351.414 747.702L349.667 748.921L350.824 747.132L349.605 745.386L351.394 746.542L353.14 745.324ZM358.41 295.366L353.394 296.35L358.41 297.334L359.394 302.35L360.378 297.334L365.394 296.35L360.378 295.366L359.394 290.35L358.41 295.366ZM199.134 171.215L197.005 171.181L196.169 173.14L196.202 171.011L194.243 170.175L196.373 170.209L197.209 168.25L197.175 170.379L199.134 171.215ZM1085.88 963.019L1087.54 958.184L1084.18 962.035L1079.34 960.38L1083.19 963.74L1081.54 968.576L1084.9 964.724L1089.73 966.38L1085.88 963.019ZM794.427 480.229L796.099 475.852L792.678 472.65L797.055 474.321L800.257 470.9L798.585 475.278L802.006 478.479L797.629 476.808L794.427 480.229ZM660.686 448.703L658.929 443.903L658.742 449.011L653.942 450.768L659.05 450.955L660.807 455.755L660.994 450.647L665.794 448.89L660.686 448.703ZM358.275 881.138L354.299 884.992L356.364 890.13L352.51 886.154L347.372 888.219L351.349 884.365L349.284 879.227L353.137 883.204L358.275 881.138ZM1283.57 176.894L1281.77 178.025L1283.87 177.659L1285 179.463L1284.63 177.365L1286.44 176.234L1284.34 176.6L1283.21 174.795L1283.57 176.894ZM586.157 245.571L586.329 242.168L583.244 240.723L586.647 240.895L588.092 237.809L587.92 241.212L591.006 242.658L587.603 242.486L586.157 245.571ZM1657.29 98.3396L1653.86 93.4609L1655.19 99.2737L1650.31 102.703L1656.12 101.372L1659.55 106.251L1658.22 100.438L1663.1 97.0085L1657.29 98.3396ZM848.955 586.412L851.642 589.717L855.717 588.479L852.412 591.166L853.65 595.241L850.963 591.936L846.888 593.174L850.193 590.488L848.955 586.412ZM431.642 442.042L433.522 444.355L432.656 441.503L434.97 439.622L432.117 440.489L430.236 438.175L431.103 441.028L428.789 442.908L431.642 442.042ZM1466.16 746.578L1470.87 750.24L1476.04 747.268L1472.37 751.974L1475.35 757.143L1470.64 753.481L1465.47 756.453L1469.13 751.747L1466.16 746.578ZM1109.84 248.752L1109.15 250.767L1110.55 249.162L1112.57 249.852L1110.96 248.452L1111.65 246.437L1110.25 248.042L1108.24 247.352L1109.84 248.752ZM1377.99 903.992L1380.4 899.971L1377.59 896.224L1381.61 898.63L1385.35 895.817L1382.95 899.838L1385.76 903.585L1381.74 901.179L1377.99 903.992ZM1885.34 300.057L1885.65 297.52L1884.4 299.753L1881.87 299.446L1884.1 300.689L1883.79 303.226L1885.04 300.993L1887.57 301.3L1885.34 300.057ZM76.7229 700.276L81.7858 700.978L84.3494 696.556L83.6471 701.619L88.0691 704.182L83.0062 703.48L80.4426 707.902L81.1449 702.839L76.7229 700.276ZM566.597 1058.24L567.464 1055.39L565.583 1057.71L562.73 1056.84L565.044 1058.72L564.177 1061.57L566.058 1059.26L568.911 1060.13L566.597 1058.24Z" fill="#D9D9D9"/>
</g>
</g>
<path fill-rule="evenodd" clip-rule="evenodd" d="M1526.18 101.225C1512.97 157.968 1506.45 204.501 1510.31 214.427C1513.15 221.736 1512.06 237.977 1507.39 257.852C1503.28 275.308 1501.6 293.441 1503.64 298.138C1505.69 302.84 1503.54 320.678 1498.86 337.783C1486.34 383.594 1485.73 390.572 1494.37 389.225C1505.31 387.517 1504.55 393.536 1487.8 440.791C1477.29 470.432 1474.2 485.361 1477.99 488.132C1481.04 490.356 1506.13 491.046 1533.75 489.665L1583.97 487.152L1587.74 511.309C1590.3 527.729 1593.72 535.941 1598.43 536.955C1608.99 539.225 1610.39 534.119 1606.34 508.153L1602.62 484.304L1648.48 471.422C1685.89 460.912 1702.82 456.254 1704.85 447.946C1706.54 441.034 1697.93 431.594 1682.23 414.154C1654.95 383.839 1645.24 365.686 1655.47 364.09C1662.87 362.936 1659.61 353.791 1639.06 318.087C1628.48 299.699 1620.3 280.123 1620.87 274.532C1621.43 268.95 1614.11 251.257 1604.6 235.214C1592.41 214.673 1588.71 204.837 1592.08 201.952C1595.38 199.119 1587.37 181.491 1566.02 144.662C1549.06 115.402 1533.61 91.7057 1531.69 92.006C1529.77 92.3056 1527.29 96.452 1526.18 101.225ZM1576.73 200.018C1580.88 196.467 1577.15 186.062 1560.22 153.945C1548.2 131.129 1536.62 110.998 1534.5 109.213C1532.38 107.428 1529.28 112.212 1527.6 119.845C1524.55 133.7 1515.14 199.003 1515.68 202.487C1515.84 203.499 1521.75 203.461 1528.8 202.399C1545.98 199.818 1562.04 206.486 1545.39 209.293C1538.99 210.372 1531.62 213.167 1528.99 215.506C1525.29 218.811 1513.44 279.876 1514.8 288.611C1514.96 289.623 1525.07 289.048 1537.28 287.325C1573.95 282.157 1584.3 288.482 1548.85 294.404L1518.35 299.498L1509.24 336.671C1504.22 357.119 1501.71 374.514 1503.64 375.329C1505.58 376.15 1525.41 376.849 1547.71 376.89L1588.26 376.965L1551.19 384.176L1514.12 391.383L1500.44 434.553C1492.91 458.299 1488.22 478.806 1490.03 480.135C1491.83 481.458 1525.76 478.167 1565.41 472.821C1621.15 465.309 1643.07 460.504 1661.98 451.649C1675.44 445.351 1686.25 438.936 1686.01 437.387C1684.65 428.667 1634.05 367.489 1627.63 366.791C1623.41 366.336 1625.69 364.819 1632.69 363.421C1648.42 360.284 1647.92 356.469 1626.42 315.341C1617.09 297.497 1609.36 282.375 1609.24 281.735C1609.12 281.094 1605.34 281.006 1600.82 281.529C1594.29 282.29 1594.59 281.12 1602.31 275.793C1615 267.031 1613.92 262.861 1590.82 231.221C1576.02 210.954 1572.66 203.505 1576.73 200.018Z" fill="white"/>
<path fill-rule="evenodd" clip-rule="evenodd" d="M465.534 558.539C445.364 548.71 413.855 535.825 407.311 537.579C403.514 538.596 395.727 534.12 387.382 529.322C377.745 523.783 367.363 517.815 361.518 519.381C360.255 519.719 362.279 522.224 366.53 527.178C377.904 533.271 400.806 546.025 401.415 548.299L402.939 553.984C388.289 553.847 356.262 554.304 357.786 559.989C358.61 563.065 358.988 564.476 359.282 565.575C359.532 566.506 359.721 567.212 360.071 568.517C362.797 567.787 370.978 565.595 377.194 566.976C379.075 567.394 381.503 567.852 384.153 568.352C390.258 569.503 397.544 570.878 402.055 572.502L414.242 617.985L298.953 645.83C272.995 650.754 220.685 661.317 219.113 664.176L215.183 671.323L222.16 675.547L243.213 666.859C250.902 683.013 263.742 704.553 272.863 719.854C276.964 726.735 280.314 732.354 282.105 735.654C282.425 747.756 293.729 811.756 298.741 819.554C302.75 825.792 309.795 813.545 312.816 806.642L294.536 738.417L376.463 695.137L392.824 690.753C412.846 703.669 454.198 732.197 459.426 742.983C462.473 754.354 451.952 780.532 446.31 792.2C446.016 798.372 448.394 808.703 460.264 800.648C464.194 793.501 483.968 736.407 479.717 731.453C475.467 726.498 418.736 580.219 422.666 573.072L460.842 562.843L466.296 561.382L465.534 558.539ZM457.263 713.095L423.505 630.737C401.182 634.687 338.539 647.41 266.551 666.699C268.01 669.964 269.822 674.11 271.816 678.67C279.79 696.91 290.663 721.783 293.454 723.473L370.689 684.497C380.18 679.923 397.957 677.19 405.696 684.257C416.86 691.016 444.725 706.299 457.263 713.095Z" fill="#D9D9D9"/>
<mask id="path-5-outside-1_4_2945" maskUnits="userSpaceOnUse" x="134.524" y="103.542" width="428.217" height="257.806" fill="black">
<rect fill="white" x="134.524" y="103.542" width="428.217" height="257.806"/>
<path fill-rule="evenodd" clip-rule="evenodd" d="M424.473 125.315C425.068 130.651 423.365 134.854 419.215 138.294C415.839 141.093 412.991 146.226 412.887 149.702C412.752 154.256 411.147 155.947 407.147 155.756C404.091 155.607 396.38 156.129 390.009 156.915C382.012 157.901 378.297 157.194 378.012 154.634C377.555 150.54 369.189 144.079 367.342 146.393C366.702 147.195 368.564 151.546 371.477 156.061C376.394 163.684 377.698 164.134 389.729 162.357C396.853 161.308 404.09 161.115 405.811 161.931C409.56 163.711 416.775 155.38 416.172 149.97C415.937 147.861 419.215 143.813 423.457 140.977C428.874 137.355 430.946 133.806 430.416 129.052C429.498 120.825 432.015 120.287 442.092 126.556C446.353 129.207 456.084 131.395 463.849 131.451C473.123 131.515 478.938 133.068 480.964 136.021C485.697 142.914 493 143.609 498.246 137.662C500.903 134.655 506.461 132.219 511.038 132.06C521.053 131.709 521.221 127.171 511.267 125.817C506.553 125.175 501.72 126.675 497.661 130.041C491.72 134.965 490.983 134.97 484.554 130.14C480.715 127.257 471.71 124.745 463.925 124.386C456.325 124.038 446.94 122.014 443.064 119.893C439.192 117.772 433.226 116.35 429.806 116.731C424.777 117.292 423.76 118.926 424.473 125.315ZM527.631 131.886C526.014 134.349 525.503 137.396 526.489 138.66C527.475 139.923 527.571 145.166 526.7 150.311C525.332 158.403 526.422 161.341 534.774 172.064C542.346 181.787 543.957 185.647 542.241 189.956C541.036 192.976 540.465 199.179 540.974 203.738C542.291 215.54 533.558 221.371 525.906 213.799C521.228 209.167 519.552 208.928 514.795 212.205C507.768 217.049 508.067 220.471 515.786 223.564C521.218 225.744 521.455 226.476 518.18 231.031C516.183 233.81 514.847 242.261 515.211 249.811C515.775 261.503 514.865 264.168 509.086 267.77C505.353 270.095 501.184 275.866 499.822 280.595C498.457 285.322 495.342 289.421 492.9 289.702C490.456 289.986 484.989 292.567 480.751 295.441C476.513 298.315 466.434 302.529 458.353 304.807C450.271 307.082 440.518 311.864 436.681 315.433C430.675 321.012 427.299 321.932 412.507 322.006C403.049 322.053 383.948 320.526 370.058 318.612C356.168 316.694 337.032 315.11 327.531 315.093C313.117 315.062 310.163 314.198 309.681 309.876C309.364 307.029 306.543 303.467 303.414 301.963C299.297 299.983 298.399 298.195 300.167 295.5C304.253 289.273 298.833 285.721 289.719 288.651C285.124 290.128 273.525 293.399 263.943 295.919C253.931 298.553 243.514 303.296 239.453 307.069C233.811 312.315 230.143 313.51 221.251 313.004C215.123 312.658 209.26 310.725 208.217 308.707C205.785 303.997 198.708 304.949 192.528 310.823C186.329 316.709 183.383 316.993 182.799 311.761C182.544 309.472 178.797 306.523 174.47 305.205C170.146 303.891 166.081 302.528 165.443 302.178C164.805 301.831 163.037 294.181 161.513 285.179C158.832 269.323 158.955 268.789 165.507 268.058C169.581 267.603 175.534 270.243 180.482 274.695C190.117 283.37 199.723 283.27 204.532 274.443C207.553 268.9 208.983 268.425 217.07 270.275C231.116 273.49 247.632 270.621 256.155 263.483C260.552 259.803 268.352 256.612 274.723 255.893C280.769 255.208 288.407 252.27 291.697 249.364C301.365 240.831 315.127 240.758 323.526 249.194C329.717 255.413 331.233 255.825 334.697 252.224C339.153 247.589 339.097 240.028 334.554 233.238C332.909 230.777 329.424 223.683 326.811 217.476C321.483 204.809 322.346 203.154 340.909 190.394C350.847 183.561 353.775 177.661 350.431 171.186C348.651 167.74 349.434 167.525 355.947 169.665C361.468 171.477 364.266 171.246 366.205 168.814C369.322 164.905 365.12 151.639 360.915 152.108C359.229 152.296 359.089 154.757 360.573 158.103C362.695 162.886 362.254 163.539 357.768 162.262C346.55 159.063 344.167 160.611 344.453 170.897C344.694 179.524 343.35 181.715 334.646 186.881C329.098 190.172 322.163 196.071 319.238 199.986C313.963 207.041 313.973 207.203 320.097 217.566C323.499 223.32 325.564 228.927 324.683 230.027C323.806 231.128 325.382 234.062 328.185 236.549C330.99 239.032 332.537 242.003 331.628 243.145C330.717 244.288 327.844 242.803 325.243 239.845C321.416 235.49 317.924 234.816 306.9 236.301C299.248 237.332 292.141 239.875 290.677 242.106C289.244 244.291 284.168 246.513 279.392 247.046C274.616 247.578 264.506 252.029 256.922 256.935C243.945 265.333 242.376 265.73 230.196 263.688C205.94 259.623 201.698 260.008 200.777 266.361C199.387 275.925 193.455 276.266 182.411 267.418C173.816 260.532 169.902 259.26 160.539 260.305L149.132 261.577L152.247 270.23C153.961 274.99 155.957 282.554 156.687 287.041C157.417 291.529 158.512 297.981 159.12 301.377C159.807 305.202 162.866 308.233 167.165 309.346C170.983 310.332 175.733 313.51 177.72 316.407C181.942 322.557 189.013 322.441 195.88 316.109C200.079 312.237 201.388 312.088 205.468 315.025C208.067 316.895 216.07 318.575 223.252 318.76C234.072 319.034 237.239 318.027 241.734 312.879C245.081 309.047 253.833 304.856 264.589 301.936C274.176 299.332 285.817 295.5 290.458 293.418C298.46 289.828 298.759 289.93 296.206 295.41C293.982 300.191 294.412 301.713 298.688 304.21C301.535 305.873 304.145 309.782 304.493 312.9C305.173 318.994 308.132 319.985 327.456 320.609C334.319 320.829 350.078 322.787 362.478 324.962C380.485 328.121 422.317 330.789 433.77 329.511C434.974 329.377 437.914 326.632 440.3 323.408C443 319.767 450.972 315.79 461.345 312.905C470.531 310.352 480.561 306.046 483.634 303.333C486.706 300.622 492.056 298.087 495.525 297.7C499.765 297.227 503.24 293.849 506.133 287.39C508.5 282.105 513.918 274.547 518.173 270.589C525.22 264.043 525.713 262.197 523.695 250.002C522.424 242.324 522.711 235.062 524.366 232.986C528.341 228.001 527.302 222.305 522.174 220.963C519.826 220.347 517.759 218.532 517.579 216.926C517.4 215.321 520.396 216.365 524.232 219.249C533.01 225.841 535.528 225.529 541.66 217.095C544.803 212.773 546.634 204.522 546.714 194.342C546.818 180.886 545.788 177.025 540.158 169.824C532.462 159.983 531.487 155.058 534.634 141.927C537.282 130.868 532.651 124.229 527.631 131.886Z"/>
</mask>
<path fill-rule="evenodd" clip-rule="evenodd" d="M424.473 125.315C425.068 130.651 423.365 134.854 419.215 138.294C415.839 141.093 412.991 146.226 412.887 149.702C412.752 154.256 411.147 155.947 407.147 155.756C404.091 155.607 396.38 156.129 390.009 156.915C382.012 157.901 378.297 157.194 378.012 154.634C377.555 150.54 369.189 144.079 367.342 146.393C366.702 147.195 368.564 151.546 371.477 156.061C376.394 163.684 377.698 164.134 389.729 162.357C396.853 161.308 404.09 161.115 405.811 161.931C409.56 163.711 416.775 155.38 416.172 149.97C415.937 147.861 419.215 143.813 423.457 140.977C428.874 137.355 430.946 133.806 430.416 129.052C429.498 120.825 432.015 120.287 442.092 126.556C446.353 129.207 456.084 131.395 463.849 131.451C473.123 131.515 478.938 133.068 480.964 136.021C485.697 142.914 493 143.609 498.246 137.662C500.903 134.655 506.461 132.219 511.038 132.06C521.053 131.709 521.221 127.171 511.267 125.817C506.553 125.175 501.72 126.675 497.661 130.041C491.72 134.965 490.983 134.97 484.554 130.14C480.715 127.257 471.71 124.745 463.925 124.386C456.325 124.038 446.94 122.014 443.064 119.893C439.192 117.772 433.226 116.35 429.806 116.731C424.777 117.292 423.76 118.926 424.473 125.315ZM527.631 131.886C526.014 134.349 525.503 137.396 526.489 138.66C527.475 139.923 527.571 145.166 526.7 150.311C525.332 158.403 526.422 161.341 534.774 172.064C542.346 181.787 543.957 185.647 542.241 189.956C541.036 192.976 540.465 199.179 540.974 203.738C542.291 215.54 533.558 221.371 525.906 213.799C521.228 209.167 519.552 208.928 514.795 212.205C507.768 217.049 508.067 220.471 515.786 223.564C521.218 225.744 521.455 226.476 518.18 231.031C516.183 233.81 514.847 242.261 515.211 249.811C515.775 261.503 514.865 264.168 509.086 267.77C505.353 270.095 501.184 275.866 499.822 280.595C498.457 285.322 495.342 289.421 492.9 289.702C490.456 289.986 484.989 292.567 480.751 295.441C476.513 298.315 466.434 302.529 458.353 304.807C450.271 307.082 440.518 311.864 436.681 315.433C430.675 321.012 427.299 321.932 412.507 322.006C403.049 322.053 383.948 320.526 370.058 318.612C356.168 316.694 337.032 315.11 327.531 315.093C313.117 315.062 310.163 314.198 309.681 309.876C309.364 307.029 306.543 303.467 303.414 301.963C299.297 299.983 298.399 298.195 300.167 295.5C304.253 289.273 298.833 285.721 289.719 288.651C285.124 290.128 273.525 293.399 263.943 295.919C253.931 298.553 243.514 303.296 239.453 307.069C233.811 312.315 230.143 313.51 221.251 313.004C215.123 312.658 209.26 310.725 208.217 308.707C205.785 303.997 198.708 304.949 192.528 310.823C186.329 316.709 183.383 316.993 182.799 311.761C182.544 309.472 178.797 306.523 174.47 305.205C170.146 303.891 166.081 302.528 165.443 302.178C164.805 301.831 163.037 294.181 161.513 285.179C158.832 269.323 158.955 268.789 165.507 268.058C169.581 267.603 175.534 270.243 180.482 274.695C190.117 283.37 199.723 283.27 204.532 274.443C207.553 268.9 208.983 268.425 217.07 270.275C231.116 273.49 247.632 270.621 256.155 263.483C260.552 259.803 268.352 256.612 274.723 255.893C280.769 255.208 288.407 252.27 291.697 249.364C301.365 240.831 315.127 240.758 323.526 249.194C329.717 255.413 331.233 255.825 334.697 252.224C339.153 247.589 339.097 240.028 334.554 233.238C332.909 230.777 329.424 223.683 326.811 217.476C321.483 204.809 322.346 203.154 340.909 190.394C350.847 183.561 353.775 177.661 350.431 171.186C348.651 167.74 349.434 167.525 355.947 169.665C361.468 171.477 364.266 171.246 366.205 168.814C369.322 164.905 365.12 151.639 360.915 152.108C359.229 152.296 359.089 154.757 360.573 158.103C362.695 162.886 362.254 163.539 357.768 162.262C346.55 159.063 344.167 160.611 344.453 170.897C344.694 179.524 343.35 181.715 334.646 186.881C329.098 190.172 322.163 196.071 319.238 199.986C313.963 207.041 313.973 207.203 320.097 217.566C323.499 223.32 325.564 228.927 324.683 230.027C323.806 231.128 325.382 234.062 328.185 236.549C330.99 239.032 332.537 242.003 331.628 243.145C330.717 244.288 327.844 242.803 325.243 239.845C321.416 235.49 317.924 234.816 306.9 236.301C299.248 237.332 292.141 239.875 290.677 242.106C289.244 244.291 284.168 246.513 279.392 247.046C274.616 247.578 264.506 252.029 256.922 256.935C243.945 265.333 242.376 265.73 230.196 263.688C205.94 259.623 201.698 260.008 200.777 266.361C199.387 275.925 193.455 276.266 182.411 267.418C173.816 260.532 169.902 259.26 160.539 260.305L149.132 261.577L152.247 270.23C153.961 274.99 155.957 282.554 156.687 287.041C157.417 291.529 158.512 297.981 159.12 301.377C159.807 305.202 162.866 308.233 167.165 309.346C170.983 310.332 175.733 313.51 177.72 316.407C181.942 322.557 189.013 322.441 195.88 316.109C200.079 312.237 201.388 312.088 205.468 315.025C208.067 316.895 216.07 318.575 223.252 318.76C234.072 319.034 237.239 318.027 241.734 312.879C245.081 309.047 253.833 304.856 264.589 301.936C274.176 299.332 285.817 295.5 290.458 293.418C298.46 289.828 298.759 289.93 296.206 295.41C293.982 300.191 294.412 301.713 298.688 304.21C301.535 305.873 304.145 309.782 304.493 312.9C305.173 318.994 308.132 319.985 327.456 320.609C334.319 320.829 350.078 322.787 362.478 324.962C380.485 328.121 422.317 330.789 433.77 329.511C434.974 329.377 437.914 326.632 440.3 323.408C443 319.767 450.972 315.79 461.345 312.905C470.531 310.352 480.561 306.046 483.634 303.333C486.706 300.622 492.056 298.087 495.525 297.7C499.765 297.227 503.24 293.849 506.133 287.39C508.5 282.105 513.918 274.547 518.173 270.589C525.22 264.043 525.713 262.197 523.695 250.002C522.424 242.324 522.711 235.062 524.366 232.986C528.341 228.001 527.302 222.305 522.174 220.963C519.826 220.347 517.759 218.532 517.579 216.926C517.4 215.321 520.396 216.365 524.232 219.249C533.01 225.841 535.528 225.529 541.66 217.095C544.803 212.773 546.634 204.522 546.714 194.342C546.818 180.886 545.788 177.025 540.158 169.824C532.462 159.983 531.487 155.058 534.634 141.927C537.282 130.868 532.651 124.229 527.631 131.886Z" fill="white"/>
<path fill-rule="evenodd" clip-rule="evenodd" d="M424.473 125.315C425.068 130.651 423.365 134.854 419.215 138.294C415.839 141.093 412.991 146.226 412.887 149.702C412.752 154.256 411.147 155.947 407.147 155.756C404.091 155.607 396.38 156.129 390.009 156.915C382.012 157.901 378.297 157.194 378.012 154.634C377.555 150.54 369.189 144.079 367.342 146.393C366.702 147.195 368.564 151.546 371.477 156.061C376.394 163.684 377.698 164.134 389.729 162.357C396.853 161.308 404.09 161.115 405.811 161.931C409.56 163.711 416.775 155.38 416.172 149.97C415.937 147.861 419.215 143.813 423.457 140.977C428.874 137.355 430.946 133.806 430.416 129.052C429.498 120.825 432.015 120.287 442.092 126.556C446.353 129.207 456.084 131.395 463.849 131.451C473.123 131.515 478.938 133.068 480.964 136.021C485.697 142.914 493 143.609 498.246 137.662C500.903 134.655 506.461 132.219 511.038 132.06C521.053 131.709 521.221 127.171 511.267 125.817C506.553 125.175 501.72 126.675 497.661 130.041C491.72 134.965 490.983 134.97 484.554 130.14C480.715 127.257 471.71 124.745 463.925 124.386C456.325 124.038 446.94 122.014 443.064 119.893C439.192 117.772 433.226 116.35 429.806 116.731C424.777 117.292 423.76 118.926 424.473 125.315ZM527.631 131.886C526.014 134.349 525.503 137.396 526.489 138.66C527.475 139.923 527.571 145.166 526.7 150.311C525.332 158.403 526.422 161.341 534.774 172.064C542.346 181.787 543.957 185.647 542.241 189.956C541.036 192.976 540.465 199.179 540.974 203.738C542.291 215.54 533.558 221.371 525.906 213.799C521.228 209.167 519.552 208.928 514.795 212.205C507.768 217.049 508.067 220.471 515.786 223.564C521.218 225.744 521.455 226.476 518.18 231.031C516.183 233.81 514.847 242.261 515.211 249.811C515.775 261.503 514.865 264.168 509.086 267.77C505.353 270.095 501.184 275.866 499.822 280.595C498.457 285.322 495.342 289.421 492.9 289.702C490.456 289.986 484.989 292.567 480.751 295.441C476.513 298.315 466.434 302.529 458.353 304.807C450.271 307.082 440.518 311.864 436.681 315.433C430.675 321.012 427.299 321.932 412.507 322.006C403.049 322.053 383.948 320.526 370.058 318.612C356.168 316.694 337.032 315.11 327.531 315.093C313.117 315.062 310.163 314.198 309.681 309.876C309.364 307.029 306.543 303.467 303.414 301.963C299.297 299.983 298.399 298.195 300.167 295.5C304.253 289.273 298.833 285.721 289.719 288.651C285.124 290.128 273.525 293.399 263.943 295.919C253.931 298.553 243.514 303.296 239.453 307.069C233.811 312.315 230.143 313.51 221.251 313.004C215.123 312.658 209.26 310.725 208.217 308.707C205.785 303.997 198.708 304.949 192.528 310.823C186.329 316.709 183.383 316.993 182.799 311.761C182.544 309.472 178.797 306.523 174.47 305.205C170.146 303.891 166.081 302.528 165.443 302.178C164.805 301.831 163.037 294.181 161.513 285.179C158.832 269.323 158.955 268.789 165.507 268.058C169.581 267.603 175.534 270.243 180.482 274.695C190.117 283.37 199.723 283.27 204.532 274.443C207.553 268.9 208.983 268.425 217.07 270.275C231.116 273.49 247.632 270.621 256.155 263.483C260.552 259.803 268.352 256.612 274.723 255.893C280.769 255.208 288.407 252.27 291.697 249.364C301.365 240.831 315.127 240.758 323.526 249.194C329.717 255.413 331.233 255.825 334.697 252.224C339.153 247.589 339.097 240.028 334.554 233.238C332.909 230.777 329.424 223.683 326.811 217.476C321.483 204.809 322.346 203.154 340.909 190.394C350.847 183.561 353.775 177.661 350.431 171.186C348.651 167.74 349.434 167.525 355.947 169.665C361.468 171.477 364.266 171.246 366.205 168.814C369.322 164.905 365.12 151.639 360.915 152.108C359.229 152.296 359.089 154.757 360.573 158.103C362.695 162.886 362.254 163.539 357.768 162.262C346.55 159.063 344.167 160.611 344.453 170.897C344.694 179.524 343.35 181.715 334.646 186.881C329.098 190.172 322.163 196.071 319.238 199.986C313.963 207.041 313.973 207.203 320.097 217.566C323.499 223.32 325.564 228.927 324.683 230.027C323.806 231.128 325.382 234.062 328.185 236.549C330.99 239.032 332.537 242.003 331.628 243.145C330.717 244.288 327.844 242.803 325.243 239.845C321.416 235.49 317.924 234.816 306.9 236.301C299.248 237.332 292.141 239.875 290.677 242.106C289.244 244.291 284.168 246.513 279.392 247.046C274.616 247.578 264.506 252.029 256.922 256.935C243.945 265.333 242.376 265.73 230.196 263.688C205.94 259.623 201.698 260.008 200.777 266.361C199.387 275.925 193.455 276.266 182.411 267.418C173.816 260.532 169.902 259.26 160.539 260.305L149.132 261.577L152.247 270.23C153.961 274.99 155.957 282.554 156.687 287.041C157.417 291.529 158.512 297.981 159.12 301.377C159.807 305.202 162.866 308.233 167.165 309.346C170.983 310.332 175.733 313.51 177.72 316.407C181.942 322.557 189.013 322.441 195.88 316.109C200.079 312.237 201.388 312.088 205.468 315.025C208.067 316.895 216.07 318.575 223.252 318.76C234.072 319.034 237.239 318.027 241.734 312.879C245.081 309.047 253.833 304.856 264.589 301.936C274.176 299.332 285.817 295.5 290.458 293.418C298.46 289.828 298.759 289.93 296.206 295.41C293.982 300.191 294.412 301.713 298.688 304.21C301.535 305.873 304.145 309.782 304.493 312.9C305.173 318.994 308.132 319.985 327.456 320.609C334.319 320.829 350.078 322.787 362.478 324.962C380.485 328.121 422.317 330.789 433.77 329.511C434.974 329.377 437.914 326.632 440.3 323.408C443 319.767 450.972 315.79 461.345 312.905C470.531 310.352 480.561 306.046 483.634 303.333C486.706 300.622 492.056 298.087 495.525 297.7C499.765 297.227 503.24 293.849 506.133 287.39C508.5 282.105 513.918 274.547 518.173 270.589C525.22 264.043 525.713 262.197 523.695 250.002C522.424 242.324 522.711 235.062 524.366 232.986C528.341 228.001 527.302 222.305 522.174 220.963C519.826 220.347 517.759 218.532 517.579 216.926C517.4 215.321 520.396 216.365 524.232 219.249C533.01 225.841 535.528 225.529 541.66 217.095C544.803 212.773 546.634 204.522 546.714 194.342C546.818 180.886 545.788 177.025 540.158 169.824C532.462 159.983 531.487 155.058 534.634 141.927C537.282 130.868 532.651 124.229 527.631 131.886Z" stroke="white" stroke-width="2" mask="url(#path-5-outside-1_4_2945)"/>
<path fill-rule="evenodd" clip-rule="evenodd" d="M1349.24 660.81C1348.02 648.626 1350.83 637.598 1358.2 625.602L1368.93 608.134L1383.22 622.249C1391.07 630.011 1397.81 638.942 1398.2 642.091C1398.74 646.543 1428.85 644.825 1533.06 634.386L1667.22 620.951L1678.92 599.009C1685.36 586.94 1691.66 576.964 1692.92 576.833C1700.6 576.055 1724.22 611.836 1725.68 626.487C1727.92 648.871 1744.03 672.809 1769.51 691.614C1786.69 704.294 1791 710.355 1793.17 724.894L1795.82 742.671L1766.85 745.57C1750.6 747.196 1738.09 750.485 1738.35 753.063C1738.61 755.654 1751.8 756.357 1768.62 754.674C1785.44 752.99 1798.64 753.693 1798.9 756.284C1799.15 758.811 1787.91 762.024 1773.92 763.424L1748.48 765.97L1753.11 781.749L1757.73 797.527L1718.23 801.48L1678.73 805.433L1676.92 788.213C1675.2 772.027 1672.66 769.53 1634.53 746.58C1612.22 733.157 1589.04 719.833 1583.02 716.979C1571.36 711.449 1568.09 702.96 1575.44 697.329C1577.9 695.44 1601.42 703.406 1627.71 715.026C1654 726.646 1676.74 736.026 1678.26 735.875C1679.77 735.723 1679.25 718.026 1677.1 696.547L1673.19 657.495L1537.88 671.036L1402.58 684.577L1406.75 726.303L1410.93 768.025L1424.93 757.51C1454.81 735.067 1502.66 702.404 1506.16 702.053C1508.19 701.85 1511.32 704.627 1513.13 708.218C1515.31 712.553 1509.63 720.462 1496.29 731.7C1485.22 741.026 1465.25 759.247 1451.92 772.201C1430.16 793.339 1427.85 797.52 1429.36 812.988L1431.05 830.221L1391.55 834.173L1352.05 838.126L1353.46 821.744L1354.86 805.362L1327.13 808.138C1311.7 809.681 1299.2 808.873 1298.94 806.318C1298.68 803.695 1312.24 800.347 1330.59 798.511C1348.94 796.674 1362.5 793.326 1362.24 790.703C1361.98 788.08 1348.02 787.486 1329.67 789.322C1311.32 791.158 1297.37 790.564 1297.1 787.941C1296.85 785.414 1298.71 783.14 1301.23 782.887C1307.45 782.265 1304.92 760.523 1298.46 759.058C1295.63 758.422 1300.7 751.988 1309.73 744.765C1331.26 727.533 1351.59 684.329 1349.24 660.81ZM1391.38 665.33L1393.86 690.09L1377.81 691.696C1365.77 692.901 1361.43 691.303 1360.44 685.313C1359.71 680.922 1358.18 671.154 1357.03 663.613C1355.88 656.072 1358.34 643.514 1362.5 635.706L1370.07 621.505L1379.48 631.036C1386 637.637 1389.67 648.193 1391.38 665.33ZM1382.41 737.64C1398.37 736.042 1398.45 735.923 1396.39 715.359C1394.34 694.863 1394.19 694.697 1378.54 696.263C1369.86 697.132 1362.09 699.474 1361.27 701.472C1360.03 704.487 1361.56 716.45 1365.64 735.838C1366.03 737.715 1373.58 738.524 1382.41 737.64ZM1401.45 765.897L1403.98 791.166L1386.64 792.901C1369.57 794.61 1369.3 794.382 1368.2 777.345L1368.09 775.64C1366.84 756.189 1366.35 748.661 1369.84 745.382C1372.05 743.311 1375.84 742.934 1382.02 742.319L1382.87 742.234L1398.92 740.628L1401.45 765.897ZM1391.14 824.933C1419.89 822.057 1420.92 821.536 1419.81 810.464C1418.7 799.391 1417.59 799.085 1388.84 801.962C1360.1 804.838 1359.07 805.359 1360.18 816.431C1361.29 827.504 1362.4 827.81 1391.14 824.933ZM1500.46 716.002C1487.35 730.915 1421.57 789.406 1417.44 789.818C1414.71 790.092 1412.81 786.918 1413.22 782.765C1413.63 778.613 1433.39 761.067 1457.14 743.78C1500.15 712.474 1507.97 707.459 1500.46 716.002ZM1536.97 661.847C1624.11 653.126 1672.11 646.67 1671.81 643.711C1671.52 640.753 1623.19 643.937 1536.05 652.658C1448.9 661.38 1400.9 667.835 1401.2 670.794C1401.49 673.753 1449.82 670.569 1536.97 661.847ZM1605.24 635.283C1568.26 639.759 1506.34 645.96 1467.64 649.054C1428.93 652.153 1459.19 648.489 1534.87 640.91C1610.55 633.336 1642.22 630.803 1605.24 635.283ZM1353.98 777.608C1359.61 777.045 1360.07 769.008 1356.49 733.273C1354.09 709.267 1351.42 689.697 1350.57 689.782C1344.65 690.374 1341.22 719.53 1343.9 746.352C1346.44 771.686 1348.52 778.155 1353.98 777.608ZM1339.75 751.19C1341.9 772.632 1340.98 778.909 1335.63 779.444C1330.47 779.961 1328.2 774.62 1326.54 758.08C1324.73 739.932 1328.82 724.441 1335.62 723.761C1336.37 723.685 1338.24 736.028 1339.75 751.19ZM1317.28 781.281C1322.25 780.783 1323.65 775.488 1322.33 762.214C1321.31 752.107 1319.98 744.054 1319.38 744.315C1309.74 748.458 1307.51 753.093 1308.83 766.27C1309.92 777.163 1312.51 781.758 1317.28 781.281ZM1663.98 739.41C1674.18 743.736 1682.45 750.606 1682.93 755.129C1684.17 766.954 1677.95 765.697 1653.86 749.249C1641.98 741.139 1620.69 728.355 1606.57 720.845C1592.44 713.33 1580.79 706.265 1580.68 705.139C1580.56 704.018 1595.19 709.543 1613.17 717.413C1631.16 725.289 1654.02 735.186 1663.98 739.41ZM1729.64 758.575L1727.11 733.306L1724.58 708.037L1706.23 709.873L1687.88 711.709L1690.41 736.978L1692.94 762.248L1711.29 760.411L1729.64 758.575ZM1745.46 777.873C1746.57 788.945 1745.55 789.466 1716.8 792.343C1688.06 795.219 1686.95 794.913 1685.84 783.84C1684.73 772.768 1685.76 772.247 1714.5 769.371C1743.25 766.494 1744.36 766.801 1745.46 777.873ZM1743.85 738.591C1749.3 738.045 1750.05 731.469 1747.47 706.907C1745.55 688.745 1741.01 671.427 1736.49 665.081C1729.39 655.095 1729.11 657.574 1732.88 696.766C1736.23 731.563 1738.22 739.155 1743.85 738.591ZM1767.06 715.952C1768.55 730.769 1767.27 736.248 1762.2 736.755C1756.9 737.285 1754.72 731.512 1752.73 711.614C1750.49 689.17 1751.13 686.443 1757.6 690.811C1762.15 693.883 1765.84 703.681 1767.06 715.952ZM1780.54 734.919C1785.07 734.466 1786.97 729.7 1786.1 721.008C1785.37 713.739 1781.42 705.527 1777.33 702.758C1770.91 698.426 1770.14 700.355 1771.77 716.669C1773.15 730.439 1775.54 735.42 1780.54 734.919ZM1722.05 682.768L1724.12 703.443L1705.77 705.279C1687.56 707.102 1687.41 706.986 1685.66 689.505C1683.51 667.998 1685.3 665.564 1704.69 663.623C1719.76 662.116 1720.01 662.401 1722.05 682.768ZM1717.21 634.366C1715.85 620.808 1711.35 606.849 1706.35 600.649C1695.85 587.644 1693.82 587.848 1685.09 602.8C1675.5 619.235 1677.85 633.246 1690.83 637.024L1701.57 640.144L1691.28 641.471C1684.13 642.39 1681.27 645.601 1681.91 651.982C1682.67 659.641 1685.89 660.865 1701.17 659.335L1719.52 657.499L1717.21 634.366Z" fill="white"/>
</g>
<defs>
<linearGradient id="paint0_linear_4_2945" x1="529" y1="-47" x2="1268.5" y2="1465" gradientUnits="userSpaceOnUse">
<stop/>
<stop offset="0.567375" stop-color="#341F97"/>
<stop offset="0.645658" stop-color="#48DBFB"/>
<stop offset="0.774459" stop-color="#2E86DE"/>
</linearGradient>
<linearGradient id="paint1_linear_4_2945" x1="740.603" y1="-74.2941" x2="1186.81" y2="1836.36" gradientUnits="userSpaceOnUse">
<stop/>
<stop offset="0.637643"/>
<stop offset="0.714338" stop-opacity="0.14"/>
<stop offset="1" stop-opacity="0"/>
</linearGradient>
<clipPath id="clip0_4_2945">
<rect width="1920" height="1080" fill="white"/>
</clipPath>
<clipPath id="clip1_4_2945">
<rect width="1920" height="1080" fill="white"/>
</clipPath>
</defs>
</svg>
