<svg width="830" height="416" viewBox="0 0 830 416" fill="none" xmlns="http://www.w3.org/2000/svg">
<g clip-path="url(#clip0_307_12490)">
<path fill-rule="evenodd" clip-rule="evenodd" d="M390.423 12.0451C383.614 20.1312 368.709 34.1757 357.297 43.2581C345.531 52.6201 332.688 66.543 327.635 75.4183C322.73 84.0241 315.209 96.3225 310.917 102.751C299.267 120.202 260.041 148.248 234.415 157.446C196.736 170.968 179.29 183.595 165.981 206.979C162.143 213.72 165.914 211.757 181.102 199.103C209.459 175.48 221.779 174.648 246.278 194.7C252.871 200.096 259.415 204.513 260.822 204.513C262.23 204.513 263.379 198.594 263.379 191.359C263.379 184.125 264.866 178.206 266.687 178.206C271.558 178.206 309.742 141.12 309.742 136.384C309.742 126.194 347.044 117.746 358.949 125.237C362.181 127.269 358.164 130.472 344.709 136.588C323.267 146.339 306.43 157.509 306.43 161.987C306.43 167.118 313.583 165.566 340.338 154.628C354.432 148.867 366.735 144.917 367.676 145.848C368.612 146.782 367.712 152.3 365.672 158.111C360.671 172.349 363.989 174.371 376.842 164.924C384.723 159.13 391.953 157.012 404.123 156.937C420.658 156.831 420.681 156.848 421.744 168.34C422.33 174.671 424.029 181.093 425.519 182.612C427.013 184.132 436.775 177.689 447.221 168.298C486.142 133.3 512.291 133.07 545.864 167.429C558.862 180.734 560.928 184.388 557.2 187.459C549.04 194.184 527.882 201.602 498.975 207.876L470.64 214.026L435.726 200.718C363.87 173.332 362.009 172.905 341.848 179.215C332.065 182.277 319.402 184.783 313.706 184.783C307.053 184.783 299.459 188.146 292.472 194.19C276.92 207.643 265.174 212.865 236.114 219.251C219.941 222.805 205.644 228.373 197.315 234.365C189.997 239.629 181.893 243.003 179.111 241.941C172.505 239.425 163.305 224.16 152.751 198.199C142.3 172.497 135.408 164.237 126.698 166.983C121.982 168.468 117.684 165.871 110.455 157.164C105.05 150.649 99.4105 145.322 97.9232 145.322C96.4401 145.322 94.2939 150.241 93.1579 156.25C87.8962 184.111 60.1247 210.994 24.4618 222.757C11.1325 227.153 8.38385 229.422 8.38385 236.015C8.38385 240.392 10.2483 243.96 12.5234 243.94C24.1041 243.851 54.5148 225.193 74.8415 205.709L97.6155 183.878L101.235 193.335L104.858 202.793L110.796 194.973L116.737 187.153L125.549 210.053C138.504 243.719 157.122 264.016 183.9 273.66C203.773 280.816 263.379 287.389 263.379 282.424C263.379 281.428 254.808 278.184 244.337 275.222C222.033 268.905 197.147 257.669 197.147 253.91C197.147 252.464 202.369 250.309 208.75 249.119C215.132 247.932 223.262 243.861 226.816 240.073C232.61 233.894 234.322 233.618 243.486 237.386C253.199 241.381 254.812 240.819 276.758 225.794C289.441 217.114 300.651 210.829 301.665 211.836C302.678 212.842 301.184 219.185 298.346 225.933C292.62 239.537 291.531 253.838 296.22 253.838C297.893 253.838 301.86 246.807 305.039 238.219C310.596 223.2 325.763 203.667 336.308 197.952C343.921 193.822 371.03 199.826 402.467 212.602C417.949 218.893 440.465 227.041 452.499 230.708C464.533 234.37 480.012 241.815 486.897 247.248C493.782 252.68 501.445 257.126 503.929 257.126C513.572 257.126 507.691 262.671 492.166 268.215C472.978 275.065 445.518 291.723 445.518 296.514C445.518 303.344 458.503 299.428 494.312 281.789C530.541 263.943 542.512 260.55 546.523 266.991C549.898 272.411 560.743 270.714 565.459 264.028C571.82 255.009 589.756 253.874 595.843 262.105C600.552 268.475 600.754 268.412 604.149 259.593C609.305 246.18 619.945 247.856 662.122 268.728C684.035 279.569 708.16 288.799 721.906 291.602C747.731 296.863 753.526 295.725 736.623 288.704C686.833 268.037 612.11 229.316 602.513 219.211L591.525 207.643L569.642 222.519C554.706 232.674 544.334 237.396 536.969 237.396C525.282 237.396 496.243 228.593 493.527 224.226C492.607 222.747 501.769 218.353 513.893 214.463C526.017 210.573 544.612 203.043 555.21 197.732C577.268 186.673 580.371 186.222 587.888 192.977C592.508 197.127 594.287 197.199 599.46 193.448C604.947 189.462 607.45 190.918 624.064 207.745C645.924 229.889 667.185 239.119 712.104 245.963C747.115 251.296 786.616 251.984 786.616 247.261C786.616 245.452 783.496 243.973 779.684 243.973C766.087 243.973 705.219 230.267 690.578 223.907C681.661 220.034 667.649 208.896 655.684 196.176C636.913 176.213 634.791 174.914 620.912 174.845C611.365 174.795 603.201 172.493 597.853 168.34C587.372 160.198 585.031 160.222 576.086 168.564L568.794 175.368L556.637 164.766C531.124 142.524 525.925 116.628 543.013 96.8974C554.911 83.1626 566.83 88.7722 579.639 114.138C588.948 132.57 590.875 134.333 610.215 142.034C624.363 147.667 636.867 156.088 649.955 168.788C660.459 178.982 672.431 189.034 676.557 191.129C683.432 194.615 684.233 194.095 686.078 184.927C687.188 179.422 689.473 174.918 691.159 174.918C696.391 174.918 714.393 185.094 740.279 202.694C771.531 223.94 792.839 234.239 810.36 236.574C830.041 239.195 825.15 234.512 785.841 213.099C746.919 191.901 716.062 167.203 703.279 147.022C695.917 135.401 684.77 126.112 682.402 129.624C682.068 130.12 678.432 136.076 674.326 142.856C665.238 157.864 660.251 158.262 648.382 144.934C643.358 139.294 630.307 128.722 619.379 121.436C608.45 114.152 586.66 95.829 570.959 80.7191C555.256 65.6091 540.443 53.2482 538.042 53.2482C535.641 53.2482 526.789 60.647 518.374 69.69C509.877 78.8218 500.217 86.0755 496.65 86.0068C486.801 85.8124 454.112 53.9486 441.114 31.8739C418.115 -7.19178 409.465 -10.5755 390.423 12.0451ZM427.447 50.7819C429.401 57.3652 434.103 63.1099 439.696 65.7472C444.691 68.0984 450.33 72.9092 452.231 76.4344C454.34 80.3442 459.192 82.8634 464.676 82.8928C469.621 82.9221 475.903 84.3459 478.635 86.0629C486.169 90.7943 477.777 97.1119 453.343 105.106C441.08 109.12 425.602 117.756 414.303 126.894C404.01 135.22 394.393 142.034 392.936 142.034C389.125 142.034 382.597 126.621 382.597 117.618C382.597 107.197 390.443 101.522 402.438 103.27C414.512 105.03 414.598 104.468 404.123 92.1099C394.304 80.5218 393.602 70.1898 401.904 59.4467C405.236 55.1324 408.915 49.0128 410.077 45.8494C413.68 36.0533 423.946 38.9669 427.447 50.7819Z" fill="white"/>
<mask id="mask0_307_12490" style="mask-type:luminance" maskUnits="userSpaceOnUse" x="75" y="157" width="680" height="260">
<path d="M754.545 157.22H75.4545V417H754.545V157.22Z" fill="white"/>
</mask>
<g mask="url(#mask0_307_12490)">
<mask id="mask1_307_12490" style="mask-type:luminance" maskUnits="userSpaceOnUse" x="75" y="157" width="680" height="260">
<path d="M754.545 157.22H75.4545V417H754.545V157.22Z" fill="white"/>
</mask>
<g mask="url(#mask1_307_12490)">
<path d="M85.4187 229.054L96.5952 223.068L137.219 298.9L126.043 304.887L85.4187 229.054Z" fill="#10AC84"/>
<mask id="mask2_307_12490" style="mask-type:luminance" maskUnits="userSpaceOnUse" x="70" y="209" width="82" height="110">
<path d="M151.831 209.012H70.1921V318.63H151.831V209.012Z" fill="white"/>
<path d="M85.4187 229.054L96.5952 223.068L137.219 298.9L126.043 304.887L85.4187 229.054Z" fill="black"/>
</mask>
<g mask="url(#mask2_307_12490)">
<path d="M85.4179 229.053L81.1132 221.019L73.0781 225.323L77.3825 233.358L85.4179 229.053ZM96.5944 223.067L104.629 218.763L100.325 210.727L92.2901 215.032L96.5944 223.067ZM137.218 298.9L141.523 306.935L149.558 302.631L145.253 294.595L137.218 298.9ZM126.042 304.887L118.007 309.19L122.311 317.226L130.346 312.922L126.042 304.887ZM89.7221 237.089L100.899 231.101L92.2901 215.032L81.1132 221.019L89.7221 237.089ZM88.5593 227.371L129.183 303.204L145.253 294.595L104.629 218.763L88.5593 227.371ZM132.914 290.864L121.738 296.852L130.346 312.922L141.523 306.935L132.914 290.864ZM134.077 300.583L93.4529 224.749L77.3825 233.358L118.007 309.19L134.077 300.583Z" fill="black"/>
</g>
<path d="M152.623 238.157L158.175 248.142L157.121 246.923C157.21 243.001 158.417 239.365 160.742 236.014C163.034 232.591 166.35 229.926 170.689 228.018C174.956 226.144 179.021 225.868 182.881 227.192C186.815 228.484 189.707 231.139 191.558 235.157L206.335 268.789L195.161 273.698L182.1 243.973C181.011 241.69 179.497 240.112 177.56 239.237C175.591 238.291 173.217 238.384 170.437 239.52C167.977 240.6 166.069 242.345 164.711 244.753C163.321 247.09 162.604 249.778 162.559 252.817C162.514 255.857 163.222 259.04 164.684 262.367L173.789 283.088L162.615 287.998L142.642 242.542L152.623 238.157Z" fill="#FF9F43"/>
<mask id="mask3_307_12490" style="mask-type:luminance" maskUnits="userSpaceOnUse" x="128" y="205" width="93" height="96">
<path d="M220.301 205.848H128.378V300.108H220.301V205.848Z" fill="white"/>
<path d="M152.623 238.157L158.175 248.142L157.121 246.923C157.21 243.001 158.417 239.365 160.742 236.014C163.034 232.591 166.35 229.926 170.689 228.018C174.956 226.144 179.021 225.868 182.881 227.192C186.815 228.484 189.707 231.139 191.558 235.157L206.335 268.789L195.161 273.698L182.1 243.973C181.011 241.69 179.497 240.112 177.56 239.237C175.591 238.291 173.217 238.384 170.437 239.52C167.977 240.6 166.069 242.345 164.711 244.753C163.321 247.09 162.604 249.778 162.559 252.817C162.514 255.857 163.222 259.04 164.684 262.367L173.789 283.088L162.615 287.998L142.642 242.542L152.623 238.157Z" fill="black"/>
</mask>
<g mask="url(#mask3_307_12490)">
<path d="M152.624 238.157L160.591 233.728L156.557 226.473L148.957 229.813L152.624 238.157ZM158.177 248.143L151.279 254.102L166.143 243.713L158.177 248.143ZM157.123 246.923L148.01 246.717L147.93 250.226L150.225 252.882L157.123 246.923ZM160.742 236.014L168.233 241.209L168.275 241.148L168.316 241.086L160.742 236.014ZM182.883 227.193L179.926 235.814L179.982 235.834L180.037 235.852L182.883 227.193ZM191.56 235.158L199.905 231.491L199.872 231.417L199.838 231.343L191.56 235.158ZM206.336 268.789L210.003 277.134L218.349 273.467L214.682 265.123L206.336 268.789ZM195.162 273.699L186.817 277.365L190.483 285.711L198.829 282.043L195.162 273.699ZM182.102 243.973L190.446 240.307L190.389 240.176L190.328 240.048L182.102 243.973ZM177.562 239.238L173.612 247.453L173.711 247.5L173.811 247.546L177.562 239.238ZM170.438 239.52L166.992 231.081L166.88 231.127L166.77 231.175L170.438 239.52ZM164.712 244.754L172.546 249.413L172.601 249.322L172.653 249.23L164.712 244.754ZM173.789 283.088L177.456 291.434L185.802 287.767L182.136 279.422L173.789 283.088ZM162.615 287.998L154.27 291.665L157.937 300.01L166.283 296.343L162.615 287.998ZM142.643 242.543L138.976 234.198L130.631 237.864L134.297 246.209L142.643 242.543ZM144.657 242.587L150.21 252.572L166.143 243.713L160.591 233.728L144.657 242.587ZM165.074 242.184L164.021 240.965L150.225 252.882L151.279 254.102L165.074 242.184ZM166.236 247.13C166.283 245.067 166.884 243.154 168.233 241.209L153.252 230.819C149.952 235.576 148.141 240.936 148.01 246.717L166.236 247.13ZM168.316 241.086C169.506 239.31 171.361 237.681 174.358 236.364L167.024 219.674C161.341 222.171 156.564 225.871 153.169 230.942L168.316 241.086ZM174.358 236.364C176.849 235.27 178.538 235.339 179.926 235.814L185.839 218.57C179.506 216.399 173.067 217.019 167.024 219.674L174.358 236.364ZM180.037 235.852C181.386 236.295 182.407 237.076 183.281 238.973L199.838 231.343C197.008 225.203 192.246 220.674 185.728 218.533L180.037 235.852ZM183.215 238.824L197.991 272.455L214.682 265.123L199.905 231.491L183.215 238.824ZM202.67 260.443L191.496 265.353L198.829 282.043L210.003 277.134L202.67 260.443ZM203.508 270.032L190.446 240.307L173.756 247.639L186.817 277.365L203.508 270.032ZM190.328 240.048C188.496 236.207 185.57 232.852 181.311 230.93L173.811 247.546C173.76 247.523 173.705 247.491 173.654 247.454C173.602 247.419 173.575 247.391 173.57 247.385C173.558 247.373 173.685 247.499 173.875 247.898L190.328 240.048ZM181.512 231.023C176.448 228.588 171.23 229.351 166.992 231.081L173.883 247.959C174.54 247.691 174.774 247.701 174.665 247.706C174.601 247.708 174.456 247.707 174.253 247.667C174.047 247.627 173.825 247.556 173.612 247.453L181.512 231.023ZM166.77 231.175C162.45 233.074 159.067 236.205 156.772 240.278L172.653 249.23C173.073 248.485 173.507 248.128 174.105 247.865L166.77 231.175ZM156.878 240.094C154.58 243.957 153.512 248.242 153.446 252.683L171.675 252.953C171.698 251.314 172.065 250.222 172.546 249.413L156.878 240.094ZM153.446 252.683C153.378 257.26 154.454 261.74 156.34 266.034L173.031 258.701C171.994 256.341 171.652 254.455 171.675 252.953L153.446 252.683ZM156.34 266.034L165.445 286.756L182.136 279.422L173.031 258.701L156.34 266.034ZM170.123 274.744L158.948 279.653L166.283 296.343L177.456 291.434L170.123 274.744ZM170.961 284.331L150.989 238.876L134.297 246.209L154.27 291.665L170.961 284.331ZM146.31 250.887L156.291 246.502L148.957 229.813L138.976 234.198L146.31 250.887Z" fill="black"/>
</g>
<path d="M211.458 195.347L223.138 191.801L229.508 212.777L242.207 208.92L244.996 218.104L232.297 221.961L243.901 260.171L232.222 263.717L220.618 225.508L212.228 228.055L209.438 218.871L217.829 216.323L211.458 195.347Z" fill="#EE5253"/>
<mask id="mask4_307_12490" style="mask-type:luminance" maskUnits="userSpaceOnUse" x="190" y="174" width="80" height="104">
<path d="M269.349 174.751H190.529V277.861H269.349V174.751Z" fill="white"/>
<path d="M211.458 195.347L223.138 191.801L229.508 212.777L242.207 208.92L244.996 218.104L232.297 221.961L243.901 260.171L232.222 263.717L220.618 225.508L212.228 228.055L209.438 218.871L217.829 216.323L211.458 195.347Z" fill="black"/>
</mask>
<g mask="url(#mask4_307_12490)">
<path d="M211.459 195.348L208.81 186.626L200.089 189.275L202.737 197.996L211.459 195.348ZM223.138 191.801L231.86 189.153L229.211 180.431L220.489 183.08L223.138 191.801ZM229.508 212.777L220.786 215.426L223.435 224.148L232.157 221.499L229.508 212.777ZM242.207 208.92L250.929 206.271L248.281 197.55L239.559 200.199L242.207 208.92ZM244.997 218.105L247.645 226.826L256.368 224.178L253.718 215.456L244.997 218.105ZM232.298 221.961L229.648 213.239L220.927 215.888L223.575 224.61L232.298 221.961ZM243.902 260.171L246.551 268.893L255.273 266.244L252.623 257.522L243.902 260.171ZM232.223 263.718L223.501 266.367L226.15 275.088L234.872 272.44L232.223 263.718ZM220.618 225.508L229.341 222.859L226.692 214.137L217.97 216.786L220.618 225.508ZM212.228 228.056L203.507 230.704L206.155 239.426L214.877 236.778L212.228 228.056ZM209.439 218.872L206.79 210.15L198.068 212.799L200.717 221.521L209.439 218.872ZM217.83 216.324L220.478 225.045L229.2 222.397L226.551 213.675L217.83 216.324ZM214.108 204.069L225.787 200.523L220.489 183.08L208.81 186.626L214.108 204.069ZM214.416 194.45L220.786 215.426L238.23 210.129L231.86 189.153L214.416 194.45ZM232.157 221.499L244.856 217.642L239.559 200.199L226.859 204.056L232.157 221.499ZM233.485 211.569L236.274 220.754L253.718 215.456L250.929 206.271L233.485 211.569ZM242.347 209.383L229.648 213.239L234.946 230.683L247.645 226.826L242.347 209.383ZM223.575 224.61L235.18 262.82L252.623 257.522L241.019 219.312L223.575 224.61ZM241.252 251.45L229.575 254.996L234.872 272.44L246.551 268.893L241.252 251.45ZM240.946 261.069L229.341 222.859L211.896 228.157L223.501 266.367L240.946 261.069ZM217.97 216.786L209.579 219.334L214.877 236.778L223.267 234.23L217.97 216.786ZM220.95 225.407L218.161 216.224L200.717 221.521L203.507 230.704L220.95 225.407ZM212.088 227.594L220.478 225.045L215.18 207.602L206.79 210.15L212.088 227.594ZM226.551 213.675L220.181 192.699L202.737 197.996L209.108 218.972L226.551 213.675Z" fill="black"/>
</g>
<path d="M297.044 249.882C291.41 251.119 286.351 251.098 281.864 249.819C277.36 248.463 273.604 246.093 270.596 242.71C267.571 239.25 265.508 235.012 264.406 229.997C263.355 225.213 263.601 220.63 265.146 216.246C266.751 211.769 269.343 207.923 272.924 204.71C276.583 201.48 280.919 199.314 285.934 198.212C292.416 196.789 298.194 197.501 303.268 200.349C308.42 203.181 312.474 207.83 315.432 214.298L278.965 236.625L274.662 230.291L303.767 212.008L301.667 214.046C300.215 211.858 298.292 210.097 295.896 208.763C293.483 207.352 290.54 207.028 287.068 207.791C284.291 208.401 281.935 209.646 280.003 211.527C278.13 213.313 276.802 215.546 276.015 218.226C275.289 220.812 275.273 223.687 275.968 226.85C276.68 230.091 277.964 232.802 279.817 234.982C281.732 237.069 283.999 238.552 286.619 239.433C289.316 240.296 292.131 240.406 295.062 239.761C297.146 239.304 299.029 238.486 300.711 237.308C302.47 236.113 304.072 234.75 305.515 233.219L312.887 240.821C310.697 242.999 308.207 244.922 305.418 246.586C302.69 248.156 299.898 249.254 297.044 249.882Z" fill="#F368E0"/>
<mask id="mask5_307_12490" style="mask-type:luminance" maskUnits="userSpaceOnUse" x="246" y="177" width="94" height="94">
<path d="M339.003 177.776H246.703V270.074H339.003V177.776Z" fill="white"/>
<path d="M297.044 249.882C291.41 251.119 286.351 251.098 281.864 249.819C277.36 248.463 273.604 246.093 270.596 242.71C267.571 239.25 265.508 235.012 264.406 229.997C263.355 225.213 263.601 220.63 265.146 216.246C266.751 211.769 269.343 207.923 272.924 204.71C276.583 201.48 280.919 199.314 285.934 198.212C292.416 196.789 298.194 197.501 303.268 200.349C308.42 203.181 312.474 207.83 315.432 214.298L278.966 236.625L274.662 230.291L303.767 212.008L301.667 214.046C300.215 211.858 298.292 210.097 295.896 208.763C293.483 207.352 290.54 207.028 287.068 207.791C284.291 208.401 281.935 209.646 280.003 211.527C278.13 213.313 276.802 215.546 276.015 218.226C275.289 220.812 275.273 223.687 275.968 226.85C276.68 230.091 277.964 232.802 279.817 234.982C281.732 237.069 283.999 238.552 286.619 239.433C289.316 240.296 292.131 240.406 295.062 239.761C297.146 239.304 299.029 238.486 300.711 237.308C302.47 236.113 304.072 234.75 305.515 233.219L312.887 240.821C310.697 242.999 308.208 244.922 305.418 246.586C302.69 248.156 299.898 249.254 297.044 249.882Z" fill="black"/>
</mask>
<g mask="url(#mask5_307_12490)">
<path d="M281.865 249.82L279.236 258.548L279.301 258.567L279.365 258.585L281.865 249.82ZM270.597 242.711L263.734 248.71L263.759 248.739L263.784 248.767L270.597 242.711ZM265.146 216.246L256.566 213.172L256.549 213.218L265.146 216.246ZM272.925 204.71L266.891 197.878L266.864 197.902L266.837 197.927L272.925 204.71ZM303.269 200.35L298.807 208.299L298.843 208.318L298.878 208.338L303.269 200.35ZM315.433 214.299L320.192 222.073L327.082 217.854L323.722 210.508L315.433 214.299ZM278.966 236.626L271.426 241.748L276.312 248.939L283.726 244.4L278.966 236.626ZM274.663 230.292L269.814 222.573L261.813 227.599L267.123 235.415L274.663 230.292ZM303.767 212.008L310.117 218.549L298.918 204.29L303.767 212.008ZM301.668 214.047L294.071 219.085L300.139 228.235L308.016 220.587L301.668 214.047ZM295.897 208.764L291.295 216.632L291.379 216.68L291.462 216.727L295.897 208.764ZM280.003 211.527L286.296 218.122L286.328 218.091L286.36 218.06L280.003 211.527ZM276.016 218.226L267.268 215.66L267.254 215.712L267.24 215.763L276.016 218.226ZM279.818 234.983L272.873 240.887L272.984 241.018L273.101 241.145L279.818 234.983ZM286.62 239.434L283.716 248.073L283.778 248.094L283.841 248.115L286.62 239.434ZM300.712 237.309L295.589 229.768L295.535 229.805L295.482 229.843L300.712 237.309ZM305.515 233.22L312.059 226.874L305.424 220.032L298.885 226.966L305.515 233.22ZM312.887 240.821L319.318 247.282L325.696 240.935L319.431 234.475L312.887 240.821ZM305.419 246.587L309.966 254.488L310.028 254.451L310.09 254.414L305.419 246.587ZM295.088 240.98C290.586 241.969 287.096 241.833 284.363 241.054L279.365 258.585C285.607 260.365 292.236 260.271 299 258.785L295.088 240.98ZM284.493 241.091C281.538 240.202 279.251 238.726 277.409 236.654L263.784 248.767C267.958 253.461 273.183 256.725 279.236 258.548L284.493 241.091ZM277.46 236.712C275.557 234.536 274.121 231.737 273.31 228.042L255.503 231.953C256.895 238.287 259.585 243.964 263.734 248.71L277.46 236.712ZM273.31 228.042C272.602 224.821 272.794 221.971 273.744 219.276L256.549 213.218C254.41 219.29 254.109 225.605 255.503 231.953L273.31 228.042ZM273.727 219.322C274.816 216.286 276.544 213.71 279.012 211.495L266.837 197.927C262.143 202.138 258.687 207.253 256.566 213.172L273.727 219.322ZM278.958 211.543C281.393 209.392 284.307 207.903 287.891 207.116L283.979 189.31C277.533 190.727 271.772 193.568 266.891 197.878L278.958 211.543ZM287.891 207.116C292.516 206.1 295.956 206.698 298.807 208.299L307.73 192.402C300.432 188.305 292.318 187.479 283.979 189.31L287.891 207.116ZM298.878 208.338C301.977 210.041 304.825 213.02 307.143 218.09L323.722 210.508C320.125 202.642 314.864 196.322 307.66 192.362L298.878 208.338ZM310.672 206.525L274.206 228.852L283.726 244.4L320.192 222.073L310.672 206.525ZM286.506 231.504L282.203 225.169L267.123 235.415L271.426 241.748L286.506 231.504ZM279.511 238.01L308.617 219.727L298.918 204.29L269.814 222.573L279.511 238.01ZM297.418 205.469L295.318 207.507L308.016 220.587L310.117 218.549L297.418 205.469ZM309.265 209.009C306.972 205.553 303.941 202.81 300.331 200.799L291.462 216.727C292.644 217.385 293.46 218.165 294.071 219.085L309.265 209.009ZM300.499 200.895C295.612 198.038 290.192 197.773 285.113 198.888L289.024 216.694C289.98 216.484 290.573 216.488 290.881 216.522C291.158 216.553 291.257 216.61 291.295 216.632L300.499 200.895ZM285.113 198.888C280.771 199.842 276.865 201.863 273.646 204.994L286.36 218.06C287.007 217.43 287.811 216.96 289.024 216.694L285.113 198.888ZM273.711 204.932C270.59 207.91 268.469 211.571 267.268 215.66L284.762 220.792C285.135 219.522 285.672 218.717 286.296 218.122L273.711 204.932ZM267.24 215.763C266.033 220.057 266.116 224.48 267.066 228.806L284.872 224.894C284.433 222.894 284.546 221.568 284.791 220.69L267.24 215.763ZM267.066 228.806C268.046 233.27 269.91 237.401 272.873 240.887L286.763 229.079C286.018 228.203 285.315 226.911 284.872 224.894L267.066 228.806ZM273.101 241.145C276.03 244.338 279.599 246.691 283.716 248.073L289.523 230.793C288.401 230.416 287.435 229.802 286.535 228.821L273.101 241.145ZM283.841 248.115C288.162 249.498 292.614 249.633 297.019 248.665L293.107 230.859C291.648 231.18 290.472 231.096 289.398 230.752L283.841 248.115ZM297.019 248.665C300.232 247.96 303.235 246.67 305.941 244.774L295.482 229.843C294.824 230.304 294.061 230.65 293.107 230.859L297.019 248.665ZM305.834 244.848C308.135 243.284 310.244 241.492 312.147 239.474L298.885 226.966C297.9 228.008 296.806 228.942 295.589 229.768L305.834 244.848ZM298.973 239.566L306.345 247.167L319.431 234.475L312.059 226.874L298.973 239.566ZM306.458 234.36C304.822 235.988 302.93 237.458 300.748 238.759L310.09 254.414C313.486 252.388 316.573 250.013 319.318 247.282L306.458 234.36ZM300.872 238.685C298.89 239.828 296.966 240.567 295.088 240.98L299 258.785C302.831 257.943 306.491 256.485 309.966 254.488L300.872 238.685Z" fill="black"/>
</g>
<path d="M348.494 193.057L351.17 207.073L350.382 205.25C351.401 202.123 353.016 199.37 355.226 196.991C357.437 194.612 359.78 192.734 362.256 191.36C364.802 189.899 366.978 189.072 368.785 188.88L369.47 200.962C365.674 201.126 362.449 202.183 359.797 204.133C357.222 206.074 355.294 208.502 354.015 211.419C352.735 214.334 352.262 217.363 352.595 220.506L354.906 242.306L342.886 243.58L337.652 194.207L348.494 193.057Z" fill="#48DBFB"/>
<mask id="mask6_307_12490" style="mask-type:luminance" maskUnits="userSpaceOnUse" x="326" y="175" width="63" height="79">
<path d="M388.925 175.351H326.849V253.631H388.925V175.351Z" fill="white"/>
<path d="M348.491 193.057L351.169 207.073L350.38 205.25C351.399 202.123 353.013 199.37 355.224 196.991C357.434 194.612 359.777 192.734 362.253 191.36C364.799 189.899 366.976 189.072 368.783 188.88L369.468 200.962C365.672 201.126 362.448 202.183 359.794 204.133C357.219 206.074 355.292 208.502 354.013 211.419C352.733 214.334 352.26 217.363 352.593 220.506L354.904 242.306L342.885 243.58L337.65 194.207L348.491 193.057Z" fill="black"/>
</mask>
<g mask="url(#mask6_307_12490)">
<path d="M348.492 193.057L357.444 191.347L355.87 183.108L347.53 183.992L348.492 193.057ZM351.169 207.073L342.803 210.693L360.122 205.361L351.169 207.073ZM350.38 205.249L341.713 202.425L340.644 205.704L342.014 208.87L350.38 205.249ZM362.253 191.359L366.678 199.329L366.735 199.297L366.791 199.265L362.253 191.359ZM368.783 188.88L377.883 188.363L377.341 178.806L367.822 179.816L368.783 188.88ZM369.468 200.962L369.862 210.068L379.091 209.669L378.569 200.446L369.468 200.962ZM359.794 204.132L354.397 196.787L354.351 196.82L354.307 196.854L359.794 204.132ZM354.904 242.306L355.865 251.369L364.929 250.408L363.968 241.344L354.904 242.306ZM342.885 243.579L333.82 244.54L334.781 253.605L343.846 252.644L342.885 243.579ZM337.65 194.206L336.689 185.142L327.624 186.103L328.585 195.167L337.65 194.206ZM339.538 194.767L342.216 208.783L360.122 205.361L357.444 191.347L339.538 194.767ZM359.534 203.452L358.744 201.628L342.014 208.87L342.803 210.693L359.534 203.452ZM359.046 208.073C359.661 206.188 360.603 204.592 361.902 203.194L348.545 190.786C345.423 194.147 343.137 198.057 341.713 202.425L359.046 208.073ZM361.902 203.194C363.553 201.417 365.155 200.174 366.678 199.329L357.829 183.391C354.401 185.294 351.316 187.805 348.545 190.786L361.902 203.194ZM366.791 199.265C367.75 198.714 368.491 198.37 369.031 198.165C369.582 197.956 369.801 197.938 369.744 197.944L367.822 179.816C364.215 180.198 360.764 181.705 357.715 183.454L366.791 199.265ZM359.683 189.396L360.368 201.477L378.569 200.446L377.883 188.363L359.683 189.396ZM369.074 191.855C363.758 192.085 358.721 193.609 354.397 196.787L365.192 211.477C366.174 210.756 367.586 210.167 369.862 210.068L369.074 191.855ZM354.307 196.854C350.501 199.723 347.581 203.39 345.666 207.755L362.36 215.081C363.003 213.613 363.938 212.423 365.282 211.41L354.307 196.854ZM345.666 207.755C343.754 212.112 343.026 216.734 343.529 221.466L361.658 219.545C361.493 217.993 361.712 216.556 362.36 215.081L345.666 207.755ZM343.529 221.466L345.84 243.266L363.968 241.344L361.658 219.545L343.529 221.466ZM353.943 233.241L341.924 234.515L343.846 252.644L355.865 251.369L353.943 233.241ZM351.949 242.618L346.714 193.245L328.585 195.167L333.82 244.54L351.949 242.618ZM338.611 203.271L349.452 202.121L347.53 183.992L336.689 185.142L338.611 203.271Z" fill="black"/>
</g>
<path d="M418.549 241.528C412.783 241.669 407.82 240.686 403.659 238.576C399.496 236.386 396.26 233.344 393.952 229.45C391.642 225.477 390.424 220.923 390.297 215.79C390.177 210.894 391.292 206.442 393.644 202.433C396.072 198.342 399.349 195.062 403.476 192.589C407.683 190.115 412.353 188.815 417.487 188.689C424.121 188.526 429.657 190.326 434.096 194.089C438.614 197.85 441.708 203.186 443.379 210.1L403.327 225.07L400.309 218.033L432.365 205.629L429.914 207.229C428.906 204.805 427.354 202.71 425.255 200.944C423.156 199.099 420.329 198.22 416.775 198.307C413.932 198.378 411.382 199.151 409.127 200.629C406.949 202.026 405.219 203.965 403.936 206.447C402.73 208.847 402.168 211.666 402.247 214.904C402.329 218.221 403.072 221.126 404.477 223.62C405.959 226.033 407.901 227.921 410.306 229.285C412.789 230.646 415.531 231.29 418.532 231.216C420.665 231.163 422.669 230.719 424.545 229.883C426.5 229.045 428.331 228.012 430.04 226.785L435.829 235.651C433.263 237.373 430.453 238.786 427.399 239.888C424.421 240.909 421.471 241.457 418.549 241.528Z" fill="#2E86DE"/>
<mask id="mask7_307_12490" style="mask-type:luminance" maskUnits="userSpaceOnUse" x="379" y="175" width="81" height="80">
<path d="M459.06 175.569H379.698V254.927H459.06V175.569Z" fill="white"/>
<path d="M418.549 241.528C412.783 241.669 407.82 240.686 403.659 238.576C399.496 236.386 396.26 233.344 393.952 229.45C391.642 225.477 390.424 220.923 390.297 215.79C390.177 210.894 391.292 206.442 393.644 202.433C396.072 198.342 399.349 195.062 403.476 192.589C407.683 190.115 412.353 188.815 417.487 188.689C424.121 188.526 429.657 190.326 434.096 194.089C438.614 197.85 441.708 203.186 443.379 210.1L403.327 225.07L400.309 218.033L432.365 205.629L429.914 207.229C428.906 204.805 427.354 202.71 425.255 200.944C423.156 199.099 420.329 198.22 416.775 198.307C413.932 198.378 411.382 199.151 409.127 200.629C406.949 202.026 405.219 203.965 403.936 206.447C402.73 208.847 402.168 211.666 402.247 214.904C402.329 218.221 403.072 221.126 404.477 223.62C405.959 226.033 407.901 227.921 410.306 229.285C412.789 230.646 415.532 231.29 418.532 231.216C420.665 231.163 422.669 230.719 424.545 229.883C426.5 229.045 428.331 228.012 430.04 226.785L435.829 235.651C433.263 237.373 430.453 238.786 427.399 239.888C424.421 240.909 421.471 241.457 418.549 241.528Z" fill="black"/>
</mask>
<g mask="url(#mask7_307_12490)">
<path d="M403.658 238.575L399.415 246.642L399.475 246.673L399.535 246.704L403.658 238.575ZM393.951 229.45L386.071 234.031L386.09 234.064L386.109 234.097L393.951 229.45ZM393.642 202.432L385.804 197.778L385.78 197.82L393.642 202.432ZM403.476 192.589L398.854 184.732L398.823 184.751L398.792 184.769L403.476 192.589ZM434.094 194.088L428.2 201.041L428.231 201.068L428.262 201.094L434.094 194.088ZM443.378 210.099L446.57 218.637L454.137 215.809L452.238 207.957L443.378 210.099ZM403.326 225.07L394.948 228.663L398.375 236.652L406.518 233.609L403.326 225.07ZM400.308 218.033L397.018 209.531L388.207 212.942L391.93 221.624L400.308 218.033ZM432.363 205.628L437.35 213.259L429.074 197.127L432.363 205.628ZM429.913 207.229L421.496 210.728L425.71 220.866L434.9 214.859L429.913 207.229ZM425.254 200.943L419.238 207.791L419.311 207.854L419.385 207.917L425.254 200.943ZM409.126 200.628L414.047 208.302L414.084 208.277L414.121 208.253L409.126 200.628ZM403.935 206.446L395.837 202.261L395.813 202.308L395.789 202.356L403.935 206.446ZM404.476 223.62L396.533 228.093L396.618 228.242L396.708 228.389L404.476 223.62ZM410.305 229.285L405.809 237.213L405.865 237.246L405.923 237.278L410.305 229.285ZM424.543 229.882L420.952 221.506L420.891 221.531L420.832 221.557L424.543 229.882ZM430.038 226.784L437.671 221.8L432.46 213.821L424.72 219.381L430.038 226.784ZM435.827 235.65L440.909 243.218L448.379 238.202L443.46 230.667L435.827 235.65ZM427.397 239.888L430.355 248.51L430.424 248.486L430.492 248.461L427.397 239.888ZM418.323 232.415C413.715 232.529 410.315 231.731 407.781 230.445L399.535 246.704C405.323 249.64 411.849 250.81 418.771 250.64L418.323 232.415ZM407.901 230.507C405.17 229.071 403.206 227.187 401.792 224.802L386.109 234.097C389.313 239.501 393.821 243.7 399.415 246.642L407.901 230.507ZM401.831 224.868C400.379 222.369 399.502 219.348 399.409 215.566L381.184 216.013C381.343 222.497 382.902 228.582 386.071 234.031L401.831 224.868ZM399.409 215.566C399.327 212.271 400.059 209.508 401.505 207.042L385.78 197.82C382.523 203.374 381.024 209.516 381.184 216.013L399.409 215.566ZM401.48 207.085C403.127 204.311 405.314 202.112 408.16 200.409L398.792 184.769C393.382 188.009 389.014 192.372 385.804 197.778L401.48 207.085ZM408.097 200.446C410.898 198.798 414.041 197.891 417.71 197.801L417.261 179.576C410.663 179.739 404.467 181.432 398.854 184.732L408.097 200.446ZM417.71 197.801C422.443 197.685 425.706 198.927 428.2 201.041L439.989 187.135C433.605 181.723 425.795 179.367 417.261 179.576L417.71 197.801ZM428.262 201.094C430.98 203.356 433.208 206.823 434.518 212.241L452.238 207.957C450.205 199.549 446.245 192.342 439.927 187.083L428.262 201.094ZM440.187 201.561L400.135 216.532L406.518 233.609L446.57 218.637L440.187 201.561ZM411.703 221.478L408.686 214.44L391.93 221.624L394.948 228.663L411.703 221.478ZM403.598 226.533L435.653 214.129L429.074 197.127L397.018 209.531L403.598 226.533ZM427.376 197.998L424.926 199.599L434.9 214.859L437.35 213.259L427.376 197.998ZM438.331 203.731C436.738 199.901 434.286 196.631 431.125 193.97L419.385 207.917C420.419 208.787 421.072 209.709 421.496 210.728L438.331 203.731ZM431.271 194.095C427.018 190.36 421.748 189.067 416.549 189.195L416.998 207.42C417.975 207.395 418.556 207.513 418.853 207.605C419.119 207.687 419.205 207.762 419.238 207.791L431.271 194.095ZM416.549 189.195C412.105 189.304 407.885 190.544 404.13 193.004L414.121 208.253C414.877 207.758 415.755 207.45 416.998 207.42L416.549 189.195ZM404.205 192.956C400.574 195.284 397.794 198.475 395.837 202.261L412.032 210.631C412.641 209.455 413.322 208.766 414.047 208.302L404.205 192.956ZM395.789 202.356C393.787 206.341 393.025 210.7 393.134 215.127L411.359 214.679C411.309 212.631 411.672 211.351 412.081 210.536L395.789 202.356ZM393.134 215.127C393.246 219.696 394.288 224.107 396.533 228.093L412.418 219.147C411.854 218.144 411.409 216.744 411.359 214.679L393.134 215.127ZM396.708 228.389C398.975 232.081 402.03 235.071 405.809 237.213L414.8 221.356C413.771 220.771 412.94 219.985 412.243 218.85L396.708 228.389ZM405.923 237.278C409.901 239.458 414.247 240.438 418.755 240.328L418.307 222.103C416.813 222.14 415.675 221.833 414.686 221.292L405.923 237.278ZM418.755 240.328C422.043 240.247 425.237 239.554 428.255 238.208L420.832 221.557C420.097 221.885 419.283 222.08 418.307 222.103L418.755 240.328ZM428.136 238.26C430.693 237.164 433.104 235.805 435.357 234.187L424.72 219.381C423.556 220.218 422.304 220.925 420.952 221.506L428.136 238.26ZM422.406 231.768L428.195 240.634L443.46 230.667L437.671 221.8L422.406 231.768ZM430.747 228.083C428.83 229.369 426.693 230.451 424.303 231.313L430.492 248.461C434.212 247.119 437.694 245.377 440.909 243.218L430.747 228.083ZM424.439 231.266C422.275 232.008 420.246 232.368 418.323 232.415L418.771 250.64C422.694 250.544 426.564 249.81 430.355 248.51L424.439 231.266Z" fill="black"/>
</g>
<path d="M479.116 246.175C475.495 245.875 472.044 244.955 468.762 243.417C465.487 241.798 462.852 239.638 460.855 236.937L466.618 230.517C468.58 232.661 470.582 234.332 472.624 235.531C474.75 236.658 476.797 237.303 478.766 237.465C480.34 237.595 481.771 237.555 483.057 237.345C484.349 237.055 485.424 236.509 486.283 235.709C487.142 234.908 487.63 233.799 487.747 232.381C487.883 230.729 487.44 229.384 486.415 228.348C485.392 227.312 484.039 226.408 482.359 225.634C480.679 224.862 478.877 224.118 476.955 223.404C472.893 221.722 469.9 219.571 467.976 216.955C466.058 214.26 465.239 211.221 465.518 207.835C465.733 205.237 466.565 202.848 468.013 200.669C469.547 198.418 471.714 196.655 474.514 195.38C477.315 194.105 480.683 193.631 484.619 193.956C488.241 194.255 491.394 194.952 494.078 196.045C496.768 197.06 499.214 198.65 501.413 200.813L496.084 207.745C494.784 206.21 493.179 205.008 491.269 204.136C489.445 203.193 487.748 202.617 486.18 202.408C484.764 202.291 483.445 202.42 482.225 202.795C481.012 203.09 480.015 203.643 479.234 204.45C478.461 205.179 478.029 206.094 477.937 207.196C477.729 208.765 478.133 210.105 479.151 211.221C480.254 212.263 481.684 213.173 483.443 213.953C485.209 214.654 486.931 215.391 488.612 216.163C490.994 217.074 493.077 218.236 494.863 219.653C496.654 220.989 498.03 222.57 498.989 224.392C499.948 226.216 500.317 228.466 500.096 231.143C499.855 234.055 498.92 236.752 497.287 239.233C495.662 241.636 493.328 243.504 490.285 244.838C487.249 246.093 483.525 246.538 479.116 246.175Z" fill="#341F97"/>
<mask id="mask8_307_12490" style="mask-type:luminance" maskUnits="userSpaceOnUse" x="445" y="178" width="71" height="84">
<path d="M515.226 178.811H445.256V261.28H515.226V178.811Z" fill="white"/>
<path d="M479.116 246.175C475.495 245.875 472.044 244.956 468.762 243.418C465.487 241.799 462.852 239.639 460.855 236.938L466.618 230.517C468.58 232.662 470.582 234.334 472.624 235.533C474.75 236.659 476.797 237.304 478.766 237.467C480.34 237.597 481.771 237.556 483.057 237.345C484.349 237.055 485.424 236.511 486.283 235.71C487.142 234.909 487.63 233.8 487.747 232.382C487.883 230.729 487.44 229.384 486.415 228.349C485.392 227.313 484.039 226.409 482.359 225.636C480.679 224.863 478.877 224.119 476.955 223.406C472.893 221.723 469.9 219.573 467.976 216.956C466.058 214.262 465.239 211.222 465.518 207.836C465.733 205.238 466.565 202.849 468.013 200.67C469.547 198.419 471.714 196.656 474.514 195.382C477.315 194.106 480.683 193.632 484.619 193.957C488.241 194.256 491.394 194.953 494.078 196.046C496.768 197.061 499.214 198.651 501.413 200.814L496.084 207.746C494.784 206.211 493.179 205.009 491.269 204.137C489.445 203.194 487.748 202.618 486.18 202.409C484.764 202.292 483.445 202.421 482.225 202.795C481.012 203.092 480.015 203.644 479.234 204.451C478.461 205.18 478.029 206.096 477.937 207.198C477.729 208.765 478.133 210.107 479.151 211.222C480.254 212.264 481.684 213.174 483.443 213.953C485.209 214.655 486.931 215.391 488.612 216.165C490.994 217.075 493.077 218.237 494.863 219.654C496.654 220.991 498.03 222.571 498.989 224.394C499.948 226.217 500.317 228.467 500.096 231.143C499.855 234.057 498.92 236.754 497.287 239.234C495.662 241.637 493.328 243.505 490.285 244.839C487.249 246.094 483.525 246.539 479.116 246.175Z" fill="black"/>
</mask>
<g mask="url(#mask8_307_12490)">
<path d="M468.762 243.417L464.724 251.588L464.807 251.629L464.891 251.669L468.762 243.417ZM460.855 236.937L454.071 230.849L449.109 236.378L453.525 242.354L460.855 236.937ZM466.618 230.517L473.34 224.361L466.55 216.946L459.833 224.428L466.618 230.517ZM472.624 235.532L468.007 243.391L468.179 243.492L468.356 243.585L472.624 235.532ZM483.057 237.345L484.531 246.34L484.792 246.297L485.049 246.239L483.057 237.345ZM476.955 223.405L473.466 231.825L473.623 231.891L473.782 231.95L476.955 223.405ZM467.976 216.956L460.549 222.24L460.59 222.298L460.632 222.356L467.976 216.956ZM468.014 200.669L460.48 195.538L460.45 195.581L460.422 195.624L468.014 200.669ZM494.078 196.046L490.639 204.487L490.75 204.533L490.861 204.575L494.078 196.046ZM501.413 200.814L508.64 206.369L513.557 199.972L507.806 194.315L501.413 200.814ZM496.084 207.745L489.13 213.638L496.429 222.251L503.311 213.3L496.084 207.745ZM491.269 204.136L487.083 212.234L487.282 212.337L487.486 212.43L491.269 204.136ZM486.181 202.408L487.384 193.373L487.158 193.343L486.931 193.324L486.181 202.408ZM482.225 202.795L484.385 211.651L484.646 211.587L484.902 211.508L482.225 202.795ZM479.234 204.451L485.485 211.085L485.641 210.938L485.791 210.784L479.234 204.451ZM477.937 207.197L486.973 208.4L487.003 208.174L487.022 207.948L477.937 207.197ZM479.151 211.221L472.419 217.367L472.646 217.615L472.89 217.845L479.151 211.221ZM483.443 213.953L479.75 222.287L479.914 222.359L480.08 222.425L483.443 213.953ZM488.612 216.164L484.801 224.444L485.075 224.571L485.358 224.678L488.612 216.164ZM494.863 219.653L489.199 226.795L489.304 226.878L489.412 226.958L494.863 219.653ZM497.287 239.234L504.837 244.342L504.871 244.292L504.903 244.243L497.287 239.234ZM490.285 244.838L493.767 253.262L493.856 253.225L493.945 253.186L490.285 244.838ZM479.867 237.091C477.324 236.88 474.93 236.242 472.633 235.164L464.891 251.669C469.157 253.67 473.666 254.87 478.366 255.258L479.867 237.091ZM472.8 235.245C470.711 234.212 469.246 232.954 468.186 231.52L453.525 242.354C456.457 246.323 460.264 249.385 464.724 251.588L472.8 235.245ZM467.639 243.025L473.401 236.605L459.833 224.428L454.071 230.849L467.639 243.025ZM459.895 236.673C462.337 239.34 465.028 241.641 468.007 243.391L477.241 227.672C476.137 227.024 474.825 225.982 473.34 224.361L459.895 236.673ZM468.356 243.585C471.34 245.167 474.58 246.266 478.015 246.55L479.517 228.382C479.016 228.34 478.16 228.149 476.892 227.478L468.356 243.585ZM478.015 246.55C480.181 246.728 482.374 246.693 484.531 246.34L481.581 228.349C481.167 228.417 480.5 228.463 479.517 228.382L478.015 246.55ZM485.049 246.239C487.717 245.642 490.311 244.416 492.5 242.375L480.066 229.042C480.28 228.844 480.505 228.693 480.71 228.589C480.91 228.487 481.042 228.455 481.063 228.45L485.049 246.239ZM492.5 242.375C495.352 239.715 496.569 236.308 496.831 233.132L478.663 231.631C478.673 231.503 478.723 231.122 478.949 230.605C479.187 230.065 479.561 229.513 480.066 229.042L492.5 242.375ZM496.831 233.132C497.153 229.238 496.064 225.142 492.898 221.94L479.934 234.757C479.486 234.304 479.093 233.693 478.861 232.99C478.639 232.319 478.647 231.817 478.663 231.631L496.831 233.132ZM492.898 221.94C490.926 219.945 488.588 218.468 486.169 217.354L478.549 233.915C479.49 234.349 479.857 234.679 479.934 234.757L492.898 221.94ZM486.169 217.354C484.259 216.475 482.243 215.645 480.127 214.859L473.782 231.95C475.513 232.592 477.1 233.248 478.549 233.915L486.169 217.354ZM480.444 214.984C477.393 213.72 475.969 212.438 475.319 211.555L460.632 222.356C463.831 226.705 468.392 229.724 473.466 231.825L480.444 214.984ZM475.403 211.672C474.769 210.781 474.496 209.89 474.603 208.586L456.435 207.085C455.983 212.552 457.348 217.741 460.549 222.24L475.403 211.672ZM474.603 208.586C474.69 207.529 475.006 206.617 475.605 205.715L460.422 195.624C458.125 199.081 456.777 202.946 456.435 207.085L474.603 208.586ZM475.547 205.801C476.024 205.101 476.807 204.352 478.29 203.677L470.738 187.085C466.621 188.958 463.07 191.736 460.48 195.538L475.547 205.801ZM478.29 203.677C479.327 203.204 481.055 202.808 483.869 203.04L485.371 184.872C480.313 184.454 475.302 185.007 470.738 187.085L478.29 203.677ZM483.869 203.04C486.791 203.282 488.999 203.819 490.639 204.487L497.518 187.604C493.79 186.086 489.692 185.229 485.371 184.872L483.869 203.04ZM490.861 204.575C492.279 205.108 493.66 205.973 495.021 207.311L507.806 194.315C504.767 191.327 501.259 189.013 497.296 187.517L490.861 204.575ZM494.186 195.258L488.857 202.19L503.311 213.3L508.64 206.369L494.186 195.258ZM503.039 201.852C500.833 199.249 498.129 197.247 495.053 195.843L487.486 212.43C488.23 212.769 488.736 213.172 489.13 213.638L503.039 201.852ZM495.456 196.04C492.963 194.751 490.252 193.755 487.384 193.373L484.977 211.444C485.246 211.48 485.927 211.636 487.083 212.234L495.456 196.04ZM486.931 193.324C484.49 193.122 481.996 193.329 479.548 194.082L484.902 211.508C484.907 211.507 484.94 211.496 485.015 211.49C485.092 211.481 485.227 211.476 485.43 211.492L486.931 193.324ZM480.064 193.94C477.372 194.597 474.788 195.934 472.679 198.117L485.791 210.784C485.542 211.04 485.263 211.25 484.982 211.405C484.707 211.558 484.491 211.625 484.385 211.651L480.064 193.94ZM472.984 197.815C470.5 200.156 469.122 203.2 468.853 206.447L487.022 207.948C486.986 208.385 486.865 208.958 486.573 209.576C486.278 210.199 485.886 210.707 485.485 211.085L472.984 197.815ZM468.902 205.993C468.357 210.084 469.487 214.156 472.419 217.367L485.882 205.075C486.221 205.445 486.59 206.013 486.812 206.748C487.029 207.47 487.018 208.065 486.973 208.4L468.902 205.993ZM472.89 217.845C474.916 219.761 477.286 221.195 479.75 222.287L487.137 205.62C486.083 205.153 485.591 204.766 485.412 204.596L472.89 217.845ZM480.08 222.425C481.699 223.068 483.273 223.741 484.801 224.444L492.421 207.883C490.59 207.041 488.718 206.241 486.806 205.481L480.08 222.425ZM485.358 224.678C486.974 225.296 488.224 226.021 489.199 226.795L500.526 212.51C497.931 210.453 495.014 208.853 491.865 207.649L485.358 224.678ZM489.412 226.958C490.209 227.553 490.649 228.117 490.922 228.637L507.056 220.149C505.412 217.023 503.101 214.427 500.314 212.347L489.412 226.958ZM490.922 228.637C490.863 228.524 491.133 228.927 491.012 230.393L509.181 231.893C509.502 228.005 509.034 223.908 507.056 220.149L490.922 228.637ZM491.012 230.393C490.899 231.76 490.48 232.997 489.672 234.226L504.903 244.243C507.36 240.509 508.813 236.352 509.181 231.893L491.012 230.393ZM489.738 234.127C489.212 234.903 488.327 235.744 486.626 236.49L493.945 253.186C498.329 251.265 502.113 248.368 504.837 244.342L489.738 234.127ZM486.803 236.414C485.486 236.958 483.31 237.375 479.867 237.091L478.366 255.258C483.742 255.703 489.01 255.228 493.767 253.262L486.803 236.414Z" fill="black"/>
</g>
<path d="M537.246 182.165L549.279 184.226L545.573 205.833L558.654 208.076L557.031 217.536L543.951 215.293L537.205 254.653L525.175 252.591L531.923 213.231L523.28 211.75L524.901 202.29L533.546 203.771L537.246 182.165Z" fill="#10AC84"/>
<mask id="mask9_307_12490" style="mask-type:luminance" maskUnits="userSpaceOnUse" x="505" y="168" width="70" height="100">
<path d="M574.55 168.582H505.245V267.663H574.55V168.582Z" fill="white"/>
<path d="M537.246 182.165L549.279 184.226L545.573 205.833L558.654 208.076L557.031 217.536L543.951 215.293L537.205 254.653L525.175 252.591L531.924 213.231L523.28 211.75L524.901 202.29L533.546 203.771L537.246 182.165Z" fill="black"/>
</mask>
<g mask="url(#mask9_307_12490)">
<path d="M537.246 182.165L538.787 173.181L529.802 171.64L528.262 180.625L537.246 182.165ZM549.278 184.226L558.261 185.766L559.801 176.782L550.818 175.243L549.278 184.226ZM545.572 205.833L536.589 204.294L535.049 213.277L544.032 214.817L545.572 205.833ZM558.653 208.075L567.641 209.615L569.177 200.631L560.194 199.092L558.653 208.075ZM557.031 217.536L555.495 226.519L564.478 228.06L566.018 219.075L557.031 217.536ZM543.95 215.293L545.49 206.309L536.508 204.769L534.967 213.753L543.95 215.293ZM537.205 254.653L535.664 263.637L544.648 265.177L546.188 256.193L537.205 254.653ZM525.175 252.59L516.19 251.051L514.651 260.035L523.635 261.574L525.175 252.59ZM531.923 213.231L540.906 214.771L542.446 205.787L533.463 204.248L531.923 213.231ZM523.279 211.75L514.295 210.21L512.755 219.194L521.739 220.734L523.279 211.75ZM524.9 202.29L526.44 193.306L517.456 191.766L515.916 200.75L524.9 202.29ZM533.545 203.771L532.005 212.755L540.987 214.295L542.528 205.311L533.545 203.771ZM535.705 191.149L547.738 193.21L550.818 175.243L538.787 173.181L535.705 191.149ZM540.295 182.687L536.589 204.294L554.556 207.373L558.261 185.766L540.295 182.687ZM544.032 214.817L557.113 217.06L560.194 199.092L547.113 196.849L544.032 214.817ZM549.67 206.535L548.047 215.996L566.018 219.075L567.641 209.615L549.67 206.535ZM558.571 208.552L545.49 206.309L542.41 224.278L555.495 226.519L558.571 208.552ZM534.967 213.753L528.22 253.112L546.188 256.193L552.938 216.834L534.967 213.753ZM538.745 245.668L526.715 243.606L523.635 261.574L535.664 263.637L538.745 245.668ZM534.16 254.131L540.906 214.771L522.938 211.692L516.19 251.051L534.16 254.131ZM533.463 204.248L524.819 202.766L521.739 220.734L530.382 222.215L533.463 204.248ZM532.264 213.29L533.887 203.83L515.916 200.75L514.295 210.21L532.264 213.29ZM523.36 211.274L532.005 212.755L535.086 194.788L526.44 193.306L523.36 211.274ZM542.528 205.311L546.234 183.704L528.262 180.625L524.559 202.232L542.528 205.311Z" fill="black"/>
</g>
<path d="M578.57 213.987L590.411 216.945L578.378 265.115L566.538 262.158L578.57 213.987ZM582.189 196.571C582.649 194.731 583.761 193.381 585.52 192.517C587.284 191.655 589.007 191.435 590.693 191.855C592.457 192.296 593.874 193.302 594.95 194.872C596.021 196.443 596.331 198.149 595.87 199.988C595.41 201.828 594.34 203.188 592.653 204.069C590.984 204.875 589.271 205.056 587.508 204.616C585.821 204.196 584.395 203.228 583.223 201.714C582.075 200.125 581.728 198.41 582.189 196.571Z" fill="#FF9F43"/>
<mask id="mask10_307_12490" style="mask-type:luminance" maskUnits="userSpaceOnUse" x="550" y="174" width="60" height="103">
<path d="M609.394 174.773H550.824V276.464H609.394V174.773Z" fill="white"/>
<path d="M578.572 213.989L590.412 216.946L578.38 265.116L566.54 262.159L578.572 213.989ZM582.19 196.572C582.651 194.732 583.763 193.381 585.522 192.519C587.286 191.656 589.009 191.436 590.695 191.857C592.459 192.297 593.877 193.303 594.952 194.874C596.023 196.444 596.333 198.15 595.873 199.989C595.413 201.828 594.341 203.188 592.655 204.071C590.987 204.875 589.273 205.058 587.509 204.617C585.823 204.197 584.396 203.23 583.225 201.716C582.076 200.126 581.73 198.411 582.19 196.572Z" fill="black"/>
</mask>
<g mask="url(#mask10_307_12490)">
<path d="M578.571 213.988L580.782 205.144L571.94 202.935L569.73 211.779L578.571 213.988ZM590.412 216.946L599.258 219.155L601.464 210.312L592.623 208.103L590.412 216.946ZM578.38 265.116L576.173 273.959L585.016 276.168L587.226 267.325L578.38 265.116ZM566.539 262.158L557.697 259.949L555.486 268.792L564.329 271.001L566.539 262.158ZM592.654 204.07L596.619 212.277L596.747 212.215L596.879 212.148L592.654 204.07ZM583.224 201.715L575.841 207.057L575.923 207.173L576.01 207.287L583.224 201.715ZM576.365 222.831L588.206 225.789L592.623 208.103L580.782 205.144L576.365 222.831ZM581.57 214.737L569.538 262.907L587.226 267.325L599.258 219.155L581.57 214.737ZM580.59 256.272L568.75 253.314L564.329 271.001L576.173 273.959L580.59 256.272ZM575.381 264.367L587.418 216.197L569.73 211.779L557.697 259.949L575.381 264.367ZM591.032 198.78C590.963 199.061 590.781 199.513 590.407 199.968C590.039 200.416 589.678 200.633 589.528 200.706L581.516 184.331C577.436 186.328 574.483 189.811 573.348 194.362L591.032 198.78ZM589.528 200.706C589.628 200.657 589.541 200.716 589.295 200.747C589.036 200.781 588.744 200.764 588.488 200.7L592.905 183.013C588.867 182.004 584.943 182.653 581.516 184.331L589.528 200.706ZM588.488 200.7C588.32 200.658 588.065 200.558 587.809 200.376C587.559 200.198 587.44 200.038 587.422 200.015L602.476 189.731C600.211 186.412 596.943 184.022 592.905 183.013L588.488 200.7ZM587.422 200.015C587.308 199.845 587.112 199.476 587.016 198.945C586.921 198.413 586.975 197.992 587.025 197.779L604.714 202.197C605.808 197.822 605.015 193.443 602.476 189.731L587.422 200.015ZM587.025 197.779C587.08 197.567 587.231 197.17 587.564 196.745C587.896 196.321 588.247 196.088 588.43 195.993L596.879 212.148C600.863 210.063 603.62 206.573 604.714 202.197L587.025 197.779ZM588.689 195.862C588.73 195.843 588.894 195.774 589.154 195.746C589.414 195.719 589.619 195.749 589.719 195.774L585.298 213.461C589.173 214.428 593.069 213.991 596.619 212.277L588.689 195.862ZM589.719 195.774C589.901 195.82 590.107 195.91 590.284 196.029C590.453 196.144 590.499 196.217 590.439 196.143L576.01 207.287C578.302 210.25 581.424 212.492 585.298 213.461L589.719 195.774ZM590.612 196.374C590.708 196.506 590.927 196.869 591.04 197.437C591.154 198.016 591.105 198.499 591.032 198.78L573.348 194.362C572.209 198.913 573.18 203.375 575.841 207.057L590.612 196.374Z" fill="black"/>
</g>
<path d="M628.604 229.082L626.18 240.247L626.193 238.635C628.85 235.749 632.155 233.816 636.115 232.834C640.098 231.779 644.347 231.967 648.863 233.401C653.306 234.811 656.543 237.288 658.566 240.832C660.667 244.4 661.082 248.304 659.82 252.544L648.704 287.556L637.072 283.863L646.894 252.917C647.587 250.484 647.491 248.299 646.616 246.363C645.759 244.351 643.918 242.854 641.079 241.87C638.517 241.057 635.933 241.106 633.321 242.019C630.737 242.855 628.421 244.4 626.38 246.653C624.338 248.906 622.77 251.763 621.672 255.227L614.822 276.798L603.186 273.105L618.212 225.784L628.604 229.082Z" fill="#EE5253"/>
<mask id="mask11_307_12490" style="mask-type:luminance" maskUnits="userSpaceOnUse" x="591" y="209" width="88" height="91">
<path d="M678.731 209.458H591.505V299.647H678.731V209.458Z" fill="white"/>
<path d="M628.604 229.081L626.18 240.246L626.193 238.634C628.85 235.748 632.155 233.814 636.115 232.834C640.098 231.777 644.347 231.965 648.863 233.4C653.306 234.81 656.543 237.288 658.566 240.831C660.667 244.399 661.082 248.303 659.82 252.543L648.704 287.555L637.072 283.862L646.894 252.916C647.587 250.482 647.491 248.298 646.616 246.361C645.759 244.35 643.918 242.853 641.079 241.869C638.517 241.056 635.933 241.106 633.321 242.017C630.737 242.854 628.421 244.399 626.38 246.651C624.338 248.905 622.77 251.762 621.672 255.226L614.822 276.798L603.186 273.104L618.212 225.782L628.604 229.081Z" fill="black"/>
</mask>
<g mask="url(#mask11_307_12490)">
<path d="M628.604 229.081L637.51 231.017L639.274 222.906L631.362 220.394L628.604 229.081ZM626.18 240.247L617.065 240.165L635.086 242.181L626.18 240.247ZM626.194 238.635L619.484 232.462L617.11 235.043L617.078 238.553L626.194 238.635ZM636.115 232.834L638.308 241.681L638.381 241.664L638.454 241.644L636.115 232.834ZM658.566 240.831L650.65 245.353L650.681 245.404L650.709 245.456L658.566 240.831ZM659.82 252.543L668.507 255.302L668.534 255.224L668.557 255.146L659.82 252.543ZM648.704 287.555L645.946 296.243L654.634 299.001L657.391 290.314L648.704 287.555ZM637.073 283.862L628.381 281.103L625.624 289.792L634.311 292.549L637.073 283.862ZM646.894 252.916L655.586 255.675L655.627 255.539L655.668 255.402L646.894 252.916ZM646.616 246.362L638.226 249.922L638.267 250.024L638.313 250.123L646.616 246.362ZM641.079 241.87L644.064 233.257L643.95 233.218L643.836 233.181L641.079 241.87ZM633.322 242.018L636.13 250.691L636.229 250.658L636.33 250.624L633.322 242.018ZM614.822 276.798L612.065 285.486L620.752 288.244L623.509 279.556L614.822 276.798ZM603.186 273.105L594.5 270.347L591.742 279.034L600.429 281.793L603.186 273.105ZM618.213 225.783L620.971 217.095L612.283 214.336L609.526 223.025L618.213 225.783ZM619.694 227.146L617.269 238.312L635.086 242.181L637.51 231.017L619.694 227.146ZM635.29 240.328L635.309 238.716L617.078 238.553L617.065 240.165L635.29 240.328ZM632.898 244.808C634.297 243.29 636.011 242.25 638.308 241.681L633.923 223.987C628.304 225.38 623.405 228.207 619.484 232.462L632.898 244.808ZM638.454 241.644C640.519 241.096 642.988 241.098 646.106 242.088L651.625 224.713C645.71 222.835 639.675 222.459 633.777 224.024L638.454 241.644ZM646.106 242.088C648.699 242.912 649.925 244.08 650.65 245.353L666.478 236.31C663.161 230.496 657.915 226.71 651.625 224.713L646.106 242.088ZM650.709 245.456C651.429 246.678 651.68 247.94 651.083 249.941L668.557 255.146C670.485 248.667 669.901 242.12 666.42 236.208L650.709 245.456ZM651.133 249.786L640.017 284.797L657.391 290.314L668.507 255.302L651.133 249.786ZM651.461 278.867L639.83 275.174L634.311 292.549L645.946 296.243L651.461 278.867ZM645.759 286.621L655.586 255.675L638.207 250.158L628.381 281.103L645.759 286.621ZM655.668 255.402C656.826 251.308 656.849 246.856 654.916 242.601L638.313 250.123C638.289 250.073 638.267 250.013 638.253 249.951C638.24 249.89 638.235 249.851 638.235 249.844C638.235 249.827 638.248 250.006 638.126 250.431L655.668 255.402ZM655.007 242.802C652.815 237.63 648.389 234.757 644.064 233.257L638.094 250.481C638.764 250.714 638.932 250.877 638.846 250.808C638.796 250.768 638.691 250.67 638.563 250.506C638.435 250.339 638.317 250.141 638.226 249.922L655.007 242.802ZM643.836 233.181C639.338 231.753 634.73 231.871 630.318 233.413L636.33 250.624C637.136 250.341 637.697 250.36 638.321 250.557L643.836 233.181ZM630.519 233.345C626.243 234.728 622.612 237.24 619.626 240.531L633.135 252.772C634.238 251.559 635.232 250.98 636.13 250.691L630.519 233.345ZM619.626 240.531C616.554 243.924 614.403 247.998 612.981 252.468L630.359 257.985C631.139 255.528 632.128 253.886 633.135 252.772L619.626 240.531ZM612.981 252.468L606.136 274.04L623.509 279.556L630.359 257.985L612.981 252.468ZM617.58 268.11L605.949 264.417L600.429 281.793L612.065 285.486L617.58 268.11ZM611.878 275.862L626.9 228.541L609.526 223.025L594.5 270.347L611.878 275.862ZM615.456 234.47L625.847 237.769L631.362 220.394L620.971 217.095L615.456 234.47Z" fill="black"/>
</g>
<path d="M677.568 330.32C674.035 328.732 671.151 326.958 668.913 324.999C666.68 323.04 664.838 320.87 663.398 318.489C661.995 316.213 660.714 313.861 659.556 311.434L669.596 306.726C670.891 309.82 672.449 312.514 674.277 314.808C676.073 317.174 678.557 319.071 681.724 320.497C684.897 321.922 687.841 322.597 690.557 322.521C693.319 322.55 695.73 321.902 697.799 320.581C699.869 319.258 701.482 317.3 702.649 314.706L708.059 302.976L707.84 305.477C705.287 307.88 701.883 309.381 697.631 309.98C693.411 310.506 688.884 309.684 684.057 307.513C679.951 305.666 676.602 302.903 674.013 299.227C671.493 295.581 669.998 291.488 669.528 286.946C669.063 282.404 669.847 277.864 671.889 273.324C674.026 268.569 676.989 264.877 680.772 262.247C684.655 259.578 688.871 258.008 693.411 257.54C697.986 256.998 702.329 257.651 706.436 259.498C710.469 261.313 713.714 263.726 716.171 266.737C718.659 269.675 720.182 272.655 720.728 275.672L719.252 277.218L724.038 269.756L734.306 274.373L713.842 319.87C711.96 324.048 709.157 327.293 705.433 329.602C701.751 332.016 697.525 333.321 692.758 333.516C687.964 333.783 682.895 332.717 677.568 330.32ZM683.274 278.055C682.012 280.866 681.511 283.714 681.77 286.604C682.029 289.492 682.968 292.124 684.582 294.497C686.305 296.831 688.575 298.629 691.382 299.894C693.903 301.028 696.368 301.617 698.775 301.659C701.213 301.629 703.455 301.167 705.506 300.269C707.662 299.332 709.531 297.965 711.121 296.168L715.346 286.766C715.638 284.385 715.387 282.15 714.594 280.061C713.838 277.9 712.644 275.933 711.012 274.161C709.385 272.389 707.348 270.953 704.896 269.851C702.088 268.587 699.235 268.085 696.35 268.345C693.565 268.565 691.022 269.499 688.721 271.15C686.418 272.8 684.605 275.101 683.274 278.055Z" fill="#F368E0"/>
<mask id="mask12_307_12490" style="mask-type:luminance" maskUnits="userSpaceOnUse" x="637" y="233" width="113" height="125">
<path d="M749.663 233.977H637.87V357.202H749.663V233.977Z" fill="white"/>
<path d="M677.568 330.32C674.035 328.732 671.151 326.958 668.913 324.999C666.68 323.04 664.838 320.87 663.398 318.489C661.995 316.213 660.714 313.861 659.556 311.434L669.596 306.726C670.891 309.82 672.449 312.514 674.277 314.808C676.073 317.174 678.557 319.071 681.724 320.497C684.897 321.922 687.841 322.597 690.557 322.521C693.319 322.55 695.73 321.902 697.799 320.581C699.869 319.258 701.482 317.3 702.649 314.706L708.059 302.976L707.84 305.477C705.287 307.88 701.883 309.381 697.631 309.98C693.411 310.506 688.884 309.684 684.057 307.513C679.951 305.666 676.602 302.903 674.013 299.227C671.493 295.581 669.998 291.488 669.528 286.946C669.063 282.404 669.847 277.864 671.889 273.324C674.026 268.569 676.989 264.877 680.772 262.247C684.655 259.578 688.871 258.008 693.411 257.54C697.986 256.998 702.329 257.651 706.436 259.498C710.469 261.313 713.714 263.726 716.171 266.737C718.659 269.675 720.182 272.655 720.728 275.672L719.252 277.218L724.038 269.756L734.306 274.373L713.842 319.87C711.96 324.048 709.157 327.293 705.433 329.602C701.751 332.016 697.525 333.321 692.758 333.516C687.964 333.783 682.895 332.717 677.568 330.32ZM683.274 278.055C682.012 280.866 681.511 283.714 681.77 286.604C682.029 289.492 682.968 292.124 684.582 294.497C686.305 296.831 688.575 298.629 691.382 299.894C693.903 301.028 696.368 301.617 698.775 301.659C701.213 301.629 703.455 301.167 705.506 300.269C707.662 299.332 709.531 297.965 711.121 296.168L715.346 286.766C715.638 284.385 715.387 282.15 714.594 280.061C713.838 277.9 712.644 275.933 711.012 274.161C709.385 272.389 707.348 270.953 704.896 269.851C702.088 268.587 699.235 268.085 696.35 268.345C693.565 268.565 691.022 269.499 688.721 271.15C686.418 272.8 684.605 275.101 683.274 278.055Z" fill="black"/>
</mask>
<g mask="url(#mask12_307_12490)">
<path d="M663.396 318.489L671.194 313.768L671.177 313.739L671.158 313.71L663.396 318.489ZM659.554 311.434L655.685 303.18L647.367 307.078L651.328 315.364L659.554 311.434ZM669.595 306.726L678.008 303.21L674.339 294.437L665.725 298.472L669.595 306.726ZM674.275 314.808L681.541 309.3L681.476 309.215L681.408 309.13L674.275 314.808ZM690.556 322.521L690.651 313.406L690.478 313.405L690.3 313.409L690.556 322.521ZM702.647 314.706L694.37 310.891L694.352 310.929L694.334 310.967L702.647 314.706ZM708.057 302.976L717.136 303.759L699.776 299.16L708.057 302.976ZM707.838 305.477L714.087 312.115L716.62 309.729L716.921 306.26L707.838 305.477ZM697.628 309.98L698.754 319.024L698.827 319.015L698.896 319.005L697.628 309.98ZM674.011 299.226L666.509 304.407L666.532 304.442L666.56 304.475L674.011 299.226ZM680.77 262.247L675.607 254.734L675.566 254.763L680.77 262.247ZM693.409 257.54L694.347 266.606L694.416 266.599L694.479 266.591L693.409 257.54ZM716.169 266.737L709.109 272.499L709.16 272.565L709.214 272.629L716.169 266.737ZM720.727 275.672L727.322 281.966L730.522 278.609L729.697 274.044L720.727 275.672ZM719.25 277.217L711.58 272.297L725.845 283.511L719.25 277.217ZM724.036 269.756L727.778 261.443L720.609 258.218L716.365 264.835L724.036 269.756ZM734.304 274.373L742.618 278.112L746.354 269.799L738.042 266.061L734.304 274.373ZM705.431 329.602L700.628 321.855L700.532 321.915L700.436 321.978L705.431 329.602ZM692.757 333.516L692.383 324.408L692.319 324.41L692.251 324.414L692.757 333.516ZM684.581 294.497L677.051 299.631L677.147 299.771L677.247 299.909L684.581 294.497ZM698.773 301.659L698.609 310.772L698.745 310.775L698.882 310.773L698.773 301.659ZM705.504 300.269L701.867 291.91L701.849 291.919L705.504 300.269ZM711.12 296.167L717.947 302.202L718.863 301.167L719.428 299.906L711.12 296.167ZM715.344 286.766L723.658 290.505L724.227 289.244L724.396 287.873L715.344 286.766ZM714.592 280.061L705.996 283.086L706.033 283.191L706.074 283.295L714.592 280.061ZM696.348 268.345L697.063 277.431L697.114 277.427L697.164 277.423L696.348 268.345ZM681.303 322.007C678.363 320.684 676.308 319.358 674.918 318.141L662.908 331.856C665.995 334.558 669.704 336.779 673.824 338.632L681.303 322.007ZM674.918 318.141C673.336 316.756 672.12 315.296 671.194 313.768L655.598 323.209C657.554 326.443 660.014 329.323 662.908 331.856L674.918 318.141ZM671.158 313.71C669.927 311.71 668.797 309.641 667.776 307.503L651.328 315.364C652.626 318.081 654.062 320.715 655.635 323.268L671.158 313.71ZM663.419 319.686L673.465 314.979L665.725 298.472L655.685 303.18L663.419 319.686ZM661.186 310.242C662.758 314.003 664.727 317.446 667.147 320.486L681.408 309.13C680.173 307.581 679.02 305.637 678.008 303.21L661.186 310.242ZM667.015 320.315C669.873 324.088 673.66 326.865 677.985 328.809L685.46 312.183C683.445 311.275 682.265 310.26 681.541 309.3L667.015 320.315ZM677.985 328.809C682.069 330.647 686.39 331.756 690.811 331.632L690.3 313.409C689.284 313.437 687.716 313.197 685.46 312.183L677.985 328.809ZM690.464 331.635C694.767 331.68 698.969 330.652 702.711 328.259L692.884 312.901C692.493 313.153 691.864 313.419 690.651 313.406L690.464 331.635ZM702.711 328.259C706.493 325.837 709.187 322.392 710.96 318.445L694.334 310.967C693.778 312.208 693.235 312.678 692.884 312.901L702.711 328.259ZM710.928 318.522L716.334 306.79L699.776 299.16L694.37 310.891L710.928 318.522ZM698.973 302.192L698.759 304.695L716.921 306.26L717.136 303.759L698.973 302.192ZM701.594 298.84C700.696 299.684 699.174 300.557 696.357 300.954L698.896 319.005C704.593 318.205 709.876 316.075 714.087 312.115L701.594 298.84ZM696.498 300.935C694.298 301.209 691.467 300.852 687.793 299.2L680.314 315.825C686.298 318.516 692.515 319.803 698.754 319.024L696.498 300.935ZM687.793 299.2C685.178 298.022 683.108 296.317 681.463 293.977L666.56 304.475C670.092 309.489 674.722 313.309 680.314 315.825L687.793 299.2ZM681.509 294.044C679.891 291.701 678.911 289.076 678.596 286.01L660.461 287.882C661.081 293.899 663.091 299.462 666.509 304.407L681.509 294.044ZM678.596 286.01C678.305 283.207 678.756 280.274 680.2 277.063L663.574 269.585C660.935 275.453 659.814 281.6 660.461 287.882L678.596 286.01ZM680.2 277.063C681.754 273.612 683.719 271.298 685.975 269.73L675.566 254.763C670.255 258.456 666.3 263.527 663.574 269.585L680.2 277.063ZM685.93 269.76C688.6 267.924 691.372 266.913 694.347 266.606L692.474 248.472C686.367 249.103 680.706 251.23 675.607 254.734L685.93 269.76ZM694.479 266.591C697.456 266.24 700.131 266.658 702.692 267.811L710.171 251.186C704.525 248.644 698.518 247.757 692.342 248.487L694.479 266.591ZM702.692 267.811C705.618 269.127 707.661 270.728 709.109 272.499L723.233 260.974C719.765 256.723 715.317 253.5 710.171 251.186L702.692 267.811ZM709.214 272.629C710.933 274.655 711.557 276.209 711.758 277.3L729.697 274.044C728.799 269.099 726.387 264.696 723.124 260.845L709.214 272.629ZM714.132 269.38L712.656 270.925L725.845 283.511L727.322 281.966L714.132 269.38ZM726.926 282.138L731.711 274.677L716.365 264.835L711.58 272.297L726.926 282.138ZM720.298 278.069L730.563 282.686L738.042 266.061L727.778 261.443L720.298 278.069ZM725.991 270.634L705.527 316.131L722.154 323.609L742.618 278.112L725.991 270.634ZM705.527 316.131C704.356 318.734 702.738 320.548 700.628 321.855L710.235 337.348C715.577 334.037 719.565 329.363 722.154 323.609L705.527 316.131ZM700.436 321.978C698.244 323.414 695.647 324.274 692.383 324.408L693.13 342.623C699.402 342.366 705.254 340.618 710.427 337.226L700.436 321.978ZM692.251 324.414C689.193 324.585 685.588 323.934 681.303 322.007L673.824 338.632C680.205 341.501 686.727 342.981 693.267 342.617L692.251 324.414ZM674.959 274.316C673.095 278.462 672.279 282.875 672.689 287.42L690.847 285.787C690.733 284.554 690.92 283.269 691.585 281.795L674.959 274.316ZM672.689 287.42C673.086 291.841 674.549 295.959 677.051 299.631L692.114 289.363C691.38 288.287 690.966 287.144 690.847 285.787L672.689 287.42ZM677.247 299.909C679.959 303.581 683.496 306.341 687.643 308.206L695.117 291.581C693.645 290.917 692.652 290.08 691.918 289.084L677.247 299.909ZM687.643 308.206C691.121 309.772 694.799 310.704 698.609 310.772L698.932 292.545C697.934 292.528 696.681 292.283 695.117 291.581L687.643 308.206ZM698.882 310.773C702.432 310.731 705.892 310.049 709.16 308.619L701.849 291.919C701.015 292.284 699.989 292.529 698.664 292.544L698.882 310.773ZM709.141 308.628C712.542 307.147 715.495 304.977 717.947 302.202L704.288 290.133C703.563 290.953 702.774 291.516 701.867 291.91L709.141 308.628ZM719.428 299.906L723.658 290.505L707.031 283.026L702.806 292.428L719.428 299.906ZM724.396 287.873C724.852 284.134 724.473 280.399 723.115 276.827L706.074 283.295C706.302 283.9 706.425 284.635 706.297 285.659L724.396 287.873ZM723.192 277.036C722.004 273.652 720.144 270.627 717.724 267.994L704.301 280.329C705.135 281.238 705.664 282.147 705.996 283.086L723.192 277.036ZM717.724 267.994C715.167 265.213 712.076 263.087 708.636 261.538L701.156 278.164C702.61 278.818 703.599 279.566 704.301 280.329L717.724 267.994ZM708.636 261.538C704.488 259.673 700.077 258.857 695.527 259.266L697.164 277.423C698.395 277.312 699.68 277.501 701.156 278.164L708.636 261.538ZM695.628 259.257C691.166 259.61 687.037 261.139 683.404 263.742L694.028 278.557C694.999 277.861 695.961 277.518 697.063 277.431L695.628 259.257ZM683.404 263.742C679.622 266.457 676.851 270.11 674.959 274.316L691.585 281.795C692.351 280.093 693.213 279.143 694.028 278.557L683.404 263.742Z" fill="black"/>
</g>
<path d="M210.968 373.034C209.999 374.267 208.565 375.59 206.666 377.003C204.766 378.415 202.572 379.764 200.084 381.049C197.674 382.319 195.157 383.448 192.532 384.438C189.922 385.505 187.415 386.271 185.01 386.735C178.184 388.052 171.854 388.188 166.02 387.142C160.187 386.096 154.971 384.086 150.374 381.112C145.777 378.137 141.952 374.369 138.899 369.81C135.909 365.157 133.845 359.884 132.707 353.988C131.314 346.776 131.242 340.151 132.491 334.118C133.74 328.083 135.976 322.785 139.198 318.22C142.482 313.563 146.536 309.764 151.358 306.821C156.244 303.786 161.557 301.715 167.297 300.607C172.338 299.633 177.105 299.316 181.596 299.657C186.164 299.981 190.18 300.775 193.642 302.037L191.77 314.226C190.054 313.672 187.957 313.232 185.481 312.906C183.067 312.486 180.612 312.277 178.118 312.276C175.624 312.274 173.368 312.469 171.351 312.858C166.387 313.816 162.069 315.414 158.398 317.651C154.789 319.796 151.851 322.495 149.582 325.749C147.314 329.003 145.778 332.719 144.976 336.897C144.251 341.06 144.36 345.585 145.303 350.471C146.156 354.892 147.718 358.814 149.989 362.238C152.244 365.585 155.03 368.345 158.346 370.521C161.648 372.619 165.38 374.031 169.543 374.756C173.691 375.403 178.131 375.27 182.862 374.357C185.577 373.833 188.2 373.044 190.733 371.993C193.265 370.94 195.365 369.731 197.032 368.363L194.067 353.005L177.778 356.15L175.465 344.166L204.32 338.595L210.968 373.034Z" fill="white"/>
<path d="M248.977 374.44C243.251 375.12 238.218 374.605 233.877 372.893C229.527 371.102 226.022 368.376 223.359 364.715C220.687 360.975 219.048 356.556 218.443 351.457C217.865 346.593 218.559 342.055 220.525 337.844C222.561 333.545 225.517 329.972 229.395 327.125C233.352 324.269 237.88 322.537 242.979 321.931C249.568 321.149 255.248 322.423 260.02 325.754C264.87 329.077 268.45 334.101 270.76 340.827L232.283 359.478L228.621 352.753L259.375 337.406L257.086 339.229C255.856 336.909 254.113 334.968 251.86 333.406C249.596 331.765 246.699 331.155 243.17 331.575C240.345 331.91 237.88 332.918 235.773 334.601C233.735 336.196 232.193 338.288 231.148 340.878C230.172 343.381 229.876 346.24 230.258 349.456C230.649 352.751 231.661 355.575 233.292 357.927C234.993 360.19 237.104 361.889 239.626 363.021C242.225 364.144 245.015 364.529 247.996 364.175C250.114 363.924 252.068 363.293 253.858 362.285C255.726 361.268 257.453 360.068 259.04 358.687L265.632 366.972C263.239 368.927 260.573 370.597 257.634 371.979C254.766 373.275 251.88 374.095 248.977 374.44Z" fill="white"/>
<path d="M279.194 342.101C278.938 337.132 279.891 332.613 282.054 328.546C284.213 324.4 287.324 321.076 291.387 318.572C295.451 316.068 300.165 314.678 305.53 314.4C310.973 314.12 315.805 315.016 320.026 317.093C324.247 319.169 327.565 322.161 329.982 326.07C332.474 329.897 333.848 334.295 334.104 339.265C334.362 344.236 333.45 348.792 331.37 352.933C329.368 357.071 326.378 360.429 322.398 363.008C318.413 365.507 313.66 366.9 308.137 367.185C302.851 367.458 298.062 366.638 293.771 364.723C289.558 362.806 286.128 359.937 283.479 356.119C280.904 352.218 279.475 347.545 279.194 342.101ZM291.509 341.584C291.667 344.661 292.482 347.427 293.954 349.882C295.421 352.259 297.338 354.137 299.704 355.518C302.065 356.82 304.665 357.397 307.506 357.251C310.424 357.1 312.991 356.256 315.205 354.717C317.416 353.1 319.09 351.036 320.226 348.525C321.436 345.932 321.963 343.096 321.804 340.02C321.644 336.943 320.831 334.217 319.364 331.84C317.975 329.459 316.098 327.579 313.732 326.199C311.367 324.818 308.726 324.202 305.806 324.352C302.887 324.503 300.322 325.388 298.112 327.005C295.901 328.622 294.191 330.727 292.98 333.321C291.844 335.832 291.353 338.587 291.509 341.584Z" fill="white"/>
<path d="M366.989 387.042C363.118 387.002 359.766 386.531 356.931 385.633C354.096 384.734 351.542 383.482 349.267 381.878C347.072 380.353 344.956 378.712 342.921 376.952L350.237 368.616C352.662 370.933 355.17 372.776 357.764 374.146C360.355 375.596 363.389 376.339 366.865 376.375C370.34 376.413 373.31 375.852 375.77 374.693C378.31 373.613 380.262 372.055 381.626 370.014C382.991 367.975 383.689 365.533 383.719 362.689L383.974 349.776L384.779 352.154C383.401 355.379 380.884 358.117 377.226 360.37C373.569 362.543 369.093 363.602 363.801 363.546C359.298 363.498 355.123 362.308 351.277 359.976C347.51 357.645 344.501 354.493 342.252 350.519C340.003 346.545 338.905 342.069 338.958 337.093C339.013 331.879 340.246 327.311 342.658 323.386C345.149 319.383 348.382 316.257 352.357 314.009C356.331 311.68 360.57 310.541 365.073 310.588C369.497 310.634 373.437 311.546 376.895 313.32C380.352 315.015 382.937 317.137 384.648 319.683L383.916 321.69L385.312 312.935L396.569 313.055L396.041 362.938C395.992 367.52 394.724 371.615 392.237 375.222C389.828 378.91 386.479 381.798 382.191 383.886C377.902 386.052 372.834 387.104 366.989 387.042ZM351.284 336.868C351.252 339.948 351.933 342.761 353.328 345.303C354.724 347.847 356.638 349.881 359.071 351.408C361.583 352.857 364.38 353.597 367.461 353.63C370.226 353.659 372.719 353.211 374.941 352.287C377.164 351.283 379.035 349.96 380.552 348.318C382.151 346.596 383.318 344.593 384.053 342.311L384.163 332.003C383.476 329.704 382.351 327.756 380.787 326.16C379.225 324.484 377.343 323.161 375.141 322.19C372.939 321.218 370.495 320.718 367.81 320.69C364.729 320.657 361.917 321.338 359.374 322.733C356.911 324.05 354.956 325.925 353.508 328.36C352.06 330.793 351.319 333.629 351.284 336.868Z" fill="white"/>
<path d="M426.893 313.183L427.356 327.445L426.861 325.521C428.354 322.591 430.378 320.123 432.931 318.117C435.486 316.112 438.092 314.622 440.753 313.649C443.495 312.603 445.774 312.125 447.588 312.217L446.383 324.259C442.609 323.829 439.259 324.371 436.334 325.883C433.489 327.4 431.207 329.499 429.488 332.18C427.77 334.861 426.83 337.78 426.671 340.936L425.559 362.829L413.488 362.216L416.006 312.63L426.893 313.183Z" fill="white"/>
<path d="M473.55 365.668C468.921 365.12 464.835 363.683 461.291 361.355C457.758 358.949 455.119 355.694 453.377 351.591C451.634 347.486 451.097 342.611 451.764 336.963C452.422 331.392 454.125 326.742 456.873 323.008C459.699 319.286 463.121 316.588 467.137 314.914C471.24 313.172 475.528 312.565 480 313.093C484.707 313.649 488.431 315.123 491.171 317.515C493.999 319.838 496.119 322.435 497.53 325.306L496.483 327.092L498.814 317.463L509.994 318.784L504.168 368.091L492.047 366.66L493.507 354.303L494.454 357.398C494.065 357.989 493.292 358.812 492.133 359.868C490.984 360.846 489.472 361.86 487.597 362.912C485.801 363.972 483.716 364.8 481.338 365.394C479.048 365.919 476.453 366.01 473.55 365.668ZM478.013 356.171C480.602 356.477 482.972 356.28 485.122 355.58C487.274 354.879 489.157 353.749 490.773 352.191C492.389 350.631 493.611 348.707 494.439 346.419L495.648 336.181C495.28 333.91 494.443 331.902 493.138 330.157C491.842 328.333 490.19 326.825 488.183 325.634C486.255 324.451 484.035 323.712 481.525 323.416C478.7 323.082 476.028 323.482 473.507 324.616C470.996 325.671 468.891 327.332 467.191 329.597C465.492 331.863 464.452 334.604 464.072 337.82C463.711 340.879 464.087 343.748 465.203 346.425C466.398 349.112 468.122 351.344 470.379 353.122C472.644 354.821 475.188 355.838 478.013 356.171Z" fill="white"/>
<path d="M548.203 374.204C544.639 373.498 541.38 372.047 538.436 369.852C535.501 367.58 533.336 364.896 531.937 361.799L533.35 358.334L526.484 392.973L514.628 390.623L529.071 317.743L539.416 319.794L538.696 331.972L538.086 328.348C541.038 326.034 544.443 324.293 548.299 323.125C552.232 321.972 556.371 321.824 560.709 322.685C565.281 323.591 569.173 325.49 572.386 328.381C575.599 331.273 577.86 334.901 579.168 339.268C580.476 343.635 580.599 348.492 579.542 353.838C578.498 359.108 576.429 363.449 573.335 366.863C570.336 370.214 566.653 372.545 562.286 373.854C557.934 375.086 553.239 375.202 548.203 374.204ZM547.743 364.328C550.687 364.912 553.54 364.752 556.298 363.849C559.128 362.961 561.521 361.462 563.467 359.351C565.509 357.179 566.83 354.581 567.427 351.559C568.061 348.382 567.874 345.447 566.881 342.752C565.979 339.996 564.46 337.682 562.337 335.811C560.286 333.956 557.83 332.744 554.962 332.176C552.251 331.639 549.748 331.666 547.456 332.259C545.182 332.774 543.135 333.738 541.326 335.151C539.517 336.564 538.063 338.411 536.964 340.689L535.192 349.64C535.214 351.979 535.743 354.178 536.786 356.237C537.826 358.296 539.293 360.036 541.184 361.458C543.081 362.88 545.264 363.837 547.743 364.328Z" fill="white"/>
<path d="M583.43 376.882L609.787 288.663L621.14 292.054L605.772 343.487L606.236 341.523C608.752 338.895 611.943 337.045 615.812 335.973C619.677 334.902 623.879 335.044 628.419 336.401C632.885 337.735 636.162 340.157 638.245 343.665C640.405 347.196 640.893 351.092 639.704 355.354L629.189 390.551L617.494 387.057L626.787 355.948C627.434 353.503 627.302 351.32 626.39 349.399C625.506 347.402 623.634 345.937 620.78 345.002C618.205 344.233 615.621 344.327 613.027 345.283C610.457 346.164 608.159 347.786 606.131 350.149C604.131 352.436 602.622 355.284 601.602 358.689L595.125 380.375L583.43 376.882Z" fill="white"/>
<path d="M634.971 413.351L694.904 359.659L705.077 364.203L645.901 418.233L634.971 413.351ZM656.009 397.052L654.442 341.584L666.993 347.19L667.071 395.244L656.009 397.052Z" fill="white"/>
</g>
</g>
</g>
<defs>
<clipPath id="clip0_307_12490">
<rect width="830" height="419" fill="white" transform="translate(0 -2)"/>
</clipPath>
</defs>
</svg>
