<svg width="822" height="416" viewBox="0 0 822 416" fill="none" xmlns="http://www.w3.org/2000/svg">
<g clip-path="url(#clip0_307_11524)">
<mask id="mask0_307_11524" style="mask-type:luminance" maskUnits="userSpaceOnUse" x="0" y="0" width="822" height="416">
<path d="M822 0H0V416H822V0Z" fill="white"/>
</mask>
<g mask="url(#mask0_307_11524)">
<path fill-rule="evenodd" clip-rule="evenodd" d="M386.66 13.9445C379.917 21.9727 365.155 35.9167 353.853 44.9341C342.2 54.229 329.482 68.0523 324.477 76.864C319.619 85.4081 312.171 97.6186 307.92 104.001C296.383 121.327 257.534 149.173 232.156 158.305C194.84 171.73 177.562 184.266 164.381 207.482C160.58 214.175 164.315 212.227 179.356 199.663C207.44 176.209 219.641 175.383 243.904 195.292C250.434 200.649 256.915 205.034 258.308 205.034C259.702 205.034 260.841 199.158 260.841 191.975C260.841 184.792 262.313 178.916 264.117 178.916C268.941 178.916 306.756 142.095 306.756 137.393C306.756 127.276 343.699 118.889 355.489 126.326C358.69 128.343 354.712 131.523 341.387 137.596C320.151 147.276 303.477 158.367 303.477 162.813C303.477 167.907 310.561 166.366 337.057 155.507C351.016 149.787 363.2 145.865 364.132 146.79C365.059 147.717 364.168 153.195 362.147 158.964C357.195 173.101 360.481 175.109 373.21 165.729C381.015 159.976 388.175 157.874 400.228 157.799C416.604 157.694 416.626 157.711 417.679 169.121C418.259 175.406 419.942 181.782 421.418 183.29C422.897 184.799 432.566 178.402 442.91 169.078C481.456 134.331 507.353 134.103 540.603 168.216C553.476 181.426 555.522 185.053 551.829 188.103C543.748 194.78 522.794 202.144 494.166 208.374L466.104 214.479L431.526 201.267C360.363 174.077 358.52 173.653 338.553 179.917C328.865 182.958 316.323 185.445 310.682 185.445C304.094 185.445 296.573 188.785 289.653 194.785C274.251 208.142 262.618 213.326 233.838 219.667C217.821 223.196 203.662 228.723 195.413 234.672C188.166 239.899 180.14 243.249 177.385 242.194C170.842 239.697 161.731 224.541 151.279 198.766C140.928 173.247 134.103 165.046 125.477 167.773C120.807 169.248 116.55 166.669 109.39 158.024C104.038 151.556 98.4524 146.267 96.9794 146.267C95.5106 146.267 93.385 151.151 92.26 157.117C87.049 184.779 59.5452 211.469 24.226 223.147C11.0252 227.512 8.30304 229.765 8.30304 236.31C8.30304 240.656 10.1496 244.199 12.4027 244.179C23.8718 244.09 53.9894 225.566 74.1202 206.222L96.6747 184.548L100.259 193.937L103.848 203.327L109.728 195.562L115.611 187.799L124.339 210.535C137.169 243.96 155.608 264.111 182.128 273.686C201.809 280.791 260.841 287.317 260.841 282.387C260.841 281.398 252.352 278.178 241.982 275.237C219.893 268.966 195.247 257.809 195.247 254.078C195.247 252.642 200.419 250.503 206.738 249.321C213.058 248.142 221.11 244.1 224.629 240.34C230.368 234.205 232.064 233.931 241.139 237.672C250.759 241.639 252.356 241.08 274.091 226.163C286.651 217.545 297.753 211.306 298.757 212.305C299.761 213.304 298.281 219.601 295.471 226.301C289.8 239.807 288.721 254.006 293.365 254.006C295.022 254.006 298.951 247.026 302.099 238.499C307.602 223.588 322.623 204.194 333.066 198.52C340.606 194.42 367.454 200.381 398.588 213.065C413.921 219.311 436.22 227.401 448.138 231.041C460.056 234.678 475.386 242.07 482.204 247.463C489.023 252.856 496.612 257.271 499.072 257.271C508.622 257.271 502.798 262.776 487.422 268.28C468.42 275.081 441.224 291.62 441.224 296.377C441.224 303.158 454.084 299.27 489.548 281.757C525.427 264.039 537.283 260.67 541.255 267.065C544.597 272.446 555.338 270.761 560.009 264.123C566.309 255.169 584.072 254.042 590.1 262.214C594.764 268.538 594.964 268.476 598.326 259.72C603.432 246.403 613.969 248.067 655.74 268.789C677.442 279.553 701.335 288.717 714.948 291.5C740.524 296.723 746.263 295.593 729.523 288.622C680.213 268.104 606.21 229.66 596.706 219.627L585.824 208.142L564.151 222.912C549.359 232.994 539.088 237.682 531.793 237.682C520.219 237.682 491.46 228.942 488.77 224.607C487.859 223.137 496.933 218.775 508.94 214.913C520.947 211.051 539.363 203.575 549.858 198.302C571.704 187.322 574.777 186.875 582.222 193.581C586.798 197.701 588.559 197.773 593.682 194.048C599.116 190.091 601.595 191.537 618.049 208.243C639.699 230.229 660.754 239.393 705.24 246.187C739.914 251.482 779.034 252.165 779.034 247.477C779.034 245.68 775.945 244.212 772.169 244.212C758.703 244.212 698.422 230.604 683.922 224.29C675.09 220.444 661.214 209.386 649.364 196.757C630.775 176.937 628.672 175.648 614.927 175.579C605.472 175.53 597.387 173.244 592.091 169.121C581.71 161.037 579.392 161.06 570.534 169.343L563.312 176.098L551.271 165.572C526.004 143.489 520.856 117.779 537.779 98.1893C549.563 84.5528 561.366 90.1222 574.052 115.307C583.271 133.607 585.18 135.356 604.334 143.002C618.345 148.595 630.729 156.956 643.691 169.565C654.094 179.686 665.95 189.666 670.036 191.746C676.845 195.207 677.639 194.691 679.465 185.588C680.565 180.123 682.827 175.651 684.497 175.651C689.679 175.651 707.507 185.755 733.144 203.228C764.095 224.322 785.197 234.547 802.549 236.865C822.041 239.468 817.197 234.819 778.266 213.559C739.72 192.513 709.16 167.992 696.501 147.955C689.21 136.417 678.17 127.194 675.825 130.681C675.494 131.174 671.893 137.087 667.826 143.819C658.826 158.719 653.887 159.114 642.132 145.882C637.157 140.283 624.232 129.786 613.409 122.552C602.586 115.32 581.005 97.1285 565.456 82.1268C549.904 67.125 535.234 54.8526 532.856 54.8526C530.478 54.8526 521.712 62.1984 513.378 71.1767C504.962 80.2431 495.395 87.4449 491.863 87.3766C482.109 87.1836 449.735 55.548 436.862 33.6314C414.085 -5.15461 405.518 -8.5141 386.66 13.9445ZM423.327 52.404C425.262 58.9401 429.919 64.6437 435.458 67.2621C440.404 69.5965 445.99 74.3729 447.872 77.8728C449.961 81.7547 454.766 84.2558 460.197 84.2849C465.094 84.314 471.316 85.7276 474.022 87.4324C481.483 92.1299 473.172 98.4023 448.974 106.339C436.829 110.325 421.5 118.899 410.31 127.972C400.116 136.238 390.592 143.002 389.149 143.002C385.374 143.002 378.91 127.7 378.91 118.761C378.91 108.415 386.68 102.78 398.559 104.517C410.517 106.264 410.601 105.706 400.228 93.4361C390.504 81.931 389.808 71.6729 398.031 61.0067C401.33 56.7234 404.974 50.6475 406.125 47.5068C409.693 37.7809 419.86 40.6736 423.327 52.404Z" fill="white"/>
<mask id="mask1_307_11524" style="mask-type:luminance" maskUnits="userSpaceOnUse" x="66" y="133" width="690" height="292">
<path d="M755.576 133.12H66.4243V424.32H755.576V133.12Z" fill="white"/>
</mask>
<g mask="url(#mask1_307_11524)">
<mask id="mask2_307_11524" style="mask-type:luminance" maskUnits="userSpaceOnUse" x="66" y="133" width="690" height="292">
<path d="M755.576 133.12H66.4243V424.32H755.576V133.12Z" fill="white"/>
</mask>
<g mask="url(#mask2_307_11524)">
<path d="M121.312 302.472C121.526 301.176 121.789 299.036 122.099 296.051C122.373 292.997 122.717 289.314 123.133 285.001C123.55 280.688 123.956 276.016 124.353 270.987C124.819 265.92 125.284 260.763 125.746 255.517C126.241 250.162 126.741 244.987 127.246 239.99C127.712 234.923 128.138 230.287 128.521 226.082C128.938 221.769 129.301 218.12 129.612 215.137C129.955 212.045 130.218 209.904 130.4 208.716L133.425 211.051L99.609 229.154C98.1958 229.91 96.6498 230.42 94.9717 230.682C93.3261 230.836 91.7792 230.665 90.3303 230.168C88.8441 229.6 87.7406 228.645 87.0216 227.303L82.706 219.252L93.2007 213.634L93.9388 215.011C94.6579 216.353 95.3022 216.962 95.8734 216.838C96.443 216.715 97.329 216.332 98.5304 215.689L144.006 191.343L134.752 283.007L133.377 281.971L180.337 256.83L186.186 267.742L121.312 302.472Z" fill="#10AC84"/>
<mask id="mask3_307_11524" style="mask-type:luminance" maskUnits="userSpaceOnUse" x="55" y="169" width="152" height="151">
<path d="M206.104 169.78H55.8387V319.95H206.104V169.78Z" fill="white"/>
<path d="M121.312 302.472C121.526 301.176 121.789 299.036 122.099 296.051C122.373 292.997 122.717 289.314 123.133 285.001C123.55 280.688 123.956 276.016 124.353 270.987C124.819 265.92 125.284 260.763 125.746 255.517C126.241 250.162 126.741 244.987 127.246 239.99C127.712 234.923 128.138 230.287 128.521 226.082C128.938 221.769 129.301 218.12 129.612 215.137C129.955 212.045 130.218 209.904 130.4 208.716L133.425 211.051L99.609 229.154C98.1958 229.91 96.6498 230.42 94.9717 230.682C93.3261 230.836 91.7792 230.665 90.3303 230.168C88.8441 229.6 87.7406 228.645 87.0216 227.303L82.706 219.252L93.2007 213.634L93.9388 215.011C94.6579 216.353 95.3022 216.962 95.8734 216.838C96.443 216.715 97.329 216.332 98.5304 215.689L144.006 191.343L134.752 283.007L133.377 281.971L180.337 256.83L186.186 267.742L121.312 302.472Z" fill="black"/>
</mask>
<g mask="url(#mask3_307_11524)">
<path d="M121.313 302.472L112.186 300.964L109.121 319.486L125.68 310.621L121.313 302.472ZM122.1 296.051L131.301 297.007L131.307 296.94L131.314 296.873L122.1 296.051ZM124.354 270.987L115.141 270.139L115.136 270.2L115.131 270.261L124.354 270.987ZM125.746 255.516L116.536 254.667L116.531 254.706L125.746 255.516ZM127.246 239.99L136.45 240.918L136.454 240.878L136.458 240.837L127.246 239.99ZM128.522 226.082L119.315 225.194L119.31 225.242L128.522 226.082ZM129.613 215.137L120.419 214.118L120.411 214.181L129.613 215.137ZM130.4 208.716L136.054 201.4L123.629 191.81L121.257 207.319L130.4 208.716ZM133.426 211.051L137.793 219.2L150.384 212.459L139.079 203.734L133.426 211.051ZM94.9725 230.682L95.8336 239.886L96.1192 239.86L96.4015 239.816L94.9725 230.682ZM90.3312 230.168L87.0299 238.803L87.1777 238.86L87.3279 238.911L90.3312 230.168ZM82.7066 219.252L78.3386 211.103L70.1845 215.468L74.5526 223.618L82.7066 219.252ZM93.2007 213.633L101.355 209.269L96.9869 201.12L88.8333 205.486L93.2007 213.633ZM144.007 191.343L153.21 192.271L154.954 174.995L139.639 183.195L144.007 191.343ZM134.752 283.007L129.179 290.385L142.305 300.286L143.956 283.935L134.752 283.007ZM133.378 281.97L129.01 273.821L116.266 280.644L127.805 289.348L133.378 281.97ZM180.338 256.83L188.491 252.465L184.124 244.316L175.969 248.682L180.338 256.83ZM186.186 267.742L190.555 275.89L198.709 271.526L194.341 263.376L186.186 267.742ZM130.439 303.98C130.703 302.385 130.989 300.003 131.301 297.007L112.9 295.095C112.59 298.067 112.352 299.966 112.186 300.964L130.439 303.98ZM131.314 296.873C131.584 293.847 131.926 290.187 132.341 285.889L113.927 284.112C113.508 288.439 113.162 292.147 112.886 295.23L131.314 296.873ZM132.341 285.889C132.764 281.514 133.175 276.787 133.575 271.713L115.131 270.261C114.739 275.245 114.337 279.861 113.927 284.112L132.341 285.889ZM133.564 271.834C134.032 266.755 134.498 261.585 134.961 256.327L116.531 254.706C116.071 259.94 115.607 265.084 115.141 270.139L133.564 271.834ZM134.958 256.367C135.45 251.036 135.948 245.887 136.45 240.918L118.043 239.061C117.535 244.086 117.033 249.287 116.536 254.667L134.958 256.367ZM136.458 240.837C136.924 235.768 137.35 231.13 137.735 226.922L119.31 225.242C118.927 229.444 118.502 234.077 118.035 239.142L136.458 240.837ZM137.73 226.97C138.145 222.671 138.506 219.046 138.813 216.093L120.411 214.181C120.098 217.194 119.732 220.867 119.315 225.194L137.73 226.97ZM138.807 216.156C139.151 213.054 139.395 211.089 139.544 210.113L121.257 207.319C121.042 208.72 120.761 211.035 120.419 214.118L138.807 216.156ZM124.746 216.033L127.771 218.368L139.079 203.734L136.054 201.4L124.746 216.033ZM129.057 202.902L95.2416 221.005L103.978 237.302L137.793 219.2L129.057 202.902ZM95.2416 221.005C94.799 221.241 94.2552 221.437 93.5436 221.548L96.4015 239.816C99.0468 239.402 101.594 238.579 103.978 237.302L95.2416 221.005ZM94.1107 221.478C93.6665 221.519 93.4464 221.462 93.3344 221.424L87.3279 238.911C90.1136 239.866 92.9865 240.153 95.8336 239.886L94.1107 221.478ZM93.6324 221.532C93.8051 221.597 94.1107 221.749 94.4453 222.038C94.7849 222.332 95.0265 222.658 95.1768 222.938L78.8682 231.669C80.6885 235.064 83.5658 237.48 87.0299 238.803L93.6324 221.532ZM95.1768 222.938L90.8609 214.887L74.5526 223.618L78.8682 231.669L95.1768 222.938ZM87.0747 227.401L97.5689 221.783L88.8333 205.486L78.3386 211.103L87.0747 227.401ZM85.0471 218L85.7852 219.377L102.093 210.646L101.355 209.269L85.0471 218ZM85.7852 219.377C86.3283 220.391 87.2258 221.887 88.6083 223.192C89.9392 224.45 93.2405 226.868 97.8338 225.873L93.9139 207.804C97.9359 206.933 100.63 209.107 101.317 209.756C102.054 210.453 102.269 210.974 102.093 210.646L85.7852 219.377ZM97.8338 225.873C99.7891 225.45 101.678 224.491 102.899 223.837L94.163 207.539C93.9413 207.659 93.7561 207.754 93.605 207.828C93.4523 207.903 93.3493 207.949 93.2903 207.975C93.2272 208.003 93.2405 207.994 93.3178 207.968C93.3584 207.953 93.4274 207.93 93.5212 207.903C93.6142 207.876 93.747 207.84 93.9139 207.804L97.8338 225.873ZM102.899 223.837L148.374 199.492L139.639 183.195L94.163 207.539L102.899 223.837ZM134.803 190.416L125.549 282.079L143.956 283.935L153.21 192.271L134.803 190.416ZM140.325 275.628L138.951 274.592L127.805 289.348L129.179 290.385L140.325 275.628ZM137.746 290.118L184.706 264.98L175.969 248.682L129.01 273.821L137.746 290.118ZM172.184 261.196L178.032 272.107L194.341 263.376L188.491 252.465L172.184 261.196ZM181.818 259.593L116.944 294.323L125.68 310.621L190.555 275.89L181.818 259.593Z" fill="black"/>
</g>
<path d="M225.208 261.062C220.747 262.632 216.382 263.15 212.113 262.615C207.817 262.004 203.958 260.22 200.536 257.263C197.113 254.306 194.442 250.107 192.524 244.666C190.632 239.301 190.103 234.305 190.936 229.679C191.847 225.027 193.756 221.042 196.666 217.723C199.626 214.302 203.26 211.833 207.569 210.316C212.106 208.718 216.158 208.396 219.723 209.349C223.338 210.199 226.431 211.616 229 213.599L228.846 215.693L226.663 205.886L237.438 202.091L254.184 249.583L242.502 253.698L238.305 241.796L240.551 244.19C240.462 244.901 240.126 245.997 239.542 247.476C238.933 248.88 238.01 250.479 236.773 252.275C235.61 254.043 234.08 255.729 232.18 257.332C230.329 258.833 228.005 260.077 225.208 261.062ZM225.026 250.422C227.521 249.543 229.592 248.305 231.239 246.705C232.884 245.106 234.096 243.236 234.87 241.094C235.645 238.952 235.897 236.655 235.627 234.201L232.15 224.341C230.799 222.438 229.139 220.983 227.169 219.978C225.173 218.898 222.994 218.263 220.633 218.076C218.347 217.861 215.995 218.18 213.576 219.031C210.853 219.99 208.598 221.549 206.809 223.708C204.994 225.792 203.819 228.244 203.283 231.066C202.748 233.888 203.027 236.847 204.119 239.945C205.159 242.892 206.785 245.335 208.999 247.275C211.288 249.187 213.858 250.448 216.707 251.058C219.531 251.593 222.305 251.381 225.026 250.422Z" fill="#FF9F43"/>
<mask id="mask4_307_11524" style="mask-type:luminance" maskUnits="userSpaceOnUse" x="170" y="184" width="101" height="101">
<path d="M270.407 184.461H170.117V284.687H270.407V184.461Z" fill="white"/>
<path d="M225.208 261.062C220.747 262.632 216.382 263.15 212.113 262.615C207.817 262.004 203.958 260.22 200.536 257.263C197.113 254.306 194.442 250.107 192.524 244.666C190.632 239.301 190.103 234.305 190.936 229.679C191.846 225.027 193.756 221.042 196.666 217.723C199.626 214.302 203.26 211.833 207.569 210.316C212.106 208.718 216.158 208.396 219.723 209.349C223.338 210.199 226.431 211.616 229 213.599L228.846 215.693L226.663 205.886L237.438 202.091L254.184 249.583L242.502 253.698L238.305 241.796L240.551 244.19C240.462 244.901 240.126 245.997 239.542 247.476C238.933 248.88 238.01 250.479 236.773 252.275C235.61 254.043 234.08 255.729 232.18 257.332C230.329 258.833 228.005 260.077 225.208 261.062ZM225.026 250.422C227.521 249.543 229.592 248.305 231.239 246.705C232.884 245.106 234.096 243.236 234.87 241.094C235.645 238.952 235.897 236.655 235.627 234.201L232.15 224.341C230.799 222.438 229.139 220.983 227.169 219.978C225.173 218.898 222.994 218.263 220.633 218.076C218.347 217.861 215.995 218.18 213.576 219.031C210.853 219.99 208.598 221.549 206.809 223.708C204.994 225.792 203.819 228.244 203.283 231.066C202.748 233.888 203.027 236.847 204.119 239.945C205.159 242.892 206.785 245.335 208.999 247.275C211.288 249.187 213.858 250.448 216.707 251.058C219.531 251.593 222.305 251.381 225.026 250.422Z" fill="black"/>
</mask>
<g mask="url(#mask4_307_11524)">
<path d="M212.112 262.615L210.808 271.767L210.885 271.778L210.96 271.787L212.112 262.615ZM190.936 229.679L181.857 227.907L181.844 227.974L181.832 228.04L190.936 229.679ZM196.665 217.723L203.622 223.816L203.663 223.769L196.665 217.723ZM219.722 209.349L217.333 218.279L217.468 218.315L217.602 218.347L219.722 209.349ZM228.999 213.599L238.225 214.279L238.59 209.322L234.654 206.284L228.999 213.599ZM228.845 215.693L219.815 217.699L238.07 216.372L228.845 215.693ZM226.662 205.885L223.587 197.167L215.851 199.891L217.632 207.893L226.662 205.885ZM237.437 202.091L246.161 199.019L243.087 190.3L234.362 193.372L237.437 202.091ZM254.183 249.583L257.257 258.302L265.982 255.229L262.907 246.511L254.183 249.583ZM242.501 253.697L233.776 256.769L236.851 265.489L245.575 262.416L242.501 253.697ZM238.304 241.795L245.051 235.472L229.58 244.868L238.304 241.795ZM240.55 244.19L249.729 245.341L250.27 241.033L247.298 237.866L240.55 244.19ZM239.542 247.476L248.027 251.158L248.09 251.012L248.149 250.865L239.542 247.476ZM236.772 252.274L229.153 247.03L229.095 247.115L229.038 247.201L236.772 252.274ZM232.179 257.332L238.009 264.509L238.079 264.453L238.148 264.395L232.179 257.332ZM235.626 234.201L244.821 233.19L244.704 232.133L244.351 231.129L235.626 234.201ZM232.149 224.34L240.873 221.268L240.442 220.047L239.694 218.991L232.149 224.34ZM227.168 219.978L222.762 228.106L222.86 228.159L222.96 228.211L227.168 219.978ZM220.632 218.075L219.767 227.279L219.833 227.285L219.898 227.291L220.632 218.075ZM206.808 223.707L213.784 229.778L213.859 229.692L213.933 229.604L206.808 223.707ZM208.997 247.274L202.9 254.227L202.983 254.298L203.066 254.367L208.997 247.274ZM216.707 251.058L214.769 260.097L214.877 260.12L214.985 260.141L216.707 251.058ZM222.133 252.342C218.889 253.485 215.971 253.782 213.264 253.442L210.96 271.787C216.791 272.518 222.602 271.78 228.281 269.78L222.133 252.342ZM213.415 253.462C210.953 253.113 208.725 252.119 206.584 250.269L194.484 264.257C199.189 268.321 204.679 270.895 210.808 271.767L213.415 253.462ZM206.584 250.269C204.671 248.617 202.776 245.928 201.247 241.594L183.798 247.739C186.107 254.286 189.552 259.995 194.484 264.257L206.584 250.269ZM201.247 241.594C199.777 237.423 199.544 234.067 200.04 231.318L181.832 228.04C180.66 234.543 181.485 241.179 183.798 247.739L201.247 241.594ZM200.015 231.452C200.635 228.278 201.868 225.816 203.622 223.816L189.708 211.63C185.642 216.268 183.056 221.775 181.857 227.907L200.015 231.452ZM203.663 223.769C205.558 221.578 207.836 220.023 210.643 219.035L204.495 201.597C198.682 203.644 193.69 207.027 189.667 211.677L203.663 223.769ZM210.643 219.035C213.949 217.87 216.042 217.934 217.333 218.279L222.112 200.418C216.272 198.857 210.261 199.566 204.495 201.597L210.643 219.035ZM217.602 218.347C220.117 218.938 221.96 219.847 223.345 220.915L234.654 206.284C230.9 203.385 226.558 201.46 221.843 200.35L217.602 218.347ZM219.774 212.92L219.619 215.012L238.07 216.372L238.225 214.279L219.774 212.92ZM237.874 213.685L235.691 203.878L217.632 207.893L219.815 217.699L237.874 213.685ZM229.736 214.604L240.511 210.81L234.362 193.372L223.587 197.167L229.736 214.604ZM228.712 205.164L245.458 252.655L262.907 246.511L246.161 199.019L228.712 205.164ZM251.109 240.864L239.426 244.978L245.575 262.416L257.257 258.302L251.109 240.864ZM251.225 250.625L247.028 238.723L229.58 244.868L233.776 256.769L251.225 250.625ZM231.557 248.12L233.803 250.514L247.298 237.866L245.051 235.472L231.557 248.12ZM231.372 243.039C231.4 242.813 231.432 242.683 231.434 242.676C231.437 242.663 231.425 242.712 231.388 242.833C231.312 243.084 231.17 243.491 230.936 244.087L248.149 250.865C248.757 249.32 249.484 247.295 249.729 245.341L231.372 243.039ZM231.057 243.794C230.761 244.475 230.182 245.538 229.153 247.03L244.389 257.518C245.835 255.421 247.102 253.285 248.027 251.158L231.057 243.794ZM229.038 247.201C228.442 248.108 227.545 249.143 226.211 250.269L238.148 264.395C240.613 262.314 242.776 259.977 244.504 257.348L229.038 247.201ZM226.35 250.154C225.495 250.846 224.165 251.627 222.133 252.342L228.281 269.78C231.844 268.526 235.162 266.819 238.009 264.509L226.35 250.154ZM228.1 259.141C231.665 257.885 234.943 255.997 237.685 253.334L224.79 240.076C224.239 240.611 223.376 241.202 221.951 241.703L228.1 259.141ZM237.685 253.334C240.329 250.766 242.313 247.706 243.568 244.237L226.17 237.95C225.876 238.765 225.439 239.446 224.79 240.076L237.685 253.334ZM243.568 244.237C244.863 240.658 245.232 236.929 244.821 233.19L226.431 235.212C226.56 236.381 226.424 237.246 226.17 237.95L243.568 244.237ZM244.351 231.129L240.873 221.268L223.425 227.413L226.902 237.274L244.351 231.129ZM239.694 218.991C237.528 215.942 234.748 213.467 231.376 211.746L222.96 228.211C223.528 228.5 224.068 228.933 224.604 229.689L239.694 218.991ZM231.576 211.851C228.395 210.128 224.957 209.146 221.366 208.859L219.898 227.291C221.03 227.38 221.949 227.666 222.762 228.106L231.576 211.851ZM221.497 208.871C217.73 208.518 214.033 209.068 210.5 210.312L216.648 227.75C217.955 227.291 218.963 227.203 219.767 227.279L221.497 208.871ZM210.5 210.312C206.245 211.811 202.573 214.324 199.683 217.812L213.933 229.604C214.621 228.773 215.46 228.169 216.648 227.75L210.5 210.312ZM199.832 217.637C196.895 221.008 195.022 224.978 194.194 229.344L212.371 232.787C212.613 231.51 213.091 230.575 213.784 229.778L199.832 217.637ZM194.194 229.344C193.314 233.987 193.838 238.607 195.394 243.018L212.843 236.873C212.214 235.088 212.181 233.788 212.371 232.787L194.194 229.344ZM195.394 243.018C196.927 247.365 199.418 251.176 202.9 254.227L215.094 240.322C214.15 239.495 213.389 238.419 212.843 236.873L195.394 243.018ZM203.066 254.367C206.48 257.219 210.414 259.165 214.769 260.097L218.645 242.018C217.299 241.73 216.094 241.154 214.93 240.181L203.066 254.367ZM214.985 260.141C219.418 260.98 223.846 260.639 228.1 259.141L221.951 241.703C220.761 242.122 219.643 242.204 218.429 241.975L214.985 260.141Z" fill="black"/>
</g>
<path d="M277.065 196.029L280.598 207.066L279.793 205.643C280.663 201.761 282.589 198.385 285.569 195.516C288.534 192.568 292.365 190.579 297.062 189.547C301.682 188.533 305.781 189.069 309.358 191.155C313.014 193.223 315.363 196.439 316.404 200.804L324.404 237.192L312.306 239.847L305.236 207.686C304.607 205.199 303.416 203.328 301.662 202.072C299.892 200.738 297.51 200.359 294.518 200.934C291.855 201.518 289.608 202.873 287.777 204.997C285.929 207.044 284.679 209.574 284.028 212.588C283.377 215.602 283.448 218.908 284.239 222.508L289.167 244.928L277.07 247.583L266.258 198.402L277.065 196.029Z" fill="#EE5253"/>
<mask id="mask5_307_11524" style="mask-type:luminance" maskUnits="userSpaceOnUse" x="253" y="171" width="85" height="88">
<path d="M337.537 171.54H253.898V258.65H337.537V171.54Z" fill="white"/>
<path d="M277.065 196.029L280.598 207.066L279.793 205.643C280.663 201.761 282.589 198.385 285.569 195.516C288.534 192.568 292.365 190.579 297.063 189.547C301.682 188.533 305.781 189.069 309.358 191.155C313.014 193.223 315.363 196.439 316.404 200.804L324.404 237.192L312.306 239.847L305.236 207.686C304.607 205.199 303.416 203.328 301.662 202.072C299.892 200.738 297.51 200.359 294.518 200.934C291.855 201.518 289.608 202.873 287.777 204.997C285.929 207.044 284.679 209.574 284.028 212.588C283.377 215.602 283.448 218.908 284.239 222.508L289.167 244.928L277.07 247.583L266.258 198.402L277.065 196.029Z" fill="black"/>
</mask>
<g mask="url(#mask5_307_11524)">
<path d="M277.065 196.029L285.875 193.212L283.308 185.194L275.079 187L277.065 196.029ZM280.599 207.066L272.547 211.617L289.409 204.249L280.599 207.066ZM279.794 205.643L270.768 203.622L269.988 207.096L271.742 210.194L279.794 205.643ZM285.57 195.516L291.988 202.174L292.042 202.121L292.096 202.069L285.57 195.516ZM309.359 191.155L304.698 199.139L304.749 199.169L304.802 199.199L309.359 191.155ZM316.405 200.804L325.44 198.821L325.422 198.74L325.403 198.66L316.405 200.804ZM324.404 237.192L326.389 246.22L335.424 244.237L333.44 235.208L324.404 237.192ZM312.306 239.847L303.271 241.831L305.256 250.86L314.291 248.877L312.306 239.847ZM305.236 207.686L314.271 205.702L314.24 205.561L314.205 205.422L305.236 207.686ZM301.663 202.072L296.095 209.454L296.184 209.522L296.275 209.587L301.663 202.072ZM294.518 200.934L292.771 191.856L292.652 191.878L292.533 191.904L294.518 200.934ZM287.778 204.997L294.645 211.192L294.716 211.113L294.787 211.031L287.778 204.997ZM289.168 244.927L291.153 253.956L300.188 251.973L298.203 242.944L289.168 244.927ZM277.07 247.583L268.036 249.568L270.02 258.596L279.055 256.613L277.07 247.583ZM266.259 198.402L264.274 189.373L255.239 191.357L257.225 200.386L266.259 198.402ZM268.254 198.847L271.788 209.884L289.409 204.249L285.875 193.212L268.254 198.847ZM288.651 202.515L287.845 201.092L271.742 210.194L272.547 211.617L288.651 202.515ZM288.82 207.664C289.278 205.622 290.257 203.838 291.988 202.174L279.153 188.857C274.921 192.931 272.05 197.9 270.768 203.622L288.82 207.664ZM292.096 202.069C293.633 200.539 295.803 199.288 299.048 198.576L295.078 180.518C288.926 181.869 283.435 184.598 279.046 188.963L292.096 202.069ZM299.048 198.576C301.745 197.984 303.412 198.39 304.698 199.139L314.02 183.169C308.15 179.748 301.62 179.082 295.078 180.518L299.048 198.576ZM304.802 199.199C306.055 199.908 306.916 200.889 307.407 202.949L325.403 198.66C323.812 191.99 319.975 186.537 313.917 183.109L304.802 199.199ZM307.371 202.788L315.369 239.175L333.44 235.208L325.44 198.821L307.371 202.788ZM322.419 228.163L310.322 230.818L314.291 248.877L326.389 246.22L322.419 228.163ZM321.341 237.864L314.271 205.702L296.201 209.67L303.271 241.831L321.341 237.864ZM314.205 205.422C313.147 201.238 310.905 197.317 307.051 194.557L296.275 209.587C296.23 209.553 296.18 209.512 296.137 209.465C296.093 209.419 296.07 209.386 296.066 209.379C296.058 209.365 296.158 209.516 296.268 209.95L314.205 205.422ZM307.231 194.69C302.679 191.26 297.334 190.979 292.771 191.856L296.265 210.012C296.97 209.876 297.203 209.934 297.093 209.916C297.028 209.906 296.885 209.875 296.691 209.795C296.493 209.714 296.288 209.599 296.095 209.454L307.231 194.69ZM292.533 191.904C287.855 192.932 283.866 195.372 280.769 198.964L294.787 211.031C295.353 210.374 295.857 210.105 296.503 209.963L292.533 191.904ZM280.911 198.803C277.854 202.187 275.938 206.235 274.986 210.638L293.071 214.538C293.422 212.914 294.005 211.9 294.645 211.192L280.911 198.803ZM274.986 210.638C274.007 215.177 274.184 219.846 275.205 224.492L293.275 220.525C292.713 217.971 292.75 216.027 293.071 214.538L274.986 210.638ZM275.205 224.492L280.133 246.911L298.203 242.944L293.275 220.525L275.205 224.492ZM287.184 235.899L275.086 238.554L279.055 256.613L291.153 253.956L287.184 235.899ZM286.105 245.6L275.294 196.418L257.225 200.386L268.036 249.568L286.105 245.6ZM268.244 207.431L279.05 205.058L275.079 187L264.274 189.373L268.244 207.431Z" fill="black"/>
</g>
<path d="M341.674 187.213L353.991 185.908L359.303 235.982L346.985 237.287L341.674 187.213ZM339.054 169.363C338.852 167.451 339.44 165.777 340.819 164.342C342.199 162.906 343.765 162.096 345.519 161.911C347.353 161.716 349.055 162.18 350.625 163.303C352.195 164.426 353.082 165.943 353.285 167.855C353.487 169.767 352.939 171.437 351.639 172.864C350.331 174.211 348.76 174.981 346.927 175.176C345.173 175.361 343.475 174.937 341.833 173.902C340.183 172.788 339.258 171.275 339.054 169.363Z" fill="#F368E0"/>
<mask id="mask6_307_11524" style="mask-type:luminance" maskUnits="userSpaceOnUse" x="323" y="147" width="48" height="101">
<path d="M370.71 147.544H323.675V247.968H370.71V147.544Z" fill="white"/>
<path d="M341.674 187.213L353.991 185.908L359.303 235.982L346.985 237.287L341.674 187.213ZM339.054 169.363C338.852 167.451 339.44 165.777 340.819 164.342C342.199 162.906 343.765 162.096 345.519 161.911C347.353 161.716 349.055 162.18 350.625 163.303C352.195 164.426 353.082 165.943 353.285 167.855C353.487 169.767 352.939 171.437 351.639 172.864C350.331 174.211 348.76 174.981 346.927 175.176C345.173 175.361 343.475 174.937 341.833 173.902C340.183 172.788 339.258 171.275 339.054 169.363Z" fill="black"/>
</mask>
<g mask="url(#mask6_307_11524)">
<path d="M341.674 187.213L340.699 178.021L331.5 178.995L332.476 188.188L341.674 187.213ZM353.991 185.909L363.19 184.934L362.215 175.741L353.016 176.716L353.991 185.909ZM359.304 235.983L360.279 245.175L369.477 244.201L368.503 235.008L359.304 235.983ZM346.986 237.287L337.788 238.262L338.763 247.455L347.962 246.481L346.986 237.287ZM351.64 172.864L358.278 179.303L358.381 179.196L358.48 179.087L351.64 172.864ZM341.834 173.903L336.655 181.562L336.776 181.644L336.9 181.722L341.834 173.903ZM342.649 196.407L354.966 195.102L353.016 176.716L340.699 178.021L342.649 196.407ZM344.792 186.883L350.105 236.957L368.503 235.008L363.19 184.934L344.792 186.883ZM358.329 226.789L346.011 228.094L347.962 246.481L360.279 245.175L358.329 226.789ZM356.185 236.313L350.874 186.239L332.476 188.188L337.788 238.262L356.185 236.313ZM348.254 168.389C348.285 168.681 348.27 169.174 348.072 169.738C347.876 170.293 347.606 170.627 347.491 170.746L334.149 157.939C330.955 161.261 329.355 165.607 329.856 170.338L348.254 168.389ZM347.491 170.746C347.568 170.666 347.507 170.751 347.283 170.868C347.044 170.991 346.763 171.075 346.495 171.103L344.545 152.718C340.343 153.163 336.832 155.147 334.149 157.939L347.491 170.746ZM346.495 171.103C346.321 171.122 346.045 171.116 345.736 171.032C345.434 170.949 345.266 170.838 345.243 170.822L356.008 155.785C352.69 153.412 348.745 152.273 344.545 152.718L346.495 171.103ZM345.243 170.822C345.073 170.7 344.757 170.418 344.48 169.944C344.203 169.471 344.11 169.051 344.087 168.83L362.485 166.881C362.002 162.332 359.719 158.438 356.008 155.785L345.243 170.822ZM344.087 168.83C344.063 168.61 344.067 168.179 344.238 167.658C344.409 167.138 344.659 166.795 344.8 166.64L358.48 179.087C361.552 175.716 362.967 171.429 362.485 166.881L344.087 168.83ZM345.002 166.426C345.034 166.393 345.168 166.27 345.404 166.154C345.644 166.036 345.849 165.994 345.952 165.983L347.903 184.369C351.932 183.942 355.493 182.17 358.278 179.303L345.002 166.426ZM345.952 165.983C346.145 165.962 346.372 165.977 346.583 166.029C346.784 166.079 346.849 166.135 346.769 166.084L336.9 181.722C340.113 183.748 343.87 184.796 347.903 184.369L345.952 165.983ZM347.013 166.244C347.15 166.336 347.486 166.606 347.793 167.108C348.105 167.617 348.223 168.096 348.254 168.389L329.856 170.338C330.358 175.069 332.835 178.983 336.655 181.562L347.013 166.244Z" fill="black"/>
</g>
<path d="M395.57 184.059L397.136 194.816L396.617 193.997C398.371 190.149 400.883 187.11 404.153 184.879C407.421 182.567 411.257 181.313 415.661 181.116C418.385 180.993 420.847 181.324 423.049 182.108C425.331 182.889 427.228 184.047 428.742 185.583C430.256 187.119 431.266 189.079 431.774 191.462L431.189 191.849C433.034 188.238 435.553 185.359 438.747 183.211C442.018 180.979 445.535 179.779 449.299 179.61C454.185 179.392 458.131 180.619 461.14 183.291C464.229 185.96 465.912 189.494 466.189 193.893L467.862 231.23L455.609 231.779L454.146 199.123C453.954 196.645 453.261 194.591 452.064 192.961C450.948 191.326 449.025 190.49 446.294 190.451C443.411 190.58 440.888 191.576 438.724 193.438C436.64 195.295 435.061 197.651 433.984 200.506C432.908 203.361 432.403 206.392 432.466 209.597L433.504 232.767L421.13 233.321L419.667 200.665C419.476 198.188 418.782 196.134 417.586 194.503C416.389 192.873 414.385 192.04 411.575 192.005C408.692 192.134 406.208 193.127 404.125 194.985C402.041 196.842 400.463 199.239 399.391 202.174C398.396 205.026 397.968 208.012 398.108 211.133L399.146 234.305L386.772 234.859L384.517 184.554L395.57 184.059Z" fill="#48DBFB"/>
<mask id="mask7_307_11524" style="mask-type:luminance" maskUnits="userSpaceOnUse" x="374" y="166" width="106" height="79">
<path d="M479.346 166.089H374.384V244.519H479.346V166.089Z" fill="white"/>
<path d="M395.57 184.061L397.136 194.818L396.617 193.998C398.371 190.151 400.883 187.111 404.153 184.88C407.421 182.568 411.257 181.314 415.661 181.116C418.385 180.995 420.847 181.325 423.049 182.11C425.331 182.889 427.228 184.048 428.742 185.584C430.256 187.12 431.266 189.079 431.774 191.463L431.189 191.85C433.034 188.239 435.553 185.36 438.747 183.211C442.018 180.98 445.535 179.78 449.299 179.611C454.185 179.393 458.131 180.62 461.14 183.292C464.229 185.961 465.912 189.495 466.189 193.893L467.862 231.231L455.609 231.779L454.146 199.124C453.954 196.646 453.261 194.591 452.064 192.962C450.948 191.328 449.025 190.491 446.294 190.452C443.411 190.581 440.888 191.577 438.724 193.438C436.64 195.295 435.061 197.652 433.984 200.507C432.908 203.362 432.403 206.393 432.466 209.597L433.504 232.768L421.13 233.322L419.667 200.667C419.476 198.189 418.782 196.135 417.586 194.504C416.389 192.873 414.385 192.041 411.575 192.006C408.692 192.135 406.208 193.129 404.125 194.986C402.041 196.844 400.463 199.24 399.391 202.175C398.396 205.026 397.968 208.013 398.108 211.134L399.146 234.305L386.772 234.859L384.517 184.555L395.57 184.061Z" fill="black"/>
</mask>
<g mask="url(#mask7_307_11524)">
<path d="M395.57 184.06L404.724 182.73L403.52 174.451L395.156 174.825L395.57 184.06ZM397.136 194.817L389.317 199.758L406.29 193.487L397.136 194.817ZM396.617 193.998L388.198 190.166L386.126 194.715L388.799 198.94L396.617 193.998ZM404.153 184.88L409.369 192.514L409.434 192.47L409.499 192.424L404.153 184.88ZM423.049 182.109L419.945 190.818L420 190.838L420.054 190.856L423.049 182.109ZM431.773 191.463L436.883 199.169L442.133 195.693L440.82 189.537L431.773 191.463ZM431.189 191.85L422.95 187.648L406.937 218.997L436.298 199.556L431.189 191.85ZM438.747 183.211L443.911 190.882L443.962 190.847L438.747 183.211ZM461.14 183.292L454.995 190.202L455.042 190.244L455.09 190.285L461.14 183.292ZM466.189 193.893L475.431 193.48L475.427 193.396L475.421 193.312L466.189 193.893ZM467.862 231.231L468.276 240.466L477.516 240.053L477.103 230.818L467.862 231.231ZM455.608 231.779L446.367 232.193L446.78 241.428L456.022 241.015L455.608 231.779ZM454.145 199.123L463.386 198.71L463.38 198.561L463.368 198.412L454.145 199.123ZM452.063 192.962L444.424 198.174L444.512 198.302L444.604 198.428L452.063 192.962ZM446.294 190.452L446.423 181.209L446.151 181.205L445.879 181.217L446.294 190.452ZM438.723 193.438L432.688 186.431L432.626 186.484L432.565 186.539L438.723 193.438ZM432.465 209.597L423.217 209.78L423.219 209.895L423.224 210.01L432.465 209.597ZM433.503 232.768L433.917 242.003L443.158 241.59L442.744 232.355L433.503 232.768ZM421.13 233.322L411.888 233.735L412.302 242.971L421.543 242.557L421.13 233.322ZM419.667 200.666L428.907 200.252L428.901 200.103L428.89 199.955L419.667 200.666ZM411.575 192.006L411.689 182.762L411.425 182.759L411.161 182.77L411.575 192.006ZM399.391 202.175L390.702 199.004L390.678 199.067L390.657 199.129L399.391 202.175ZM399.145 234.305L399.558 243.541L408.8 243.127L408.386 233.892L399.145 234.305ZM386.771 234.859L377.53 235.272L377.944 244.507L387.184 244.095L386.771 234.859ZM384.517 184.555L384.104 175.32L374.863 175.733L375.276 184.969L384.517 184.555ZM386.416 185.39L387.981 196.147L406.29 193.487L404.724 182.73L386.416 185.39ZM404.953 189.877L404.436 189.058L388.799 198.94L389.317 199.758L404.953 189.877ZM405.035 197.83C406.139 195.409 407.59 193.728 409.369 192.514L398.937 177.244C394.176 180.493 390.603 184.892 388.198 190.166L405.035 197.83ZM409.499 192.424C411.172 191.239 413.255 190.478 416.075 190.352L415.248 171.881C409.257 172.149 403.668 173.895 398.808 177.334L409.499 192.424ZM416.075 190.352C417.799 190.274 419.041 190.496 419.945 190.818L426.152 173.4C422.652 172.155 418.97 171.715 415.248 171.881L416.075 190.352ZM420.054 190.856C421.14 191.227 421.757 191.671 422.149 192.07L435.334 179.099C432.699 176.424 429.521 174.552 426.043 173.362L420.054 190.856ZM422.149 192.07C422.271 192.192 422.536 192.497 422.726 193.389L440.82 189.537C439.994 185.662 438.239 182.048 435.334 179.099L422.149 192.07ZM426.664 183.756L426.08 184.143L436.298 199.556L436.883 199.169L426.664 183.756ZM439.428 196.052C440.598 193.761 442.09 192.105 443.911 190.882L433.583 175.542C429.015 178.613 425.468 182.716 422.95 187.648L439.428 196.052ZM443.962 190.847C445.888 189.532 447.756 188.934 449.713 188.847L448.885 170.376C443.313 170.626 438.146 172.428 433.531 175.577L443.962 190.847ZM449.713 188.847C452.741 188.711 454.158 189.46 454.995 190.202L467.285 176.382C462.104 171.781 455.628 170.075 448.885 170.376L449.713 188.847ZM455.09 190.285C456.139 191.192 456.822 192.333 456.957 194.474L475.421 193.312C475.001 186.655 472.318 180.73 467.19 176.299L455.09 190.285ZM456.948 194.306L458.62 231.645L477.103 230.818L475.431 193.48L456.948 194.306ZM467.448 221.996L455.195 222.544L456.022 241.015L468.276 240.466L467.448 221.996ZM464.849 231.366L463.386 198.71L444.904 199.537L446.367 232.193L464.849 231.366ZM463.368 198.412C463.075 194.61 461.95 190.803 459.523 187.495L444.604 198.428C444.607 198.431 444.617 198.447 444.635 198.481C444.654 198.517 444.683 198.581 444.717 198.682C444.786 198.885 444.877 199.252 444.922 199.835L463.368 198.412ZM459.703 187.748C456.295 182.76 450.928 181.272 446.423 181.209L446.163 199.696C446.656 199.703 446.539 199.779 446.094 199.585C445.857 199.483 445.556 199.315 445.238 199.057C444.919 198.797 444.642 198.494 444.424 198.174L459.703 187.748ZM445.879 181.217C440.951 181.438 436.441 183.203 432.688 186.431L444.758 200.445C445.332 199.95 445.87 199.725 446.707 199.687L445.879 181.217ZM432.565 186.539C429.265 189.482 426.88 193.13 425.327 197.249L442.641 203.764C443.241 202.174 444.015 201.109 444.881 200.336L432.565 186.539ZM425.327 197.249C423.817 201.257 423.132 205.461 423.217 209.78L441.714 209.414C441.672 207.323 442 205.466 442.641 203.764L425.327 197.249ZM423.224 210.01L424.262 233.181L442.744 232.355L441.706 209.184L423.224 210.01ZM433.089 223.533L420.716 224.087L421.543 242.557L433.917 242.003L433.089 223.533ZM430.37 232.908L428.907 200.252L410.425 201.079L411.888 233.735L430.37 232.908ZM428.89 199.955C428.597 196.152 427.472 192.345 425.045 189.037L410.125 199.97C410.127 199.974 410.138 199.989 410.156 200.024C410.175 200.059 410.205 200.123 410.239 200.224C410.307 200.428 410.399 200.794 410.444 201.377L428.89 199.955ZM425.045 189.037C421.522 184.237 416.199 182.818 411.689 182.762L411.461 201.249C412.017 201.257 411.991 201.341 411.633 201.193C411.442 201.112 411.179 200.975 410.891 200.754C410.601 200.53 410.34 200.262 410.125 199.97L425.045 189.037ZM411.161 182.77C406.228 182.991 401.696 184.762 397.967 188.087L410.283 201.884C410.72 201.494 411.154 201.278 411.988 201.241L411.161 182.77ZM397.967 188.087C394.614 191.077 392.233 194.811 390.702 199.004L408.081 205.345C408.693 203.668 409.468 202.609 410.283 201.884L397.967 188.087ZM390.657 199.129C389.26 203.129 388.676 207.293 388.866 211.548L407.348 210.721C407.259 208.733 407.53 206.923 408.125 205.221L390.657 199.129ZM388.866 211.548L389.904 234.719L408.386 233.892L407.348 210.721L388.866 211.548ZM398.731 225.07L386.357 225.624L387.184 244.095L399.558 243.541L398.731 225.07ZM396.012 234.445L393.759 184.142L375.276 184.969L377.53 235.272L396.012 234.445ZM384.931 193.79L395.984 193.295L395.156 174.825L384.104 175.32L384.931 193.79Z" fill="black"/>
</g>
<path d="M498.4 146.747L510.713 148.096L500.529 240.917L488.217 239.569L498.4 146.747Z" fill="#2E86DE"/>
<mask id="mask8_307_11524" style="mask-type:luminance" maskUnits="userSpaceOnUse" x="477" y="132" width="46" height="120">
<path d="M522.55 132.856H477.765V251.25H522.55V132.856Z" fill="white"/>
<path d="M498.4 146.747L510.713 148.096L500.529 240.917L488.217 239.569L498.4 146.747Z" fill="black"/>
</mask>
<g mask="url(#mask8_307_11524)">
<path d="M498.401 146.747L499.409 137.557L490.214 136.55L489.206 145.739L498.401 146.747ZM510.714 148.096L519.909 149.104L520.917 139.914L511.722 138.907L510.714 148.096ZM500.53 240.917L499.522 250.107L508.717 251.114L509.726 241.925L500.53 240.917ZM488.217 239.569L479.022 238.561L478.014 247.75L487.209 248.758L488.217 239.569ZM497.393 155.936L509.706 157.285L511.722 138.907L499.409 137.557L497.393 155.936ZM501.518 147.088L491.334 239.91L509.726 241.925L519.909 149.104L501.518 147.088ZM501.538 231.728L489.225 230.379L487.209 248.758L499.522 250.107L501.538 231.728ZM497.413 240.576L507.597 147.754L489.206 145.739L479.022 238.561L497.413 240.576Z" fill="black"/>
</g>
<path d="M524.319 269.743L518.508 260.944C521.045 259.428 523.183 257.396 524.922 254.849C526.646 252.381 527.827 249.291 528.463 245.579L536.935 196.186L549.262 198.297L540.71 248.165C539.734 253.85 537.926 258.458 535.289 261.989C532.727 265.534 529.073 268.119 524.319 269.743ZM539.151 178.276C539.479 176.381 540.502 174.93 542.218 173.924C543.934 172.917 545.664 172.563 547.402 172.86C549.221 173.172 550.733 174.081 551.935 175.589C553.142 177.095 553.582 178.797 553.258 180.692C552.935 182.587 551.949 184.045 550.312 185.064C548.688 186.005 546.963 186.321 545.145 186.009C543.411 185.711 541.889 184.841 540.595 183.399C539.308 181.879 538.828 180.171 539.151 178.276Z" fill="#341F97"/>
<mask id="mask9_307_11524" style="mask-type:luminance" maskUnits="userSpaceOnUse" x="497" y="155" width="73" height="132">
<path d="M569.19 155.107H497.947V286.703H569.19V155.107Z" fill="white"/>
<path d="M524.319 269.744L518.508 260.945C521.045 259.428 523.183 257.397 524.922 254.85C526.646 252.381 527.827 249.291 528.463 245.58L536.935 196.186L549.262 198.298L540.71 248.166C539.734 253.851 537.926 258.459 535.289 261.99C532.727 265.535 529.073 268.119 524.319 269.744ZM539.151 178.277C539.479 176.381 540.501 174.93 542.218 173.925C543.934 172.918 545.664 172.564 547.402 172.862C549.221 173.173 550.733 174.083 551.935 175.589C553.142 177.096 553.582 178.798 553.258 180.693C552.934 182.588 551.949 184.046 550.312 185.065C548.688 186.007 546.963 186.321 545.145 186.009C543.411 185.712 541.889 184.842 540.595 183.4C539.308 181.88 538.828 180.172 539.151 178.277Z" fill="black"/>
</mask>
<g mask="url(#mask9_307_11524)">
<path d="M524.318 269.744L516.598 274.836L520.54 280.806L527.312 278.491L524.318 269.744ZM518.507 260.945L513.76 253.011L505.459 257.971L510.787 266.038L518.507 260.945ZM524.921 254.85L517.337 249.557L517.308 249.599L517.279 249.642L524.921 254.85ZM536.935 196.186L538.499 187.075L529.382 185.514L527.818 194.625L536.935 196.186ZM549.261 198.298L558.378 199.86L559.941 190.749L550.825 189.187L549.261 198.298ZM535.289 261.99L527.876 256.458L527.83 256.519L527.786 256.581L535.289 261.99ZM550.312 185.066L554.945 193.066L555.075 192.992L555.2 192.913L550.312 185.066ZM540.594 183.4L533.522 189.364L533.619 189.476L533.716 189.585L540.594 183.4ZM532.037 264.652L526.228 255.853L510.787 266.038L516.598 274.836L532.037 264.652ZM523.254 268.88C526.993 266.645 530.104 263.664 532.565 260.059L517.279 249.642C516.262 251.131 515.096 252.213 513.76 253.011L523.254 268.88ZM532.504 260.143C535.178 256.315 536.768 251.868 537.578 247.142L519.345 244.019C518.883 246.715 518.112 248.449 517.337 249.557L532.504 260.143ZM537.578 247.142L546.051 197.748L527.818 194.625L519.345 244.019L537.578 247.142ZM535.372 205.298L547.698 207.41L550.825 189.187L538.499 187.075L535.372 205.298ZM540.145 196.736L531.593 246.604L549.826 249.727L558.378 199.86L540.145 196.736ZM531.593 246.604C530.789 251.278 529.415 254.402 527.876 256.458L542.699 267.523C546.44 262.517 548.678 256.424 549.826 249.727L531.593 246.604ZM527.786 256.581C526.508 258.351 524.543 259.897 521.324 260.998L527.312 278.491C533.596 276.342 538.947 272.719 542.787 267.401L527.786 256.581ZM548.272 179.838C548.221 180.128 548.073 180.599 547.726 181.087C547.388 181.568 547.037 181.817 546.893 181.9L537.542 165.949C533.564 168.279 530.839 172.026 530.035 176.715L548.272 179.838ZM546.893 181.9C546.99 181.844 546.907 181.909 546.662 181.96C546.398 182.014 546.103 182.019 545.839 181.973L548.966 163.75C544.798 163.037 540.881 163.992 537.542 165.949L546.893 181.9ZM545.839 181.973C545.668 181.943 545.404 181.863 545.126 181.698C544.858 181.537 544.729 181.384 544.71 181.362L559.164 169.817C556.615 166.633 553.128 164.463 548.966 163.75L545.839 181.973ZM544.71 181.362C544.581 181.199 544.354 180.841 544.215 180.311C544.077 179.779 544.104 179.35 544.142 179.131L562.373 182.255C563.146 177.747 562.013 173.379 559.164 169.817L544.71 181.362ZM544.142 179.131C544.178 178.912 544.299 178.499 544.604 178.045C544.909 177.59 545.243 177.328 545.423 177.218L555.2 192.913C559.071 190.503 561.601 186.763 562.373 182.255L544.142 179.131ZM545.677 177.066C545.714 177.043 545.876 176.961 546.135 176.914C546.398 176.866 546.607 176.881 546.708 176.898L543.586 195.121C547.578 195.805 551.486 195.067 554.945 193.066L545.677 177.066ZM546.708 176.898C546.902 176.931 547.116 177.006 547.305 177.114C547.485 177.217 547.532 177.288 547.467 177.217L533.716 189.585C536.255 192.407 539.586 194.437 543.586 195.121L546.708 176.898ZM547.661 177.437C547.767 177.564 548.017 177.915 548.174 178.481C548.336 179.056 548.318 179.55 548.272 179.838L530.035 176.715C529.23 181.404 530.548 185.844 533.522 189.364L547.661 177.437Z" fill="black"/>
</g>
<path d="M577.09 204.948L589.148 207.782L577.608 256.798L565.555 253.964L577.09 204.948ZM580.517 187.235C580.961 185.363 582.067 183.978 583.843 183.078C585.619 182.179 587.367 181.931 589.083 182.335C590.878 182.757 592.33 183.757 593.445 185.335C594.554 186.913 594.888 188.638 594.448 190.51C594.009 192.382 592.94 193.776 591.238 194.694C589.559 195.533 587.825 195.742 586.025 195.32C584.31 194.917 582.849 193.956 581.641 192.437C580.452 190.841 580.078 189.107 580.517 187.235Z" fill="#10AC84"/>
<mask id="mask10_307_11524" style="mask-type:luminance" maskUnits="userSpaceOnUse" x="549" y="165" width="59" height="104">
<path d="M607.945 165.242H549.686V268.197H607.945V165.242Z" fill="white"/>
<path d="M577.09 204.947L589.148 207.781L577.608 256.798L565.555 253.963L577.09 204.947ZM580.517 187.234C580.961 185.362 582.067 183.977 583.843 183.077C585.619 182.178 587.367 181.93 589.083 182.334C590.878 182.756 592.33 183.756 593.445 185.334C594.554 186.912 594.888 188.637 594.448 190.508C594.009 192.38 592.94 193.775 591.238 194.692C589.559 195.532 587.825 195.741 586.025 195.319C584.31 194.916 582.849 193.955 581.641 192.437C580.452 190.84 580.078 189.105 580.517 187.234Z" fill="black"/>
</mask>
<g mask="url(#mask10_307_11524)">
<path d="M577.091 204.947L579.209 195.948L570.204 193.831L568.086 202.83L577.091 204.947ZM589.149 207.781L598.154 209.899L600.272 200.899L591.267 198.782L589.149 207.781ZM577.609 256.798L575.49 265.797L584.496 267.914L586.614 258.914L577.609 256.798ZM565.556 253.963L556.55 251.846L554.432 260.845L563.437 262.962L565.556 253.963ZM591.239 194.692L595.379 202.961L595.508 202.895L595.642 202.825L591.239 194.692ZM581.642 192.437L574.223 197.956L574.311 198.073L574.399 198.187L581.642 192.437ZM574.972 213.945L587.03 216.78L591.267 198.782L579.209 195.948L574.972 213.945ZM580.144 205.665L568.608 254.681L586.614 258.914L598.154 209.899L580.144 205.665ZM579.727 247.799L567.674 244.965L563.437 262.962L575.49 265.797L579.727 247.799ZM574.556 256.08L586.096 207.063L568.086 202.83L556.55 251.846L574.556 256.08ZM589.523 189.351C589.459 189.637 589.278 190.098 588.908 190.564C588.538 191.023 588.173 191.249 588.025 191.324L579.667 174.831C575.55 176.912 572.604 180.486 571.513 185.118L589.523 189.351ZM588.025 191.324C588.126 191.274 588.039 191.334 587.789 191.37C587.521 191.407 587.229 191.394 586.965 191.333L591.202 173.335C587.091 172.368 583.122 173.082 579.667 174.831L588.025 191.324ZM586.965 191.333C586.794 191.293 586.54 191.195 586.276 191.014C586.017 190.837 585.893 190.676 585.878 190.654L601.007 180.015C598.663 176.68 595.314 174.302 591.202 173.335L586.965 191.333ZM585.878 190.654C585.758 190.482 585.55 190.111 585.448 189.574C585.342 189.035 585.393 188.608 585.444 188.392L603.454 192.625C604.504 188.173 603.634 183.743 601.007 180.015L585.878 190.654ZM585.444 188.392C585.495 188.176 585.643 187.771 585.976 187.336C586.309 186.9 586.656 186.66 586.841 186.561L595.642 202.825C599.652 200.657 602.404 197.078 603.454 192.625L585.444 188.392ZM587.104 186.425C587.145 186.404 587.312 186.332 587.571 186.301C587.84 186.269 588.048 186.296 588.145 186.321L583.908 204.318C587.854 205.245 591.803 204.749 595.379 202.961L587.104 186.425ZM588.145 186.321C588.334 186.365 588.547 186.453 588.728 186.572C588.899 186.686 588.945 186.759 588.885 186.685L574.399 198.187C576.763 201.16 579.963 203.39 583.908 204.318L588.145 186.321ZM589.061 186.916C589.162 187.049 589.389 187.415 589.514 187.99C589.639 188.574 589.592 189.065 589.523 189.351L571.513 185.118C570.426 189.748 571.471 194.26 574.223 197.956L589.061 186.916Z" fill="black"/>
</g>
<path d="M622.732 271.918L610.406 214.213L624.448 218.453L630.91 261.08L623.764 258.546L651.043 226.482L664.281 230.479L623.195 272.058L622.732 271.918Z" fill="#FF9F43"/>
<mask id="mask11_307_11524" style="mask-type:luminance" maskUnits="userSpaceOnUse" x="576" y="200" width="107" height="97">
<path d="M682.107 200.295H576.582V296.487H682.107V200.295Z" fill="white"/>
<path d="M622.732 271.918L610.406 214.213L624.448 218.453L630.91 261.08L623.764 258.546L651.043 226.482L664.281 230.479L623.195 272.058L622.732 271.918Z" fill="black"/>
</mask>
<g mask="url(#mask11_307_11524)">
<path d="M622.733 271.919L613.69 273.85L614.829 279.189L620.06 280.769L622.733 271.919ZM610.406 214.214L613.08 205.365L598.09 200.839L601.359 216.144L610.406 214.214ZM624.448 218.454L633.598 217.07L632.723 211.294L627.127 209.605L624.448 218.454ZM630.91 261.08L627.816 269.793L642.366 274.953L640.059 259.696L630.91 261.08ZM623.764 258.546L616.715 252.557L608.025 262.774L620.67 267.258L623.764 258.546ZM651.043 226.482L653.717 217.633L647.917 215.882L643.995 220.494L651.043 226.482ZM664.281 230.479L670.862 236.975L681.644 226.064L666.954 221.63L664.281 230.479ZM623.196 272.058L620.522 280.907L625.859 282.52L629.777 278.554L623.196 272.058ZM631.779 269.989L619.453 212.284L601.359 216.144L613.69 273.85L631.779 269.989ZM607.734 223.064L621.776 227.304L627.127 209.605L613.08 205.365L607.734 223.064ZM615.304 219.839L621.766 262.464L640.059 259.696L633.598 217.07L615.304 219.839ZM634.004 252.368L626.854 249.834L620.67 267.258L627.816 269.793L634.004 252.368ZM630.809 264.534L658.087 232.471L643.995 220.494L616.715 252.557L630.809 264.534ZM648.365 235.332L661.607 239.329L666.954 221.63L653.717 217.633L648.365 235.332ZM657.699 223.984L616.614 265.563L629.777 278.554L670.862 236.975L657.699 223.984ZM625.868 263.209L625.411 263.07L620.06 280.769L620.522 280.907L625.868 263.209Z" fill="black"/>
</g>
<path d="M681.764 296.436C677.407 294.593 673.832 292.035 671.038 288.765C668.277 285.421 666.63 281.504 666.094 277.014C665.557 272.524 666.418 267.624 668.67 262.311C670.89 257.074 673.864 253.026 677.601 250.17C681.412 247.345 685.51 245.686 689.895 245.195C694.391 244.66 698.738 245.283 702.947 247.064C707.378 248.939 710.588 251.43 712.581 254.535C714.677 257.598 716.009 260.727 716.568 263.923L715.042 265.366L720.042 256.65L730.56 261.102L710.912 307.469L699.506 302.641L704.432 291.022L704.473 294.303C703.928 294.769 702.943 295.352 701.513 296.052C700.117 296.679 698.355 297.239 696.232 297.731C694.182 298.255 691.912 298.471 689.428 298.376C687.05 298.239 684.493 297.592 681.764 296.436ZM688.804 288.453C691.236 289.484 693.605 289.963 695.899 289.89C698.193 289.817 700.348 289.251 702.364 288.19C704.381 287.13 706.116 285.601 707.573 283.607L711.652 273.98C711.938 271.664 711.693 269.472 710.912 267.403C710.167 265.259 708.988 263.324 707.368 261.595C705.824 259.897 703.872 258.548 701.509 257.548C698.85 256.423 696.134 256.056 693.355 256.447C690.607 256.764 688.086 257.784 685.788 259.509C683.489 261.234 681.699 263.608 680.418 266.633C679.201 269.51 678.753 272.41 679.082 275.334C679.484 278.287 680.534 280.95 682.226 283.321C683.951 285.617 686.144 287.328 688.804 288.453Z" fill="#EE5253"/>
<mask id="mask12_307_11524" style="mask-type:luminance" maskUnits="userSpaceOnUse" x="644" y="222" width="104" height="104">
<path d="M747.5 222.035H644.434V325.036H747.5V222.035Z" fill="white"/>
<path d="M681.764 296.436C677.407 294.593 673.832 292.035 671.038 288.765C668.277 285.421 666.63 281.504 666.094 277.014C665.557 272.524 666.418 267.624 668.67 262.311C670.89 257.074 673.864 253.026 677.601 250.17C681.412 247.345 685.51 245.686 689.895 245.195C694.391 244.66 698.738 245.283 702.947 247.064C707.378 248.939 710.588 251.43 712.581 254.535C714.677 257.598 716.009 260.727 716.568 263.923L715.042 265.366L720.042 256.65L730.56 261.102L710.912 307.469L699.506 302.641L704.432 291.022L704.473 294.303C703.928 294.769 702.943 295.352 701.513 296.052C700.117 296.679 698.355 297.239 696.232 297.731C694.182 298.255 691.912 298.471 689.428 298.376C687.05 298.239 684.493 297.592 681.764 296.436ZM688.804 288.453C691.236 289.484 693.604 289.963 695.899 289.89C698.193 289.817 700.348 289.251 702.364 288.19C704.381 287.13 706.115 285.601 707.573 283.607L711.652 273.98C711.938 271.664 711.693 269.471 710.912 267.403C710.167 265.259 708.988 263.324 707.368 261.595C705.824 259.897 703.872 258.548 701.509 257.548C698.849 256.423 696.134 256.056 693.355 256.447C690.607 256.764 688.086 257.784 685.788 259.509C683.489 261.234 681.699 263.608 680.418 266.633C679.201 269.51 678.753 272.41 679.082 275.334C679.484 278.287 680.534 280.95 682.226 283.321C683.951 285.617 686.144 287.328 688.804 288.453Z" fill="black"/>
</mask>
<g mask="url(#mask12_307_11524)">
<path d="M671.038 288.766L663.905 294.649L663.952 294.709L664.002 294.767L671.038 288.766ZM677.6 250.171L672.087 242.747L672.032 242.788L671.981 242.828L677.6 250.171ZM689.894 245.195L690.93 254.382L690.991 254.375L689.894 245.195ZM712.581 254.535L704.792 259.525L704.866 259.641L704.945 259.755L712.581 254.535ZM716.567 263.923L722.922 270.638L726.539 267.222L725.679 262.325L716.567 263.923ZM715.041 265.366L707.016 260.768L721.401 272.081L715.041 265.366ZM720.041 256.65L723.649 248.137L716.096 244.94L712.016 252.052L720.041 256.65ZM730.559 261.102L739.078 264.707L742.686 256.195L734.171 252.589L730.559 261.102ZM710.911 307.469L707.304 315.981L715.818 319.587L719.426 311.074L710.911 307.469ZM699.505 302.642L690.986 299.037L687.378 307.549L695.898 311.154L699.505 302.642ZM704.431 291.022L713.677 290.894L695.912 287.417L704.431 291.022ZM704.473 294.304L710.481 301.335L713.783 298.517L713.723 294.176L704.473 294.304ZM701.512 296.053L705.301 304.487L705.444 304.422L705.587 304.352L701.512 296.053ZM696.231 297.732L694.14 288.727L694.039 288.751L693.937 288.776L696.231 297.732ZM689.427 298.376L688.895 307.605L688.988 307.61L689.075 307.615L689.427 298.376ZM707.572 283.608L715.046 289.053L715.675 288.193L716.092 287.213L707.572 283.608ZM711.651 273.98L720.171 277.585L720.675 276.394L720.832 275.108L711.651 273.98ZM710.911 267.403L702.174 270.441L702.211 270.546L702.253 270.652L710.911 267.403ZM707.368 261.595L700.523 267.813L700.565 267.862L700.611 267.91L707.368 261.595ZM693.354 256.447L694.417 265.63L694.529 265.618L694.644 265.601L693.354 256.447ZM679.081 275.334L669.89 276.365L669.899 276.473L669.918 276.579L679.081 275.334ZM682.226 283.321L674.7 288.695L674.765 288.784L674.83 288.872L682.226 283.321ZM685.37 287.924C682.203 286.583 679.844 284.838 678.077 282.764L664.002 294.767C667.819 299.234 672.61 302.602 678.156 304.949L685.37 287.924ZM678.174 282.881C676.592 280.965 675.612 278.73 675.279 275.921L656.908 278.108C657.643 284.279 659.965 289.878 663.905 294.649L678.174 282.881ZM675.279 275.921C674.978 273.412 675.394 270.148 677.184 265.917L660.15 258.706C657.439 265.099 656.135 271.637 656.908 278.108L675.279 275.921ZM677.184 265.917C678.91 261.845 681.005 259.21 683.22 257.512L671.981 242.828C666.727 246.844 662.865 252.302 660.15 258.706L677.184 265.917ZM683.114 257.594C685.713 255.667 688.285 254.679 690.93 254.382L688.863 236.008C682.734 236.696 677.11 239.024 672.087 242.747L683.114 257.594ZM690.991 254.375C693.867 254.032 696.601 254.416 699.339 255.577L706.554 238.552C700.879 236.15 694.912 235.289 688.803 236.015L690.991 254.375ZM699.339 255.577C702.568 256.943 704.07 258.4 704.792 259.525L720.365 249.546C717.104 244.459 712.187 240.936 706.554 238.552L699.339 255.577ZM704.945 259.755C706.406 261.886 707.155 263.798 707.456 265.52L725.679 262.325C724.86 257.656 722.951 253.31 720.212 249.314L704.945 259.755ZM710.208 257.208L708.682 258.65L721.401 272.081L722.922 270.638L710.208 257.208ZM723.066 269.963L728.066 261.247L712.016 252.052L707.016 260.768L723.066 269.963ZM716.434 265.162L726.951 269.615L734.171 252.589L723.649 248.137L716.434 265.162ZM722.044 257.497L702.392 303.864L719.426 311.074L739.078 264.707L722.044 257.497ZM714.519 298.957L703.113 294.129L695.898 311.154L707.304 315.981L714.519 298.957ZM708.02 306.247L712.946 294.628L695.912 287.417L690.986 299.037L708.02 306.247ZM695.18 291.15L695.227 294.432L713.723 294.176L713.677 290.894L695.18 291.15ZM698.469 287.273C698.645 287.125 698.752 287.049 698.761 287.046C698.77 287.038 698.728 287.067 698.622 287.132C698.395 287.265 698.016 287.471 697.438 287.753L705.587 304.352C707.077 303.621 708.983 302.614 710.481 301.335L698.469 287.273ZM697.724 287.618C697.049 287.922 695.902 288.317 694.14 288.727L698.321 306.737C700.805 306.16 703.182 305.436 705.301 304.487L697.724 287.618ZM693.937 288.776C692.887 289.045 691.527 289.206 689.778 289.139L689.075 307.615C692.299 307.737 695.472 307.468 698.525 306.688L693.937 288.776ZM689.959 289.147C688.863 289.083 687.355 288.764 685.37 287.924L678.156 304.949C681.634 306.421 685.232 307.394 688.895 307.605L689.959 289.147ZM685.195 296.966C688.673 298.439 692.369 299.251 696.189 299.131L695.601 280.651C694.838 280.675 693.798 280.53 692.41 279.941L685.195 296.966ZM696.189 299.131C699.876 299.013 703.404 298.089 706.674 296.371L698.057 280.01C697.29 280.413 696.508 280.622 695.601 280.651L696.189 299.131ZM706.674 296.371C710.041 294.599 712.83 292.092 715.046 289.053L700.097 278.163C699.403 279.113 698.719 279.661 698.057 280.01L706.674 296.371ZM716.092 287.213L720.171 277.585L703.136 270.375L699.052 280.002L716.092 287.213ZM720.832 275.108C721.29 271.398 720.906 267.697 719.574 264.154L702.253 270.652C702.475 271.248 702.586 271.932 702.47 272.852L720.832 275.108ZM719.648 264.366C718.46 260.951 716.586 257.91 714.125 255.281L700.611 267.91C701.388 268.738 701.873 269.569 702.174 270.441L719.648 264.366ZM714.213 255.377C711.665 252.579 708.566 250.496 705.116 249.036L697.9 266.061C699.177 266.601 699.977 267.216 700.523 267.813L714.213 255.377ZM705.116 249.036C700.963 247.278 696.555 246.662 692.068 247.293L694.644 265.601C695.713 265.451 696.74 265.57 697.9 266.061L705.116 249.036ZM692.294 247.264C687.85 247.776 683.789 249.448 680.232 252.117L691.342 266.901C692.382 266.121 693.368 265.752 694.417 265.63L692.294 247.264ZM680.232 252.117C676.454 254.954 673.725 258.72 671.902 263.028L688.936 270.239C689.677 268.496 690.528 267.513 691.342 266.901L680.232 252.117ZM671.902 263.028C670.103 267.273 669.372 271.765 669.89 276.365L688.276 274.303C688.137 273.056 688.299 271.748 688.936 270.239L671.902 263.028ZM669.918 276.579C670.515 280.986 672.11 285.072 674.7 288.695L689.755 277.947C688.956 276.829 688.451 275.59 688.247 274.088L669.918 276.579ZM674.83 288.872C677.541 292.478 681.042 295.208 685.195 296.966L692.41 279.941C691.25 279.449 690.366 278.757 689.626 277.77L674.83 288.872Z" fill="black"/>
</g>
<path d="M213.116 368.578C212.132 369.828 210.677 371.169 208.749 372.602C206.821 374.035 204.595 375.403 202.071 376.705C199.625 377.993 197.07 379.139 194.406 380.142C191.758 381.225 189.213 382.001 186.773 382.472C179.846 383.808 173.422 383.946 167.502 382.886C161.581 381.824 156.289 379.786 151.623 376.769C146.958 373.753 143.076 369.932 139.978 365.307C136.944 360.589 134.85 355.24 133.695 349.262C132.281 341.945 132.208 335.228 133.476 329.108C134.743 322.989 137.012 317.614 140.282 312.985C143.615 308.262 147.729 304.409 152.623 301.424C157.581 298.347 162.972 296.246 168.797 295.122C173.914 294.134 178.75 293.813 183.308 294.159C187.944 294.488 192.018 295.293 195.532 296.573L193.633 308.935C191.891 308.373 189.764 307.927 187.251 307.595C184.801 307.171 182.31 306.958 179.779 306.956C177.247 306.955 174.958 307.152 172.911 307.546C167.874 308.519 163.492 310.139 159.766 312.409C156.104 314.584 153.122 317.322 150.82 320.621C148.518 323.922 146.959 327.69 146.145 331.927C145.409 336.149 145.521 340.738 146.478 345.694C147.344 350.178 148.929 354.156 151.232 357.628C153.521 361.021 156.349 363.822 159.714 366.028C163.064 368.157 166.852 369.588 171.076 370.323C175.285 370.98 179.791 370.845 184.593 369.919C187.348 369.387 190.011 368.588 192.58 367.521C195.15 366.454 197.281 365.227 198.973 363.839L195.964 348.264L179.433 351.453L177.085 339.299L206.369 333.649L213.116 368.578Z" fill="white"/>
<path d="M251.687 370.004C245.876 370.693 240.768 370.17 236.363 368.434C231.949 366.618 228.391 363.854 225.689 360.14C222.978 356.347 221.315 351.865 220.7 346.694C220.114 341.761 220.818 337.16 222.813 332.888C224.878 328.529 227.879 324.904 231.815 322.017C235.83 319.12 240.425 317.365 245.599 316.75C252.287 315.956 258.052 317.249 262.894 320.627C267.815 323.997 271.448 329.092 273.793 335.913L234.746 354.83L231.029 348.009L262.239 332.444L259.916 334.293C258.668 331.94 256.899 329.972 254.612 328.387C252.315 326.724 249.376 326.105 245.794 326.53C242.928 326.87 240.425 327.894 238.287 329.599C236.219 331.217 234.654 333.339 233.594 335.966C232.604 338.503 232.303 341.404 232.69 344.665C233.088 348.007 234.114 350.87 235.77 353.256C237.497 355.552 239.639 357.274 242.197 358.422C244.835 359.562 247.667 359.951 250.692 359.593C252.841 359.337 254.824 358.699 256.64 357.676C258.536 356.644 260.288 355.428 261.898 354.027L268.589 362.43C266.16 364.413 263.455 366.105 260.474 367.508C257.562 368.822 254.632 369.653 251.687 370.004Z" fill="white"/>
<path d="M282.35 337.206C282.09 332.165 283.057 327.583 285.252 323.458C287.443 319.254 290.601 315.882 294.724 313.343C298.848 310.803 303.632 309.393 309.076 309.112C314.6 308.827 319.504 309.737 323.787 311.842C328.07 313.948 331.438 316.983 333.891 320.948C336.42 324.829 337.814 329.289 338.074 334.33C338.335 339.371 337.41 343.991 335.299 348.192C333.268 352.389 330.233 355.794 326.194 358.409C322.151 360.944 317.327 362.357 311.722 362.646C306.358 362.923 301.498 362.091 297.143 360.15C292.869 358.204 289.387 355.296 286.698 351.423C284.085 347.467 282.636 342.727 282.35 337.206ZM294.847 336.682C295.008 339.802 295.835 342.608 297.329 345.098C298.818 347.508 300.763 349.413 303.164 350.814C305.56 352.134 308.199 352.72 311.081 352.571C314.044 352.418 316.648 351.562 318.895 350.002C321.139 348.361 322.837 346.268 323.989 343.721C325.219 341.091 325.752 338.215 325.591 335.095C325.43 331.975 324.604 329.209 323.115 326.799C321.706 324.384 319.801 322.477 317.401 321.077C315 319.676 312.319 319.053 309.357 319.206C306.394 319.359 303.791 320.255 301.549 321.896C299.305 323.536 297.569 325.671 296.34 328.301C295.188 330.848 294.69 333.641 294.847 336.682Z" fill="white"/>
<path d="M371.447 382.784C367.519 382.743 364.116 382.266 361.24 381.354C358.363 380.443 355.771 379.173 353.463 377.547C351.235 376 349.088 374.335 347.022 372.55L354.447 364.096C356.908 366.445 359.454 368.316 362.085 369.705C364.715 371.175 367.794 371.929 371.321 371.966C374.848 372.004 377.861 371.435 380.359 370.259C382.936 369.165 384.917 367.583 386.302 365.514C387.687 363.446 388.394 360.97 388.425 358.086L388.684 344.988L389.5 347.401C388.103 350.671 385.548 353.449 381.836 355.732C378.124 357.936 373.582 359.011 368.212 358.953C363.642 358.906 359.406 357.698 355.503 355.334C351.679 352.969 348.626 349.773 346.344 345.742C344.062 341.712 342.947 337.173 343.001 332.126C343.056 326.839 344.308 322.205 346.755 318.224C349.284 314.165 352.564 310.995 356.598 308.714C360.631 306.352 364.932 305.197 369.502 305.244C373.992 305.292 377.99 306.216 381.499 308.016C385.009 309.735 387.632 311.886 389.368 314.469L388.625 316.504L390.042 307.625L401.465 307.746L400.929 358.338C400.88 362.985 399.593 367.137 397.069 370.797C394.625 374.536 391.226 377.465 386.875 379.583C382.521 381.78 377.379 382.847 371.447 382.784ZM355.51 331.897C355.477 335.022 356.168 337.874 357.584 340.453C359 343.032 360.943 345.095 363.411 346.644C365.961 348.113 368.8 348.864 371.926 348.898C374.732 348.927 377.262 348.473 379.517 347.536C381.773 346.518 383.671 345.175 385.212 343.51C386.834 341.764 388.018 339.733 388.764 337.418L388.875 326.963C388.178 324.631 387.037 322.656 385.45 321.037C383.864 319.338 381.954 317.996 379.72 317.01C377.486 316.025 375.006 315.519 372.28 315.489C369.154 315.456 366.3 316.148 363.719 317.562C361.22 318.898 359.236 320.8 357.767 323.269C356.297 325.736 355.545 328.613 355.51 331.897Z" fill="white"/>
<path d="M432.239 307.878L432.708 322.342L432.205 320.391C433.721 317.42 435.775 314.916 438.367 312.882C440.958 310.848 443.604 309.338 446.304 308.352C449.086 307.289 451.399 306.805 453.241 306.899L452.018 319.11C448.187 318.675 444.787 319.225 441.82 320.759C438.931 322.297 436.616 324.425 434.872 327.145C433.128 329.864 432.176 332.824 432.012 336.025L430.884 358.229L418.634 357.607L421.19 307.318L432.239 307.878Z" fill="white"/>
<path d="M479.586 361.107C474.888 360.552 470.742 359.095 467.146 356.733C463.559 354.293 460.882 350.992 459.114 346.83C457.345 342.668 456.799 337.723 457.477 331.994C458.145 326.345 459.873 321.628 462.661 317.843C465.53 314.067 469.002 311.33 473.078 309.633C477.242 307.866 481.593 307.25 486.132 307.786C490.908 308.351 494.687 309.845 497.468 312.271C500.338 314.627 502.489 317.261 503.921 320.173L502.859 321.984L505.224 312.219L516.57 313.558L510.657 363.566L498.357 362.112L499.838 349.581L500.8 352.721C500.405 353.319 499.621 354.154 498.445 355.226C497.278 356.217 495.744 357.246 493.841 358.312C492.019 359.387 489.901 360.227 487.489 360.829C485.166 361.362 482.531 361.454 479.586 361.107ZM484.115 351.477C486.742 351.786 489.147 351.587 491.33 350.876C493.513 350.166 495.424 349.02 497.064 347.438C498.704 345.857 499.945 343.906 500.784 341.585L502.011 331.202C501.638 328.899 500.789 326.862 499.464 325.092C498.149 323.243 496.473 321.714 494.436 320.506C492.479 319.306 490.227 318.556 487.678 318.255C484.812 317.916 482.1 318.322 479.543 319.473C476.994 320.544 474.858 322.228 473.133 324.525C471.409 326.822 470.353 329.602 469.968 332.864C469.601 335.967 469.984 338.876 471.116 341.591C472.327 344.316 474.078 346.58 476.367 348.383C478.666 350.106 481.249 351.138 484.115 351.477Z" fill="white"/>
<path d="M531.881 365.219L538.526 326.364L530.109 324.926L531.954 314.147L540.372 315.584L543.813 295.446C545.029 288.339 547.67 283.14 551.727 279.851C555.787 276.562 561.061 275.471 567.54 276.578C569.279 276.875 571.166 277.482 573.206 278.4C575.26 279.238 577.017 280.352 578.488 281.741L571.874 289.754C571.296 288.843 570.56 288.148 569.668 287.671C568.854 287.206 567.97 286.893 567.022 286.731C564.257 286.259 561.921 286.835 560.015 288.46C558.11 290.085 556.768 293.189 555.982 297.769L552.577 317.67L568.225 320.343L566.384 331.123L550.737 328.45L544.091 367.304L531.881 365.219Z" fill="white"/>
<path d="M584.076 322.675L596.198 325.206L585.898 374.497L573.771 371.965L584.076 322.675ZM587.059 304.881C587.452 302.999 588.525 301.586 590.278 300.642C592.031 299.699 593.77 299.408 595.5 299.768C597.303 300.145 598.779 301.108 599.931 302.658C601.082 304.208 601.462 305.923 601.064 307.806C600.67 309.688 599.639 311.109 597.965 312.069C596.305 312.95 594.575 313.203 592.767 312.826C591.041 312.465 589.557 311.542 588.312 310.054C587.082 308.487 586.666 306.763 587.059 304.881Z" fill="white"/>
<path d="M599.44 401.745L594.348 392.509C597.003 391.201 599.292 389.346 601.23 386.946C603.15 384.623 604.569 381.638 605.503 377.988L617.899 329.43L630.017 332.519L617.501 381.544C616.077 387.133 613.908 391.582 610.993 394.891C608.159 398.22 604.306 400.505 599.44 401.745ZM621.539 311.755C622.016 309.892 623.153 308.527 624.943 307.661C626.738 306.795 628.486 306.58 630.198 307.016C631.983 307.471 633.417 308.498 634.499 310.097C635.581 311.696 635.882 313.426 635.405 315.29C634.934 317.153 633.838 318.527 632.121 319.412C630.424 320.221 628.685 320.397 626.9 319.941C625.188 319.506 623.745 318.518 622.566 316.977C621.405 315.359 621.068 313.617 621.539 311.755Z" fill="white"/>
<path d="M644.058 387.18C639.655 385.446 636.02 382.98 633.143 379.78C630.298 376.506 628.554 372.631 627.907 368.156C627.259 363.681 627.995 358.76 630.113 353.394C632.199 348.102 635.076 343.981 638.739 341.033C642.476 338.113 646.528 336.353 650.904 335.751C655.381 335.104 659.746 335.618 663.998 337.293C668.475 339.056 671.744 341.465 673.812 344.52C675.985 347.529 677.396 350.625 678.035 353.806L676.545 355.285L681.328 346.446L691.956 350.634L673.474 397.479L661.948 392.939L666.582 381.2L666.708 384.48C666.175 384.958 665.205 385.565 663.794 386.302C662.411 386.962 660.667 387.566 658.553 388.113C656.518 388.688 654.256 388.959 651.768 388.927C649.386 388.849 646.814 388.267 644.058 387.18ZM650.894 379.023C653.355 379.993 655.732 380.413 658.022 380.282C660.315 380.152 662.457 379.531 664.446 378.42C666.434 377.31 668.132 375.739 669.538 373.709L673.373 363.983C673.599 361.66 673.299 359.475 672.471 357.426C671.67 355.301 670.44 353.396 668.779 351.709C667.193 350.05 665.209 348.75 662.823 347.809C660.135 346.752 657.411 346.453 654.645 346.913C651.907 347.298 649.409 348.382 647.156 350.163C644.905 351.944 643.174 354.364 641.967 357.42C640.82 360.326 640.446 363.237 640.848 366.151C641.324 369.094 642.44 371.729 644.192 374.057C645.972 376.309 648.207 377.964 650.894 379.023Z" fill="white"/>
</g>
</g>
</g>
</g>
<defs>
<clipPath id="clip0_307_11524">
<rect width="822" height="416" fill="white"/>
</clipPath>
</defs>
</svg>
